<?xml version="1.0" encoding="utf-8"?>
<svg version="1.1" id="Layer_1"
xmlns="http://www.w3.org/2000/svg"
xmlns:xlink="http://www.w3.org/1999/xlink"
width="310px" height="140px"
xml:space="preserve">
<g id="PathID_983" transform="matrix(1, 0, 0, 1, 2.5, -15.5)">
<path style="fill:#66CC99;fill-opacity:1" d="M305 28L305 143Q305 153 295 153L10 153Q0 153 0 143L0 28Q0 18 10 18L295 18Q305 18 305 28" />
<path style="fill:none;stroke-width:5;stroke-linecap:round;stroke-linejoin:round;stroke-miterlimit:3;stroke:#336600;stroke-opacity:1" d="M295 18L10 18Q0 18 0 28" />
<path style="fill:none;stroke-width:5;stroke-linecap:round;stroke-linejoin:round;stroke-miterlimit:3;stroke:#336600;stroke-opacity:1" d="M0 28L0 143Q0 153 10 153" />
<path style="fill:none;stroke-width:5;stroke-linecap:round;stroke-linejoin:round;stroke-miterlimit:3;stroke:#336600;stroke-opacity:1" d="M10 153L295 153Q305 153 305 143" />
<path style="fill:none;stroke-width:5;stroke-linecap:round;stroke-linejoin:round;stroke-miterlimit:3;stroke:#336600;stroke-opacity:1" d="M305 143L305 28Q305 18 295 18" />
</g>
</svg>
