<?xml version="1.0" encoding="utf-8"?>
<svg version="1.1" id="Layer_1"
xmlns="http://www.w3.org/2000/svg"
xmlns:xlink="http://www.w3.org/1999/xlink"
width="259px" height="259px"
xml:space="preserve">
<g id="PathID_693" transform="matrix(1, 0, 0, 1, 0, 0)">
<linearGradient
id="LinearGradID_337" gradientUnits="userSpaceOnUse" gradientTransform="matrix(0.10643, -0.115875, 0.115875, 0.10643, 129.1, 129.1)" spreadMethod ="pad" x1="-819.2" y1="0" x2="819.2" y2="0" >
<stop  offset="0" style="stop-color:#394F70;stop-opacity:1" />
<stop  offset="0.188235" style="stop-color:#3B5984;stop-opacity:1" />
<stop  offset="0.890196" style="stop-color:#3C9BCB;stop-opacity:1" />
<stop  offset="1" style="stop-color:#56C1DF;stop-opacity:1" />
</linearGradient>
<path style="fill:url(#LinearGradID_337) " d="M223.25 100Q223.25 73.05 204.2 54Q185.2 35 158.25 35Q131.35 35 112.3 54Q93.25 73.05 93.25 100Q93.25 126.9 112.3 145.95Q131.35 165 158.25 165Q185.2 165 204.2 145.95Q223.25 126.9 223.25 100M258.25 100Q258.25 141.45 229 170.7Q199.7 200 158.3 200Q127.2 200 102.95 183.5L34.1 252.35Q28.2 258.25 20 258.25Q11.7 258.25 5.85 252.4Q-0.05 246.5 0 238.25Q-0.05 230 5.85 224.1L74.7 155.25Q58.3 131.05 58.3 100Q58.3 58.55 87.55 29.3Q116.85 0 158.3 0Q199.7 0 229 29.3Q258.25 58.55 258.25 100" />
</g>
</svg>
