<?xml version="1.0" encoding="utf-8"?>
<svg version="1.1" id="Layer_1"
xmlns="http://www.w3.org/2000/svg"
xmlns:xlink="http://www.w3.org/1999/xlink"
width="842px" height="381px"
xml:space="preserve">
<g id="PathID_1010" transform="matrix(1, 0, 0, 1, -58.5, -149.5)">
<path style="fill:none;stroke-width:1;stroke-linecap:round;stroke-linejoin:round;stroke-miterlimit:3;stroke:#000000;stroke-opacity:1" d="M60 150L59 530" />
</g>
<g id="PathID_1011" transform="matrix(1, 0, 0, 1, -58.5, -149.5)">
<path style="fill:none;stroke-width:1;stroke-linecap:round;stroke-linejoin:round;stroke-miterlimit:3;stroke:#000000;stroke-opacity:1" d="M448 150L447 530" />
</g>
<g id="PathID_1012" transform="matrix(1, 0, 0, 1, -58.5, -149.5)">
<path style="fill:none;stroke-width:1;stroke-linecap:round;stroke-linejoin:round;stroke-miterlimit:3;stroke:#000000;stroke-opacity:1" d="M561 150L560 530" />
</g>
<g id="PathID_1013" transform="matrix(1, 0, 0, 1, -58.5, -149.5)">
<path style="fill:none;stroke-width:1;stroke-linecap:round;stroke-linejoin:round;stroke-miterlimit:3;stroke:#000000;stroke-opacity:1" d="M674 150L673 530" />
</g>
<g id="PathID_1014" transform="matrix(1, 0, 0, 1, -58.5, -149.5)">
<path style="fill:none;stroke-width:1;stroke-linecap:round;stroke-linejoin:round;stroke-miterlimit:3;stroke:#000000;stroke-opacity:1" d="M787 150L786 530" />
</g>
<g id="PathID_1015" transform="matrix(1, 0, 0, 1, -58.5, -149.5)">
<path style="fill:none;stroke-width:1;stroke-linecap:round;stroke-linejoin:round;stroke-miterlimit:3;stroke:#000000;stroke-opacity:1" d="M900 150L899 530" />
</g>
</svg>
