<?xml version="1.0" encoding="utf-8"?>
<svg version="1.1" id="Layer_1"
xmlns="http://www.w3.org/2000/svg"
xmlns:xlink="http://www.w3.org/1999/xlink"
width="550px" height="465px"
xml:space="preserve">
<g id="PathID_1266" transform="matrix(1, 0, 0, 1, -243.5, -4.5)">
<path style="fill:#FFFFFF;fill-opacity:0.498039" d="M298 5L298 81.5L244 81.5L244 5L298 5" />
<path style="fill:none;stroke-width:1;stroke-linecap:round;stroke-linejoin:round;stroke-miterlimit:3;stroke:#0000FF;stroke-opacity:1" d="M298 5L298 81.5L244 81.5L244 5L298 5z" />
</g>
<g id="PathID_1267" transform="matrix(1, 0, 0, 1, -243.5, -4.5)">
<path style="fill:#FFFFFF;fill-opacity:0.498039" d="M353 5L353 81.5L299 81.5L299 5L353 5" />
<path style="fill:none;stroke-width:1;stroke-linecap:round;stroke-linejoin:round;stroke-miterlimit:3;stroke:#0000FF;stroke-opacity:1" d="M353 5L353 81.5L299 81.5L299 5L353 5z" />
</g>
<g id="PathID_1268" transform="matrix(1, 0, 0, 1, -243.5, -4.5)">
<path style="fill:#FFFFFF;fill-opacity:0.498039" d="M408 5L408 81.5L354 81.5L354 5L408 5" />
<path style="fill:none;stroke-width:1;stroke-linecap:round;stroke-linejoin:round;stroke-miterlimit:3;stroke:#0000FF;stroke-opacity:1" d="M408 5L408 81.5L354 81.5L354 5L408 5z" />
</g>
<g id="PathID_1269" transform="matrix(1, 0, 0, 1, -243.5, -4.5)">
<path style="fill:#FFFFFF;fill-opacity:0.498039" d="M463 5L463 81.5L409 81.5L409 5L463 5" />
<path style="fill:none;stroke-width:1;stroke-linecap:round;stroke-linejoin:round;stroke-miterlimit:3;stroke:#0000FF;stroke-opacity:1" d="M463 5L463 81.5L409 81.5L409 5L463 5z" />
</g>
<g id="PathID_1270" transform="matrix(1, 0, 0, 1, -243.5, -4.5)">
<path style="fill:#FFFFFF;fill-opacity:0.498039" d="M518 5L518 81.5L464 81.5L464 5L518 5" />
<path style="fill:none;stroke-width:1;stroke-linecap:round;stroke-linejoin:round;stroke-miterlimit:3;stroke:#0000FF;stroke-opacity:1" d="M518 5L518 81.5L464 81.5L464 5L518 5z" />
</g>
<g id="PathID_1271" transform="matrix(1, 0, 0, 1, -243.5, -4.5)">
<path style="fill:#FFFFFF;fill-opacity:0.498039" d="M573 5L573 81.5L519 81.5L519 5L573 5" />
<path style="fill:none;stroke-width:1;stroke-linecap:round;stroke-linejoin:round;stroke-miterlimit:3;stroke:#0000FF;stroke-opacity:1" d="M573 5L573 81.5L519 81.5L519 5L573 5z" />
</g>
<g id="PathID_1272" transform="matrix(1, 0, 0, 1, -243.5, -4.5)">
<path style="fill:#FFFFFF;fill-opacity:0.498039" d="M628 5L628 81.5L574 81.5L574 5L628 5" />
<path style="fill:none;stroke-width:1;stroke-linecap:round;stroke-linejoin:round;stroke-miterlimit:3;stroke:#0000FF;stroke-opacity:1" d="M628 5L628 81.5L574 81.5L574 5L628 5z" />
</g>
<g id="PathID_1273" transform="matrix(1, 0, 0, 1, -243.5, -4.5)">
<path style="fill:#FFFFFF;fill-opacity:0.498039" d="M683 5L683 81.5L629 81.5L629 5L683 5" />
<path style="fill:none;stroke-width:1;stroke-linecap:round;stroke-linejoin:round;stroke-miterlimit:3;stroke:#0000FF;stroke-opacity:1" d="M683 5L683 81.5L629 81.5L629 5L683 5z" />
</g>
<g id="PathID_1274" transform="matrix(1, 0, 0, 1, -243.5, -4.5)">
<path style="fill:#FFFFFF;fill-opacity:0.498039" d="M738 5L738 81.5L684 81.5L684 5L738 5" />
<path style="fill:none;stroke-width:1;stroke-linecap:round;stroke-linejoin:round;stroke-miterlimit:3;stroke:#0000FF;stroke-opacity:1" d="M738 5L738 81.5L684 81.5L684 5L738 5z" />
</g>
<g id="PathID_1275" transform="matrix(1, 0, 0, 1, -243.5, -4.5)">
<path style="fill:#FFFFFF;fill-opacity:0.498039" d="M793 5L793 81.5L739 81.5L739 5L793 5" />
<path style="fill:none;stroke-width:1;stroke-linecap:round;stroke-linejoin:round;stroke-miterlimit:3;stroke:#0000FF;stroke-opacity:1" d="M793 5L793 81.5L739 81.5L739 5L793 5z" />
</g>
<g id="PathID_1276" transform="matrix(1, 0, 0, 1, -243.5, -4.5)">
<path style="fill:#FFFFFF;fill-opacity:0.498039" d="M298 82.5L298 159L244 159L244 82.5L298 82.5" />
<path style="fill:none;stroke-width:1;stroke-linecap:round;stroke-linejoin:round;stroke-miterlimit:3;stroke:#0000FF;stroke-opacity:1" d="M298 82.5L298 159L244 159L244 82.5L298 82.5z" />
</g>
<g id="PathID_1277" transform="matrix(1, 0, 0, 1, -243.5, -4.5)">
<path style="fill:#FFFFFF;fill-opacity:0.498039" d="M353 82.5L353 159L299 159L299 82.5L353 82.5" />
<path style="fill:none;stroke-width:1;stroke-linecap:round;stroke-linejoin:round;stroke-miterlimit:3;stroke:#0000FF;stroke-opacity:1" d="M353 82.5L353 159L299 159L299 82.5L353 82.5z" />
</g>
<g id="PathID_1278" transform="matrix(1, 0, 0, 1, -243.5, -4.5)">
<path style="fill:#FFFFFF;fill-opacity:0.498039" d="M408 82.5L408 159L354 159L354 82.5L408 82.5" />
<path style="fill:none;stroke-width:1;stroke-linecap:round;stroke-linejoin:round;stroke-miterlimit:3;stroke:#0000FF;stroke-opacity:1" d="M408 82.5L408 159L354 159L354 82.5L408 82.5z" />
</g>
<g id="PathID_1279" transform="matrix(1, 0, 0, 1, -243.5, -4.5)">
<path style="fill:#FFFFFF;fill-opacity:0.498039" d="M463 82.5L463 159L409 159L409 82.5L463 82.5" />
<path style="fill:none;stroke-width:1;stroke-linecap:round;stroke-linejoin:round;stroke-miterlimit:3;stroke:#0000FF;stroke-opacity:1" d="M463 82.5L463 159L409 159L409 82.5L463 82.5z" />
</g>
<g id="PathID_1280" transform="matrix(1, 0, 0, 1, -243.5, -4.5)">
<path style="fill:#FFFFFF;fill-opacity:0.498039" d="M518 82.5L518 159L464 159L464 82.5L518 82.5" />
<path style="fill:none;stroke-width:1;stroke-linecap:round;stroke-linejoin:round;stroke-miterlimit:3;stroke:#0000FF;stroke-opacity:1" d="M518 82.5L518 159L464 159L464 82.5L518 82.5z" />
</g>
<g id="PathID_1281" transform="matrix(1, 0, 0, 1, -243.5, -4.5)">
<path style="fill:#FFFFFF;fill-opacity:0.498039" d="M573 82.5L573 159L519 159L519 82.5L573 82.5" />
<path style="fill:none;stroke-width:1;stroke-linecap:round;stroke-linejoin:round;stroke-miterlimit:3;stroke:#0000FF;stroke-opacity:1" d="M573 82.5L573 159L519 159L519 82.5L573 82.5z" />
</g>
<g id="PathID_1282" transform="matrix(1, 0, 0, 1, -243.5, -4.5)">
<path style="fill:#FFFFFF;fill-opacity:0.498039" d="M628 82.5L628 159L574 159L574 82.5L628 82.5" />
<path style="fill:none;stroke-width:1;stroke-linecap:round;stroke-linejoin:round;stroke-miterlimit:3;stroke:#0000FF;stroke-opacity:1" d="M628 82.5L628 159L574 159L574 82.5L628 82.5z" />
</g>
<g id="PathID_1283" transform="matrix(1, 0, 0, 1, -243.5, -4.5)">
<path style="fill:#FFFFFF;fill-opacity:0.498039" d="M683 82.5L683 159L629 159L629 82.5L683 82.5" />
<path style="fill:none;stroke-width:1;stroke-linecap:round;stroke-linejoin:round;stroke-miterlimit:3;stroke:#0000FF;stroke-opacity:1" d="M683 82.5L683 159L629 159L629 82.5L683 82.5z" />
</g>
<g id="PathID_1284" transform="matrix(1, 0, 0, 1, -243.5, -4.5)">
<path style="fill:#FFFFFF;fill-opacity:0.498039" d="M738 82.5L738 159L684 159L684 82.5L738 82.5" />
<path style="fill:none;stroke-width:1;stroke-linecap:round;stroke-linejoin:round;stroke-miterlimit:3;stroke:#0000FF;stroke-opacity:1" d="M738 82.5L738 159L684 159L684 82.5L738 82.5z" />
</g>
<g id="PathID_1285" transform="matrix(1, 0, 0, 1, -243.5, -4.5)">
<path style="fill:#FFFFFF;fill-opacity:0.498039" d="M793 82.5L793 159L739 159L739 82.5L793 82.5" />
<path style="fill:none;stroke-width:1;stroke-linecap:round;stroke-linejoin:round;stroke-miterlimit:3;stroke:#0000FF;stroke-opacity:1" d="M793 82.5L793 159L739 159L739 82.5L793 82.5z" />
</g>
<g id="PathID_1286" transform="matrix(1, 0, 0, 1, -243.5, -4.5)">
<path style="fill:#FFFFFF;fill-opacity:0.498039" d="M298 160L298 236.5L244 236.5L244 160L298 160" />
<path style="fill:none;stroke-width:1;stroke-linecap:round;stroke-linejoin:round;stroke-miterlimit:3;stroke:#0000FF;stroke-opacity:1" d="M298 160L298 236.5L244 236.5L244 160L298 160z" />
</g>
<g id="PathID_1287" transform="matrix(1, 0, 0, 1, -243.5, -4.5)">
<path style="fill:#FFFFFF;fill-opacity:0.498039" d="M353 160L353 236.5L299 236.5L299 160L353 160" />
<path style="fill:none;stroke-width:1;stroke-linecap:round;stroke-linejoin:round;stroke-miterlimit:3;stroke:#0000FF;stroke-opacity:1" d="M353 160L353 236.5L299 236.5L299 160L353 160z" />
</g>
<g id="PathID_1288" transform="matrix(1, 0, 0, 1, -243.5, -4.5)">
<path style="fill:#FFFFFF;fill-opacity:0.498039" d="M408 160L408 236.5L354 236.5L354 160L408 160" />
<path style="fill:none;stroke-width:1;stroke-linecap:round;stroke-linejoin:round;stroke-miterlimit:3;stroke:#0000FF;stroke-opacity:1" d="M408 160L408 236.5L354 236.5L354 160L408 160z" />
</g>
<g id="PathID_1289" transform="matrix(1, 0, 0, 1, -243.5, -4.5)">
<path style="fill:#FFFFFF;fill-opacity:0.498039" d="M463 160L463 236.5L409 236.5L409 160L463 160" />
<path style="fill:none;stroke-width:1;stroke-linecap:round;stroke-linejoin:round;stroke-miterlimit:3;stroke:#0000FF;stroke-opacity:1" d="M463 160L463 236.5L409 236.5L409 160L463 160z" />
</g>
<g id="PathID_1290" transform="matrix(1, 0, 0, 1, -243.5, -4.5)">
<path style="fill:#FFFFFF;fill-opacity:0.498039" d="M518 160L518 236.5L464 236.5L464 160L518 160" />
<path style="fill:none;stroke-width:1;stroke-linecap:round;stroke-linejoin:round;stroke-miterlimit:3;stroke:#0000FF;stroke-opacity:1" d="M518 160L518 236.5L464 236.5L464 160L518 160z" />
</g>
<g id="PathID_1291" transform="matrix(1, 0, 0, 1, -243.5, -4.5)">
<path style="fill:#FFFFFF;fill-opacity:0.498039" d="M573 160L573 236.5L519 236.5L519 160L573 160" />
<path style="fill:none;stroke-width:1;stroke-linecap:round;stroke-linejoin:round;stroke-miterlimit:3;stroke:#0000FF;stroke-opacity:1" d="M573 160L573 236.5L519 236.5L519 160L573 160z" />
</g>
<g id="PathID_1292" transform="matrix(1, 0, 0, 1, -243.5, -4.5)">
<path style="fill:#FFFFFF;fill-opacity:0.498039" d="M628 160L628 236.5L574 236.5L574 160L628 160" />
<path style="fill:none;stroke-width:1;stroke-linecap:round;stroke-linejoin:round;stroke-miterlimit:3;stroke:#0000FF;stroke-opacity:1" d="M628 160L628 236.5L574 236.5L574 160L628 160z" />
</g>
<g id="PathID_1293" transform="matrix(1, 0, 0, 1, -243.5, -4.5)">
<path style="fill:#FFFFFF;fill-opacity:0.498039" d="M683 160L683 236.5L629 236.5L629 160L683 160" />
<path style="fill:none;stroke-width:1;stroke-linecap:round;stroke-linejoin:round;stroke-miterlimit:3;stroke:#0000FF;stroke-opacity:1" d="M683 160L683 236.5L629 236.5L629 160L683 160z" />
</g>
<g id="PathID_1294" transform="matrix(1, 0, 0, 1, -243.5, -4.5)">
<path style="fill:#FFFFFF;fill-opacity:0.498039" d="M738 160L738 236.5L684 236.5L684 160L738 160" />
<path style="fill:none;stroke-width:1;stroke-linecap:round;stroke-linejoin:round;stroke-miterlimit:3;stroke:#0000FF;stroke-opacity:1" d="M738 160L738 236.5L684 236.5L684 160L738 160z" />
</g>
<g id="PathID_1295" transform="matrix(1, 0, 0, 1, -243.5, -4.5)">
<path style="fill:#FFFFFF;fill-opacity:0.498039" d="M793 160L793 236.5L739 236.5L739 160L793 160" />
<path style="fill:none;stroke-width:1;stroke-linecap:round;stroke-linejoin:round;stroke-miterlimit:3;stroke:#0000FF;stroke-opacity:1" d="M793 160L793 236.5L739 236.5L739 160L793 160z" />
</g>
<g id="PathID_1296" transform="matrix(1, 0, 0, 1, -243.5, -4.5)">
<path style="fill:#FFFFFF;fill-opacity:0.498039" d="M298 237.5L298 314L244 314L244 237.5L298 237.5" />
<path style="fill:none;stroke-width:1;stroke-linecap:round;stroke-linejoin:round;stroke-miterlimit:3;stroke:#0000FF;stroke-opacity:1" d="M298 237.5L298 314L244 314L244 237.5L298 237.5z" />
</g>
<g id="PathID_1297" transform="matrix(1, 0, 0, 1, -243.5, -4.5)">
<path style="fill:#FFFFFF;fill-opacity:0.498039" d="M353 237.5L353 314L299 314L299 237.5L353 237.5" />
<path style="fill:none;stroke-width:1;stroke-linecap:round;stroke-linejoin:round;stroke-miterlimit:3;stroke:#0000FF;stroke-opacity:1" d="M353 237.5L353 314L299 314L299 237.5L353 237.5z" />
</g>
<g id="PathID_1298" transform="matrix(1, 0, 0, 1, -243.5, -4.5)">
<path style="fill:#FFFFFF;fill-opacity:0.498039" d="M408 237.5L408 314L354 314L354 237.5L408 237.5" />
<path style="fill:none;stroke-width:1;stroke-linecap:round;stroke-linejoin:round;stroke-miterlimit:3;stroke:#0000FF;stroke-opacity:1" d="M408 237.5L408 314L354 314L354 237.5L408 237.5z" />
</g>
<g id="PathID_1299" transform="matrix(1, 0, 0, 1, -243.5, -4.5)">
<path style="fill:#FFFFFF;fill-opacity:0.498039" d="M463 237.5L463 314L409 314L409 237.5L463 237.5" />
<path style="fill:none;stroke-width:1;stroke-linecap:round;stroke-linejoin:round;stroke-miterlimit:3;stroke:#0000FF;stroke-opacity:1" d="M463 237.5L463 314L409 314L409 237.5L463 237.5z" />
</g>
<g id="PathID_1300" transform="matrix(1, 0, 0, 1, -243.5, -4.5)">
<path style="fill:#FFFFFF;fill-opacity:0.498039" d="M518 237.5L518 314L464 314L464 237.5L518 237.5" />
<path style="fill:none;stroke-width:1;stroke-linecap:round;stroke-linejoin:round;stroke-miterlimit:3;stroke:#0000FF;stroke-opacity:1" d="M518 237.5L518 314L464 314L464 237.5L518 237.5z" />
</g>
<g id="PathID_1301" transform="matrix(1, 0, 0, 1, -243.5, -4.5)">
<path style="fill:#FFFFFF;fill-opacity:0.498039" d="M573 237.5L573 314L519 314L519 237.5L573 237.5" />
<path style="fill:none;stroke-width:1;stroke-linecap:round;stroke-linejoin:round;stroke-miterlimit:3;stroke:#0000FF;stroke-opacity:1" d="M573 237.5L573 314L519 314L519 237.5L573 237.5z" />
</g>
<g id="PathID_1302" transform="matrix(1, 0, 0, 1, -243.5, -4.5)">
<path style="fill:#FFFFFF;fill-opacity:0.498039" d="M628 237.5L628 314L574 314L574 237.5L628 237.5" />
<path style="fill:none;stroke-width:1;stroke-linecap:round;stroke-linejoin:round;stroke-miterlimit:3;stroke:#0000FF;stroke-opacity:1" d="M628 237.5L628 314L574 314L574 237.5L628 237.5z" />
</g>
<g id="PathID_1303" transform="matrix(1, 0, 0, 1, -243.5, -4.5)">
<path style="fill:#FFFFFF;fill-opacity:0.498039" d="M683 237.5L683 314L629 314L629 237.5L683 237.5" />
<path style="fill:none;stroke-width:1;stroke-linecap:round;stroke-linejoin:round;stroke-miterlimit:3;stroke:#0000FF;stroke-opacity:1" d="M683 237.5L683 314L629 314L629 237.5L683 237.5z" />
</g>
<g id="PathID_1304" transform="matrix(1, 0, 0, 1, -243.5, -4.5)">
<path style="fill:#FFFFFF;fill-opacity:0.498039" d="M738 237.5L738 314L684 314L684 237.5L738 237.5" />
<path style="fill:none;stroke-width:1;stroke-linecap:round;stroke-linejoin:round;stroke-miterlimit:3;stroke:#0000FF;stroke-opacity:1" d="M738 237.5L738 314L684 314L684 237.5L738 237.5z" />
</g>
<g id="PathID_1305" transform="matrix(1, 0, 0, 1, -243.5, -4.5)">
<path style="fill:#FFFFFF;fill-opacity:0.498039" d="M793 237.5L793 314L739 314L739 237.5L793 237.5" />
<path style="fill:none;stroke-width:1;stroke-linecap:round;stroke-linejoin:round;stroke-miterlimit:3;stroke:#0000FF;stroke-opacity:1" d="M793 237.5L793 314L739 314L739 237.5L793 237.5z" />
</g>
<g id="PathID_1306" transform="matrix(1, 0, 0, 1, -243.5, -4.5)">
<path style="fill:#FFFFFF;fill-opacity:0.498039" d="M298 315L298 391.5L244 391.5L244 315L298 315" />
<path style="fill:none;stroke-width:1;stroke-linecap:round;stroke-linejoin:round;stroke-miterlimit:3;stroke:#0000FF;stroke-opacity:1" d="M298 315L298 391.5L244 391.5L244 315L298 315z" />
</g>
<g id="PathID_1307" transform="matrix(1, 0, 0, 1, -243.5, -4.5)">
<path style="fill:#FFFFFF;fill-opacity:0.498039" d="M353 315L353 391.5L299 391.5L299 315L353 315" />
<path style="fill:none;stroke-width:1;stroke-linecap:round;stroke-linejoin:round;stroke-miterlimit:3;stroke:#0000FF;stroke-opacity:1" d="M353 315L353 391.5L299 391.5L299 315L353 315z" />
</g>
<g id="PathID_1308" transform="matrix(1, 0, 0, 1, -243.5, -4.5)">
<path style="fill:#FFFFFF;fill-opacity:0.498039" d="M408 315L408 391.5L354 391.5L354 315L408 315" />
<path style="fill:none;stroke-width:1;stroke-linecap:round;stroke-linejoin:round;stroke-miterlimit:3;stroke:#0000FF;stroke-opacity:1" d="M408 315L408 391.5L354 391.5L354 315L408 315z" />
</g>
<g id="PathID_1309" transform="matrix(1, 0, 0, 1, -243.5, -4.5)">
<path style="fill:#FFFFFF;fill-opacity:0.498039" d="M463 315L463 391.5L409 391.5L409 315L463 315" />
<path style="fill:none;stroke-width:1;stroke-linecap:round;stroke-linejoin:round;stroke-miterlimit:3;stroke:#0000FF;stroke-opacity:1" d="M463 315L463 391.5L409 391.5L409 315L463 315z" />
</g>
<g id="PathID_1310" transform="matrix(1, 0, 0, 1, -243.5, -4.5)">
<path style="fill:#FFFFFF;fill-opacity:0.498039" d="M518 315L518 391.5L464 391.5L464 315L518 315" />
<path style="fill:none;stroke-width:1;stroke-linecap:round;stroke-linejoin:round;stroke-miterlimit:3;stroke:#0000FF;stroke-opacity:1" d="M518 315L518 391.5L464 391.5L464 315L518 315z" />
</g>
<g id="PathID_1311" transform="matrix(1, 0, 0, 1, -243.5, -4.5)">
<path style="fill:#FFFFFF;fill-opacity:0.498039" d="M573 315L573 391.5L519 391.5L519 315L573 315" />
<path style="fill:none;stroke-width:1;stroke-linecap:round;stroke-linejoin:round;stroke-miterlimit:3;stroke:#0000FF;stroke-opacity:1" d="M573 315L573 391.5L519 391.5L519 315L573 315z" />
</g>
<g id="PathID_1312" transform="matrix(1, 0, 0, 1, -243.5, -4.5)">
<path style="fill:#FFFFFF;fill-opacity:0.498039" d="M628 315L628 391.5L574 391.5L574 315L628 315" />
<path style="fill:none;stroke-width:1;stroke-linecap:round;stroke-linejoin:round;stroke-miterlimit:3;stroke:#0000FF;stroke-opacity:1" d="M628 315L628 391.5L574 391.5L574 315L628 315z" />
</g>
<g id="PathID_1313" transform="matrix(1, 0, 0, 1, -243.5, -4.5)">
<path style="fill:#FFFFFF;fill-opacity:0.498039" d="M683 315L683 391.5L629 391.5L629 315L683 315" />
<path style="fill:none;stroke-width:1;stroke-linecap:round;stroke-linejoin:round;stroke-miterlimit:3;stroke:#0000FF;stroke-opacity:1" d="M683 315L683 391.5L629 391.5L629 315L683 315z" />
</g>
<g id="PathID_1314" transform="matrix(1, 0, 0, 1, -243.5, -4.5)">
<path style="fill:#FFFFFF;fill-opacity:0.498039" d="M738 315L738 391.5L684 391.5L684 315L738 315" />
<path style="fill:none;stroke-width:1;stroke-linecap:round;stroke-linejoin:round;stroke-miterlimit:3;stroke:#0000FF;stroke-opacity:1" d="M738 315L738 391.5L684 391.5L684 315L738 315z" />
</g>
<g id="PathID_1315" transform="matrix(1, 0, 0, 1, -243.5, -4.5)">
<path style="fill:#FFFFFF;fill-opacity:0.498039" d="M793 315L793 391.5L739 391.5L739 315L793 315" />
<path style="fill:none;stroke-width:1;stroke-linecap:round;stroke-linejoin:round;stroke-miterlimit:3;stroke:#0000FF;stroke-opacity:1" d="M793 315L793 391.5L739 391.5L739 315L793 315z" />
</g>
<g id="PathID_1316" transform="matrix(1, 0, 0, 1, -243.5, -4.5)">
<path style="fill:#FFFFFF;fill-opacity:0.498039" d="M298 392.5L298 469L244 469L244 392.5L298 392.5" />
<path style="fill:none;stroke-width:1;stroke-linecap:round;stroke-linejoin:round;stroke-miterlimit:3;stroke:#0000FF;stroke-opacity:1" d="M298 392.5L298 469L244 469L244 392.5L298 392.5z" />
</g>
<g id="PathID_1317" transform="matrix(1, 0, 0, 1, -243.5, -4.5)">
<path style="fill:#FFFFFF;fill-opacity:0.498039" d="M353 392.5L353 469L299 469L299 392.5L353 392.5" />
<path style="fill:none;stroke-width:1;stroke-linecap:round;stroke-linejoin:round;stroke-miterlimit:3;stroke:#0000FF;stroke-opacity:1" d="M353 392.5L353 469L299 469L299 392.5L353 392.5z" />
</g>
<g id="PathID_1318" transform="matrix(1, 0, 0, 1, -243.5, -4.5)">
<path style="fill:#FFFFFF;fill-opacity:0.498039" d="M408 392.5L408 469L354 469L354 392.5L408 392.5" />
<path style="fill:none;stroke-width:1;stroke-linecap:round;stroke-linejoin:round;stroke-miterlimit:3;stroke:#0000FF;stroke-opacity:1" d="M408 392.5L408 469L354 469L354 392.5L408 392.5z" />
</g>
<g id="PathID_1319" transform="matrix(1, 0, 0, 1, -243.5, -4.5)">
<path style="fill:#FFFFFF;fill-opacity:0.498039" d="M463 392.5L463 469L409 469L409 392.5L463 392.5" />
<path style="fill:none;stroke-width:1;stroke-linecap:round;stroke-linejoin:round;stroke-miterlimit:3;stroke:#0000FF;stroke-opacity:1" d="M463 392.5L463 469L409 469L409 392.5L463 392.5z" />
</g>
<g id="PathID_1320" transform="matrix(1, 0, 0, 1, -243.5, -4.5)">
<path style="fill:#FFFFFF;fill-opacity:0.498039" d="M518 392.5L518 469L464 469L464 392.5L518 392.5" />
<path style="fill:none;stroke-width:1;stroke-linecap:round;stroke-linejoin:round;stroke-miterlimit:3;stroke:#0000FF;stroke-opacity:1" d="M518 392.5L518 469L464 469L464 392.5L518 392.5z" />
</g>
<g id="PathID_1321" transform="matrix(1, 0, 0, 1, -243.5, -4.5)">
<path style="fill:#FFFFFF;fill-opacity:0.498039" d="M573 392.5L573 469L519 469L519 392.5L573 392.5" />
<path style="fill:none;stroke-width:1;stroke-linecap:round;stroke-linejoin:round;stroke-miterlimit:3;stroke:#0000FF;stroke-opacity:1" d="M573 392.5L573 469L519 469L519 392.5L573 392.5z" />
</g>
<g id="PathID_1322" transform="matrix(1, 0, 0, 1, -243.5, -4.5)">
<path style="fill:#FFFFFF;fill-opacity:0.498039" d="M628 392.5L628 469L574 469L574 392.5L628 392.5" />
<path style="fill:none;stroke-width:1;stroke-linecap:round;stroke-linejoin:round;stroke-miterlimit:3;stroke:#0000FF;stroke-opacity:1" d="M628 392.5L628 469L574 469L574 392.5L628 392.5z" />
</g>
<g id="PathID_1323" transform="matrix(1, 0, 0, 1, -243.5, -4.5)">
<path style="fill:#FFFFFF;fill-opacity:0.498039" d="M683 392.5L683 469L629 469L629 392.5L683 392.5" />
<path style="fill:none;stroke-width:1;stroke-linecap:round;stroke-linejoin:round;stroke-miterlimit:3;stroke:#0000FF;stroke-opacity:1" d="M683 392.5L683 469L629 469L629 392.5L683 392.5z" />
</g>
<g id="PathID_1324" transform="matrix(1, 0, 0, 1, -243.5, -4.5)">
<path style="fill:#FFFFFF;fill-opacity:0.498039" d="M738 392.5L738 469L684 469L684 392.5L738 392.5" />
<path style="fill:none;stroke-width:1;stroke-linecap:round;stroke-linejoin:round;stroke-miterlimit:3;stroke:#0000FF;stroke-opacity:1" d="M738 392.5L738 469L684 469L684 392.5L738 392.5z" />
</g>
<g id="PathID_1325" transform="matrix(1, 0, 0, 1, -243.5, -4.5)">
<path style="fill:#FFFFFF;fill-opacity:0.498039" d="M793 392.5L793 469L739 469L739 392.5L793 392.5" />
<path style="fill:none;stroke-width:1;stroke-linecap:round;stroke-linejoin:round;stroke-miterlimit:3;stroke:#0000FF;stroke-opacity:1" d="M793 392.5L793 469L739 469L739 392.5L793 392.5z" />
</g>
</svg>
