<?xml version="1.0" encoding="utf-8"?>
<svg version="1.1" id="Layer_1"
xmlns="http://www.w3.org/2000/svg"
xmlns:xlink="http://www.w3.org/1999/xlink"
width="126px" height="116px"
xml:space="preserve">
<g id="PathID_940" transform="matrix(1, 0, 0, 1, 0, 0)">
<path style="fill:#000000;fill-opacity:1" d="M125.5 30L62.8 115.75L62.75 115.8L61.5 116L0 30L42.45 29.5L41.25 27.25L40.5 21.25L40.75 16L42.5 10.5L49 3L52.75 1L56 0.25L64.45 0.05L65 0L65.1 0.05L66 0L66.95 0.5L69.75 1.25L74.25 5L78.75 9.75L80.75 14.5L81.75 20.25L81 26L80 29.75L124.25 29.25L125.5 30M70 18.25L67 15L64.25 13.75L58.5 13.75L55.25 15.5L52.5 18L51 21.25L51.25 25.75L54 29.5L67.5 29.5L69.75 26.5L70.75 21.25L70 18.25" />
</g>
</svg>
