<?xml version="1.0" encoding="utf-8"?>
<svg version="1.1" id="Layer_1"
xmlns="http://www.w3.org/2000/svg"
xmlns:xlink="http://www.w3.org/1999/xlink"
width="52px" height="67px"
xml:space="preserve">
<g id="PathID_1100" transform="matrix(1, 0, 0, 1, 0, 0)">
<path style="fill:#FFFFFF;fill-opacity:1" d="M48.75 29.7Q45.65 35.2 40.7 39.9Q35.7 44.6 29.95 48.95L23.4 53.55L23.4 53.75L46.75 53.75L44.55 66.05L0 66.05L1.8 56.7L15.85 45.95Q25.7 38.1 31.35 31.9Q37 25.7 37.1 20Q37.1 16.5 34.8 14.3Q32.55 12.15 28.25 12.1Q23.9 12.15 20.4 13.2Q16.95 14.3 14.4 15.9L11.55 5.6Q15.5 3.15 20.75 1.6Q26.05 0.05 31.7 0Q38.3 0.05 42.8 2.4Q47.25 4.65 49.55 8.7Q51.9 12.65 51.9 17.65Q51.8 24.3 48.75 29.7" />
</g>
</svg>
