<?xml version="1.0" encoding="utf-8"?>
<svg version="1.1" id="Layer_1"
xmlns="http://www.w3.org/2000/svg"
xmlns:xlink="http://www.w3.org/1999/xlink"
width="294px" height="290px"
xml:space="preserve">
<g id="PathID_1189" transform="matrix(1, 0, 0, 1, 0, 0)">
<path style="fill:#000000;fill-opacity:0.2" d="M275.5 102.85Q294 103.4 293.95 124.8L293.95 168.7Q294 190.05 275.5 190.8L274.1 190.8Q292.65 190.05 292.6 168.7L292.6 124.8Q292.65 103.75 274.8 102.9L274.7 102.85L275.5 102.85M176.75 0.8L176.5 0.75Q199.75 0.85 200.5 21.25L200.5 92.55Q200.5 100.05 206.55 102.1L204.85 102.1Q198.8 100.05 198.8 92.55L198.8 21.25Q198 1.75 176.75 0.8M210.15 190.8L208.9 190.95Q200.65 192.1 200.5 200.6L200.5 200.95L200.5 269.1Q200.25 276 197.45 280.55Q191.95 289.8 176.25 289.8L175.85 289.8Q190.5 289.4 195.8 280.55Q198.55 276 198.75 269.1L198.8 200.95L198.8 200.6Q199 192.1 207.1 190.95L209.05 190.8L209.65 190.8L210.15 190.8" />
<path style="fill:#000000;fill-opacity:0.298039" d="M209.65 190.8L209.05 190.8L207.1 190.95Q199 192.1 198.8 200.6L198.8 200.95L198.75 269.1Q198.55 276 195.8 280.55Q190.5 289.4 175.85 289.8L172.15 289.8Q187 289.5 192.25 280.55Q195.05 276 195.3 269.1L195.35 200.95L195.35 200.6Q195.55 192.1 203.75 190.95L206.1 190.8L206.1 190.05L221 190.05L221 190.8L211.8 190.8L211.35 190.8L210.15 190.8L209.65 190.8M292.6 124.8L292.6 168.7Q292.65 190.05 274.1 190.8L271.3 190.8Q289.85 190.05 289.8 168.7L289.8 124.8Q289.85 107.05 277.1 103.65L274.8 102.9Q292.65 103.75 292.6 124.8M195.35 92.55L195.3 21.25Q194.75 4.9 179.65 1.6L176.75 0.8Q198 1.75 198.8 21.25L198.8 92.55Q198.8 100.05 204.85 102.1L204 102.1L200.75 101.85Q195.35 99.65 195.35 92.55" />
<path style="fill:#000000;fill-opacity:0.4" d="M89.5 190.7L20.7 190.7Q16.35 190.55 13.05 189.25L18.5 190L86.2 190Q89.55 190 91.9 190.9L89.5 190.7M172.15 289.8L124.5 289.8Q117.95 289.8 113.15 288.2L121.75 289.05L168.4 289.05Q191.85 289.05 192.55 268.5L192.65 200.25Q192.65 190.05 204 190.05L206.1 190.05L206.1 190.8L203.75 190.95Q195.55 192.1 195.35 200.6L195.35 200.95L195.3 269.1Q195.05 276 192.25 280.55Q187 289.5 172.15 289.8M289.8 124.8L289.8 168.7Q289.85 190.05 271.3 190.8L221 190.8L221 190.05L269.15 190.05Q287.7 189.25 287.65 167.95L287.65 124.05Q287.7 107.95 277.1 103.65Q289.85 107.05 289.8 124.8M200.75 101.85Q192.65 100.5 192.65 91.85L192.65 59.3L192.6 59.3L192.55 20.55Q192 5.7 179.65 1.6Q194.75 4.9 195.3 21.25L195.35 92.55Q195.35 99.65 200.75 101.85" />
<path style="fill:#006702;fill-opacity:1" d="M176.75 0.8L179.65 1.6Q192 5.7 192.55 20.55L192.6 59.3L192.65 59.3L192.65 91.85Q192.65 100.5 200.75 101.85L204 102.1L204.85 102.1L206.55 102.1L269.2 102.1L274.7 102.85L274.8 102.9L277.1 103.65Q287.7 107.95 287.65 124.05L287.65 167.95Q287.7 189.25 269.15 190.05L221 190.05L206.1 190.05L204 190.05Q192.65 190.05 192.65 200.25L192.55 268.5Q191.85 289.05 168.4 289.05L121.75 289.05L113.15 288.2Q98.2 284.8 97.6 268.35L97.6 200.25Q97.55 193.05 91.9 190.9Q89.55 190 86.2 190L18.5 190L13.05 189.25Q-0.05 185.9 0 167.95L0 124.05Q-0.05 102.7 18.45 102.1L86.15 102.1Q97.55 102.2 97.55 91.9L97.6 20.55Q98.4 0 121.75 0L168.4 0L176.5 0.75L176.75 0.8" />
</g>
<g id="PathID_1190" transform="matrix(1, 0, 0, 1, 0, 0)">
<linearGradient
id="LinearGradID_467" gradientUnits="userSpaceOnUse" gradientTransform="matrix(0.0926819, -0.0926971, 0.0926819, 0.0926971, 145.5, 145.9)" spreadMethod ="pad" x1="-819.2" y1="0" x2="819.2" y2="0" >
<stop  offset="0" style="stop-color:#92CE92;stop-opacity:1" />
<stop  offset="0.470588" style="stop-color:#038501;stop-opacity:1" />
<stop  offset="1" style="stop-color:#77BD74;stop-opacity:1" />
</linearGradient>
<path style="fill:url(#LinearGradID_467) " d="M175.6 30.9L175.55 115.8L260.5 115.85Q274.05 115.8 274 129.3L274.05 162.45Q274.05 176 260.5 175.95L175.55 176L175.55 260.9Q175.55 274.5 162.15 274.45L128.95 274.5Q115.45 274.45 115.4 260.95L115.45 175.95L30.5 176Q16.95 175.95 16.95 162.45L16.95 129.25Q16.95 115.85 30.45 115.8L115.45 115.85L115.4 30.85Q115.45 17.35 128.95 17.35L162.1 17.35Q175.55 17.3 175.6 30.9M126.1 28.2L126.1 126.45L27.25 126.4L27.25 165.6L126.1 165.55L126.1 171.3L126.25 171.25L126.2 171.3Q138.1 163.5 149.05 152.55Q161.45 140.15 169.85 126.45L169.75 126.4L165.4 126.45L165.4 28.15L165.3 28.15L126.1 28.2" />
<linearGradient
id="LinearGradID_468" gradientUnits="userSpaceOnUse" gradientTransform="matrix(-0.0450897, -0.045105, 0.0840454, -0.0840607, 113.5, 114.1)" spreadMethod ="pad" x1="-819.2" y1="0" x2="819.2" y2="0" >
<stop  offset="0" style="stop-color:#40A640;stop-opacity:1" />
<stop  offset="1" style="stop-color:#FFF2ED;stop-opacity:1" />
</linearGradient>
<path style="fill:url(#LinearGradID_468) " d="M126.25 171.25L126.1 171.3L126.1 165.55L27.25 165.6L27.25 126.4L126.1 126.45L126.1 28.2L165.3 28.15L165.35 126.45L165.4 126.45L169.75 126.4Q161.35 140.15 148.95 152.55Q138.05 163.45 126.25 171.25" />
</g>
</svg>
