<?xml version="1.0" encoding="utf-8"?>
<svg version="1.1" id="Layer_1"
xmlns="http://www.w3.org/2000/svg"
xmlns:xlink="http://www.w3.org/1999/xlink"
width="30px" height="30px"
xml:space="preserve">
<g id="PathID_1194" transform="matrix(1, 0, 0, 1, 0, 0)">
<path style="fill:#000000;fill-opacity:1" d="M29.65 11.6Q30 12.1 30 13.05L30 17.55Q30 18.75 29.4 19.35Q28.4 22.8 25.6 25.6Q21.2 30 15 30Q8.8 30 4.4 25.6Q1.6 22.8 0.6 19.25Q0 18.65 0 17.45L0 13Q0 12 0.4 11.5Q1.3 7.5 4.4 4.4Q8.8 0 15 0Q21.2 0 25.6 4.4Q28.75 7.55 29.65 11.6" />
</g>
</svg>
