<?xml version="1.0" encoding="utf-8"?>
<svg version="1.1" id="Layer_1"
xmlns="http://www.w3.org/2000/svg"
xmlns:xlink="http://www.w3.org/1999/xlink"
width="101px" height="101px"
xml:space="preserve">
<g id="PathID_1264" transform="matrix(1, 0, 0, 1, 50.5, 50.5)">
<path style="fill:#FFFFFF;fill-opacity:1" d="M50 -50L50 50L-50 50L-50 -50L50 -50" />
<path style="fill:none;stroke-width:1;stroke-linecap:round;stroke-linejoin:round;stroke-miterlimit:3;stroke:#000000;stroke-opacity:1" d="M50 -50L50 50L-50 50L-50 -50L50 -50z" />
</g>
<g id="PathID_1265" transform="matrix(1, 0, 0, 1, 50.5, 50.5)">
<path style="fill:#000000;fill-opacity:1" d="M10 0Q10 4.1 7.05 7.05Q4.15 10 0 10Q-4.15 10 -7.1 7.05Q-10 4.1 -10 0Q-10 -4.15 -7.1 -7.1Q-4.15 -10 0 -10Q4.15 -10 7.05 -7.1Q10 -4.15 10 0" />
<path style="fill:none;stroke-width:1;stroke-linecap:round;stroke-linejoin:round;stroke-miterlimit:3;stroke:#000000;stroke-opacity:1" d="M10 0Q10 4.1 7.05 7.05Q4.15 10 0 10Q-4.15 10 -7.1 7.05Q-10 4.1 -10 0Q-10 -4.15 -7.1 -7.1Q-4.15 -10 0 -10Q4.15 -10 7.05 -7.1Q10 -4.15 10 0z" />
</g>
</svg>
