<?xml version="1.0" encoding="utf-8"?>
<svg version="1.1" id="Layer_1"
xmlns="http://www.w3.org/2000/svg"
xmlns:xlink="http://www.w3.org/1999/xlink"
width="1026px" height="641px"
xml:space="preserve">
<g id="PathID_360" transform="matrix(1, 0, 0, 1, 0.5, 0.5)">
<path style="fill:none;stroke-width:1;stroke-linecap:round;stroke-linejoin:round;stroke-miterlimit:3;stroke:#FF00CC;stroke-opacity:0.498039" d="M0 20L1024.05 20" />
</g>
<g id="PathID_361" transform="matrix(1, 0, 0, 1, 0.5, 0.5)">
<path style="fill:none;stroke-width:1;stroke-linecap:round;stroke-linejoin:round;stroke-miterlimit:3;stroke:#FF00CC;stroke-opacity:0.498039" d="M0 40L1024.05 40" />
</g>
<g id="PathID_362" transform="matrix(1, 0, 0, 1, 0.5, 0.5)">
<path style="fill:none;stroke-width:1;stroke-linecap:round;stroke-linejoin:round;stroke-miterlimit:3;stroke:#FF00CC;stroke-opacity:0.498039" d="M0 60L1024.05 60" />
</g>
<g id="PathID_363" transform="matrix(1, 0, 0, 1, 0.5, 0.5)">
<path style="fill:none;stroke-width:1;stroke-linecap:round;stroke-linejoin:round;stroke-miterlimit:3;stroke:#FF00CC;stroke-opacity:0.498039" d="M0 80L1024.05 80" />
</g>
<g id="PathID_364" transform="matrix(1, 0, 0, 1, 0.5, 0.5)">
<path style="fill:none;stroke-width:1;stroke-linecap:round;stroke-linejoin:round;stroke-miterlimit:3;stroke:#FF00CC;stroke-opacity:0.498039" d="M0 100L1024.05 100" />
</g>
<g id="PathID_365" transform="matrix(1, 0, 0, 1, 0.5, 0.5)">
<path style="fill:none;stroke-width:1;stroke-linecap:round;stroke-linejoin:round;stroke-miterlimit:3;stroke:#FF00CC;stroke-opacity:0.498039" d="M0 120L1024.05 120" />
</g>
<g id="PathID_366" transform="matrix(1, 0, 0, 1, 0.5, 0.5)">
<path style="fill:none;stroke-width:1;stroke-linecap:round;stroke-linejoin:round;stroke-miterlimit:3;stroke:#FF00CC;stroke-opacity:0.498039" d="M0 140L1024.05 140" />
</g>
<g id="PathID_367" transform="matrix(1, 0, 0, 1, 0.5, 0.5)">
<path style="fill:none;stroke-width:1;stroke-linecap:round;stroke-linejoin:round;stroke-miterlimit:3;stroke:#FF00CC;stroke-opacity:0.498039" d="M0 160L1024.05 160" />
</g>
<g id="PathID_368" transform="matrix(1, 0, 0, 1, 0.5, 0.5)">
<path style="fill:none;stroke-width:1;stroke-linecap:round;stroke-linejoin:round;stroke-miterlimit:3;stroke:#FF00CC;stroke-opacity:0.498039" d="M0 180L1024.05 180" />
</g>
<g id="PathID_369" transform="matrix(1, 0, 0, 1, 0.5, 0.5)">
<path style="fill:none;stroke-width:1;stroke-linecap:round;stroke-linejoin:round;stroke-miterlimit:3;stroke:#FF00CC;stroke-opacity:0.498039" d="M0 200L1024.05 200" />
</g>
<g id="PathID_370" transform="matrix(1, 0, 0, 1, 0.5, 0.5)">
<path style="fill:none;stroke-width:1;stroke-linecap:round;stroke-linejoin:round;stroke-miterlimit:3;stroke:#FF00CC;stroke-opacity:0.498039" d="M0 220L1024.05 220" />
</g>
<g id="PathID_371" transform="matrix(1, 0, 0, 1, 0.5, 0.5)">
<path style="fill:none;stroke-width:1;stroke-linecap:round;stroke-linejoin:round;stroke-miterlimit:3;stroke:#FF00CC;stroke-opacity:0.498039" d="M0 240L1024.05 240" />
</g>
<g id="PathID_372" transform="matrix(1, 0, 0, 1, 0.5, 0.5)">
<path style="fill:none;stroke-width:1;stroke-linecap:round;stroke-linejoin:round;stroke-miterlimit:3;stroke:#FF00CC;stroke-opacity:0.498039" d="M0 260L1024.05 260" />
</g>
<g id="PathID_373" transform="matrix(1, 0, 0, 1, 0.5, 0.5)">
<path style="fill:none;stroke-width:1;stroke-linecap:round;stroke-linejoin:round;stroke-miterlimit:3;stroke:#FF00CC;stroke-opacity:0.498039" d="M0 280L1024.05 280" />
</g>
<g id="PathID_374" transform="matrix(1, 0, 0, 1, 0.5, 0.5)">
<path style="fill:none;stroke-width:1;stroke-linecap:round;stroke-linejoin:round;stroke-miterlimit:3;stroke:#FF00CC;stroke-opacity:0.498039" d="M0 300L1024.05 300" />
</g>
<g id="PathID_375" transform="matrix(1, 0, 0, 1, 0.5, 0.5)">
<path style="fill:none;stroke-width:1;stroke-linecap:round;stroke-linejoin:round;stroke-miterlimit:3;stroke:#FF00CC;stroke-opacity:0.498039" d="M0 320L1024.05 320" />
</g>
<g id="PathID_376" transform="matrix(1, 0, 0, 1, 0.5, 0.5)">
<path style="fill:none;stroke-width:1;stroke-linecap:round;stroke-linejoin:round;stroke-miterlimit:3;stroke:#FF00CC;stroke-opacity:0.498039" d="M0 340L1024.05 340" />
</g>
<g id="PathID_377" transform="matrix(1, 0, 0, 1, 0.5, 0.5)">
<path style="fill:none;stroke-width:1;stroke-linecap:round;stroke-linejoin:round;stroke-miterlimit:3;stroke:#FF00CC;stroke-opacity:0.498039" d="M0 360L1024.05 360" />
</g>
<g id="PathID_378" transform="matrix(1, 0, 0, 1, 0.5, 0.5)">
<path style="fill:none;stroke-width:1;stroke-linecap:round;stroke-linejoin:round;stroke-miterlimit:3;stroke:#FF00CC;stroke-opacity:0.498039" d="M0 380L1024.05 380" />
</g>
<g id="PathID_379" transform="matrix(1, 0, 0, 1, 0.5, 0.5)">
<path style="fill:none;stroke-width:1;stroke-linecap:round;stroke-linejoin:round;stroke-miterlimit:3;stroke:#FF00CC;stroke-opacity:0.498039" d="M0 400L1024.05 400" />
</g>
<g id="PathID_380" transform="matrix(1, 0, 0, 1, 0.5, 0.5)">
<path style="fill:none;stroke-width:1;stroke-linecap:round;stroke-linejoin:round;stroke-miterlimit:3;stroke:#FF00CC;stroke-opacity:0.498039" d="M0 420L1024.05 420" />
</g>
<g id="PathID_381" transform="matrix(1, 0, 0, 1, 0.5, 0.5)">
<path style="fill:none;stroke-width:1;stroke-linecap:round;stroke-linejoin:round;stroke-miterlimit:3;stroke:#FF00CC;stroke-opacity:0.498039" d="M0 440L1024.05 440" />
</g>
<g id="PathID_382" transform="matrix(1, 0, 0, 1, 0.5, 0.5)">
<path style="fill:none;stroke-width:1;stroke-linecap:round;stroke-linejoin:round;stroke-miterlimit:3;stroke:#FF00CC;stroke-opacity:0.498039" d="M0 460L1024.05 460" />
</g>
<g id="PathID_383" transform="matrix(1, 0, 0, 1, 0.5, 0.5)">
<path style="fill:none;stroke-width:1;stroke-linecap:round;stroke-linejoin:round;stroke-miterlimit:3;stroke:#FF00CC;stroke-opacity:0.498039" d="M0 480L1024.05 480" />
</g>
<g id="PathID_384" transform="matrix(1, 0, 0, 1, 0.5, 0.5)">
<path style="fill:none;stroke-width:1;stroke-linecap:round;stroke-linejoin:round;stroke-miterlimit:3;stroke:#FF00CC;stroke-opacity:0.498039" d="M0 500L1024.05 500" />
</g>
<g id="PathID_385" transform="matrix(1, 0, 0, 1, 0.5, 0.5)">
<path style="fill:none;stroke-width:1;stroke-linecap:round;stroke-linejoin:round;stroke-miterlimit:3;stroke:#FF00CC;stroke-opacity:0.498039" d="M0 520L1024.05 520" />
</g>
<g id="PathID_386" transform="matrix(1, 0, 0, 1, 0.5, 0.5)">
<path style="fill:none;stroke-width:1;stroke-linecap:round;stroke-linejoin:round;stroke-miterlimit:3;stroke:#FF00CC;stroke-opacity:0.498039" d="M0 540L1024.05 540" />
</g>
<g id="PathID_387" transform="matrix(1, 0, 0, 1, 0.5, 0.5)">
<path style="fill:none;stroke-width:1;stroke-linecap:round;stroke-linejoin:round;stroke-miterlimit:3;stroke:#FF00CC;stroke-opacity:0.498039" d="M0 560L1024.05 560" />
</g>
<g id="PathID_388" transform="matrix(1, 0, 0, 1, 0.5, 0.5)">
<path style="fill:none;stroke-width:1;stroke-linecap:round;stroke-linejoin:round;stroke-miterlimit:3;stroke:#FF00CC;stroke-opacity:0.498039" d="M0 580L1024.05 580" />
</g>
<g id="PathID_389" transform="matrix(1, 0, 0, 1, 0.5, 0.5)">
<path style="fill:none;stroke-width:1;stroke-linecap:round;stroke-linejoin:round;stroke-miterlimit:3;stroke:#FF00CC;stroke-opacity:0.498039" d="M0 600L1024.05 600" />
</g>
<g id="PathID_390" transform="matrix(1, 0, 0, 1, 0.5, 0.5)">
<path style="fill:none;stroke-width:1;stroke-linecap:round;stroke-linejoin:round;stroke-miterlimit:3;stroke:#FF00CC;stroke-opacity:0.498039" d="M0 620L1024.05 620" />
</g>
<g id="PathID_391" transform="matrix(1, 0, 0, 1, 0.5, 0.5)">
<path style="fill:none;stroke-width:1;stroke-linecap:round;stroke-linejoin:round;stroke-miterlimit:3;stroke:#FF00CC;stroke-opacity:0.498039" d="M22 0.05L22 622.05" />
</g>
<g id="PathID_392" transform="matrix(1, 0, 0, 1, 0.5, 0.5)">
<path style="fill:none;stroke-width:1;stroke-linecap:round;stroke-linejoin:round;stroke-miterlimit:3;stroke:#FF00CC;stroke-opacity:0.498039" d="M62 0.05L62 622.05" />
</g>
<g id="PathID_393" transform="matrix(1, 0, 0, 1, 0.5, 0.5)">
<path style="fill:none;stroke-width:1;stroke-linecap:round;stroke-linejoin:round;stroke-miterlimit:3;stroke:#FF00CC;stroke-opacity:0.498039" d="M82 0.05L82 622.05" />
</g>
<g id="PathID_394" transform="matrix(1, 0, 0, 1, 0.5, 0.5)">
<path style="fill:none;stroke-width:1;stroke-linecap:round;stroke-linejoin:round;stroke-miterlimit:3;stroke:#FF00CC;stroke-opacity:0.498039" d="M102 0.05L102 622.05" />
</g>
<g id="PathID_395" transform="matrix(1, 0, 0, 1, 0.5, 0.5)">
<path style="fill:none;stroke-width:1;stroke-linecap:round;stroke-linejoin:round;stroke-miterlimit:3;stroke:#FF00CC;stroke-opacity:0.498039" d="M122 0.05L122 622.05" />
</g>
<g id="PathID_396" transform="matrix(1, 0, 0, 1, 0.5, 0.5)">
<path style="fill:none;stroke-width:1;stroke-linecap:round;stroke-linejoin:round;stroke-miterlimit:3;stroke:#FF00CC;stroke-opacity:0.498039" d="M142 0.05L142 622.05" />
</g>
<g id="PathID_397" transform="matrix(1, 0, 0, 1, 0.5, 0.5)">
<path style="fill:none;stroke-width:1;stroke-linecap:round;stroke-linejoin:round;stroke-miterlimit:3;stroke:#FF00CC;stroke-opacity:0.498039" d="M162 0.05L162 622.05" />
</g>
<g id="PathID_398" transform="matrix(1, 0, 0, 1, 0.5, 0.5)">
<path style="fill:none;stroke-width:1;stroke-linecap:round;stroke-linejoin:round;stroke-miterlimit:3;stroke:#FF00CC;stroke-opacity:0.498039" d="M182 0.05L182 622.05" />
</g>
<g id="PathID_399" transform="matrix(1, 0, 0, 1, 0.5, 0.5)">
<path style="fill:none;stroke-width:1;stroke-linecap:round;stroke-linejoin:round;stroke-miterlimit:3;stroke:#FF00CC;stroke-opacity:0.498039" d="M202 0.05L202 622.05" />
</g>
<g id="PathID_400" transform="matrix(1, 0, 0, 1, 0.5, 0.5)">
<path style="fill:none;stroke-width:1;stroke-linecap:round;stroke-linejoin:round;stroke-miterlimit:3;stroke:#FF00CC;stroke-opacity:0.498039" d="M222 0.05L222 622.05" />
</g>
<g id="PathID_401" transform="matrix(1, 0, 0, 1, 0.5, 0.5)">
<path style="fill:none;stroke-width:1;stroke-linecap:round;stroke-linejoin:round;stroke-miterlimit:3;stroke:#FF00CC;stroke-opacity:0.498039" d="M242 0.05L242 622.05" />
</g>
<g id="PathID_402" transform="matrix(1, 0, 0, 1, 0.5, 0.5)">
<path style="fill:none;stroke-width:1;stroke-linecap:round;stroke-linejoin:round;stroke-miterlimit:3;stroke:#FF00CC;stroke-opacity:0.498039" d="M262 0.05L262 622.05" />
</g>
<g id="PathID_403" transform="matrix(1, 0, 0, 1, 0.5, 0.5)">
<path style="fill:none;stroke-width:1;stroke-linecap:round;stroke-linejoin:round;stroke-miterlimit:3;stroke:#FF00CC;stroke-opacity:0.498039" d="M282 0.05L282 622.05" />
</g>
<g id="PathID_404" transform="matrix(1, 0, 0, 1, 0.5, 0.5)">
<path style="fill:none;stroke-width:1;stroke-linecap:round;stroke-linejoin:round;stroke-miterlimit:3;stroke:#FF00CC;stroke-opacity:0.498039" d="M302 0.05L302 622.05" />
</g>
<g id="PathID_405" transform="matrix(1, 0, 0, 1, 0.5, 0.5)">
<path style="fill:none;stroke-width:1;stroke-linecap:round;stroke-linejoin:round;stroke-miterlimit:3;stroke:#FF00CC;stroke-opacity:0.498039" d="M322 0.05L322 622.05" />
</g>
<g id="PathID_406" transform="matrix(1, 0, 0, 1, 0.5, 0.5)">
<path style="fill:none;stroke-width:1;stroke-linecap:round;stroke-linejoin:round;stroke-miterlimit:3;stroke:#FF00CC;stroke-opacity:0.498039" d="M342 0.05L342 622.05" />
</g>
<g id="PathID_407" transform="matrix(1, 0, 0, 1, 0.5, 0.5)">
<path style="fill:none;stroke-width:1;stroke-linecap:round;stroke-linejoin:round;stroke-miterlimit:3;stroke:#FF00CC;stroke-opacity:0.498039" d="M362 0.05L362 622.05" />
</g>
<g id="PathID_408" transform="matrix(1, 0, 0, 1, 0.5, 0.5)">
<path style="fill:none;stroke-width:1;stroke-linecap:round;stroke-linejoin:round;stroke-miterlimit:3;stroke:#FF00CC;stroke-opacity:0.498039" d="M382 0.05L382 622.05" />
</g>
<g id="PathID_409" transform="matrix(1, 0, 0, 1, 0.5, 0.5)">
<path style="fill:none;stroke-width:1;stroke-linecap:round;stroke-linejoin:round;stroke-miterlimit:3;stroke:#FF00CC;stroke-opacity:0.498039" d="M402 0.05L402 622.05" />
</g>
<g id="PathID_410" transform="matrix(1, 0, 0, 1, 0.5, 0.5)">
<path style="fill:none;stroke-width:1;stroke-linecap:round;stroke-linejoin:round;stroke-miterlimit:3;stroke:#FF00CC;stroke-opacity:0.498039" d="M422 0.05L422 622.05" />
</g>
<g id="PathID_411" transform="matrix(1, 0, 0, 1, 0.5, 0.5)">
<path style="fill:none;stroke-width:1;stroke-linecap:round;stroke-linejoin:round;stroke-miterlimit:3;stroke:#FF00CC;stroke-opacity:0.498039" d="M442 0.05L442 622.05" />
</g>
<g id="PathID_412" transform="matrix(1, 0, 0, 1, 0.5, 0.5)">
<path style="fill:none;stroke-width:1;stroke-linecap:round;stroke-linejoin:round;stroke-miterlimit:3;stroke:#FF00CC;stroke-opacity:0.498039" d="M462 0.05L462 622.05" />
</g>
<g id="PathID_413" transform="matrix(1, 0, 0, 1, 0.5, 0.5)">
<path style="fill:none;stroke-width:1;stroke-linecap:round;stroke-linejoin:round;stroke-miterlimit:3;stroke:#FF00CC;stroke-opacity:0.498039" d="M482 0.05L482 622.05" />
</g>
<g id="PathID_414" transform="matrix(1, 0, 0, 1, 0.5, 0.5)">
<path style="fill:none;stroke-width:1;stroke-linecap:round;stroke-linejoin:round;stroke-miterlimit:3;stroke:#FF00CC;stroke-opacity:0.498039" d="M502 0.05L502 622.05" />
</g>
<g id="PathID_415" transform="matrix(1, 0, 0, 1, 0.5, 0.5)">
<path style="fill:none;stroke-width:1;stroke-linecap:round;stroke-linejoin:round;stroke-miterlimit:3;stroke:#FF00CC;stroke-opacity:0.498039" d="M522 0.05L522 622.05" />
</g>
<g id="PathID_416" transform="matrix(1, 0, 0, 1, 0.5, 0.5)">
<path style="fill:none;stroke-width:1;stroke-linecap:round;stroke-linejoin:round;stroke-miterlimit:3;stroke:#FF00CC;stroke-opacity:0.498039" d="M542 0.05L542 622.05" />
</g>
<g id="PathID_417" transform="matrix(1, 0, 0, 1, 0.5, 0.5)">
<path style="fill:none;stroke-width:1;stroke-linecap:round;stroke-linejoin:round;stroke-miterlimit:3;stroke:#FF00CC;stroke-opacity:0.498039" d="M562 0.05L562 622.05" />
</g>
<g id="PathID_418" transform="matrix(1, 0, 0, 1, 0.5, 0.5)">
<path style="fill:none;stroke-width:1;stroke-linecap:round;stroke-linejoin:round;stroke-miterlimit:3;stroke:#FF00CC;stroke-opacity:0.498039" d="M582 0.05L582 622.05" />
</g>
<g id="PathID_419" transform="matrix(1, 0, 0, 1, 0.5, 0.5)">
<path style="fill:none;stroke-width:1;stroke-linecap:round;stroke-linejoin:round;stroke-miterlimit:3;stroke:#FF00CC;stroke-opacity:0.498039" d="M602 0.05L602 622.05" />
</g>
<g id="PathID_420" transform="matrix(1, 0, 0, 1, 0.5, 0.5)">
<path style="fill:none;stroke-width:1;stroke-linecap:round;stroke-linejoin:round;stroke-miterlimit:3;stroke:#FF00CC;stroke-opacity:0.498039" d="M622 0L622 640" />
</g>
<g id="PathID_421" transform="matrix(1, 0, 0, 1, 0.5, 0.5)">
<path style="fill:none;stroke-width:1;stroke-linecap:round;stroke-linejoin:round;stroke-miterlimit:3;stroke:#FF00CC;stroke-opacity:0.498039" d="M642 0L642 640" />
</g>
<g id="PathID_422" transform="matrix(1, 0, 0, 1, 0.5, 0.5)">
<path style="fill:none;stroke-width:1;stroke-linecap:round;stroke-linejoin:round;stroke-miterlimit:3;stroke:#FF00CC;stroke-opacity:0.498039" d="M662 0L662 640" />
</g>
<g id="PathID_423" transform="matrix(1, 0, 0, 1, 0.5, 0.5)">
<path style="fill:none;stroke-width:1;stroke-linecap:round;stroke-linejoin:round;stroke-miterlimit:3;stroke:#FF00CC;stroke-opacity:0.498039" d="M682 0L682 640" />
</g>
<g id="PathID_424" transform="matrix(1, 0, 0, 1, 0.5, 0.5)">
<path style="fill:none;stroke-width:1;stroke-linecap:round;stroke-linejoin:round;stroke-miterlimit:3;stroke:#FF00CC;stroke-opacity:0.498039" d="M702 0L702 640" />
</g>
<g id="PathID_425" transform="matrix(1, 0, 0, 1, 0.5, 0.5)">
<path style="fill:none;stroke-width:1;stroke-linecap:round;stroke-linejoin:round;stroke-miterlimit:3;stroke:#FF00CC;stroke-opacity:0.498039" d="M722 0L722 640" />
</g>
<g id="PathID_426" transform="matrix(1, 0, 0, 1, 0.5, 0.5)">
<path style="fill:none;stroke-width:1;stroke-linecap:round;stroke-linejoin:round;stroke-miterlimit:3;stroke:#FF00CC;stroke-opacity:0.498039" d="M742 0L742 640" />
</g>
<g id="PathID_427" transform="matrix(1, 0, 0, 1, 0.5, 0.5)">
<path style="fill:none;stroke-width:1;stroke-linecap:round;stroke-linejoin:round;stroke-miterlimit:3;stroke:#FF00CC;stroke-opacity:0.498039" d="M762 0L762 640" />
</g>
<g id="PathID_428" transform="matrix(1, 0, 0, 1, 0.5, 0.5)">
<path style="fill:none;stroke-width:1;stroke-linecap:round;stroke-linejoin:round;stroke-miterlimit:3;stroke:#FF00CC;stroke-opacity:0.498039" d="M782 0L782 640" />
</g>
<g id="PathID_429" transform="matrix(1, 0, 0, 1, 0.5, 0.5)">
<path style="fill:none;stroke-width:1;stroke-linecap:round;stroke-linejoin:round;stroke-miterlimit:3;stroke:#FF00CC;stroke-opacity:0.498039" d="M802 0L802 640" />
</g>
<g id="PathID_430" transform="matrix(1, 0, 0, 1, 0.5, 0.5)">
<path style="fill:none;stroke-width:1;stroke-linecap:round;stroke-linejoin:round;stroke-miterlimit:3;stroke:#FF00CC;stroke-opacity:0.498039" d="M822 0L822 640" />
</g>
<g id="PathID_431" transform="matrix(1, 0, 0, 1, 0.5, 0.5)">
<path style="fill:none;stroke-width:1;stroke-linecap:round;stroke-linejoin:round;stroke-miterlimit:3;stroke:#FF00CC;stroke-opacity:0.498039" d="M842 0L842 640" />
</g>
<g id="PathID_432" transform="matrix(1, 0, 0, 1, 0.5, 0.5)">
<path style="fill:none;stroke-width:1;stroke-linecap:round;stroke-linejoin:round;stroke-miterlimit:3;stroke:#FF00CC;stroke-opacity:0.498039" d="M862 0L862 640" />
</g>
<g id="PathID_433" transform="matrix(1, 0, 0, 1, 0.5, 0.5)">
<path style="fill:none;stroke-width:1;stroke-linecap:round;stroke-linejoin:round;stroke-miterlimit:3;stroke:#FF00CC;stroke-opacity:0.498039" d="M882 0L882 640" />
</g>
<g id="PathID_434" transform="matrix(1, 0, 0, 1, 0.5, 0.5)">
<path style="fill:none;stroke-width:1;stroke-linecap:round;stroke-linejoin:round;stroke-miterlimit:3;stroke:#FF00CC;stroke-opacity:0.498039" d="M902 0L902 640" />
</g>
<g id="PathID_435" transform="matrix(1, 0, 0, 1, 0.5, 0.5)">
<path style="fill:none;stroke-width:1;stroke-linecap:round;stroke-linejoin:round;stroke-miterlimit:3;stroke:#FF00CC;stroke-opacity:0.498039" d="M922 0L922 640" />
</g>
<g id="PathID_436" transform="matrix(1, 0, 0, 1, 0.5, 0.5)">
<path style="fill:none;stroke-width:1;stroke-linecap:round;stroke-linejoin:round;stroke-miterlimit:3;stroke:#FF00CC;stroke-opacity:0.498039" d="M942 0L942 640" />
</g>
<g id="PathID_437" transform="matrix(1, 0, 0, 1, 0.5, 0.5)">
<path style="fill:none;stroke-width:1;stroke-linecap:round;stroke-linejoin:round;stroke-miterlimit:3;stroke:#FF00CC;stroke-opacity:0.498039" d="M962 0L962 640" />
</g>
<g id="PathID_438" transform="matrix(1, 0, 0, 1, 0.5, 0.5)">
<path style="fill:none;stroke-width:1;stroke-linecap:round;stroke-linejoin:round;stroke-miterlimit:3;stroke:#FF00CC;stroke-opacity:0.498039" d="M982 0L982 640" />
</g>
<g id="PathID_439" transform="matrix(1, 0, 0, 1, 0.5, 0.5)">
<path style="fill:none;stroke-width:1;stroke-linecap:round;stroke-linejoin:round;stroke-miterlimit:3;stroke:#FF00CC;stroke-opacity:0.498039" d="M1002 0L1002 640" />
</g>
<g id="PathID_440" transform="matrix(1, 0, 0, 1, 0.5, 0.5)">
<path style="fill:none;stroke-width:1;stroke-linecap:round;stroke-linejoin:round;stroke-miterlimit:3;stroke:#FF00CC;stroke-opacity:0.498039" d="M1022 0L1022 640" />
</g>
<g id="PathID_441" transform="matrix(1, 0, 0, 1, 0.5, 0.5)">
<path style="fill:none;stroke-width:1;stroke-linecap:round;stroke-linejoin:round;stroke-miterlimit:3;stroke:#FF00CC;stroke-opacity:0.498039" d="M2 0.05L2 622.05" />
</g>
<g id="PathID_442" transform="matrix(1, 0, 0, 1, 0.5, 0.5)">
<path style="fill:none;stroke-width:1;stroke-linecap:round;stroke-linejoin:round;stroke-miterlimit:3;stroke:#FF00CC;stroke-opacity:0.498039" d="M42 2.05L42 624.05" />
</g>
<g id="PathID_443" transform="matrix(1, 0, 0, 1, 0.5, 0.5)">
<path style="fill:none;stroke-width:1;stroke-linecap:round;stroke-linejoin:round;stroke-miterlimit:3;stroke:#FF00CC;stroke-opacity:0.498039" d="M0 0L1024.05 0" />
</g>
</svg>
