<?xml version="1.0" encoding="utf-8"?>
<svg version="1.1" id="Layer_1"
xmlns="http://www.w3.org/2000/svg"
xmlns:xlink="http://www.w3.org/1999/xlink"
width="265px" height="172px"
xml:space="preserve">
<g id="PathID_717" transform="matrix(1, 0, 0, 1, -126.25, -187.85)">
<path style="fill:#FFFFFF;fill-opacity:0.2" d="M359.05 243.8L364.45 252.35L369.05 260.3Q370 262.15 372 267.85L374.8 276.3L376.75 284.9L378.3 293.3Q378.8 296.8 378.8 305.55Q378.8 308.8 375.05 321.3Q373.35 327 367.3 336.05Q365.75 338.4 360.35 343.05L353.8 348.55Q352.8 349.45 349.7 350.6Q346.4 351.8 345.05 352.8Q342.15 354.95 327.55 358.05L320.25 358.75L314.05 359.05Q312.05 359.3 201.55 359.05L188.3 358.3Q183.7 357.7 175.8 355.05L170 352.6Q165.65 350.55 163.8 349.05Q158.8 344.95 155.55 341.3Q154.3 339.9 152.1 336.35L148.8 331.05L146 325.95L143.8 320.8Q140.5 311.7 140.05 309.3Q139.65 307.05 139.15 299.7Q138.65 292 138.8 289.55L139.6 282.25Q140.2 277.5 140.55 276.05Q140.95 274.35 142.95 268.6Q145 262.5 146.05 260.05L149.3 253.3Q151.35 249.3 152.55 247.3L157.05 240.75Q160.45 236 162.3 233.8Q164.3 231.4 168.6 226.85L176.05 219.3Q180.05 215.55 190.3 207.3L192.65 206.5L197.8 206.8Q200.5 207.85 200.2 210.45Q199.95 212.9 197.55 214.3Q195.4 215.55 191.4 218.7Q187.65 221.65 185.05 224.05L173.3 235.3Q171.7 236.7 168.6 241.2L164.05 247.8L159.75 254.5L156.05 261.05Q154.95 263.25 153.4 267.7Q151.9 272.05 151.3 274.55Q149.05 284.35 148.8 289.55Q148.6 294.1 148.7 297.1Q148.85 300.9 149.55 305.8Q150.2 310.2 151.55 314L153.55 319.05Q154.25 320.95 156.15 324.45L159.3 329.8Q160.65 331.95 163.1 334.75Q165.6 337.7 167.05 338.8L171.2 342.1Q174.2 344.45 176.05 345.05L181.55 346.45L187.8 348.05Q190.3 348.85 195.45 349.2L203.3 349.55L262.1 349.5Q317.7 349.25 319.8 349.05L330.3 347.55L335.85 345.6L342.3 343.05Q344.8 342.15 348.65 339.85Q352.25 337.65 354.05 336.05Q355.7 334.6 358.5 331Q361.25 327.55 362.8 325.05L365.85 318.7L367.8 313.3L368.5 306.6L369.05 299.3Q369.3 296.7 367.8 286.3L366.45 280.95L364.55 275.05Q362.55 270.05 359.55 263.55Q356.95 257.85 354.55 254.3Q349.55 246.8 347.55 244.8L342.45 238.95L337.55 233.05Q335.3 230.55 328.3 224.3L318.8 216.8L316.25 215.6Q315.5 215.15 315.8 212.55Q316.15 209.6 319.85 208.45Q323.35 207.35 325.05 208.8L336.55 219.05Q342.45 224.4 347.3 230.05L353.45 237L359.05 243.8" />
</g>
<g id="PathID_718" transform="matrix(1, 0, 0, 1, -126.25, -187.85)">
<path style="fill:#FFFFFF;fill-opacity:1" d="M249.5 285.25L246.55 274.3Q245.9 271.75 242.9 263.6Q239.8 255.2 239.05 252.55Q238.25 249.65 235.8 244.85L234.85 243L231.8 237.55L288.05 237.8L283.05 251.3Q281.3 256.05 278.3 266.05L276.3 273.5L274.3 280.55Q273.65 282.25 272.85 287.1Q272 291.85 271.55 293.05Q271.05 294.35 270.5 297.75L269.3 304.3Q268.55 307.35 267.75 311.8L266.55 318.55L265.45 325.5L264.55 330.8L263.75 335.1L261.8 344.05Q261.8 342.25 261.25 339L260.3 333.55L259.1 327L258.05 321.8L255.3 308.55L254 303.15L252.3 296.05L249.5 285.25" />
</g>
<g id="PathID_719" transform="matrix(1, 0, 0, 1, -126.25, -187.85)">
<path style="fill:#729FCF;fill-opacity:1" d="M238.95 232.05Q218.65 246.35 220.45 263.95Q201.3 248.55 200.7 218.25L238.95 232.05" />
</g>
<g id="PathID_720" transform="matrix(1, 0, 0, 1, -126.25, -187.85)">
<path style="fill:#729FCF;fill-opacity:1" d="M319.95 218.3Q321.05 248.5 302.2 265Q303.6 247.3 282.5 234.1L319.95 218.3" />
</g>
<g id="PathID_721" transform="matrix(1, 0, 0, 1, -126.25, -187.85)">
<radialGradient
id="RadialGradID_345" gradientUnits="userSpaceOnUse" gradientTransform="matrix(0.164246, 0, 0, 0.0890198, 258.65, 235.85)" spreadMethod ="pad" cx="0" cy="0" r="819.2" fx="0" fy="0" >
<stop  offset="0"  style="stop-color:#000000;stop-opacity:0.498039" />
<stop  offset="0.552941"  style="stop-color:#000000;stop-opacity:0" />
</radialGradient>
<path style="fill:url(#RadialGradID_345) " d="M352.25 201.85Q391 215.95 391 235.85Q391 255.7 352.25 269.75Q313.45 283.8 258.65 283.8Q203.8 283.8 165.05 269.75Q126.25 255.7 126.25 235.85Q126.25 215.95 165.05 201.85Q203.8 187.85 258.65 187.85Q313.45 187.85 352.25 201.85" />
</g>
</svg>
