<?xml version="1.0" encoding="utf-8"?>
<svg version="1.1" id="Layer_1"
xmlns="http://www.w3.org/2000/svg"
xmlns:xlink="http://www.w3.org/1999/xlink"
width="30px" height="28px"
xml:space="preserve">
<g id="PathID_1188" transform="matrix(1, 0, 0, 1, 0, 0)">
<path style="fill:#000000;fill-opacity:1" d="M28.05 3.3L28.5 4.45L28.7 5.75L28.5 6.95L28.1 8.05L27.9 8.55L27.9 8.65L27.8 8.8L28.3 9.4L28.95 10.45L29.4 11.85L29.85 13.35L30 14.75L29.45 13.8L29 13.05L28.75 12.5L29.1 13.5L29.5 14.75L29.6 15.6L29.7 16.45L29.7 18.5L29.3 17.2L28.9 16L28.9 18.75L28.5 20.3L28 21.8L27.35 23.15L26.45 23L24.8 24.55L24.2 24.25L23.1 24.2L22.4 23.95L21.75 24.35L21.15 24.55L20.85 25.15L20.35 26.1L19.6 27.2L19.2 27.15L18.75 27.7L16.85 27.25L16.05 26.95L15.65 26.75L15.2 26.75L14.2 26.55L13.15 26.1L12.55 25.85L13.85 26.7L12.65 26.7L11.85 26.4L10.9 25.95L10.15 25.55L9.9 25.35L10.2 26.15L9.75 25.8L8.7 24.9L8 24L7.85 23.7L7.3 23.1L7.85 24.6L6.85 23.6L6.35 22.85L6.2 22.5L4.75 22.65Q3.85 22.5 2.6 21.7L1.4 20.5L0.5 18.75Q-0.05 17.2 0 15.4L0.2 14.2L0.6 12.95Q0.9 12.3 1.35 11.6L2.05 10.65L2.6 10.05L3.05 9.65L3.7 9.25L4.25 7.95L4.8 6.9L5.3 6.05L5.7 5.6L6.15 5.2L7 4.4L5.8 4.4L6.25 4L7.05 3.45L7.75 3.3L8.35 3.3L8.8 3.45L8.95 3.5L9 3.15L9.2 2.7L10.15 1.65L10.85 1.1L11.3 0.8L10.9 1.75L10.65 2.25L10.55 2.55L11.55 1.6L12.15 1.3L13 1L14.15 0.7L15.2 0.5L16.1 0.55L16.95 0.7L17.7 0.8L18.3 1L18.8 1.25L19.15 0.9Q19.6 0.5 19.9 0.35L20.95 0.1L22.15 0L23.3 0.15L24.5 0.5L25.7 1Q26.45 1.35 26.75 1.65L27.5 2.45L28.05 3.3" />
</g>
</svg>
