<?xml version="1.0" encoding="utf-8"?>
<svg version="1.1" id="Layer_1"
xmlns="http://www.w3.org/2000/svg"
xmlns:xlink="http://www.w3.org/1999/xlink"
width="455px" height="635px"
xml:space="preserve">
<g id="PathID_1212" transform="matrix(1, 0, 0, 1, 227.5, 317.5)">
<radialGradient
id="RadialGradID_478" gradientUnits="userSpaceOnUse" gradientTransform="matrix(0.0476685, 0, 0, 0.0476685, 200, -285)" spreadMethod ="pad" cx="0" cy="0" r="819.2" fx="0" fy="0" >
<stop  offset="0"  style="stop-color:#00FFFF;stop-opacity:1" />
<stop  offset="1"  style="stop-color:#0033FF;stop-opacity:1" />
</radialGradient>
<path style="fill:url(#RadialGradID_478) " d="M225 -315L225 -255L205 -255L205 -295L175 -295L175 -315L225 -315" />
<path style="fill:none;stroke-width:5;stroke-linecap:round;stroke-linejoin:round;stroke-miterlimit:3;stroke:#0000FF;stroke-opacity:1" d="M225 -315L225 -255L205 -255L205 -295L175 -295L175 -315L225 -315z" />
</g>
<g id="PathID_1213" transform="matrix(1, 0, 0, 1, 227.5, 317.5)">
<radialGradient
id="RadialGradID_479" gradientUnits="userSpaceOnUse" gradientTransform="matrix(-0.0476685, 0, 0, 0.0476685, -200, -285)" spreadMethod ="pad" cx="0" cy="0" r="819.2" fx="0" fy="0" >
<stop  offset="0"  style="stop-color:#00FFFF;stop-opacity:1" />
<stop  offset="1"  style="stop-color:#0033FF;stop-opacity:1" />
</radialGradient>
<path style="fill:url(#RadialGradID_479) " d="M-175 -315L-175 -295L-205 -295L-205 -255L-225 -255L-225 -315L-175 -315" />
<path style="fill:none;stroke-width:5;stroke-linecap:round;stroke-linejoin:round;stroke-miterlimit:3;stroke:#0000FF;stroke-opacity:1" d="M-225 -315L-225 -255L-205 -255L-205 -295L-175 -295L-175 -315L-225 -315z" />
</g>
<g id="PathID_1214" transform="matrix(1, 0, 0, 1, 227.5, 317.5)">
<radialGradient
id="RadialGradID_480" gradientUnits="userSpaceOnUse" gradientTransform="matrix(0.0476685, 0, 0, 0.0476685, 200, 285)" spreadMethod ="pad" cx="0" cy="0" r="819.2" fx="0" fy="0" >
<stop  offset="0"  style="stop-color:#00FFFF;stop-opacity:1" />
<stop  offset="1"  style="stop-color:#0033FF;stop-opacity:1" />
</radialGradient>
<path style="fill:url(#RadialGradID_480) " d="M225 255L225 315L175 315L175 295L205 295L205 255L225 255" />
<path style="fill:none;stroke-width:5;stroke-linecap:round;stroke-linejoin:round;stroke-miterlimit:3;stroke:#0000FF;stroke-opacity:1" d="M205 255L205 295L175 295L175 315L225 315L225 255L205 255z" />
</g>
<g id="PathID_1215" transform="matrix(1, 0, 0, 1, 227.5, 317.5)">
<radialGradient
id="RadialGradID_481" gradientUnits="userSpaceOnUse" gradientTransform="matrix(0.0476685, 0, 0, 0.0476685, -200, 285)" spreadMethod ="pad" cx="0" cy="0" r="819.2" fx="0" fy="0" >
<stop  offset="0"  style="stop-color:#00FFFF;stop-opacity:1" />
<stop  offset="1"  style="stop-color:#0033FF;stop-opacity:1" />
</radialGradient>
<path style="fill:url(#RadialGradID_481) " d="M-205 255L-205 295L-175 295L-175 315L-225 315L-225 255L-205 255" />
<path style="fill:none;stroke-width:5;stroke-linecap:round;stroke-linejoin:round;stroke-miterlimit:3;stroke:#0000FF;stroke-opacity:1" d="M-205 255L-205 295L-175 295L-175 315L-225 315L-225 255L-205 255z" />
</g>
</svg>
