<?xml version="1.0" encoding="utf-8"?>
<svg version="1.1" id="Layer_1"
xmlns="http://www.w3.org/2000/svg"
xmlns:xlink="http://www.w3.org/1999/xlink"
width="76px" height="36px"
xml:space="preserve">
<g id="PathID_259" transform="matrix(1, 0, 0, 1, 0.5, 0.5)">
<linearGradient
id="LinearGradID_121" gradientUnits="userSpaceOnUse" gradientTransform="matrix(0.0460205, 0, 0, 0.021637, 37.2, 17.2)" spreadMethod ="pad" x1="-819.2" y1="0" x2="819.2" y2="0" >
<stop  offset="0" style="stop-color:#0075BF;stop-opacity:1" />
<stop  offset="0" style="stop-color:#0075BF;stop-opacity:1" />
<stop  offset="0.992157" style="stop-color:#009DFF;stop-opacity:1" />
<stop  offset="1" style="stop-color:#009DFF;stop-opacity:1" />
<stop  offset="1" style="stop-color:#009DFF;stop-opacity:1" />
</linearGradient>
<path style="fill:url(#LinearGradID_121) " d="M-0.5 26.85L-0.5 5.65L-0.5 0L-0.35 -0.35L0 -0.5L7.15 -0.5L66.2 -0.5L74.4 -0.5L74.75 -0.35L74.9 0L74.9 5.65L74.9 26.85L74.9 34.45L74.75 34.8L74.4 34.95L66.2 34.95L7.15 34.95L0 34.95L-0.35 34.8L-0.5 34.45L-0.5 26.85M0.5 26.85L0.5 33.95L7.15 33.95L66.2 33.95L73.9 33.95L73.9 26.85L73.9 5.65L73.9 0.5L66.2 0.5L7.15 0.5L0.5 0.5L0.5 5.65L0.5 26.85" />
</g>
<g id="PathID_260" transform="matrix(1, 0, 0, 1, 0.5, 0.5)">
<linearGradient
id="LinearGradID_122" gradientUnits="userSpaceOnUse" gradientTransform="matrix(0.0457153, 0, 0, 0.0213318, 37.55, 17.5)" spreadMethod ="pad" x1="-819.2" y1="0" x2="819.2" y2="0" >
<stop  offset="0" style="stop-color:#0075BF;stop-opacity:1" />
<stop  offset="0" style="stop-color:#0075BF;stop-opacity:1" />
<stop  offset="0.992157" style="stop-color:#009DFF;stop-opacity:1" />
<stop  offset="1" style="stop-color:#009DFF;stop-opacity:1" />
<stop  offset="1" style="stop-color:#009DFF;stop-opacity:1" />
</linearGradient>
<path style="fill:url(#LinearGradID_122) " d="M74.65 0.2Q74.5 0.35 74.5 0.55L74.5 1.05L66.2 1.05L7.15 1.05L1.1 1.05L1.1 5.65L1.1 26.85L1.1 34.5L0.6 34.5Q0.4 34.5 0.25 34.65Q0.1 34.8 0.1 35L0.1 26.85L0.1 5.65L0.1 0.55Q0.1 0.35 0.25 0.2Q0.4 0.05 0.6 0.05L7.15 0.05L66.2 0.05L75 0.05Q74.8 0.05 74.65 0.2" />
<linearGradient
id="LinearGradID_123" gradientUnits="userSpaceOnUse" gradientTransform="matrix(0.0460205, 0, 0, 0.021637, 37.8, 17.75)" spreadMethod ="pad" x1="-819.2" y1="0" x2="819.2" y2="0" >
<stop  offset="0" style="stop-color:#0075BF;stop-opacity:1" />
<stop  offset="0" style="stop-color:#0075BF;stop-opacity:1" />
<stop  offset="0.992157" style="stop-color:#009DFF;stop-opacity:1" />
<stop  offset="1" style="stop-color:#009DFF;stop-opacity:1" />
<stop  offset="1" style="stop-color:#009DFF;stop-opacity:1" />
</linearGradient>
<path style="fill:url(#LinearGradID_123) " d="M74.5 1.05L74.5 0.55Q74.5 0.35 74.65 0.2Q74.8 0.05 75 0.05L75.35 0.2L75.5 0.55L75.5 5.65L75.5 26.85L75.5 35L75.35 35.35L75 35.5L66.2 35.5L7.15 35.5L0.6 35.5L0.25 35.35L0.1 35Q0.1 34.8 0.25 34.65Q0.4 34.5 0.6 34.5L1.1 34.5L7.15 34.5L66.2 34.5L74.5 34.5L74.5 26.85L74.5 5.65L74.5 1.05" />
</g>
</svg>
