<?xml version="1.0" encoding="utf-8"?>
<svg version="1.1" id="Layer_1"
xmlns="http://www.w3.org/2000/svg"
xmlns:xlink="http://www.w3.org/1999/xlink"
width="261px" height="261px"
xml:space="preserve">
<g id="PathID_943" transform="matrix(1, 0, 0, 1, -23.25, -23.25)">
<path style="fill:#000000;fill-opacity:1" d="M281.75 45.75L281.75 261.75Q281.75 281.75 261.75 281.75L45.75 281.75Q25.75 281.75 25.75 261.75L25.75 45.75Q25.75 25.75 45.75 25.75L261.75 25.75Q281.75 25.75 281.75 45.75" />
<path style="fill:none;stroke-width:5;stroke-linecap:round;stroke-linejoin:round;stroke-miterlimit:3;stroke:#000000;stroke-opacity:1" d="M261.75 25.75L45.75 25.75Q25.75 25.75 25.75 45.75L25.75 261.75Q25.75 281.75 45.75 281.75L261.75 281.75Q281.75 281.75 281.75 261.75L281.75 45.75Q281.75 25.75 261.75 25.75z" />
</g>
</svg>
