<?xml version="1.0" encoding="utf-8"?>
<svg version="1.1" id="Layer_1"
xmlns="http://www.w3.org/2000/svg"
xmlns:xlink="http://www.w3.org/1999/xlink"
width="308px" height="308px"
xml:space="preserve">
<g id="PathID_941" transform="matrix(1, 0, 0, 1, 0, 0)">
<linearGradient
id="LinearGradID_361" gradientUnits="userSpaceOnUse" gradientTransform="matrix(0.173981, 0.17395, -0.173965, 0.173935, 153.8, 153.75)" spreadMethod ="pad" x1="-819.2" y1="0" x2="819.2" y2="0" >
<stop  offset="0" style="stop-color:#FFFFFF;stop-opacity:0.8" />
<stop  offset="0.823529" style="stop-color:#009DA0;stop-opacity:0.8" />
</linearGradient>
<path style="fill:url(#LinearGradID_361) " d="M301.05 22.2Q303.05 32.4 304.65 54.8Q307.55 95.8 307.5 153.75Q307.55 211.7 304.65 252.7Q303 275.15 301 285.35Q299.45 299.4 285.15 301.1Q275.05 303 252.7 304.55Q211.75 307.5 153.75 307.5Q95.75 307.55 54.75 304.55Q32.5 303 22.3 301.1Q8.1 299.4 6.55 285.15Q4.5 275 2.9 252.7Q0 211.7 0 153.8Q0 95.8 2.9 54.8Q4.45 32.55 6.45 22.35Q8.1 8.2 22.2 6.5Q32.3 4.5 54.8 2.9Q95.75 -0.05 153.85 0Q211.75 0 252.75 2.9Q275.15 4.5 285.25 6.5Q299.45 8.2 301.05 22.2" />
</g>
</svg>
