<?xml version="1.0" encoding="utf-8"?>
<svg version="1.1" id="Layer_1"
xmlns="http://www.w3.org/2000/svg"
xmlns:xlink="http://www.w3.org/1999/xlink"
width="365px" height="247px"
xml:space="preserve">
<g id="PathID_1028" transform="matrix(1, 0, 0, 1, 0, 0)">
<path style="fill:#000000;fill-opacity:1" d="M346.8 30.45Q348.7 31.9 349.75 33.65Q350.7 35.2 350.2 37.1Q349.95 38.1 348.75 40.3Q347.05 43.55 343.75 45.65Q333.4 51.35 334.75 52.3L336.8 51.8L340.65 50.35Q346.5 48.25 349.4 48.95Q353.95 50.05 357.85 52.5Q362.65 55.6 364.1 59.65Q366.65 66.45 362.1 83.95Q361.45 86.45 360.2 88.9L357.8 93.3Q354.1 99.55 352.4 104.6L349.75 112.55Q347.9 117.85 346.8 121.6Q343.45 133 342.4 143.6Q341.4 153.9 341.9 174.05L342.75 203.55Q342.9 211 343.9 222.1Q344.6 231 344.4 234.5Q344.25 239.4 343.5 241.3Q342.85 242.9 340.75 244.5Q339.1 245.75 335.75 246L328.75 246.2L320.4 246.2L309.75 245.15Q304.8 244.25 294.4 241.55L273.95 236.3L269.75 235.85Q264.05 235.55 256.05 236.85Q256.4 230.75 255.35 225.85Q254.9 224 253.75 221.45L252.05 217.5Q251.65 216.15 251.2 212.65Q250.9 209.9 250.7 210.2Q250.45 210.65 250.2 214.25L250.05 220.9Q250.15 222.9 250.95 227.5L251.7 233.55Q251.95 238 251.05 238.5Q244.95 235.85 236.7 235.5Q229 235.15 218 236.85Q215.7 237.15 210.75 238.9Q206.55 240.3 204.35 240.15Q198.35 239.7 193.7 235.2Q194.9 230.35 194 227.5Q193.3 224.7 190.35 223.5L187.35 232.8Q184.05 234.5 179 234.85Q174.55 235.05 168 233.85L158 235.2L153.85 236.3L150.3 236.85Q147.45 236.45 146 233.55L126.95 232.15L104.65 232.8Q94.55 234 88.95 236.2L86.95 230.2L85.75 227.35Q85 225.6 84.65 223.85L84.45 216.4Q84.45 211.5 83.95 212.2Q83.5 212.95 81.9 220.55L79.65 231.15L77.95 237.5L57.3 236.5L52.4 235.55L47.6 234.25Q41.9 232.75 38.9 233.15Q37.2 233.4 35.5 234.5Q34.35 235.2 32.6 236.8L29.8 239.2Q28.15 240.4 26.6 240.85Q22.9 241.85 18.7 241.9Q14.15 241.95 10.95 240.85Q2.8 237.7 0.6 231.15Q-0.3 228.15 0.2 224.1L0.85 219.05L1.6 211.2L3.9 184.6Q5.55 165.15 5.95 154.2Q6.75 133.15 5.6 103.6Q5.15 93.65 3.75 75.75L1.9 51.3L0.9 36.95Q0.65 31.35 1.9 27.65Q3.45 23.5 6.6 20.8Q8.95 18.85 14.9 15.65Q19.85 12.9 29.1 9.55Q36.8 6.75 44.25 4.65Q49.4 3.2 55.9 2.55L65.6 1.65L79.95 0Q82.8 7.55 83.6 7.7Q84.6 7.75 83.6 0.35L104.3 1.65L125.3 4Q122.5 8.45 122.3 12.3Q122.3 13.5 123.6 15.35Q124.95 17.3 125 18.3Q125.05 19.4 124.05 21.55Q122.95 23.8 122.95 24.95Q123.05 28.4 125.3 32.3Q124.95 29 125.3 25.3L126.2 21.2Q126.95 18.55 126.95 17.3Q127.05 16.15 126.4 14.35Q125.85 12.6 126 11.65Q126.45 8.85 128.95 5.65Q139.35 8.4 146.35 9.35L160.3 10L161.3 17.3L164.65 13.65Q165.6 12.5 167.35 9.35Q160.2 8.85 160.65 6.95Q161 5.8 163.65 4.05Q166.55 2.1 169.35 1.65Q171.45 1.4 176.25 2.4Q181.85 3.6 185.05 3.65L197.15 2.8L215.6 0.95L220.05 0.65L222.85 1.05L224.4 1.95L225.5 3.25Q225.85 4 225.7 4.65Q225.3 5.85 223 6.65Q222 6.65 222 8.65Q222.2 11.55 223 14.7Q223.6 17 225.05 19.95Q224.75 15.85 225.35 13.65Q225.85 11.3 227.7 9.65Q233.7 10.85 239.05 10.65L244.95 9.8L250.35 8.65L254.65 7.8L258.75 7.3L269.1 8Q269.2 9.7 270.05 13L271.15 14.9Q271.95 16.05 272.05 17.3Q272.4 20.2 271.4 25.3Q272.85 25.2 273.35 22L273.5 16.95Q273.45 13.2 273.7 12Q274.65 8.5 276.75 8.35L285.05 9.65Q287.95 9.8 288.75 9Q286.35 4.15 287.75 2.35Q289.3 0 294.4 1.3Q296.8 1.95 300.1 3.65L308.75 8.35Q315.45 11.95 324.55 17.1L339.75 25.95L346.8 30.45" />
</g>
<g id="PathID_1029" transform="matrix(1, 0, 0, 1, 0, 0)">
<path style="fill:#E8E4D4;fill-opacity:1" d="M336.6 70.95Q337.45 77.1 338.05 88.8Q338.55 98.55 338.65 107Q338.8 112.05 338.55 115.45Q338.1 120.95 337.95 127.1L337.6 158.3L337.1 188.85L336.75 198.9L336.15 203.3L334.5 211.6Q333.35 216.9 333.35 219.4Q333.4 221.5 334.9 224.7Q336.3 227.65 336.15 229.9Q335.7 236.15 331.4 244.75Q325.95 245.5 319.1 245.05Q313.55 244.7 305.5 242.95L295.75 240.15Q288.75 238.1 285.75 237.35Q276.45 234.9 270.75 234.35L258.35 234.85Q258.45 229.2 257.4 224.6Q257 222.95 255.85 220.8L254.05 216.85Q252.55 211.15 251.7 204.85Q250.45 206.3 249.05 209.9L247.75 213.65Q247.05 216 246.9 218.2Q246.9 220.1 247.55 224.15L248.35 229.8Q248.5 234.25 247.7 235.5Q244.55 233.85 236.55 233.3L225.5 232.8Q218.7 232.7 214.5 232.9Q211.55 233 208.4 233.85L203.95 234.7Q199.2 234.65 195.7 232.9Q196.85 229.85 195.3 226.7Q193.75 223.65 189.3 220.55Q188.85 223.05 187.85 225.75L187 229.1Q186.35 231.2 185.25 231.95Q184 232.7 181.5 232.75L176.75 232.6Q171.5 232.15 165.85 230.6Q164.15 232.45 160.6 233.5Q156.25 234.65 152.7 234.05Q149.25 233.35 147 230.7L118.6 230.85L108.85 230.9L101.3 231.25Q94.45 231.9 90.8 233.5L88.35 226.35L87.45 224.8Q86.9 224.15 86.65 222.55L86.2 215.75Q85.95 210.75 85.55 209.45Q85.15 207.7 84.45 207.6Q83.75 207.4 83 208.8Q82.4 209.95 81.4 213.7L79.6 220.55L75.6 235.8L56.9 234.7Q54.1 234.3 48.75 232.65Q43.95 231.2 42 231.05Q39.55 230.95 37.6 231.7L34.35 233.4Q33.45 233.9 31.8 235.75Q30.25 237.5 29.05 237.9L24.9 239.1Q22.15 239.5 20.5 238Q18.1 235.75 16.9 233.4Q15.1 229.95 13.95 223.8Q11.65 210.6 10.75 183.3Q10.3 163.85 11.3 133.7Q11.55 126.6 12.85 108.3Q14 91.95 14.2 81.9Q14.35 76.2 13.6 66.85L12.2 50.8Q11.5 41.55 11.65 35.8Q11.95 28.4 13.6 24.05Q16.85 16.25 27.55 12.15Q30.65 10.95 36.5 9.35Q42.3 7.8 44.45 6.95Q50.2 4.75 57.6 3.9L68.15 2.95L78.5 1.65Q79.6 5.65 81.2 7.95Q84.15 11.5 85 10.25Q86.15 8.6 85.65 1.5L98 1.95L120.9 4.5Q119.45 7.85 119.25 10.15Q119.25 11.05 119.6 12.05L120.15 13.85Q120.95 16.55 121 18.2L120.5 21.25Q120.1 23.45 120.35 25.35Q121.1 29.8 124.2 37.25Q126.5 34.65 127.8 30.85L129.35 25.4L130.3 20.1Q130.45 18.6 129.95 16.95Q129.45 15.35 129.55 14.45Q130 11.45 131.95 7.75Q133.5 9.1 140.15 9.9L159.4 11.15L160.55 19.5L163.25 17.1Q165.5 14.95 166.7 12.85Q168.25 9.85 169.3 5.2Q195.5 6 210.75 6.1L218 5.5L219.1 5.2L220.1 5.35Q221.15 5.75 221.2 6.95L221.15 8.2L221.15 9.6L221.45 12.95Q221.65 15.25 222.1 16.55Q223.2 19.55 225.8 22.35Q225.5 18.6 226.2 15.4Q226.85 12.6 228.6 10.65Q234.6 12.65 240.2 12.35Q242.1 12.25 245.6 11Q249.25 9.6 251.3 9.4Q257.45 8.55 265.7 9.1L267.65 14.8L268.1 16.3L268.3 18.4L268.75 27.9Q272.1 28.1 273.5 26.75Q274.2 26.1 274.55 24.95L275.05 22.2L276.15 13.65L276.7 11.25L276.8 9.8L286.3 10.25L291.35 9.1Q302 16.4 307.85 22.55Q310.35 25.05 312.4 28.55L315.8 34.5L319.5 40.65Q321.75 44.35 323.3 46.25Q327.2 50.95 331.65 53.7Q334.95 57.65 336.6 70.95" />
</g>
<g id="PathID_1030" transform="matrix(1, 0, 0, 1, 0, 0)">
<path style="fill:#BBBDA7;fill-opacity:1" d="M224.2 2.5L224.85 3.4Q225.15 4.15 224.3 5.05L223.75 5.3L222.95 5.75L221.65 7.05L220.6 8.05L220.8 7.15L221.3 5.75L221.4 4.25Q221.45 3.35 221.6 3Q222.1 1.95 223.2 1.95Q223.7 2.05 224.2 2.5" />
</g>
<g id="PathID_1031" transform="matrix(1, 0, 0, 1, 0, 0)">
<path style="fill:#BBBDA7;fill-opacity:1" d="M130 6.75L133.1 8.35Q131.55 10.8 131.65 12.65Q131.75 13.25 132.6 14.45Q133.4 15.5 133.4 16.15L132.35 17.95Q131.35 19.25 131.25 20.1Q131.25 20.65 132.2 22.75Q133.05 24.65 132.8 25.9Q132.55 27.25 131.1 29.55L126.55 37.05Q125.3 39.3 124.4 39Q123.45 38.7 121.95 35.7Q120.7 33.2 119.85 30.4Q119.4 28.6 119.3 25.1L119.05 20.3L118.35 17.65L117.65 15.45L117.45 11.7L117.25 8.15Q116.9 5.2 116.25 4L119.55 4.2L122.6 4.85Q120.35 8.5 120.45 11.6Q120.5 12.75 121.65 14.65Q122.9 16.7 123.05 17.4Q123.3 18.3 123.1 19.15L122.75 21.15L122.1 24.55Q121.6 26.95 121.9 28.3Q122.7 31.6 125.65 34.15L126.4 30.3L128.1 19.95L128.55 16.85L128.1 14Q127.65 12.3 127.8 11.45Q128.2 8.85 130 6.75" />
</g>
<g id="PathID_1032" transform="matrix(1, 0, 0, 1, 0, 0)">
<path style="fill:#BBBDA7;fill-opacity:1" d="M347.5 39.1Q346.6 41.6 343.55 44.35L340.3 46.3L336.5 48.25L332.45 51Q329.9 52.75 328.1 53.3L319.2 53Q317.2 52.3 315.9 51.45Q314.35 50.4 313.05 48.55Q312.25 47.35 310.7 43.25Q309.2 39.15 307.7 37Q304.55 32.15 297 24.55Q293.3 20.45 290.4 18.75Q289.45 18.1 288.05 18L286.05 17.5Q285.45 17 284.85 15.65L283.6 13.55L281.1 11.6Q279.35 10.45 279.25 10.2Q279.15 9.8 280.15 9.9L282.1 10.1L284.35 10.15L286.75 10.15L291.2 9.3L292.15 9.5L292.95 9.7L293.35 9.3L293.6 8.7Q294.1 8 296.2 8.45Q305.95 10.2 313.8 13.7Q318 15.55 325.85 19.95L336.6 26L341.3 28.25Q342.65 28.8 343.65 29.55Q346.9 31.75 347.8 34.1Q348.7 36.3 347.5 39.1" />
</g>
<g id="PathID_1033" transform="matrix(1, 0, 0, 1, 0, 0)">
<path style="fill:#E8E4D4;fill-opacity:1" d="M342.5 29.15L339.35 29.3Q331.55 32.15 329 34.95Q327.55 36.7 326.75 39.7Q326.1 42.2 326.2 44.35Q326.4 47 329.45 48.75L332.2 48.95L333.95 48.9Q334.05 49.25 332.85 50.1Q331.55 51 330.25 51Q326.15 50.55 323.2 47.95Q321.85 46.7 319.6 43.35L315.65 37.75Q309.9 30.5 306.3 26.65L298.95 19.15L292.25 12.2Q290.35 9.8 289.55 8.05Q289.05 7 288.7 5.35Q288.35 3.2 290.25 2.1L294.3 1.95Q296.05 2.35 299.35 4.1L306.75 8.05Q316.6 13.3 320.1 15.4Q331.6 21.95 334.5 23.75L340.05 27Q342.75 28.55 343.3 29.2L343.35 29.4L342.5 29.15" />
</g>
<g id="PathID_1034" transform="matrix(1, 0, 0, 1, 0, 0)">
<path style="fill:#E8E4D4;fill-opacity:1" d="M338.9 35.75Q336.65 36.4 335.95 37.05Q335.05 37.85 334.5 39.3Q334 40.7 334.2 41.4Q334.5 42 335.8 42.25L337.75 42.2Q338.35 41.95 339.05 40.4L339.75 39.1Q340 39.2 339.8 40.9Q339.6 42.7 338.95 43.15L336.6 43.6Q334.9 43.6 334.15 43.05Q333.3 42.35 332.9 40.9Q332.4 39.3 333.05 38.25Q334.25 36.4 340 33.9L341.55 34Q342.05 34.55 341.45 34.95L338.9 35.75" />
</g>
<g id="PathID_1035" transform="matrix(1, 0, 0, 1, 0, 0)">
<path style="fill:#BBBDA7;fill-opacity:1" d="M278.35 10Q277.75 10.4 277.65 10.85L277.95 12.45L278 14.5L277.2 16.7Q276.45 18.3 276.25 19.05L275.95 21.45L275.65 23.9L275.1 26.05Q274.7 27.1 273.9 27.75Q272.4 28.75 268.6 28.9Q266.15 29.1 266 28Q265.95 27.6 266.9 26.35Q267.9 25 268 24.15Q268.15 23.1 267.9 21.45L267.25 19.05Q267.05 18.45 266.4 18.3Q265.8 18.15 265.7 17.85L266.15 16.5L266.5 15.1L265.7 14.45Q265 14.05 264.8 13.55Q264.45 11.95 264.7 8.7L267.85 9L269.25 13.65L270.2 15Q270.7 15.75 270.8 17Q271.1 19.95 270.1 26.15Q272.2 26.6 273.25 25.6L273.8 24.1L274 22.05Q274.5 20 274.7 16.9L274.6 14.7L274.5 12.75Q274.75 11.1 275.75 9.15Q278.05 9.1 278.65 9.6L278.35 10" />
</g>
<g id="PathID_1036" transform="matrix(1, 0, 0, 1, 0, 0)">
<path style="fill:#BBBDA7;fill-opacity:1" d="M362.9 72.15Q360.3 80.4 356.1 89.95L351 100.1Q347.55 106.75 345.95 111.45Q343.35 119.75 340.25 138.5Q337.7 154.05 337.2 164.5Q337 170.2 337.25 179.25L337.65 193L337.5 202.35Q337.35 207 337.85 210.85Q338.4 214.65 340.4 222.25L342.9 232.15L343.5 235.95L343.15 237.7Q342.9 240.3 341.4 242Q340.05 243.55 337 244.65L334.7 244.95L332 245L321.4 245.4L318.45 245Q315.8 243.8 314.55 240.95Q313.65 238.75 313.4 237.3Q312.85 234.95 313.2 232.25Q313.6 229.65 315.2 224.8L318.05 216.5L321.25 208.25L324.1 200.4L325.85 194.35Q326.6 191.5 327.05 187.95Q328.55 178.75 329 168.85Q329.65 155.1 329.35 139.65Q329.1 127.5 327.7 98.6L327.25 86.6Q327.05 81.6 327.15 77.6L327.65 68.2Q328.05 63.3 329.25 60.6Q330.45 58.05 333.65 55.95L338.4 53.15L341.4 51.5L344 50.85Q347.8 50.05 351 50.95Q354.75 51.8 357.75 54.4Q360.75 56.8 362.3 60.2Q363.4 62.7 363.45 66.65L363.65 68.65Q363.65 69.65 362.9 72.15" />
</g>
<g id="PathID_1037" transform="matrix(1, 0, 0, 1, 0, 0)">
<path style="fill:#E8E4D4;fill-opacity:1" d="M345 68.65Q344.4 69.85 342.4 71.05Q341.8 71 341.9 69.95L342.75 68.35Q343.35 67.25 343.25 66.8Q343.05 66.15 342.15 65.75Q341.15 65.3 340.2 65.5Q339.1 65.7 337.85 66.4Q336.4 67.2 335.45 68.35Q332.55 72.1 332.55 75.4Q332.65 78.45 333.3 81.15Q334.25 84.75 336 85.95Q337.95 87.1 342.15 86.95Q345.8 86.8 348.85 85.85Q351.3 85.1 353.5 83.25L357.3 79.4Q360.95 75.15 363.45 69.2Q363.25 76 361.8 81.35Q361.3 83.6 360.15 86L357.95 90.6L355.35 95.65Q353.5 99.1 352.35 102Q347.6 113.55 345.4 121.3Q342.9 130.5 341.35 142.35Q340.85 146.35 340.65 151.3L340.65 173.85L341.25 197.6L341.9 218.8Q342.35 227.35 343.25 235.1Q338.25 231.5 334.45 230.5Q332.45 229.85 330.5 229.85Q328.55 229.8 327.3 230.4Q326.25 230.85 325.6 232.25Q325.1 233.35 325 234.7Q324.95 236 325.35 237.25Q325.8 238.7 326.7 239.35Q327.85 240 330.35 240.25L333.7 240Q334.4 239.65 334 237.55L333.7 236.2L333.6 235.7Q334.15 236 335.1 238Q336.15 240.25 335.45 240.95Q334.65 241.5 331.45 241.45L326.75 241Q325.15 240.55 324.35 239.95Q323.55 239.25 322.9 237.9Q321.35 234.5 321.55 229.7Q321.7 227.8 322.4 224.9L324.05 217.75L326.7 206Q328.55 197.75 329.25 190.5Q330.4 179.2 331 147.95L331.25 136.65L330.9 125.1L329.65 101.95Q328.6 85.5 328.6 80Q328.65 73.4 329.4 70.35Q329.75 68.9 331.25 66.05Q332.3 64.25 334.3 63.55L337.6 62.85Q340.2 62.3 342.9 63.55Q344.7 64.25 345.3 66.05Q345.8 67.15 345 68.65" />
</g>
<g id="PathID_1038" transform="matrix(1, 0, 0, 1, 0, 0)">
<path style="fill:#E8E4D4;fill-opacity:1" d="M342.2 74.85Q343.85 74.5 345.2 73.3Q346.7 71.95 347.7 69.85L348.2 81.9Q347.8 83.55 346.35 84.4Q344.5 85.35 342.3 85.4L342.2 74.85" />
</g>
<g id="PathID_1039" transform="matrix(1, 0, 0, 1, 0, 0)">
<path style="fill:#BBBDA7;fill-opacity:1" d="M47 22.35Q47.2 25 46.25 28.4L43 38.15L36.05 55.15Q30.8 67.7 28.6 74.75Q23 93.15 20.75 111.1Q19.2 124.65 19.35 151.6Q19.55 168.15 21.4 180.85Q22.2 185.45 23.75 189.9L26.5 197.6L29.7 206.85L32.3 215.3Q33 218.5 33.1 220.8L32.95 225.25Q32.8 228.45 31 233.7L29.95 236.3Q29.35 237.45 28.25 238.15Q26.15 239.65 21.9 240.05Q15.75 240.3 12 239.25Q9.25 238.4 8 237.75Q6.05 236.75 5.3 235.3L4.8 234L4.85 232.8L5.6 226L7.25 207.7L8.95 186.4L9.7 169.1L10.2 152.7L11 137L11.5 120.3Q12.2 91.6 11.5 78.35Q11.15 71.75 9.85 65.75L7.85 57.3L6.65 52.15L5.6 47.9L4.05 40.95Q3.1 36.4 3.2 33.85Q3.55 28.1 6.7 23.45Q9.6 19.65 14.85 17.55Q17.9 16.25 21.95 15.2Q26.15 14.15 29.4 13.9Q36.5 13.3 41.1 15.5Q43.8 16.75 45.05 18Q46.8 19.75 47 22.35" />
</g>
<g id="PathID_1040" transform="matrix(1, 0, 0, 1, 0, 0)">
<path style="fill:#E8E4D4;fill-opacity:1" d="M35 24.45L36.7 24.75L38.3 25Q39.9 25.5 40.3 27.45Q41.4 32.95 38.55 43.1Q37.4 47.15 32.8 58.85Q27.95 71.15 26.2 76.95L21.7 92.7Q19.5 101.3 18.35 110.8Q17.25 120.9 16.7 136.6Q16.2 150.2 16.3 163.05Q16.45 173.25 17.4 183.8L19.45 202.2Q21.85 220.05 25.7 234.9Q22.8 232.65 19 231.05Q14.55 229.2 12.1 229.3Q10.45 229.4 8.7 230.05Q6.9 230.7 6.05 231.6Q4.55 233.3 5.9 236.2Q3.05 234 2.25 230.3Q1.9 228.65 1.95 227.7L5.75 183.65Q6.9 167.4 7.35 154.6Q8 140.7 8 133.05Q8.05 126.85 7.5 111.95L7.35 103.4L7.05 95.15L6.4 87.2L5.45 76.15L3 34.3Q5.7 40.25 9.6 42.9Q11.6 44.25 13.5 44.6L18.35 44.35Q21.6 43.6 26.15 41.55Q31 39.4 33.25 37.65Q36.85 34.65 36.45 29.5Q36.25 27.05 32.45 25.5L29.25 24.95L26.2 25.2Q25.15 25.45 24.55 26.05Q24 26.6 23.95 27.25L25.1 28.3Q26.3 29.05 26.5 29.35Q27.35 30.25 27.15 31.15Q24.2 31.55 22.55 30.3Q21.75 29.65 21.3 28.4Q20.85 27 21.3 26.2Q21.9 25.2 23.45 24.3Q25 23.4 26.7 23.15L30.85 23.4Q33.1 23.75 35 24.45" />
</g>
<g id="PathID_1041" transform="matrix(1, 0, 0, 1, 0, 0)">
<path style="fill:#E8E4D4;fill-opacity:1" d="M24.3 33.8L27 33.65L27.35 38.95Q26.2 40.05 24.15 41Q22.25 41.9 18.85 42.75Q18.55 40.25 18.7 37Q18.9 33.3 19.45 29.8Q23.05 33.25 24.3 33.8" />
</g>
<g id="PathID_1042" transform="matrix(1, 0, 0, 1, 0, 0)">
<path style="fill:#BBBDA7;fill-opacity:1" d="M248.6 235.4Q237.9 233.2 228.6 232.65Q224.5 232.3 219.05 232.45L210.05 232.75L194.8 233.85L195.05 227.35L194.8 223.85Q194.65 221.75 194.8 220.95Q195.35 218.85 197.45 218.2L201 218.5Q202.35 218.9 206.5 220.85L215.25 224.55Q220.3 226.45 225.75 228.15L237.85 230.9Q240.85 231.65 244.5 233.2Q247.65 234.55 248.6 235.4" />
</g>
<g id="PathID_1043" transform="matrix(1, 0, 0, 1, 0, 0)">
<path style="fill:#E8E4D4;fill-opacity:1" d="M241.7 232.85Q248.2 234.7 249.75 236.1Q247.1 235.4 241.8 235L228.15 234.4L221.15 235.05L214.6 235.9L209.55 236.6L204.9 236.85Q200.2 236.4 194.75 233.85Q196.25 233.45 197.65 232Q198.8 230.6 199.75 228Q198.65 228.8 198 228.45L197.4 227.55L197.15 226.4L197.75 225.05Q198.2 224.3 198.55 224.25Q199.35 224.15 200.05 225.8Q200.55 223.5 200.25 222.1Q200 220.35 198.85 218.95Q200.4 220.45 207.2 223.2Q214.5 226.05 224.65 229.1L233.8 231.15L241.7 232.85" />
</g>
<g id="PathID_1044" transform="matrix(1, 0, 0, 1, 0, 0)">
<path style="fill:#BBBDA7;fill-opacity:1" d="M252.5 203.5Q252.95 203.4 252.95 204.55L253 207Q253.55 210.5 254.2 213.25L255.6 216.45L258.15 222.1Q258.75 223.4 259 225.05Q259.65 228.4 259.7 234.7L257.85 234.95Q257.95 231.15 257.5 228.3Q257.25 226.45 255.85 222.3L254.75 219.5L253.6 216.9Q252.2 213.6 251.95 212.6L251.8 209.4L251.65 207.1Q251.25 206.2 250.3 208.8Q249.5 211.2 248.7 215.5Q248.35 217.95 248.35 220.55L248.85 224.4L249.3 228.6Q249.65 233.2 249.5 235.9L247.05 234.7Q245.6 234 244 233.45Q246.5 232.45 247.05 230.4Q247.35 229.1 246.1 225.55L245.2 223.15Q244.55 221.7 244.5 220.75Q244.55 219.8 245.25 218.05L246.2 215.5L246.15 213.45Q246 212.3 246.2 211.65Q246.9 209.95 248.6 207.9Q251.85 203.65 252.5 203.5" />
</g>
<g id="PathID_1045" transform="matrix(1, 0, 0, 1, 0, 0)">
<path style="fill:#BBBDA7;fill-opacity:1" d="M173.95 232.7Q170.4 232.2 168.45 231.4Q175.8 231.35 179.7 230.15Q181.4 229.6 182.6 228.6L184.7 226.55Q187.1 224.25 189.6 220.75L188.75 224.75L187.35 229.45L186.85 230.85L185.9 231.9Q184.4 232.85 181.7 233.05L173.95 232.7" />
</g>
<g id="PathID_1046" transform="matrix(1, 0, 0, 1, 0, 0)">
<path style="fill:#BBBDA7;fill-opacity:1" d="M81.85 202.8Q81.25 200.25 81.4 200.05Q81.65 199.75 82.75 201.4L84.45 204.05L85.55 205.35L86.5 207.3Q86.9 208.5 87.3 211.55L88 216.15L88.25 219.25Q88.35 220.8 88.7 221.55Q89.05 222.1 90.6 222.45Q92 222.75 92.2 223.35Q92.4 223.95 91.7 225.75Q90.9 227.7 90.95 228.5Q91.35 230.8 93.35 232.5L89.75 233.95L87.2 226.7L86.2 224.65Q85.7 223.7 85.5 222.45L85.5 217.75L85.45 213.25Q85.1 209.45 84.15 210.15Q83.6 210.55 82.65 212.6Q81.65 214.6 80.95 216.7L79.9 221.65L78.85 227Q77.7 231.9 76.35 235.95L73.45 236.05Q77.35 225 79 218.8Q79.6 216.6 79.55 214.85Q79.45 213.15 79.65 212.45Q79.9 211.55 81.15 209.65Q82.2 207.9 82.35 206.8Q82.55 205.65 81.85 202.8" />
</g>
<g id="PathID_1047" transform="matrix(1, 0, 0, 1, 0, 0)">
<path style="fill:#BBBDA7;fill-opacity:1" d="M87.35 5.2L86.85 7.1L86.15 9.05L86.05 11.55Q86 13.05 85.55 13.25Q85.05 13.4 83.9 12.65L81.9 10.9Q81.4 10.25 80.75 8.6L79.55 6.05Q77.95 3.6 76.1 1.75L79.4 1.4Q81.45 6.85 82.55 8.4Q83.25 9.25 83.9 9.3Q84.5 9.4 84.85 8.9Q85.35 8.15 85.25 5.2L85.25 1.4L86.75 1.4Q87.5 3.25 87.35 5.2" />
</g>
<g id="PathID_1048" transform="matrix(1, 0, 0, 1, 0, 0)">
<path style="fill:#BBBDA7;fill-opacity:1" d="M189.45 15.45Q189.9 15.75 187.7 16.25L186.15 16.5L184.35 16.9L182.55 17.75L180.65 18.5Q178.65 18.95 177.15 18.05L174.95 15.2Q173.4 12.95 172.65 12.4Q171 11.1 169.3 12.05Q168.7 12.35 167.85 13.65L166.25 15.9L162.15 19.75Q160.55 21 159.45 20.9L158.35 11.05L159.45 11.05L160.9 18.9L163.8 16.2L166.25 13.15L167.8 9.6L168.35 7.4Q169.45 7.1 171.15 8.25Q172.3 8.95 175 11.9L176.3 13.65L177.6 15.25Q180.05 16.75 181.7 16.75Q182.5 16.7 183.85 15.8Q185.25 14.9 185.8 14.85L188.05 15Q189.25 15.2 189.45 15.45" />
</g>
<g id="PathID_1049" transform="matrix(1, 0, 0, 1, 0, 0)">
<path style="fill:#E8E4D4;fill-opacity:1" d="M222.05 1.55L222.55 1.75L222.3 2.2L221.65 2.95Q221.35 4.1 221.4 4.95L221.8 13.05L222.2 14.75L222.25 16.05Q222.1 16.35 221.55 16.5L220.1 17.4Q219.8 17.75 219.55 19L219.1 21.2Q218.15 24 214.9 23.9Q212.05 23.75 201.85 20.15Q190.95 16.3 188.3 15.85Q185.05 15.25 182.75 16.8L181.2 17.75L179.45 17.65Q177.85 16.95 175.1 13.3Q172.1 9.3 171.25 8.7Q169.95 7.8 168.65 8L167 8.45L166.75 8.45L164.75 8.25Q163.2 8.15 162.9 7.75Q162.65 7.2 163.15 6.25Q163.65 5.25 164.45 4.55Q167.45 2.4 170.2 2.25L174.2 2.7L182.1 4.05L186.3 4.35L198.85 3.7L205.75 2.8L212.05 1.95L220.3 1.6L222.05 1.55" />
</g>
<g id="PathID_1050" transform="matrix(1, 0, 0, 1, 0, 0)">
<path style="fill:#E8E4D4;fill-opacity:1" d="M223.95 5.3L223.2 5.75L222.65 5.35L222.2 4.7L222.35 3.9L222.7 3.5L222.95 4.05L223.3 4.75L224 4.75L224.45 4.75L223.95 5.3" />
</g>
<g id="PathID_1051" transform="matrix(1, 0, 0, 1, 0, 0)">
<path style="fill:#BBBDA7;fill-opacity:1" d="M229.15 10.75Q228.7 11.3 228 13.2Q227.2 15.7 227.3 16.8L228.25 18.1Q228.95 18.85 228.9 19.15Q228.8 19.35 227.75 19.65Q226.7 19.95 226.45 20.35Q226.35 20.7 226.75 22.4Q227.1 23.75 226.7 23.65L224.3 21.5Q222.35 19.5 221.75 18.35Q221.2 17.3 221.2 16.15L221.55 6.05L221.65 6.5L221.75 9.4L221.85 12.85Q222.1 14.55 222.65 15.95L223.95 19.35Q224.7 20.8 225.5 21.7Q225.25 19.9 225.45 18.3Q225.9 15.5 226.3 14.2Q226.7 13 227.2 12.2L228.4 10.4L229.15 10.75" />
</g>
<g id="PathID_1052" transform="matrix(1, 0, 0, 1, 0, 0)">
<path style="fill:#000000;fill-opacity:1" d="M325.75 48.95L328.6 50Q330.35 50.55 330.55 50.8Q330.8 51.1 329.9 51.2L327.9 51.1Q324.1 49.8 322.4 48.25Q321.6 47.45 320.7 45.7L318.9 42.6Q316.25 38.65 313 34.85L309.8 31L305.2 26.05L288.65 9.05L289.25 8.35Q290.5 9.25 293.65 12.5L301.3 20.5Q308.15 27.4 311.45 31.25Q314.5 34.6 319.15 41.1L321.05 44.3L322.3 46.6Q323 47.4 324 48L325.75 48.95" />
</g>
<g id="PathID_1053" transform="matrix(1, 0, 0, 1, 0, 0)">
<path style="fill:#000000;fill-opacity:1" d="M335.5 54.7Q334.05 55.4 332.65 56.7Q330.75 58.35 330.1 59.85Q328.75 63.1 328.2 66.6Q327.55 73.05 327.55 79.05Q327.55 82.25 327.9 88.8L329.5 132.45Q330.05 146.65 330 150.75Q330 162.15 329.3 170.6Q328.2 186 326.85 192.4Q325.95 196.6 324.1 201.75L320.95 210.25L318.05 218.15L315.55 224.95Q313.85 230.55 313.7 233.15Q313.6 236.3 314.75 239.25Q315.45 241.05 317.75 243.85Q318.85 245.2 319.65 245.25L317.4 245.35Q315.35 243.55 314.3 241.6Q312.85 238.85 312.55 236.7L312.25 234.15Q312.2 232.7 312.75 230.55Q313.7 227.05 317.55 216.55L324.45 197.65Q325.55 194.75 326.15 191.6Q327.8 183.4 328.55 172.5Q329.2 160.95 329 149.55Q329 142.05 328.4 126.4L327.7 109.55L327.15 90.9L326.5 73.05Q326.75 66.95 327.55 63.75Q328.1 61.6 330.05 57.9L331.25 55.75L332.45 54.35Q333.1 53.85 333.95 53.7L335.15 53.65Q335.95 53.75 335.5 54.7" />
</g>
<g id="PathID_1054" transform="matrix(1, 0, 0, 1, 0, 0)">
<path style="fill:#000000;fill-opacity:1" d="M328.45 52.75Q329.85 52.55 330.45 52.1Q332.9 52.1 331.85 52.6Q328.8 53.7 326.25 53.95L319.75 53.55Q316.3 52.4 314.2 50.6L312.9 49.05L312 47.4L311.2 45.05L310.3 42.5Q309.5 40.25 307.8 37.5Q306.5 35.2 303.8 32.2Q300.75 28.55 296.15 24.05Q292.8 20.5 291.35 19.5Q290.5 18.9 289.35 18.6L286.1 17.55Q285.4 17.3 284.9 16.85L284.1 15.2Q283.65 13.95 283.25 13.45L281.9 12.1L280.45 11.05L278.6 9.95L278.05 9.4Q277.8 9.2 277.9 9.1L279.8 9.5L281.35 11.05L282.65 11.85Q283.4 12.3 283.9 12.85L284.85 14.55L285.75 16.25L286.9 17L288.25 17.6L290.05 17.9Q291.2 18.1 292.15 18.85L294.75 21.3L297.65 24.55L303.75 31.35L306.75 34.7Q308.45 36.7 309.4 38.35L311.25 42.8Q312.25 46.05 312.8 47.05Q314.8 50.4 317.05 51.75Q319.75 53.1 323.8 53.4L326.45 53.2L328.45 52.75" />
</g>
<g id="PathID_1055" transform="matrix(1, 0, 0, 1, 0, 0)">
<path style="fill:#000000;fill-opacity:1" d="M329.25 188.5L329.95 183.85Q330.3 184.05 330.2 189.05Q330.1 194.35 329.6 198Q329.15 201.15 327.7 206.55L322.1 230.1L321.95 232.55Q322.3 236.7 323.4 238.6Q323.9 239.35 325.6 240.15L327.15 240.85L325.65 241Q324.05 240.9 323.4 240.15Q321.7 238.1 321.15 233.85Q320.95 230.7 322.1 224.85L324.05 217.2L326.05 209.1Q327 204.75 328.2 196.6L329.25 188.5" />
</g>
<g id="PathID_1056" transform="matrix(1, 0, 0, 1, 0, 0)">
<path style="fill:#000000;fill-opacity:1" d="M337.2 232.25Q334.25 230.95 332.5 230.5Q330.2 229.8 327.75 230.9Q326.25 231.6 325.9 233.6Q325.6 234.95 326.65 237.5Q325 235.8 324.95 234.1Q324.9 231.3 326.2 230.35Q328.35 229 331.85 229.35Q333.7 229.45 337.9 231.15Q341.15 232.5 343.5 234.1L343.9 235.9Q343.4 235.3 341.55 234.4Q340.05 233.5 337.2 232.25" />
</g>
<g id="PathID_1057" transform="matrix(1, 0, 0, 1, 0, 0)">
<path style="fill:#000000;fill-opacity:1" d="M242 233.15Q234.1 231.9 224.75 229.5Q221.3 228.55 210.55 224.6Q204.25 222.1 199.7 219.8Q197.55 221.5 197.15 223.15Q196.95 224.4 198 226.8L199.1 228L199.7 228.8Q199.6 229 198.8 228.8Q197.9 228.55 197.45 228.1Q196.85 227.35 196 224Q195.95 222.25 196.3 221.2Q196.75 219.55 197.6 218.95Q198.1 218.55 198.7 218.55L200.5 218.95Q202.35 219.5 208.15 222.2L212.7 224.25L217.7 226.4L229.65 229.75L242 233.15" />
</g>
<g id="PathID_1058" transform="matrix(1, 0, 0, 1, 0, 0)">
<path style="fill:#000000;fill-opacity:1" d="M46.5 25.1Q46.95 22.35 46.15 20.5Q45.35 18.25 43.55 17.25Q41.7 15.9 37.45 14.95L33.9 14.3L29.3 14.4Q23.55 15 14.9 17.25L19.95 14.4Q26.1 12.65 30.85 12.4Q35.85 12 39.5 13.3L44.5 15.3Q47.5 16.85 48.25 18.9Q49.05 21 48.55 24.55Q48.2 26.85 46.85 31.9Q45.95 35.25 43.85 40.75L40.15 50L36.8 57.25Q34.6 61.6 33.25 65.2Q28.8 77.3 25.95 88.65Q23.8 97.65 22.1 111.35Q20.85 123.35 20.45 134.5Q20.1 146.7 20.45 157.65Q20.95 168 22.1 175.45Q23.7 184.7 25.85 192.4L28.55 200.55L31.05 207.9L32.65 213.2L33.6 217.95Q34.85 224.45 34.25 228.4Q33.4 233.6 30.75 237.5L28 238.55Q30.7 235.7 31.7 230.5Q33.15 223.75 32.3 217.95Q31.8 214.9 30.2 210.05L27.35 201.85L24.75 194.45Q23.2 190.05 22.35 186.55Q20.5 178.45 19.5 166.6Q19.25 162.5 19.15 147.5L19.05 134.1Q19.55 119.6 20.15 112.9Q20.75 105.9 22.75 95.45Q25.25 84 27.9 75.5Q29.1 71.75 31.05 66.85L39.85 44.95L44.4 32.95Q46.15 28 46.5 25.1" />
</g>
<g id="PathID_1059" transform="matrix(1, 0, 0, 1, 0, 0)">
<path style="fill:#000000;fill-opacity:1" d="M19.15 196.6Q21.3 211.9 22.45 218.35Q24.5 229.6 25.95 235.3Q22.4 233.15 19.8 232Q16.3 230.3 14.65 230.05L10.15 229.9Q9.25 230.15 8.2 230.75Q7.25 231.35 6.7 232Q5.9 232.95 6.15 234.95Q6.45 236.4 8.1 238.2L6.25 237.9Q4.65 234.95 4.95 232.95Q5.55 230.35 7.8 229.45Q9.2 228.85 11.55 228.75L15.95 229.05Q20.15 229.95 24.4 233.2Q23.1 229.7 21.45 219.85L18.05 194.1L16.85 181L16.7 174.95Q16.65 171.7 16.85 173.45L17.85 183.2L19.15 196.6" />
</g>
<g id="PathID_1060" transform="matrix(1, 0, 0, 1, 0, 0)">
<path style="fill:#000000;fill-opacity:1" d="M2.25 33.3Q5.8 38.05 8.8 40.65L11.25 42.7Q12.45 43.5 14.25 43.6L19.65 43.05Q22.9 42.4 25.4 41.4Q31.25 39 34.05 35.85Q36.1 33.4 35.65 29.5Q35.4 27.45 33.05 26.35Q32.25 25.9 30 25.5L27.65 25.15Q27.45 24.95 28.75 24.9L31 25Q34.4 25.2 35.55 26.25Q37.8 28.2 37.45 30.95Q37.15 32.55 36.2 34.5Q35.15 36.7 33.85 38.15Q31.45 40.7 26.45 42.8Q24.1 43.8 21.05 44.6Q17.7 45.45 15.45 45.55Q10.95 45.65 7.55 43.5Q4.25 41.15 2 36.3L2.25 33.3" />
</g>
</svg>
