<?xml version="1.0" encoding="utf-8"?>
<svg version="1.1" id="Layer_1"
xmlns="http://www.w3.org/2000/svg"
xmlns:xlink="http://www.w3.org/1999/xlink"
width="1719px" height="583px"
xml:space="preserve">
<g id="PathID_1151" transform="matrix(1, 0, 0, 1, -236.65, -226.4)">
<path style="fill:#FFFFFF;fill-opacity:1" d="M1955.4 545.55L1955.4 743.95Q1955.4 776 1940.95 792.4Q1926.1 808.8 1902.65 808.8Q1878.8 808.8 1864 792Q1849.15 775.2 1849.15 743.95L1849.15 566.25Q1849.15 513.5 1834.7 485.75Q1819.85 457.65 1776.1 457.65Q1747.55 457.65 1724.15 474.85Q1700.7 491.65 1689.75 521.3Q1681.95 545.15 1681.95 610.4L1681.95 743.95Q1681.95 776.4 1667.1 792.8Q1651.85 808.8 1628.05 808.8Q1605 808.8 1590.15 792Q1575.3 775.2 1575.3 743.95L1575.3 435.75Q1575.3 405.3 1588.6 390.45Q1601.85 375.2 1624.9 375.2Q1639 375.2 1650.3 381.85Q1661.65 388.5 1668.65 401.8Q1675.3 415.05 1675.3 434.2L1675.3 447.1Q1703.45 410 1737 392.8Q1770.25 375.2 1813.6 375.2Q1855.75 375.2 1889 393.6Q1922.2 411.95 1938.6 445.55Q1949.15 465.05 1952.25 487.7Q1955.4 510.4 1955.4 545.55M1423.35 375.2Q1456.95 375.2 1488.6 392Q1520.2 408.8 1520.2 436.55Q1520.2 456.1 1506.95 468.95Q1493.25 481.45 1477.65 481.45Q1471.8 481.45 1449.5 474.45Q1426.85 467 1409.65 467Q1386.25 467 1371.4 479.5Q1356.55 491.65 1348.35 515.85Q1340.15 540.05 1337 573.65Q1333.9 606.85 1333.9 654.9L1333.9 743.95Q1333.9 776.4 1318.65 792.8Q1303.4 808.8 1280 808.8Q1256.95 808.8 1242.1 792.4Q1227.25 776 1227.25 743.95L1227.25 447.1Q1227.25 375.2 1279.2 375.2Q1305.75 375.2 1317.5 392Q1329.2 408.8 1330.35 441.65Q1349.5 408.8 1369.85 392Q1389.75 375.2 1423.35 375.2M1107.35 391.25Q1121.8 406.85 1121.8 438.9L1121.8 747.9Q1121.8 778.35 1108.1 793.6Q1094.05 808.8 1072.15 808.8Q1050.3 808.8 1036.25 793.2Q1021.8 777.2 1021.8 748.65L1021.8 735Q1002.65 759.2 981.55 775.6Q960.45 792 935.45 800.2Q910.45 808.05 878.4 808.05Q839.75 808.05 809.3 792Q778.4 776 761.65 747.9Q741.7 713.9 741.7 650.2L741.7 438.9Q741.7 406.85 756.15 391.25Q770.6 375.2 794.45 375.2Q818.65 375.2 833.5 391.25Q848.35 407.25 848.35 438.9L848.35 609.6Q848.35 646.7 854.6 672.1Q860.85 697.1 877.25 711.55Q893.25 725.6 921 725.6Q947.95 725.6 971.8 709.6Q995.6 693.6 1006.55 667.8Q1015.55 645.15 1015.55 568.6L1015.55 438.9Q1015.55 407.25 1030.4 391.25Q1045.2 375.2 1069.05 375.2Q1092.9 375.2 1107.35 391.25M723.35 274.45Q723.35 295.95 708.5 309.2Q693.65 322.1 664 322.1L537.4 322.1L537.4 738.1Q537.4 774.05 521.4 791.65Q505.4 808.8 480 808.8Q454.2 808.8 438.2 791.25Q421.8 773.65 421.8 738.1L421.8 322.1L295.25 322.1Q265.55 322.1 251.1 309.2Q236.65 295.95 236.65 274.45Q236.65 252.2 251.85 239.3Q266.7 226.4 295.25 226.4L664 226.4Q694.05 226.4 708.9 239.7Q723.35 252.95 723.35 274.45" />
</g>
</svg>
