<?xml version="1.0" encoding="utf-8"?>
<svg version="1.1" id="Layer_1"
xmlns="http://www.w3.org/2000/svg"
xmlns:xlink="http://www.w3.org/1999/xlink"
width="122px" height="122px"
xml:space="preserve">
<g id="PathID_1223" transform="matrix(1, 0, 0, 1, 61, 61)">
<linearGradient
id="LinearGradID_486" gradientUnits="userSpaceOnUse" gradientTransform="matrix(0, 0.0744629, -0.0744629, 0, 0, 0)" spreadMethod ="pad" x1="-819.2" y1="0" x2="819.2" y2="0" >
<stop  offset="0" style="stop-color:#263F5E;stop-opacity:1" />
<stop  offset="0.654902" style="stop-color:#4BC6D5;stop-opacity:1" />
<stop  offset="0.74902" style="stop-color:#4BC6D5;stop-opacity:1" />
<stop  offset="1" style="stop-color:#263F5E;stop-opacity:1" />
</linearGradient>
<path style="fill:url(#LinearGradID_486) " d="M0 61Q-25.3 61 -43.15 43.1Q-61 25.25 -61 0Q-61 -25.3 -43.15 -43.2Q-25.3 -61 0 -61Q25.25 -61 43.15 -43.2Q61 -25.3 61 0Q61 25.25 43.15 43.1Q25.25 61 0 61M36.65 36.55Q51.8 21.4 51.8 -0.05Q51.8 -21.55 36.65 -36.75Q21.45 -51.9 0 -51.9Q-21.45 -51.9 -36.6 -36.75Q-51.8 -21.55 -51.8 -0.05Q-51.8 21.4 -36.6 36.55Q-21.45 51.75 0 51.75Q21.45 51.75 36.65 36.55" />
</g>
<g id="PathID_1224" transform="matrix(1, 0, 0, 1, 61, 61)">
<linearGradient
id="LinearGradID_487" gradientUnits="userSpaceOnUse" gradientTransform="matrix(0, 0.0579834, -0.0579834, 0, 0, 0)" spreadMethod ="pad" x1="-819.2" y1="0" x2="819.2" y2="0" >
<stop  offset="0" style="stop-color:#263F5E;stop-opacity:1" />
<stop  offset="0.670588" style="stop-color:#4BC6D5;stop-opacity:1" />
<stop  offset="0.847059" style="stop-color:#4BC6D5;stop-opacity:1" />
<stop  offset="1" style="stop-color:#263F5E;stop-opacity:1" />
</linearGradient>
<path style="fill:url(#LinearGradID_487) " d="M0 47.5Q-19.7 47.5 -33.6 33.55Q-47.5 19.65 -47.5 0Q-47.5 -19.7 -33.6 -33.65Q-19.7 -47.5 0 -47.5Q19.65 -47.5 33.6 -33.65Q47.5 -19.7 47.5 0Q47.5 19.65 33.6 33.55Q19.65 47.5 0 47.5M28.55 28.45Q40.35 16.65 40.35 -0.05Q40.35 -16.75 28.55 -28.6Q16.7 -40.4 0 -40.4Q-16.7 -40.4 -28.5 -28.6Q-40.35 -16.75 -40.35 -0.05Q-40.35 16.65 -28.5 28.45Q-16.7 40.3 0 40.3Q16.7 40.3 28.55 28.45" />
</g>
<g id="PathID_1225" transform="matrix(1, 0, 0, 1, 61, 61)">
<linearGradient
id="LinearGradID_488" gradientUnits="userSpaceOnUse" gradientTransform="matrix(0, 0.0390625, -0.0390625, 0, 0, 0)" spreadMethod ="pad" x1="-819.2" y1="0" x2="819.2" y2="0" >
<stop  offset="0" style="stop-color:#263F5E;stop-opacity:1" />
<stop  offset="0.654902" style="stop-color:#4BC6D5;stop-opacity:1" />
<stop  offset="0.890196" style="stop-color:#4BC6D5;stop-opacity:1" />
<stop  offset="1" style="stop-color:#263F5E;stop-opacity:1" />
</linearGradient>
<path style="fill:url(#LinearGradID_488) " d="M0 32Q-13.25 32 -22.6 22.65Q-32 13.25 -32 0Q-32 -13.25 -22.6 -22.65Q-13.25 -32 0 -32Q13.3 -32 22.65 -22.65Q32 -13.25 32 0Q32 13.25 22.65 22.65Q13.3 32 0 32M19.25 19.2Q27.2 11.25 27.2 0Q27.2 -11.3 19.25 -19.25Q11.25 -27.2 0 -27.2Q-11.25 -27.2 -19.2 -19.25Q-27.15 -11.3 -27.15 0Q-27.15 11.25 -19.2 19.2Q-11.25 27.15 0 27.15Q11.25 27.15 19.25 19.2" />
</g>
<g id="PathID_1226" transform="matrix(1, 0, 0, 1, 61, 61)">
<linearGradient
id="LinearGradID_489" gradientUnits="userSpaceOnUse" gradientTransform="matrix(0, 0.0195313, -0.0195313, 0, 0, 0)" spreadMethod ="pad" x1="-819.2" y1="0" x2="819.2" y2="0" >
<stop  offset="0" style="stop-color:#263F5E;stop-opacity:1" />
<stop  offset="0.854902" style="stop-color:#4BC6D5;stop-opacity:1" />
</linearGradient>
<path style="fill:url(#LinearGradID_489) " d="M0 16Q-6.6 16 -11.3 11.3Q-16 6.65 -16 0Q-16 -6.65 -11.3 -11.3Q-6.6 -16 0 -16Q6.65 -16 11.35 -11.3Q16 -6.65 16 0Q16 6.65 11.35 11.3Q6.65 16 0 16" />
</g>
</svg>
