<?xml version="1.0" encoding="utf-8"?>
<svg version="1.1" id="Layer_1"
xmlns="http://www.w3.org/2000/svg"
xmlns:xlink="http://www.w3.org/1999/xlink"
width="200px" height="200px"
xml:space="preserve">
<g id="PathID_712" transform="matrix(1, 0, 0, 1, -19.3, 14.95)">
<path style="fill:#956415;fill-opacity:1" d="M219.3 185.05L19.3 185.05L19.3 -14.95L219.3 -14.95L219.3 185.05" />
</g>
<g id="PathID_713" transform="matrix(1, 0, 0, 1, -19.3, 14.95)">
<radialGradient
id="RadialGradID_343" gradientUnits="userSpaceOnUse" gradientTransform="matrix(0.0773621, 0, 0, 0.0773621, 118.5, 69.55)" spreadMethod ="pad" cx="0" cy="0" r="819.2" fx="0" fy="0" >
<stop  offset="0"  style="stop-color:#E9B15E;stop-opacity:1" />
<stop  offset="1"  style="stop-color:#93641C;stop-opacity:1" />
</radialGradient>
<path style="fill:url(#RadialGradID_343) " d="M181 69.55Q181 95.4 162.65 113.7Q144.35 132.05 118.5 132.05Q92.65 132.05 74.3 113.7Q56 95.4 56 69.55Q56 43.7 74.3 25.35Q92.65 7.05 118.5 7.05Q144.35 7.05 162.65 25.35Q181 43.7 181 69.55" />
</g>
</svg>
