<?xml version="1.0" encoding="utf-8"?>
<svg version="1.1" id="Layer_1"
xmlns="http://www.w3.org/2000/svg"
xmlns:xlink="http://www.w3.org/1999/xlink"
width="143px" height="113px"
xml:space="preserve">
<g id="PathID_66" transform="matrix(1, 0, 0, 1, 0.05, 0)">
<path style="fill:#000016;fill-opacity:1" d="M131 21.15L134.3 22.15L135.85 22.95L138.2 25L140.1 27.75L141.35 30.9L142.1 34.5L142.25 40.45L132.6 48.1L135.4 51.4L135.4 54.9L129.25 59.5L131.3 67.85L101.55 99.1L99.65 98.95L85.2 111.65L79.5 110.3L76.9 110.15L74.55 109.65L72.45 108.75L70.5 107.6L67.3 104.55L65 100.6L63.6 96.1L62.85 91.2L62.85 88.7L63.35 83.7L63.85 81.25L66.75 77.15L65.1 75.45L63.95 73.65L63.2 71.9L62.85 70.05L62.8 68.1L63.85 61.25L59.2 55.35L46.45 62.8L41.95 61.65L38.1 60.1L30.45 55.95L19.95 62.4L18.1 62.8L16.4 62.9L14.65 62.65L11.35 61.45L8.35 59.45L5.6 56.7L2.35 51.85L0.85 48.35L-0.05 44.9L1.25 35.8L3.5 33.05L14.6 27.15L14.6 24.25L60.85 3.6L61.7 3.65L63.5 3.95L66.45 4.95L69.25 6.45L71.65 8.3L72.75 9.6L73.15 10.3L73.35 11.05L96.35 0.05L100.15 0.85L103.25 2L104.55 2.7L105.65 3.5L106.65 4.45L107.45 5.45L108.75 7.8L109.7 12.45L109.55 18.5L104.85 23L111.1 30.35L126.95 21L131 21.15" />
</g>
<g id="PathID_67" transform="matrix(1, 0, 0, 1, 0.05, 0)">
<path style="fill:#1E3030;fill-opacity:1" d="M114.2 41.95L117.15 44.1L118.55 45.45L120.85 48.75L123.7 54.8L125.9 61.75L127.95 71.55L103.9 96.6L103.85 94.2L103.05 87.9L101.3 82.6L98.75 77.85L96.65 74.8L86.25 62.45L83.55 59.85L80.15 57.45L107.95 39.5L114.2 41.95" />
</g>
<g id="PathID_68" transform="matrix(1, 0, 0, 1, 0.05, 0)">
<path style="fill:#1E3030;fill-opacity:1" d="M86.9 71.9L92.05 76.65L92.75 77.45L93.35 78L96.85 82.55L98.1 84.8L99 87.2L99.6 89.75L99.75 99.4L94.85 103.45L94.75 94.65L93.7 89.4L92.75 86.95L90.15 82.3L86.65 78.65L82.5 75.35L81.3 74.65L86 71.35L86.9 71.9" />
</g>
<g id="PathID_69" transform="matrix(1, 0, 0, 1, 0.05, 0)">
<path style="fill:#1E3030;fill-opacity:1" d="M133.25 21.65L135.95 23L138.2 25L139.2 26.25L140.8 28.95L141.9 32.05L142.6 36.95L142.4 40.15L127.45 51.7L126.7 48.7L125 44.3L121.8 38.95L117.4 34.2L113.35 31.4L113.5 31.25L128.25 22L129.85 21.2L130.15 21.1L133.25 21.65" />
</g>
<g id="PathID_70" transform="matrix(1, 0, 0, 1, 0.05, 0)">
<path style="fill:#1E3030;fill-opacity:1" d="M104.55 20.3L105.15 23.25L106.7 25.75L109.8 28.95L105.3 31.7L102.2 28.55L100.95 24.75L99.9 19.65L99.45 18.35L104.5 15.65L104.55 20.3" />
</g>
<g id="PathID_71" transform="matrix(1, 0, 0, 1, 0.05, 0)">
<path style="fill:#1E3030;fill-opacity:1" d="M93.25 20.6L94.55 22.65L95.35 24.5L96.65 29.4L97.5 31.05L98.85 32.75L100.95 34.65L97.65 37L95.5 33.65L90.45 23.45L89.8 22.75L93.25 20.6" />
</g>
<g id="PathID_72" transform="matrix(1, 0, 0, 1, 0.05, 0)">
<path style="fill:#1E3030;fill-opacity:1" d="M87.5 29.2L71.55 37.85L68.35 36.2L85.05 26.75L87.5 29.2" />
</g>
<g id="PathID_73" transform="matrix(1, 0, 0, 1, 0.05, 0)">
<path style="fill:#1E3030;fill-opacity:1" d="M94.5 40.75L78.5 51L73.15 44.9L89.15 34.15L94.5 40.75" />
</g>
<g id="PathID_74" transform="matrix(1, 0, 0, 1, 0.05, 0)">
<path style="fill:#1E3030;fill-opacity:1" d="M66.25 48.1L72.35 55L63 59.95L60.1 54.55L62.2 53.35L64.25 50.6L63.8 46.1L66.25 48.1" />
</g>
<g id="PathID_75" transform="matrix(1, 0, 0, 1, 0.05, 0)">
<path style="fill:#1E3030;fill-opacity:1" d="M74.15 59.95L76.45 60.65L78.65 61.95L79.65 62.8L82.6 66.1L65.25 78.75L62.55 70.55L62.35 68.75L62.4 66.9L63.45 62.4L67.75 60.35L70.4 59.8L72.95 59.75L74.15 59.95" />
</g>
<g id="PathID_76" transform="matrix(1, 0, 0, 1, 0.05, 0)">
<path style="fill:#60605B;fill-opacity:1" d="M50.45 44.55L50.7 43.6L51.35 42.95L52.4 42.65L54 42.75L56 43.15L58.45 45.65L59.45 46.9L60.7 48.95L61 49.9L60.9 50.85L60.6 51.7L59.9 52.7L58.9 53.8L55.75 52.65L55 52.25L54.3 51.75L52 49.35L51.1 47.45L50.6 45.8L50.45 44.55" />
</g>
<g id="PathID_77" transform="matrix(1, 0, 0, 1, 0.05, 0)">
<path style="fill:#1E3030;fill-opacity:1" d="M33.9 34.85L31.95 31.25L39.15 39.45L43.5 46.1L45.7 50.75L46.5 53.05L47.25 57.35L47 59.35L46.45 61.15L45.4 62.8L44.15 62.8L40.8 62.3L37.15 60.75L34.6 58.85L30.3 54.55L36.4 49.75L36.85 46.45L36.35 42.15L33.9 34.85" />
</g>
<g id="PathID_78" transform="matrix(1, 0, 0, 1, 0.05, 0)">
<path style="fill:#1E3030;fill-opacity:1" d="M15.7 30.35L22.1 27.95L29.05 32.5L31.8 36.5L32.7 38.5L33.6 42.75L33.95 49.75L28.3 53.8L28.65 50.05L28.45 46.45L27.65 43.1L26.35 40L24.55 37.15L23.4 35.85L19.2 32.25L15.7 30.35" />
</g>
<g id="PathID_79" transform="matrix(1, 0, 0, 1, 0.05, 0)">
<path style="fill:#1E3030;fill-opacity:1" d="M72.6 9.7L73.75 11.6L75.55 16.7L72.2 19.3L72 17.9L71.15 15.4L70.55 14.25L69 12.1L67.05 10.3L63.65 8.15L61.05 7.15L56.95 6.4L62.85 3.85L67.75 5.8L68.75 6.3L71.2 8.15L72.6 9.7" />
</g>
<g id="PathID_80" transform="matrix(1, 0, 0, 1, 0.05, 0)">
<path style="fill:#1E3030;fill-opacity:1" d="M122.85 42.95L125.8 48.85L128.05 56.3L128.25 57.85L126.05 58.95L125.95 57.45L125.1 54.05L124.3 52.2L121.05 46.45L116.5 41.1L112.9 38.05L111.05 36.85L107.15 35.15L105.2 34.7L111.1 32.25L114.45 33.75L117.55 36.2L121.65 41.1L122.85 42.95" />
</g>
<g id="PathID_81" transform="matrix(1, 0, 0, 1, 0.05, 0)">
<path style="fill:#1E3030;fill-opacity:1" d="M64.5 10.6L66.75 12.4L67.4 13.1L68.9 15.4L69.25 16.3L41.3 33.35L39.45 31.1L36.8 28.6L32.15 25.8L25.1 22.8L57.4 7.75L59.2 8.15L60.05 8.55L61 8.8L64.5 10.6" />
</g>
<g id="PathID_82" transform="matrix(1, 0, 0, 1, 0.05, 0)">
<path style="fill:#1E3030;fill-opacity:1" d="M104.8 3.45L106.6 5.45L107.9 7.65L108.45 8.9L109.4 12.85L109.75 16.9L104.3 19.95L104.3 13.2L100.6 11.1L94.05 15.65L88.7 15.65L75.75 11.95L98.1 0L101.2 1.05L102.55 1.7L104.8 3.45" />
</g>
<g id="PathID_83" transform="matrix(1, 0, 0, 1, 0.05, 0)">
<path style="fill:#423F47;fill-opacity:1" d="M116.5 43.95L120.35 48.6L123.5 54L97.65 74.95L86 61L113.5 41.6L116.5 43.95" />
</g>
<g id="PathID_84" transform="matrix(1, 0, 0, 1, 0.05, 0)">
<path style="fill:#423F47;fill-opacity:1" d="M62.05 8.95L63.2 9.55L65.1 11.05L67.2 13.2L39.1 30.45L34.2 26.75L31.75 25.4L28.65 24.25L59.7 8.45L60.9 8.6L62.05 8.95" />
</g>
<g id="PathID_85" transform="matrix(1, 0, 0, 1, 0.05, 0)">
<path style="fill:#423F47;fill-opacity:1" d="M94.55 79.9L95.65 80.95L96.55 82.05L97.95 84.55L99.8 90.7L95.25 94.2L93.05 86.9L90.8 82.65L94.55 79.9" />
</g>
<g id="PathID_86" transform="matrix(1, 0, 0, 1, 0.05, 0)">
<path style="fill:#423F47;fill-opacity:1" d="M33.25 40.65L33.85 43.6L28.35 47.6L26.5 40.6L24.4 36.5L29.15 32.85L31.6 36.7L32.25 38L33.25 40.65" />
</g>
<g id="PathID_87" transform="matrix(1, 0, 0, 1, 0.05, 0)">
<path style="fill:#423F47;fill-opacity:1" d="M73.35 11.4L73.6 12.75L71.15 15.2L69.75 12.9L67.25 10.1L65.6 8.6L64.85 8.05L67.95 5.75L70.85 7.65L72.35 9.25L72.95 10.25L73.35 11.4" />
</g>
<g id="PathID_88" transform="matrix(1, 0, 0, 1, 0.05, 0)">
<path style="fill:#423F47;fill-opacity:1" d="M121.65 47.7L120.9 46.3L118.4 43.15L112.55 37.5L111.7 36.8L114.85 34.05L118.75 37.5L121.5 40.65L123.35 43.95L123.7 45.55L121.65 47.7" />
</g>
<g id="PathID_89" transform="matrix(1, 0, 0, 1, 0.05, 0)">
<path style="fill:#423F47;fill-opacity:1" d="M123.45 41.1L120.05 36.4L137.1 24.45L139.05 26.3L140.15 27.95L141.65 32.4L125.25 45.4L123.45 41.1" />
</g>
<g id="PathID_90" transform="matrix(1, 0, 0, 1, 0.05, 0)">
<path style="fill:#423F47;fill-opacity:1" d="M103.5 14.4L99.6 13.55L95.65 15.15L93.7 15.55L91 15.7L88.65 15.5L84.1 14.2L104 3.1L107.45 7.15L108.1 8.1L108.55 9.05L108.75 9.9L103.5 14.4" />
</g>
<g id="PathID_91" transform="matrix(1, 0, 0, 1, 0.05, 0)">
<path style="fill:#4F5966;fill-opacity:1" d="M117.75 44.55L119.7 47.1L121.7 51.5L95.5 72.15L88.45 64.25L116.95 43.95L117.75 44.55" />
</g>
<g id="PathID_92" transform="matrix(1, 0, 0, 1, 0.05, 0)">
<path style="fill:#4F5966;fill-opacity:1" d="M65.8 11.6L36.55 27.95L31 25.15L62 9.1L65.8 11.6" />
</g>
<g id="PathID_93" transform="matrix(1, 0, 0, 1, 0.05, 0)">
<path style="fill:#4F5966;fill-opacity:1" d="M94.55 89.65L93.1 85.95L96.8 83.15L98.3 86.7L94.55 89.65" />
</g>
<g id="PathID_94" transform="matrix(1, 0, 0, 1, 0.05, 0)">
<path style="fill:#4F5966;fill-opacity:1" d="M27.85 43.6L26.85 40.85L31.95 37.5L32.9 40L27.85 43.6" />
</g>
<g id="PathID_95" transform="matrix(1, 0, 0, 1, 0.05, 0)">
<path style="fill:#4F5966;fill-opacity:1" d="M69.55 12.35L66.95 10.1L70.8 7.8L72.95 10.05L69.55 12.35" />
</g>
<g id="PathID_96" transform="matrix(1, 0, 0, 1, 0.05, 0)">
<path style="fill:#4F5966;fill-opacity:1" d="M117.75 36.5L121.8 41.6L118.9 43.75L114.05 39.15L117.75 36.5" />
</g>
<g id="PathID_97" transform="matrix(1, 0, 0, 1, 0.05, 0)">
<path style="fill:#4F5966;fill-opacity:1" d="M131.65 37.5L129.25 33.25L139.15 26.45L141.15 29.7L131.65 37.5" />
</g>
<g id="PathID_98" transform="matrix(1, 0, 0, 1, 0.05, 0)">
<path style="fill:#4F5966;fill-opacity:1" d="M101.95 12.7L100.3 12.4L97.95 13.7L97.3 11.9L107 6.45L108.4 8.55L101.95 12.7" />
</g>
<g id="PathID_99" transform="matrix(1, 0, 0, 1, 0.05, 0)">
<path style="fill:#423F47;fill-opacity:1" d="M94.35 22.95L95.35 26.75L95.7 27.75L96.7 29.85L98.3 32L95.8 34.5L93.85 32.2L93.25 31.1L92.45 28.9L91.8 24.65L94.35 22.95" />
</g>
<g id="PathID_100" transform="matrix(1, 0, 0, 1, 0.05, 0)">
<path style="fill:#423F47;fill-opacity:1" d="M100.8 24.25L100.1 21.6L104.2 19.2L104.9 22.75L106.2 25.4L102.35 28.25L100.8 24.25" />
</g>
<g id="PathID_101" transform="matrix(1, 0, 0, 1, 0.05, 0)">
<path style="fill:#1E3030;fill-opacity:1" d="M76.25 77.1L76.25 80.4L74 79.5L70.7 78.8L69.75 78.75L68.9 79.1L68.2 79.65L67.55 80.4L66.95 81.4L65.3 87.5L66.05 96.5L66.8 99L68.05 101.4L69.7 103.6L72 105.85L74.9 108L75.25 108.05L75.55 108.2L75.9 108.25L76.25 108.4L76.25 111L75.95 110.9L75.45 110.8L75.25 110.7L72.95 109.85L70.85 108.55L68.9 106.85L67.25 104.75L64.5 99.8L62.85 94.2L62.35 88.5L62.55 85.75L63.15 83.15L64 80.9L65.3 78.8L66.95 77.15L69 75.85L70 75.85L73.65 76.3L76.25 77.1" />
</g>
<g id="PathID_102" transform="matrix(1, 0, 0, 1, 0.05, 0)">
<path style="fill:#1E3030;fill-opacity:1" d="M81 83.7L78.85 81.9L76.25 80.4L76.25 77.1L78.7 78.3L81.95 80.8L84.7 84.2L87 88.2L89.65 96.3L89.7 102.7L89.2 106L88.8 107.35L87.55 109.55L86.7 110.4L85.7 111.05L84.55 111.5L83.25 111.8L80.15 111.8L76.25 111L76.25 108.4L78.5 109L80.5 109.2L82.3 109.05L83.8 108.4L85.05 107.25L86.05 105.55L86.7 103.1L87.15 99.95L86.1 93.85L84.2 88.35L82.75 85.9L81 83.7" />
</g>
<g id="PathID_103" transform="matrix(1, 0, 0, 1, 0.05, 0)">
<path style="fill:#1E3030;fill-opacity:1" d="M10.85 35.05L7.2 34.2L6.4 34.15L5.65 34.4L5 34.9L4.45 35.55L3.55 37.5L3.15 38.7L2.5 41.8L2.7 47.3L3.15 49.7L3.85 51.9L4.85 53.9L6.4 55.85L10.9 59.65L11.2 59.75L11.5 59.8L11.8 59.95L12.05 60L12.05 62.25L11.85 62.15L11.65 62.1L11.45 62.1L11.2 62L9.4 61.45L7.75 60.45L4.85 57.8L3.7 56.05L1.7 52.25L0.25 47.3L-0.05 41.95L0.4 38.65L1.55 35.7L2.35 34.4L4.45 32.35L5.75 31.6L7.4 31.6L11.35 32.4L12.05 32.7L12.05 35.55L10.85 35.05" />
</g>
<g id="PathID_104" transform="matrix(1, 0, 0, 1, 0.05, 0)">
<path style="fill:#1E3030;fill-opacity:1" d="M14.25 33.75L16.2 35.15L19.5 38.85L22.1 43.75L23.9 49.55L24.05 53.35L23.55 57.95L22.6 60.15L22 61L21.3 61.75L20.35 62.3L18.2 62.95L16.9 63.05L12.05 62.25L12.05 60L15.8 60.75L17.4 60.6L18.7 60L19.85 59.1L20.7 57.6L21.3 55.4L21.65 52.7L21.3 50.05L20 44.95L19 42.6L17.75 40.45L16.25 38.5L14.4 36.85L12.05 35.55L12.05 32.7L14.25 33.75" />
</g>
<g id="PathID_105" transform="matrix(1, 0, 0, 1, 0.05, 0)">
<path style="fill:#4F5966;fill-opacity:1" d="M101.4 25.75L100.75 23.6L104.35 21.45L105.2 24L101.4 25.75" />
</g>
<g id="PathID_106" transform="matrix(1, 0, 0, 1, 0.05, 0)">
<path style="fill:#4F5966;fill-opacity:1" d="M93.85 31.55L93.2 29.2L95.5 27.9L96.2 29.85L93.85 31.55" />
</g>
<g id="PathID_107" transform="matrix(1, 0, 0, 1, 0.05, 0)">
<path style="fill:#60605B;fill-opacity:1" d="M37.5 39.35L39.8 44.6L41.25 50.05L41.3 52.75L40.95 55.5L40 58.1L38.3 60.65L34.4 58.15L30.8 55.2L34.35 51.2L35.25 49.75L35.85 48.35L36.15 44.95L35.75 39.35L32.9 33.05L37.5 39.35" />
</g>
<g id="PathID_108" transform="matrix(1, 0, 0, 1, 0.05, 0)">
<path style="fill:#60605B;fill-opacity:1" d="M67.2 60.5L70.55 59.95L77.1 60.65L80.5 63.6L74.95 63.1L73.35 63.1L70.55 63.6L68.25 64.6L66.45 66.3L65.25 68.75L64.45 72.05L64.25 76.2L63.3 74L62.2 70L62 68.2L62.05 66.55L62.35 65.1L62.85 63.8L63.65 62.75L64.6 61.8L65.75 61.1L67.2 60.5" />
</g>
<g id="PathID_109" transform="matrix(1, 0, 0, 1, 0.05, 0)">
<path style="fill:#423F47;fill-opacity:1" d="M84.2 84.1L85.55 86.1L88.3 92.5L86.1 92.95L83.95 86.7L79.2 81.65L75.95 79.45L73.8 78.5L72.65 78.3L70.5 78.3L69.35 78.5L67.25 79.65L65.75 82.45L64.65 86.75L63.05 86.6L63.35 84.6L64.35 81.25L65.6 78.8L66.9 77.35L68.55 76.65L70.8 76.3L73 76.5L75.4 77.2L76.55 77.7L81.1 80.8L84.2 84.1" />
</g>
<g id="PathID_110" transform="matrix(1, 0, 0, 1, 0.05, 0)">
<path style="fill:#423F47;fill-opacity:1" d="M10.65 34.65L9.6 34.35L8.6 34.2L6.4 34.25L4 35L2.7 38.05L2.05 41.35L0.5 41.35L0.35 40L0.4 38.8L0.7 37.65L1.75 35.65L4.15 32.75L5.1 32.4L7.1 32.05L8.1 32.05L9.1 32.2L12.2 33.25L15.3 35.2L19 38.95L19.85 40.1L20.95 42.15L21.2 42.95L22.65 46.45L20.7 46.8L18.85 41.85L15.95 38.35L13.45 36.15L12.5 35.55L10.65 34.65" />
</g>
<g id="PathID_111" transform="matrix(1, 0, 0, 1, 0.05, 0)">
<path style="fill:#423F47;fill-opacity:1" d="M86.4 87.25L89.35 94.5L89.8 97.6L89.7 103.2L89.2 105.6L88.35 107.85L87.2 109.7L85.6 111.15L83.65 112.2L82.3 112.3L79.3 112.2L76.25 111.55L73.6 110.3L72.6 109.35L73.95 107.9L75.55 108.85L78.15 109.8L81.75 110L84.1 108.75L85.85 107.35L86.9 105.7L87.5 103.8L87.7 101.9L87.65 99.65L86.9 94.95L84.6 88.5L86.4 87.25" />
</g>
<g id="PathID_112" transform="matrix(1, 0, 0, 1, 0.05, 0)">
<path style="fill:#4F5966;fill-opacity:1" d="M73.95 78.35L71 77.8L70.15 77.85L68.55 78.25L67.85 78.65L66.4 79.95L64.5 83.25L64.8 81.3L65.4 79.75L66.25 78.45L67.4 77.6L68.85 77L70.55 76.85L72.5 77L74.75 77.5L78.85 80L73.95 78.35" />
</g>
<g id="PathID_113" transform="matrix(1, 0, 0, 1, 0.05, 0)">
<path style="fill:#4F5966;fill-opacity:1" d="M14.3 35.35L10 33.85L7.3 33.4L6.55 33.4L5.15 33.75L4.45 34.15L3.2 35.3L2.65 36.05L1.55 38.15L1.85 36.4L2.35 35.05L3.15 34L4.15 33.2L5.35 32.7L6.9 32.55L8.6 32.6L10.65 33.05L14.3 35.35" />
</g>
<g id="PathID_114" transform="matrix(1, 0, 0, 1, 0.05, 0)">
<path style="fill:#4F5966;fill-opacity:1" d="M76.4 110.65L79.95 110.7L82.6 110.15L83.3 109.8L84.7 108.85L85.85 107.6L86.4 106.85L88.7 102.7L87.7 107.4L86.5 109L85.2 110.2L83.9 111.05L82.45 111.5L81.1 111.7L79.55 111.55L76.4 110.65" />
</g>
<g id="PathID_115" transform="matrix(1, 0, 0, 1, 0.05, 0)">
<path style="fill:#1E3030;fill-opacity:1" d="M135.3 51.55L135.05 55.05L129.55 59.65L128.7 56L135.3 51.55" />
</g>
<g id="PathID_116" transform="matrix(1, 0, 0, 1, 0.05, 0)">
<path style="fill:#1E3030;fill-opacity:1" d="M61.65 43.3L63.6 47.1L63.6 49.9L59.7 53.15L60.25 49.75L58.75 46.3L56.65 43.5L54.65 42.75L58.7 40.85L61.65 43.3" />
</g>
<g id="PathID_117" transform="matrix(1, 0, 0, 1, 0.05, 0)">
<path style="fill:#423F47;fill-opacity:1" d="M62.8 44.8L63.6 48.1L60 50.55L58.75 46.3L57.65 44L61 42.5L62.8 44.8" />
</g>
<g id="PathID_118" transform="matrix(1, 0, 0, 1, 0.05, 0)">
<path style="fill:#4F5966;fill-opacity:1" d="M59.45 47.6L58.75 45.6L62 43.8L63 45.8L59.45 47.6" />
</g>
<g id="PathID_119" transform="matrix(1, 0, 0, 1, 0.05, 0)">
<path style="fill:#6B7F93;fill-opacity:1" d="M64.45 10.6L34.55 27.05L32.95 26.3L63.35 9.75L63.5 9.75L64.45 10.6" />
</g>
<g id="PathID_120" transform="matrix(1, 0, 0, 1, 0.05, 0)">
<path style="fill:#002D2D;fill-opacity:1" d="M69.05 16.15L69.35 15.9L71.15 20.2L42.7 36.5L41.05 32.4L41.3 32.2L69.05 16.15" />
</g>
<g id="PathID_121" transform="matrix(1, 0, 0, 1, 0.05, 0)">
<path style="fill:#002D2D;fill-opacity:1" d="M57.45 8.1L26.35 23.5L20.8 23.5L15.25 24.3L23.6 21.2L53.3 8.1L57.45 8.1" />
</g>
<g id="PathID_122" transform="matrix(1, 0, 0, 1, 0.05, 0)">
<path style="fill:#6B7F93;fill-opacity:1" d="M118.9 46.75L120.05 48.7L93.7 69.7L90.95 66.3L118.45 46.25L118.9 46.75" />
</g>
<g id="PathID_123" transform="matrix(1, 0, 0, 1, 0.05, 0)">
<path style="fill:#006882;fill-opacity:1" d="M88.55 18.8L91.3 19.5L94.05 21.85L94.1 21.95L93.9 22.15L91.3 23.6L87.9 21.2L85.2 21.2L82.1 21.85L79.65 21.85L76.25 21.2L79.35 20.15L82.75 20.5L85.45 19.5L88.55 18.8" />
</g>
<g id="PathID_124" transform="matrix(1, 0, 0, 1, 0.05, 0)">
<path style="fill:#006882;fill-opacity:1" d="M98.6 0.3L76.2 12.1L73.6 10.95L94.2 0.3L98.6 0.3" />
</g>
<g id="PathID_125" transform="matrix(1, 0, 0, 1, 0.05, 0)">
<path style="fill:#000016;fill-opacity:1" d="M91.45 7.95L84.85 5.25L86.7 4.35L89.45 5.15L92.75 6.6L94.55 7.75L96.8 10.05L98.6 13.1L100.25 17.35L99.45 18.7L97.7 14L95.8 10.95L95.05 10.2L93.4 8.95L91.45 7.95" />
</g>
<g id="PathID_126" transform="matrix(1, 0, 0, 1, 0.05, 0)">
<path style="fill:#006882;fill-opacity:1" d="M102.1 14.4L103 15.05L104 16.05L99.5 18.45L98.95 17.9L98.45 17.65L98.1 17.35L97.65 17.2L96.8 17.05L95.4 17.05L90.1 17.55L89.2 17.55L88.45 17.65L81.45 17.4L77.25 16.4L80.7 14.7L90.15 16L92.7 16.05L99.75 14.2L100.55 14.05L101.3 14.05L102.1 14.4" />
</g>
<g id="PathID_127" transform="matrix(1, 0, 0, 1, 0.05, 0)">
<path style="fill:#006882;fill-opacity:1" d="M129.9 21.15L113.3 31.6L110.85 30.85L125.9 21.15L129.9 21.15" />
</g>
<g id="PathID_128" transform="matrix(1, 0, 0, 1, 0.05, 0)">
<path style="fill:#000016;fill-opacity:1" d="M122.35 29.45L119.55 28.3L117.95 27.9L116.25 27.7L118.45 26.65L124.8 28.95L128.7 32.85L131.15 36.4L134.55 45.95L133.6 47.55L130.5 39.35L129.7 37.7L126.95 33.35L124.8 31.1L122.35 29.45" />
</g>
<g id="PathID_129" transform="matrix(1, 0, 0, 1, 0.05, 0)">
<path style="fill:#003066;fill-opacity:1" d="M82.25 89.2L83.1 91.4L83.9 96.15L83.8 98.35L83.45 100.3L82.8 102.1L81.85 103.55L80.7 104.6L79.35 105.35L77.85 105.55L76.25 105.35L74.65 104.6L73.15 103.55L71.7 102.1L69.4 98.35L67.95 93.8L67.7 91.4L67.75 89.2L68.1 87.2L68.75 85.45L69.7 84.05L70.85 82.95L72.2 82.25L73.75 82.05L75.3 82.25L76.95 82.95L78.5 84.05L79.85 85.45L81.15 87.2L82.25 89.2" />
</g>
<g id="PathID_130" transform="matrix(1, 0, 0, 1, 0.05, 0)">
<path style="fill:#003366;fill-opacity:1" d="M82.65 91.5L83.4 95.95L83.05 99.95L82.4 101.6L81.5 102.95L80.45 103.95L79.15 104.6L77.7 104.85L76.2 104.6L74.65 103.95L73.25 102.95L70.7 99.95L68.9 95.95L68.35 93.7L68.1 91.5L68.5 87.5L69.1 85.85L70 84.45L71.05 83.4L72.35 82.75L73.8 82.55L75.3 82.75L76.85 83.4L78.25 84.45L79.65 85.85L80.85 87.5L81.85 89.35L82.65 91.5" />
</g>
<g id="PathID_131" transform="matrix(1, 0, 0, 1, 0.05, 0)">
<path style="fill:#00386B;fill-opacity:1" d="M82.75 93.65L82.9 97.75L82.6 99.5L81.95 101.1L81.15 102.4L80.15 103.3L78.9 103.95L77.55 104.2L76.1 103.95L74.65 103.3L73.3 102.4L70.9 99.5L69.2 95.8L68.7 93.65L68.55 89.55L68.85 87.75L69.4 86.2L70.3 84.9L71.3 83.95L72.5 83.3L73.9 83.1L75.3 83.3L76.75 83.95L78.15 84.9L80.5 87.75L82.25 91.5L82.75 93.65" />
</g>
<g id="PathID_132" transform="matrix(1, 0, 0, 1, 0.05, 0)">
<path style="fill:#003D6B;fill-opacity:1" d="M82.3 93.55L82.5 95.6L82.45 97.45L82.15 99.15L81.6 100.6L80.8 101.8L79.85 102.75L78.7 103.3L77.4 103.55L76.05 103.3L74.75 102.75L73.45 101.8L72.2 100.6L71.15 99.15L69.55 95.6L69.05 93.55L68.85 91.55L68.9 89.7L69.2 88.05L69.75 86.55L70.55 85.3L71.5 84.4L72.65 83.8L73.95 83.6L75.3 83.8L76.7 84.4L78 85.3L79.15 86.55L81.15 89.7L82.3 93.55" />
</g>
<g id="PathID_133" transform="matrix(1, 0, 0, 1, 0.05, 0)">
<path style="fill:#004270;fill-opacity:1" d="M82.1 95.45L81.75 98.75L80.5 101.3L79.55 102.15L78.5 102.7L77.25 102.9L75.95 102.7L74.75 102.15L73.5 101.3L72.45 100.15L70.55 97.15L69.85 95.45L69.4 93.55L69.2 91.7L69.25 89.9L69.55 88.35L70.05 86.9L70.8 85.75L71.7 84.9L72.8 84.4L74 84.2L75.3 84.4L76.55 84.9L77.75 85.75L78.85 86.9L80.7 89.9L81.45 91.7L82.1 95.45" />
</g>
<g id="PathID_134" transform="matrix(1, 0, 0, 1, 0.05, 0)">
<path style="fill:#004470;fill-opacity:1" d="M81.3 98.35L80.8 99.65L80.15 100.75L79.3 101.55L78.25 102.1L77.1 102.25L75.9 102.1L74.75 101.55L73.65 100.75L72.6 99.65L71.65 98.35L70.2 95.2L69.75 93.5L69.55 91.8L69.9 88.6L70.4 87.35L71.05 86.25L71.95 85.45L72.95 84.9L74.1 84.75L75.3 84.9L76.45 85.45L77.55 86.25L78.65 87.35L79.55 88.6L81 91.8L81.45 93.5L81.65 95.2L81.6 96.85L81.3 98.35" />
</g>
<g id="PathID_135" transform="matrix(1, 0, 0, 1, 0.05, 0)">
<path style="fill:#004972;fill-opacity:1" d="M81.15 96.6L80.45 99.25L79.8 100.25L79 100.95L78.05 101.45L76.95 101.6L75.9 101.45L74.75 100.95L73.75 100.25L72.75 99.25L71.85 98L70.55 95.1L70.15 93.45L70 90.25L70.7 87.6L71.35 86.6L72.15 85.9L73.1 85.4L74.15 85.25L75.25 85.4L76.4 85.9L77.4 86.6L78.4 87.6L79.3 88.85L80.6 91.8L81 93.45L81.15 96.6" />
</g>
<g id="PathID_136" transform="matrix(1, 0, 0, 1, 0.05, 0)">
<path style="fill:#004F75;fill-opacity:1" d="M73.25 85.95L74.25 85.85L75.25 85.95L76.25 86.4L77.25 87.1L78.15 88.05L79.65 90.4L80.6 93.35L80.7 94.85L80.45 97.6L80 98.65L79.4 99.6L78.7 100.3L77.85 100.75L76.85 100.9L75.8 100.75L74.8 100.3L73.8 99.6L72.85 98.65L72.1 97.6L70.85 94.85L70.5 93.35L70.35 90.4L70.65 89.1L71.05 88.05L71.65 87.1L72.35 86.4L73.25 85.95" />
</g>
<g id="PathID_137" transform="matrix(1, 0, 0, 1, 0.05, 0)">
<path style="fill:#005477;fill-opacity:1" d="M75.15 86.55L76.2 86.95L77.05 87.55L77.9 88.4L78.65 89.4L79.3 90.65L80.05 93.3L80.2 96L80 97.15L79.55 98.25L79.05 99.1L78.4 99.65L77.55 100.1L76.7 100.25L75.75 100.1L73.9 99.1L73.1 98.25L72.3 97.15L71.7 96L70.85 93.3L70.7 91.9L71 89.4L71.35 88.4L71.85 87.55L72.6 86.95L73.35 86.55L74.25 86.4L75.15 86.55" />
</g>
<g id="PathID_138" transform="matrix(1, 0, 0, 1, 0.05, 0)">
<path style="fill:#005677;fill-opacity:1" d="M77.6 88.75L78.85 90.75L79.35 92L79.8 94.55L79.8 95.7L79.55 96.8L79.2 97.75L78.7 98.5L78.05 99.1L77.35 99.45L76.55 99.6L75.7 99.45L74.8 99.1L74 98.5L73.25 97.75L72 95.7L71.5 94.55L71.05 92L71.15 90.75L71.65 88.75L72.15 88L72.8 87.4L73.5 87.05L74.3 86.9L75.15 87.05L76.05 87.4L76.9 88L77.6 88.75" />
</g>
<g id="PathID_139" transform="matrix(1, 0, 0, 1, 0.05, 0)">
<path style="fill:#005B7C;fill-opacity:1" d="M78 90L78.9 92.05L79.2 93.2L79.35 94.35L79.15 96.45L78.8 97.25L78.35 97.95L77.75 98.5L77.1 98.8L76.4 98.95L75.6 98.8L74.8 98.5L74.1 97.95L72.8 96.45L71.85 94.35L71.55 93.2L71.45 92.05L71.65 90L72 89.1L73 87.9L73.65 87.6L74.4 87.5L75.15 87.6L75.95 87.9L77.35 89.1L78 90" />
</g>
<g id="PathID_140" transform="matrix(1, 0, 0, 1, 0.05, 0)">
<path style="fill:#00607C;fill-opacity:1" d="M78.15 91.15L78.8 93.15L78.9 94.2L78.85 95.15L78.7 96L78.4 96.8L78 97.45L76.9 98.25L76.25 98.3L75.55 98.25L74.15 97.45L73 96L72.2 94.2L71.8 92.15L72 90.25L72.3 89.55L72.75 88.9L73.8 88.1L74.45 88.05L75.15 88.1L76.55 88.9L77.7 90.25L78.15 91.15" />
</g>
<g id="PathID_141" transform="matrix(1, 0, 0, 1, 0.05, 0)">
<path style="fill:#006682;fill-opacity:1" d="M77.4 90.55L78.15 92.2L78.35 93.05L78.4 94.85L78.25 95.6L78 96.3L77.2 97.25L76.7 97.5L76.1 97.6L75.45 97.5L74.9 97.25L73.75 96.3L73.25 95.6L72.5 94L72.3 93.05L72.2 91.35L72.35 90.55L72.65 89.9L73 89.35L73.45 88.9L73.95 88.6L74.55 88.55L75.15 88.6L75.75 88.9L76.35 89.35L76.9 89.9L77.4 90.55" />
</g>
<g id="PathID_142" transform="matrix(1, 0, 0, 1, 0.05, 0)">
<path style="fill:#006882;fill-opacity:1" d="M77.4 91.55L77.9 93.05L78 93.85L78 94.55L77.85 95.2L77.35 96.3L76.9 96.65L76.45 96.85L75.95 96.95L75.4 96.85L74.9 96.65L74.4 96.3L73.9 95.8L73.45 95.2L73.1 94.55L72.65 93.05L72.6 91.55L72.95 90.25L73.25 89.75L73.6 89.4L74 89.2L74.55 89.1L75.1 89.2L75.6 89.4L76.2 89.75L77.05 90.85L77.4 91.55" />
</g>
<g id="PathID_143" transform="matrix(1, 0, 0, 1, 0.05, 0)">
<path style="fill:#003066;fill-opacity:1" d="M12.05 36.7L13.35 37.3L14.65 38.15L15.8 39.35L16.85 40.8L17.75 42.45L18.9 46.2L19.15 48.1L19.05 50L18.75 51.55L18.2 53L17.5 54.15L16.45 55.05L15.4 55.55L14.1 55.8L12.8 55.55L11.45 55.05L10.2 54.15L9.05 53L7.1 50L5.95 46.2L5.75 44.25L5.8 42.45L6.1 40.8L6.65 39.35L7.4 38.15L8.35 37.3L9.5 36.7L10.7 36.5L12.05 36.7" />
</g>
<g id="PathID_144" transform="matrix(1, 0, 0, 1, 0.05, 0)">
<path style="fill:#003366;fill-opacity:1" d="M9.55 37.15L10.8 36.95L12.05 37.15L13.3 37.65L14.45 38.5L15.6 39.65L16.6 41L18.1 44.3L18.55 46.2L18.75 48.05L18.7 49.75L18.4 51.25L17.9 52.65L17.2 53.8L16.25 54.55L15.25 55.05L14 55.3L12.7 55.05L11.5 54.55L10.25 53.8L9.2 52.65L7.3 49.75L6.65 48.05L6 44.3L6.1 42.6L6.4 41L6.9 39.65L7.6 38.5L8.55 37.65L9.55 37.15" />
</g>
<g id="PathID_145" transform="matrix(1, 0, 0, 1, 0.05, 0)">
<path style="fill:#00386B;fill-opacity:1" d="M9.7 37.5L10.85 37.35L12.05 37.5L13.25 38.05L14.3 38.85L15.4 39.95L17.1 42.75L17.7 44.4L18.35 47.8L18 50.9L17.5 52.2L16.85 53.25L15.95 54.05L15.05 54.55L13.85 54.7L12.65 54.55L11.5 54.05L10.35 53.25L9.35 52.2L8.4 50.9L7.6 49.45L6.95 47.8L6.3 44.4L6.65 41.25L7.8 38.85L8.7 38.05L9.7 37.5" />
</g>
<g id="PathID_146" transform="matrix(1, 0, 0, 1, 0.05, 0)">
<path style="fill:#003D6B;fill-opacity:1" d="M9.75 38L10.85 37.85L12 38L13.1 38.5L15.15 40.2L16.05 41.45L17.35 44.45L17.75 46.1L17.9 49.25L17.2 51.85L16.55 52.75L15.75 53.5L14.8 54L13.75 54.15L12.6 54L11.5 53.5L10.4 52.75L9.4 51.85L7.8 49.25L6.8 46.1L6.65 42.9L6.95 41.45L7.4 40.2L8.05 39.3L8.85 38.5L9.75 38" />
</g>
<g id="PathID_147" transform="matrix(1, 0, 0, 1, 0.05, 0)">
<path style="fill:#004270;fill-opacity:1" d="M9.9 38.45L10.9 38.3L12 38.45L13 38.95L14 39.65L14.95 40.6L16.45 43L17.05 44.45L17.6 47.55L17.35 50.25L16.9 51.4L16.25 52.35L15.55 53.05L14.65 53.5L13.65 53.65L12.6 53.5L11.5 53.05L10.55 52.35L9.6 51.4L8.75 50.25L7.45 47.55L7.1 46.05L6.95 44.45L7.25 41.75L7.7 40.6L8.25 39.65L9.05 38.95L9.9 38.45" />
</g>
<g id="PathID_148" transform="matrix(1, 0, 0, 1, 0.05, 0)">
<path style="fill:#004470;fill-opacity:1" d="M10.05 38.85L11 38.7L12 38.85L12.95 39.3L13.85 39.95L14.75 40.85L15.55 41.95L16.2 43.15L17.05 45.95L17.2 48.75L16.95 50L16.55 51L15.95 51.85L15.3 52.5L14.45 52.9L13.5 53.05L12.5 52.9L11.55 52.5L10.55 51.85L9.7 51L8.25 48.75L7.4 45.95L7.25 44.55L7.3 43.15L7.55 41.95L7.95 40.85L8.55 39.95L9.2 39.3L10.05 38.85" />
</g>
<g id="PathID_149" transform="matrix(1, 0, 0, 1, 0.05, 0)">
<path style="fill:#004972;fill-opacity:1" d="M9.35 39.7L10.15 39.35L11 39.2L11.95 39.35L12.85 39.7L13.75 40.35L15.25 42.15L15.9 43.3L16.7 45.95L16.85 47.3L16.55 49.7L16.2 50.7L15.7 51.55L15.05 52.15L14.25 52.55L13.35 52.7L12.45 52.55L11.55 52.15L10.7 51.55L9.9 50.7L8.55 48.55L7.75 45.95L7.6 43.3L7.8 42.15L8.2 41.15L8.7 40.35L9.35 39.7" />
</g>
<g id="PathID_150" transform="matrix(1, 0, 0, 1, 0.05, 0)">
<path style="fill:#004F75;fill-opacity:1" d="M9.55 40.15L10.25 39.8L11.05 39.65L11.95 39.8L12.8 40.15L13.6 40.75L15.05 42.35L16.05 44.6L16.45 47.2L16.4 48.35L16.2 49.4L15.4 51.05L14.75 51.6L14 52L13.25 52.15L12.35 52L11.55 51.6L10.8 51.05L10 50.25L9.35 49.4L8.75 48.35L8.05 45.9L7.9 43.45L8.1 42.35L8.45 41.45L8.9 40.75L9.55 40.15" />
</g>
<g id="PathID_151" transform="matrix(1, 0, 0, 1, 0.05, 0)">
<path style="fill:#005477;fill-opacity:1" d="M9.75 40.5L10.4 40.2L11.15 40.1L11.95 40.2L12.7 40.5L14.1 41.75L14.75 42.6L15.7 44.65L16.1 46.95L15.9 49.05L15.55 49.85L15.1 50.55L14.5 51.1L13.85 51.4L13.15 51.55L12.35 51.4L11.55 51.1L10.85 50.55L10.15 49.85L9.55 49.05L9 48.05L8.6 46.95L8.2 44.65L8.4 42.6L8.75 41.75L9.2 41.1L9.75 40.5" />
</g>
<g id="PathID_152" transform="matrix(1, 0, 0, 1, 0.05, 0)">
<path style="fill:#005677;fill-opacity:1" d="M9.9 41L10.5 40.65L11.2 40.6L11.95 40.65L12.65 41L13.95 42.1L14.95 43.8L15.6 45.8L15.75 46.9L15.55 48.75L15.25 49.45L14.8 50.1L14.3 50.6L13.75 51L13 51.05L12.3 51L11.55 50.6L10.9 50.1L9.7 48.75L8.9 46.9L8.6 45.8L8.45 44.75L8.7 42.9L9 42.1L9.4 41.5L9.9 41" />
</g>
<g id="PathID_153" transform="matrix(1, 0, 0, 1, 0.05, 0)">
<path style="fill:#005B7C;fill-opacity:1" d="M9 43.1L9.25 42.35L9.6 41.8L10.05 41.35L10.55 41.1L11.2 41L11.85 41.1L12.5 41.35L13.15 41.8L13.75 42.35L14.65 43.9L15.05 44.8L15.25 45.75L15.3 47.6L15.15 48.4L14.9 49.1L14.5 49.7L14.1 50.1L13.5 50.4L12.85 50.5L12.2 50.4L11.55 50.1L11 49.7L10.4 49.1L9.9 48.4L9.1 46.7L8.9 45.75L8.85 43.9L9 43.1" />
</g>
<g id="PathID_154" transform="matrix(1, 0, 0, 1, 0.05, 0)">
<path style="fill:#00607C;fill-opacity:1" d="M9.85 42.15L10.25 41.8L10.8 41.5L11.3 41.45L11.85 41.5L13 42.15L14.4 44.1L14.9 45.75L14.95 47.4L14.8 48.1L14.25 49.25L13.3 49.9L12.8 50L12.2 49.9L11.05 49.25L10.55 48.7L9.7 47.4L9.4 46.6L9.2 45.75L9.1 44.1L9.25 43.4L9.85 42.15" />
</g>
<g id="PathID_155" transform="matrix(1, 0, 0, 1, 0.05, 0)">
<path style="fill:#006682;fill-opacity:1" d="M9.75 43L10.05 42.6L10.4 42.25L10.85 42L11.35 41.95L11.85 42L12.35 42.25L13.3 43L13.75 43.6L14.1 44.25L14.5 45.65L14.6 46.45L14.6 47.1L14.25 48.35L13.95 48.75L13.6 49.1L13.15 49.35L12.65 49.4L12.15 49.35L11.65 49.1L10.7 48.35L10.25 47.75L9.9 47.1L9.7 46.45L9.4 44.9L9.4 44.25L9.75 43" />
</g>
<g id="PathID_156" transform="matrix(1, 0, 0, 1, 0.05, 0)">
<path style="fill:#006882;fill-opacity:1" d="M10.05 43.3L10.65 42.65L11.45 42.35L11.85 42.45L12.3 42.65L13.1 43.3L13.75 44.3L14.1 45.6L14.15 46.9L13.85 47.9L13.3 48.55L12.5 48.85L12.05 48.75L11.65 48.55L11.2 48.25L10.85 47.9L10.5 47.4L9.9 46.25L9.75 45.6L9.75 44.3L10.05 43.3" />
</g>
<g id="PathID_157" transform="matrix(1, 0, 0, 1, 0.05, 0)">
<path style="fill:#6B7F93;fill-opacity:1" d="M68.9 11.55L67.6 10.55L71.45 8.3L72.15 9.2L68.9 11.55" />
</g>
<g id="PathID_158" transform="matrix(1, 0, 0, 1, 0.05, 0)">
<path style="fill:#6B7F93;fill-opacity:1" d="M117.55 42L115.8 40.95L119.4 38.55L120.65 39.7L117.55 42" />
</g>
<g id="PathID_159" transform="matrix(1, 0, 0, 1, 0.05, 0)">
<path style="fill:#006882;fill-opacity:1" d="M55.3 42.8L50.85 43L54.45 40.75L55.6 40.3L59.4 41.3L59.25 41.35L58.75 41.6L55.3 42.8" />
</g>
<g id="PathID_160" transform="matrix(1, 0, 0, 1, 0.05, 0)">
<path style="fill:#006882;fill-opacity:1" d="M62.05 3.8L19.15 23.75L15.1 24L59.25 3.45L62.05 3.8" />
</g>
<g id="PathID_161" transform="matrix(1, 0, 0, 1, 0.05, 0)">
<path style="fill:#000016;fill-opacity:1" d="M54.7 7.8L49.3 8.25L52.2 6.9L56.95 6.3L54.7 7.8" />
</g>
<g id="PathID_162" transform="matrix(1, 0, 0, 1, 0.05, 0)">
<path style="fill:#000016;fill-opacity:1" d="M97.6 36.55L100.55 35.3L105.2 34.65L103.05 36.15L97.6 36.55" />
</g>
<g id="PathID_163" transform="matrix(1, 0, 0, 1, 0.05, 0)">
<path style="fill:#00596D;fill-opacity:1" d="M61.35 37.45L55.3 34.15L69.75 26.65L73.45 28.1L78.15 28.1L85.1 26.65L68.85 35.55L61.35 37.45" />
</g>
<g id="PathID_164" transform="matrix(1, 0, 0, 1, 0.05, 0)">
<path style="fill:#00596D;fill-opacity:1" d="M17.05 30.55L12.3 29.75L8.45 30.35L14.8 27.3L21.85 27.7L17.05 30.55" />
</g>
<g id="PathID_165" transform="matrix(1, 0, 0, 1, 0.05, 0)">
<path style="fill:#00596D;fill-opacity:1" d="M82.5 74.85L82.4 75L77.05 73.85L74.9 73.8L70.5 74.7L74.9 71.9L77.9 70.9L79.7 70.65L81.95 70.65L83.9 71.05L86.05 71.9L86.5 72.2L86.2 72.25L85.7 72.5L82.5 74.85" />
</g>
<g id="PathID_166" transform="matrix(1, 0, 0, 1, 0.05, 0)">
<path style="fill:#6B7F93;fill-opacity:1" d="M131.2 36.4L130.05 34.55L139.45 27.8L140.15 29.3L131.2 36.4" />
</g>
</svg>
