<?xml version="1.0" encoding="utf-8"?>
<svg version="1.1" id="Layer_1"
xmlns="http://www.w3.org/2000/svg"
xmlns:xlink="http://www.w3.org/1999/xlink"
width="76px" height="95px"
xml:space="preserve">
<g id="PathID_747" transform="matrix(1, 0, 0, 1, 0, 0)">
<path style="fill:#7F4F19;fill-opacity:1" d="M73.7 14.9L74.85 16.35L75.6 17.85L75.85 19.3L75.85 21.4L63.1 87.95L61.85 90.75L60.45 92.7L58.7 93.95L57.05 94.65L55.55 94.9L54.25 94.9L7.1 86.75L4.95 85.8L3.35 84.65L2.45 83.35L1.85 82.05L1.55 80.95L1.5 79.95L16.5 13.25L17.45 11.45L18.75 10.15L20.25 9.2L21.8 8.55L23.25 8.2L25.4 8L25.7 8L69.5 12.9L72 13.75L73.7 14.9" />
</g>
<g id="PathID_748" transform="matrix(1, 0, 0, 1, 0, 0)">
<path style="fill:#A0703A;fill-opacity:1" d="M72.3 13.45L73.45 14.9L74.15 16.45L74.45 17.8L74.45 19.9L74.35 20.2L61.6 86.45L60.35 89.25L58.95 91.25L57.3 92.5L55.65 93.15L54.05 93.45L52.85 93.45L51.9 93.3L51.6 93.2L5.65 85.3L3.45 84.35L1.95 83.2L0.9 81.9L0.35 80.6L0.05 79.5L0 78.5L15.05 11.8L16 10L17.2 8.65L18.75 7.7L20.3 7.05L21.75 6.7L24.2 6.5L68.05 11.4L70.55 12.25L72.3 13.45" />
</g>
<g id="PathID_749" transform="matrix(1, 0, 0, 1, 0, 0)">
<path style="fill:#7F4F19;fill-opacity:1" d="M66.2 37.9L59.45 71.65L54.55 89.25L4.65 79.5L12.7 51.05L20.95 12.7L68.1 18.5L66.2 37.9" />
</g>
<g id="PathID_750" transform="matrix(1, 0, 0, 1, 0, 0)">
<path style="fill:#66FF66;fill-opacity:1" d="M65.3 37L59 64.95L51.95 86.25L2.05 76.5L6.95 65.25L14.35 38.85L20.25 11.95L67.45 17.8L65.3 37" />
</g>
<g id="PathID_751" transform="matrix(1, 0, 0, 1, 0, 0)">
<path style="fill:#ADADAD;fill-opacity:1" d="M53.4 20.75L31.65 17.5L31.5 17.3L31.2 16.65L30.95 15.7L30.8 14.5L30.95 13.05L31.45 11.5L32.6 9.95L34.4 8.35L55.9 10.85L55.35 11.75L53.7 15.5L53.35 17.15L53.2 18.95L53.4 20.75" />
</g>
<g id="PathID_752" transform="matrix(1, 0, 0, 1, 0, 0)">
<path style="fill:#ADADAD;fill-opacity:1" d="M57.05 5.05L57.85 5.6L58.3 6.4L58.45 7.25L58.2 8.3L57.8 9.2L57 10.1L55.9 10.85L34.4 8.35L34 7.55L33.65 5.75L33.8 4.8L34.3 3.9L35.3 3.25L36.9 2.85L36.95 2.95L37.75 3.1L38.4 3.1L39.2 3L40.05 2.75L43.4 0.65L44.85 0.15L46.2 0L47.6 0.15L48.9 0.65L50.05 1.3L51.05 2.1L51.8 3.1L51.9 3.15L52.05 3.3L52.7 3.75L54 4.25L55.9 4.65L57.05 5.05" />
</g>
<g id="PathID_753" transform="matrix(1, 0, 0, 1, 0, 0)">
<path style="fill:#D8D8D8;fill-opacity:1" d="M54 4.95L57 5.9L57.65 6.35L57.95 6.9L57.95 7.65L57.65 8.35L57.15 9.15L55.25 10.45L34.8 7.85L34.75 7.7L34.45 7.2L34.25 6.55L34.15 5.75L34.25 4.95L34.75 4.25L35.65 3.65L37.25 3.4L37.3 3.4L38.1 3.5L39.4 3.45L40.25 3.25L43.5 1.5L44.8 1L46 0.8L47.1 0.8L48.15 1.05L49.1 1.5L49.95 2.1L50.65 2.85L50.8 2.95L51.1 3.25L53.05 4.55L54 4.95" />
</g>
<g id="PathID_754" transform="matrix(1, 0, 0, 1, 0, 0)">
<path style="fill:#D8D8D8;fill-opacity:1" d="M52.35 15.85L52.25 17.1L32.1 14.35L31.95 14L31.7 13.05L31.85 11.9L32.75 10.85L53.4 13.4L52.75 14.6L52.35 15.85" />
</g>
<g id="PathID_755" transform="matrix(1, 0, 0, 1, 0, 0)">
<path style="fill:#D8D8D8;fill-opacity:1" d="M54.1 12.1L52.95 14.25L52.55 15.7L52.4 17.35L52.6 19L53.4 20.75L53.25 20.55L52.85 19.9L52.4 18.9L52.05 17.6L51.95 16.15L52.25 14.55L53.1 12.9L54.75 11.3L54.1 12.1" />
</g>
<g id="PathID_756" transform="matrix(1, 0, 0, 1, 0, 0)">
<path style="fill:#FFFFFF;fill-opacity:1" d="M51.8 15.9L32.75 13.4L32.65 13.25L32.6 12.9L32.65 12.55L33 12.25L52.05 14.55L51.8 15.9" />
</g>
<g id="PathID_757" transform="matrix(1, 0, 0, 1, 0, 0)">
<path style="fill:#FFFFFF;fill-opacity:1" d="M48.65 2.5L47.65 2.2L46.6 2.1L45.35 2.15L44.05 2.65L43.95 2.75L43 3.4L39.7 4.9L38.9 4.95L37.45 4.45L36.3 4.4L35.9 4.45L35.55 4.65L35.55 4.6L35.6 4.45L35.75 4.3L36.3 3.95L36.75 3.9L37.3 4L38.05 4.25L38.2 4.25L38.6 4.15L40 3.95L40.85 3.65L42.7 2.75L43.85 1.8L44.35 1.55L45.1 1.3L46.1 1.15L47.15 1.2L48.3 1.55L49.55 2.45L50.5 3.65L50.1 3.4L49.55 2.95L48.65 2.5" />
</g>
<g id="PathID_758" transform="matrix(1, 0, 0, 1, 0, 0)">
<path style="fill:#A0143A;fill-opacity:1" d="M46.95 3.45L47.5 3.9L47.95 4.45L48.1 5.2L47.95 5.9L47.5 6.5L46.95 6.85L46.15 7L45.35 6.85L44.8 6.5L44.35 5.9L44.2 5.2L44.35 4.45L44.8 3.9L45.35 3.45L46.15 3.3L46.95 3.45" />
</g>
<g id="PathID_759" transform="matrix(1, 0, 0, 1, 0, 0)">
<path style="fill:#000000;fill-opacity:1" d="M63.25 28.25L22.95 22.4L22.95 20.9L63.25 26.75L63.25 28.25" />
</g>
<g id="PathID_760" transform="matrix(1, 0, 0, 1, 0, 0)">
<path style="fill:#000000;fill-opacity:1" d="M61.65 37.25L21.45 31.35L21.45 29.85L61.65 35.7L61.65 37.25" />
</g>
<g id="PathID_761" transform="matrix(1, 0, 0, 1, 0, 0)">
<path style="fill:#000000;fill-opacity:1" d="M60.15 46.2L19.9 40.35L19.9 38.8L60.15 44.6L60.15 46.2" />
</g>
<g id="PathID_762" transform="matrix(1, 0, 0, 1, 0, 0)">
<path style="fill:#000000;fill-opacity:1" d="M17.15 47.7L57.4 53.55L57.4 55.15L17.15 49.3L17.15 47.7" />
</g>
<g id="PathID_763" transform="matrix(1, 0, 0, 1, 0, 0)">
<path style="fill:#000000;fill-opacity:1" d="M15.2 56.3L55.5 62.15L55.5 63.75L15.2 57.9L15.2 56.3" />
</g>
<g id="PathID_764" transform="matrix(1, 0, 0, 1, 0, 0)">
<path style="fill:#000000;fill-opacity:1" d="M11 64.8L51.1 71.3L51.1 72.9L11 66.4L11 64.8" />
</g>
</svg>
