<?xml version="1.0" encoding="utf-8"?>
<svg version="1.1" id="Layer_1"
xmlns="http://www.w3.org/2000/svg"
xmlns:xlink="http://www.w3.org/1999/xlink"
width="281px" height="255px"
xml:space="preserve">
<g id="PathID_1017" transform="matrix(1, 0, 0, 1, 0, 0)">
<radialGradient
id="RadialGradID_379" gradientUnits="userSpaceOnUse" gradientTransform="matrix(0.213196, 0, 0, 0.213196, 140.05, 127.5)" spreadMethod ="pad" cx="0" cy="0" r="819.2" fx="0" fy="0" >
<stop  offset="0"  style="stop-color:#333333;stop-opacity:1" />
<stop  offset="1"  style="stop-color:#999999;stop-opacity:1" />
</radialGradient>
<path style="fill:url(#RadialGradID_379) " d="M274.95 95.25Q279.75 109 280 112.5Q280.35 117.2 279.5 125.15Q278.7 132.65 277.5 137Q276.4 140.95 274.75 143.4Q273.25 145.55 270.5 147.5Q268.3 149.05 267.2 152.45Q266.65 154.15 266.5 155.5Q246.5 201.5 242.5 208.5Q238.8 215 236.4 218.15Q232.9 222.65 229.5 224L205.4 233.4Q183.95 241.6 177.55 243.5Q170.55 245.6 149.75 250.2Q129.8 254.6 126.05 255Q123.05 255.35 111.3 249.8Q101.05 245 96.55 242Q92.95 239.15 91.25 238.25Q88.55 236.85 84.05 237.5Q76.35 238.6 34.05 248Q28.25 249.3 24.35 248.9L18.05 247.5Q15.1 246.85 10.85 243.15L2.55 235Q-1.2 231.25 0.55 219.25L3.05 208L3.85 198.25Q4.5 187.75 3.55 184Q2.8 181 9.75 174.65Q17.55 167.45 18.55 163Q19.55 158.45 24.1 151.7Q28.8 144.7 30.05 140Q31.3 135.25 35.85 128.2Q39.55 122.5 39.05 120.5Q38.45 118 38.7 114.75L39.05 112L52.6 101.95Q67 91.05 71.05 87Q77.55 80.5 87.05 73L100.55 76L118.2 64.65Q136.95 52.4 142.55 48L162.35 33.8Q176.25 23.9 179.55 20Q183 15.95 191.85 8.3Q196.3 4.5 200.05 1.5L207.05 0L217.55 10.45Q228.5 21.55 231 25Q232.85 27.55 241.4 34.45Q249.85 41.3 252.5 45Q256.85 51.1 262.5 61.7Q268.8 73.5 269.5 78Q269.95 80.95 274.95 95.25" />
</g>
<g id="PathID_1018" transform="matrix(1, 0, 0, 1, 0, 0)">
<linearGradient
id="LinearGradID_380" gradientUnits="userSpaceOnUse" gradientTransform="matrix(0.146851, 0, 0, 0.151978, 120.3, 124.5)" spreadMethod ="pad" x1="-819.2" y1="0" x2="819.2" y2="0" >
<stop  offset="0" style="stop-color:#666666;stop-opacity:1" />
<stop  offset="0.117647" style="stop-color:#999999;stop-opacity:1" />
<stop  offset="0.713725" style="stop-color:#333333;stop-opacity:1" />
<stop  offset="1" style="stop-color:#222222;stop-opacity:1" />
</linearGradient>
<path style="fill:url(#LinearGradID_380) " d="M240.6 33.8Q236.55 39.2 233.45 45.5L232.7 47.35Q229.35 53.3 227.95 59.7L220.45 61L214.35 68.35Q207.35 75.95 199.55 82.5L198.45 82.5L194.45 81L153 111.5L154.8 112.1Q153.35 113.05 152.05 114.15L150.55 115.05Q143.75 119.25 137.35 123.95L100.5 151.5L102.2 183.5Q103.1 199.45 104.45 215.45Q101.05 215.2 97.5 215.5L97.8 242.8L96.55 242Q92.95 239.15 91.25 238.25Q88.55 236.85 84.05 237.5Q76.35 238.6 34.05 248Q28.25 249.3 24.35 248.9L18.05 247.5Q15.1 246.85 10.85 243.15L2.55 235Q-1.2 231.25 0.55 219.25L3.05 208L3.85 198.25Q4.5 187.75 3.55 184Q2.8 181 9.75 174.65Q17.55 167.45 18.55 163Q19.55 158.45 24.1 151.7Q28.8 144.7 30.05 140Q31.3 135.25 35.85 128.2Q39.55 122.5 39.05 120.5Q38.45 118 38.7 114.75L39.05 112L52.6 101.95Q67 91.05 71.05 87Q77.55 80.5 87.05 73L100.55 76L118.2 64.65Q136.95 52.4 142.55 48L162.35 33.8Q176.25 23.9 179.55 20Q183 15.95 191.85 8.3Q196.3 4.5 200.05 1.5L207.05 0L217.55 10.45Q228.5 21.55 231 25Q232.75 27.4 240.6 33.8" />
</g>
<g id="PathID_1019" transform="matrix(1, 0, 0, 1, 0, 0)">
<radialGradient
id="RadialGradID_381" gradientUnits="userSpaceOnUse" gradientTransform="matrix(0.0378418, 0, 0, 0.0378418, 99.05, 232.75)" spreadMethod ="pad" cx="0" cy="0" r="819.2" fx="0" fy="0" >
<stop  offset="0"  style="stop-color:#333333;stop-opacity:1" />
<stop  offset="1"  style="stop-color:#999999;stop-opacity:1" />
</radialGradient>
<path style="fill:url(#RadialGradID_381) " d="M108.55 224.5L122.05 253.5L87.55 237.5L76.05 212L84.55 214L108.55 224.5" />
</g>
<g id="PathID_1020" transform="matrix(1, 0, 0, 1, 0, 0)">
<radialGradient
id="RadialGradID_382" gradientUnits="userSpaceOnUse" gradientTransform="matrix(0.114563, 0, 0, 0.114563, 192.55, 160.05)" spreadMethod ="pad" cx="0" cy="0" r="819.2" fx="0" fy="0" >
<stop  offset="0"  style="stop-color:#666666;stop-opacity:1" />
<stop  offset="1"  style="stop-color:#999999;stop-opacity:1" />
</radialGradient>
<path style="fill:url(#RadialGradID_382) " d="M240 108Q245.95 110.2 253.55 117.55Q257.4 121.25 260 124.5L275 142.5L269 146.5Q258 151 251 153.5Q246.95 154.95 239.15 159.8Q229.85 165.6 228 166.5L216.05 172.25L201.05 179.5Q193.9 183.1 188.75 185.05L171.55 191Q161.25 194.45 148.6 199.8L138.05 204.5L115.05 213L110.3 187.3L108.15 185L109.05 185.5L115.05 181.2Q122.05 176.3 127.05 173.5Q130.85 171.35 148.2 159.7Q165.35 148.1 170.05 145.5Q174.3 143.15 185.85 135.55Q193.95 130.25 197.5 128.3Q216.8 115.5 220 114Q222.75 112.75 228.5 108.75Q234.1 105.85 240 108" />
</g>
<g id="PathID_1021" transform="matrix(1, 0, 0, 1, 0, 0)">
<radialGradient
id="RadialGradID_383" gradientUnits="userSpaceOnUse" gradientTransform="matrix(0.0908203, 0, 0, 0.0908203, 145.1, 135.75)" spreadMethod ="pad" cx="0" cy="0" r="819.2" fx="0" fy="0" >
<stop  offset="0"  style="stop-color:#333333;stop-opacity:1" />
<stop  offset="1"  style="stop-color:#999999;stop-opacity:1" />
</radialGradient>
<path style="fill:url(#RadialGradID_383) " d="M205.7 96.25Q212.2 107.25 211.55 111Q210.8 115.5 207 120.55Q203.15 125.65 199.05 127.5Q196.15 128.8 185.85 135.55Q174.3 143.15 170.05 145.5Q165.35 148.1 148.2 159.7Q130.85 171.35 127.05 173.5Q122.05 176.3 115.05 181.2L109.05 185.5L78.55 169L158.05 123L166.8 116.7L172.35 112.45L199.05 86L205.7 96.25" />
</g>
<g id="PathID_1022" transform="matrix(1, 0, 0, 1, 0, 0)">
<radialGradient
id="RadialGradID_384" gradientUnits="userSpaceOnUse" gradientTransform="matrix(0.142212, 0, 0, 0.142212, 158.8, 85.5)" spreadMethod ="pad" cx="0" cy="0" r="819.2" fx="0" fy="0" >
<stop  offset="0"  style="stop-color:#666666;stop-opacity:1" />
<stop  offset="1"  style="stop-color:#333333;stop-opacity:1" />
</radialGradient>
<path style="fill:url(#RadialGradID_384) " d="M208.05 1.5L247.5 42L242.9 50.65Q237.4 60.15 233 64.5Q228.55 68.95 218.8 74.9L204.55 83Q199.95 85.6 190.45 94.8Q183.15 101.8 178.55 107Q176.05 109.8 166.8 116.7L158.05 123L78.05 169.5L68.55 149.5L67.1 148.85L76.5 144.55L87.8 138.4Q106.3 128.4 110.05 126.5Q113.05 125 128.8 117.55Q143.55 110.3 146.05 107.5Q148.25 105 154.8 95.7Q161.9 85.55 163.55 83.5Q166.05 80.4 185.55 41.15L204.55 2.5L208.05 1.5" />
</g>
<g id="PathID_1023" transform="matrix(1, 0, 0, 1, 0, 0)">
<radialGradient
id="RadialGradID_385" gradientUnits="userSpaceOnUse" gradientTransform="matrix(0.165649, 0, 0, 0.165649, 145.35, 184.4)" spreadMethod ="pad" cx="0" cy="0" r="819.2" fx="0" fy="0" >
<stop  offset="0"  style="stop-color:#999999;stop-opacity:1" />
<stop  offset="1"  style="stop-color:#CCCCCC;stop-opacity:1" />
</radialGradient>
<path style="fill:url(#RadialGradID_385) " d="M193.9 183.7L196.25 182.15L202 178.6L207 175.15Q209.75 173.25 213.35 171.75L213.9 171.2L215.75 171.25L215.8 171.6Q220.75 169.05 223.95 168.6L225.2 167.75Q226.35 167.05 227.45 166.85Q228.45 166.25 230.4 165.45L234.4 163.9L234.35 163.3Q234.35 161.45 251.2 153.4Q254.55 151.8 274.5 142.75L274.6 143.3Q274.6 144.4 272.85 146.6Q271.1 148.75 269.75 149.35Q264.5 150.2 260.95 152.15Q257.55 154.45 255.65 155.4Q255.4 155.55 251.45 159.3L248.5 162.05L247 163.5Q245.1 165.4 236.25 171.05Q226.25 177.5 219.5 180.5L204.7 187.7Q195 192.4 185.05 196Q174.35 199.9 157.1 207.55L131.05 219.5Q122.3 223.55 115.05 225.2L109.55 226L102.05 221L85.75 213.6L81.5 213.6L77.75 212.3L74 211.1L73.7 211L73.6 211L66 212.35L65.95 212.3L64.25 212.6L63.65 212.55L60.55 213.5L45.85 218.9Q38.15 221.7 33.05 222Q27.75 222.3 21.35 219.95L16.05 217.5L33.2 210Q41.95 206.25 47.55 205Q53.2 203.75 61.2 200.25L68.05 197L80.55 194.5L90.45 200.95Q102.2 208.05 111.55 211.5L114.6 212.6L116.85 212.4Q117.95 211.35 123.9 209Q130.9 206.25 133.75 205.75L138.75 203.4Q150.5 197.75 155.55 195Q158.9 193.15 173.95 189.05L193.9 183.7M242.75 159.5L242.8 159.65L242.85 159.5L242.75 159.5M262.8 149.75L262.9 149.65L262.8 149.7L262.8 149.75M119.8 213.8L119.1 214L119.95 214.05L119.8 213.8M79.5 211.65L79.5 211.75L80.9 211.75L79.5 211.65" />
</g>
<g id="PathID_1024" transform="matrix(1, 0, 0, 1, 0, 0)">
<radialGradient
id="RadialGradID_386" gradientUnits="userSpaceOnUse" gradientTransform="matrix(0.0517578, 0, 0, 0.0517578, 88.05, 180)" spreadMethod ="pad" cx="0" cy="0" r="819.2" fx="0" fy="0" >
<stop  offset="0"  style="stop-color:#333333;stop-opacity:1" />
<stop  offset="1"  style="stop-color:#666666;stop-opacity:1" />
</radialGradient>
<path style="fill:url(#RadialGradID_386) " d="M78.05 169.5L109.05 187L114.05 209.5L113.05 213.5L80.05 194.5Q80.3 193 80.1 191Q79.75 187 77.55 184.5Q75.35 182 68.5 164L62.05 146.5L68.55 149.5L78.05 169.5" />
</g>
<g id="PathID_1025" transform="matrix(1, 0, 0, 1, 0, 0)">
<linearGradient
id="LinearGradID_387" gradientUnits="userSpaceOnUse" gradientTransform="matrix(0.0384521, 0, 0, 0.0430298, 48.05, 181.75)" spreadMethod ="pad" x1="-819.2" y1="0" x2="819.2" y2="0" >
<stop  offset="0" style="stop-color:#333333;stop-opacity:1" />
<stop  offset="1" style="stop-color:#666666;stop-opacity:1" />
</linearGradient>
<path style="fill:url(#LinearGradID_387) " d="M32.5 167.25Q42.1 161.25 45.55 157.5Q49 153.75 56.1 149.75Q59.7 147.75 62.55 146.5L79.55 194L16.55 217L16.8 203.25Q17.3 188.75 18.55 185Q19.8 181.25 21.8 176.5L23.55 172.5Q27.7 170.25 32.5 167.25" />
</g>
<g id="PathID_1026" transform="matrix(1, 0, 0, 1, 0, 0)">
<radialGradient
id="RadialGradID_388" gradientUnits="userSpaceOnUse" gradientTransform="matrix(0.0498047, 0, 0, 0.0498047, 51.8, 229.35)" spreadMethod ="pad" cx="0" cy="0" r="819.2" fx="0" fy="0" >
<stop  offset="0"  style="stop-color:#666666;stop-opacity:1" />
<stop  offset="1"  style="stop-color:#999999;stop-opacity:1" />
</radialGradient>
<path style="fill:url(#RadialGradID_388) " d="M89.55 238.5Q78.55 241.5 72.05 242L52.95 244.55L28.55 247.5Q20.1 248.15 16.5 246.65L14.85 245.55L14.55 245L14.05 229.5Q14.05 226.25 14.45 224.3Q15.05 220.95 17.05 218Q18.95 215.2 28.2 216.8Q32.8 217.65 37.05 219L56.55 214L76.55 211L81.05 222L89.55 238.5" />
</g>
</svg>
