<?xml version="1.0" encoding="utf-8"?>
<svg version="1.1" id="Layer_1"
xmlns="http://www.w3.org/2000/svg"
xmlns:xlink="http://www.w3.org/1999/xlink"
width="44px" height="65px"
xml:space="preserve">
<g id="PathID_934" transform="matrix(1, 0, 0, 1, 0, 0)">
<path style="fill:#FFFFFF;fill-opacity:1" d="M1 12.95L0 8.8L32.3 0L32.3 50.8L32.35 54.5L32.55 56.8Q32.65 57.65 32.9 58.15L33.6 59Q33.95 59.35 34.45 59.55L36.05 60L38.8 60.3L43.45 60.6L43.45 64.05L3.5 64.05L3.5 60.6L8.5 60.25L11.45 59.9Q12.55 59.75 12.95 59.4L13.8 58.55L14.4 56.35L14.6 50.8L14.6 14.55Q14.6 10.9 10.65 10.9L8.25 11.1L5.35 11.75L1 12.95" />
</g>
</svg>
