<?xml version="1.0" encoding="utf-8"?>
<svg version="1.1" id="Layer_1"
xmlns="http://www.w3.org/2000/svg"
xmlns:xlink="http://www.w3.org/1999/xlink"
width="308px" height="308px"
xml:space="preserve">
<g id="PathID_942" transform="matrix(1, 0, 0, 1, 0, 0)">
<linearGradient
id="LinearGradID_362" gradientUnits="userSpaceOnUse" gradientTransform="matrix(0.173981, 0.17395, -0.173965, 0.173935, 153.75, 153.75)" spreadMethod ="pad" x1="-819.2" y1="0" x2="819.2" y2="0" >
<stop  offset="0" style="stop-color:#FFFFFF;stop-opacity:0.8" />
<stop  offset="0.823529" style="stop-color:#990000;stop-opacity:0.8" />
</linearGradient>
<path style="fill:url(#LinearGradID_362) " d="M301 22.2Q303 32.4 304.6 54.8Q307.5 95.8 307.5 153.7Q307.5 211.7 304.6 252.7Q302.95 275.15 301 285.3Q299.4 299.4 285.15 301.05Q275 303 252.65 304.55Q211.75 307.55 153.7 307.5Q95.7 307.5 54.7 304.6Q32.5 303 22.25 301.05Q8.1 299.4 6.55 285.15Q4.5 275 2.85 252.75Q0 211.7 0 153.8Q0 139.6 0.15 126.45Q0.7 85.8 2.9 54.8Q4.45 32.55 6.45 22.35Q8.1 8.2 22.2 6.5Q32.3 4.5 54.8 2.9L131.25 0.15Q142.2 0 153.8 0Q211.75 0.05 252.7 2.9Q275.1 4.5 285.2 6.5Q299.4 8.2 301 22.2" />
</g>
</svg>
