<?xml version="1.0" encoding="utf-8"?>
<svg version="1.1" id="Layer_1"
xmlns="http://www.w3.org/2000/svg"
xmlns:xlink="http://www.w3.org/1999/xlink"
width="40px" height="35px"
xml:space="preserve">
<g id="PathID_699" transform="matrix(1, 0, 0, 1, 0, 0)">
<path style="fill:#000000;fill-opacity:1" d="M34.5 9.15Q29.75 2.2 19.35 2.95Q16.65 3.15 13.85 4.2Q10.95 5.35 8.7 7.15Q3.35 11.45 3.55 17.25Q3.7 20.4 4.95 22.5Q5.5 23.45 7.1 25L8.1 25.7L9.05 26.4Q9.95 27.25 9.3 29.05L7.8 30.65Q6.7 31.45 6.85 31.85L9.45 32Q11.6 31.6 12.85 30.75L14.7 29.4Q15.5 28.9 16 28.9L21.65 28.6Q27.35 27.75 31.2 24.7Q35.3 21.5 36.25 17.5Q37.3 13.2 34.5 9.15M39.65 17.65Q38.45 22.5 33.5 26.4L32.5 27.15Q28.15 30.15 21.95 31.1L16.5 31.4L16.35 31.55L16.25 31.55L16.2 31.55L16.15 31.6L15.95 31.65L15.8 31.75L15.3 31.95L13.35 33.1L12.2 33.6L11.6 33.85L9.35 34.15L5.8 33.75Q3.8 33.1 3.65 32.55L3.4 32.3Q3.3 31.9 4.5 31.3L4.8 31.15L5.2 30.8L6.7 29.2L6.85 28.65L6.7 28.4L5.55 27.65L5.5 27.6L4.35 26.8Q2.35 24.85 1.75 23.75Q0.2 21.15 0 17.4Q-0.25 10.35 6.25 5.15Q9 3 12.5 1.65Q15.85 0.35 19.15 0.1Q31.75 -0.8 37.55 7.6Q40.9 12.5 39.65 17.65" />
<path style="fill:#66FFFF;fill-opacity:1" d="M36.25 17.5Q35.3 21.5 31.2 24.7Q27.35 27.75 21.65 28.6L16 28.9Q15.5 28.9 14.7 29.4L12.85 30.75Q11.6 31.6 9.45 32L6.85 31.85Q6.7 31.45 7.8 30.65L9.3 29.05Q9.95 27.25 9.05 26.4L8.1 25.7L7.1 25Q5.5 23.45 4.95 22.5Q3.7 20.4 3.55 17.25Q3.35 11.45 8.7 7.15Q10.95 5.35 13.85 4.2Q16.65 3.15 19.35 2.95Q29.75 2.2 34.5 9.15Q37.3 13.2 36.25 17.5" />
</g>
</svg>
