<?xml version="1.0" encoding="utf-8"?>
<svg version="1.1" id="Layer_1"
xmlns="http://www.w3.org/2000/svg"
xmlns:xlink="http://www.w3.org/1999/xlink"
width="148px" height="22px"
xml:space="preserve">
<g id="PathID_293" transform="matrix(1, 0, 0, 1, 0, 0)">
<linearGradient
id="LinearGradID_151" gradientUnits="userSpaceOnUse" gradientTransform="matrix(0, -0.0134277, 0.0134277, 0, 137, 11)" spreadMethod ="pad" x1="-819.2" y1="0" x2="819.2" y2="0" >
<stop  offset="0" style="stop-color:#585F63;stop-opacity:1" />
<stop  offset="1" style="stop-color:#B7BABC;stop-opacity:1" />
</linearGradient>
<path style="fill:url(#LinearGradID_151) " d="M126 21L144.15 21Q147 20.95 147 18L147 13.4L147 4Q147 1.05 144.15 1L126 1L125 1L124.8 1L3.95 1L3.9 1Q1 1.05 1 4L1 13.4L1 18Q1 20.95 3.9 21L3.95 21L124.8 21L125 21L126 21M148 13.4L148 18Q148 22 144 22L124.8 22L4 22Q0 22 0 18L0 13.4L0 4Q0 0 4 0L124.8 0L144 0Q148 0 148 4L148 13.4" />
<linearGradient
id="LinearGradID_152" gradientUnits="userSpaceOnUse" gradientTransform="matrix(0, -0.0183105, 0.0183105, 0, 125.65, 15.95)" spreadMethod ="pad" x1="-819.2" y1="0" x2="819.2" y2="0" >
<stop  offset="0" style="stop-color:#585F63;stop-opacity:1" />
<stop  offset="1" style="stop-color:#B7BABC;stop-opacity:1" />
</linearGradient>
<path style="fill:url(#LinearGradID_152) " d="M126 13.4L126 18.1L126 21L125 21L125 18.1L125 13.4L125 1L126 1L126 13.4" />
</g>
<g id="PathID_294" transform="matrix(1, 0, 0, 1, 0, 0)">
<linearGradient
id="LinearGradID_153" gradientUnits="userSpaceOnUse" gradientTransform="matrix(0, -0.0134277, -0.0134277, 0, 11, 11)" spreadMethod ="pad" x1="-819.2" y1="0" x2="819.2" y2="0" >
<stop  offset="0" style="stop-color:#CCCCCC;stop-opacity:0.4" />
<stop  offset="1" style="stop-color:#FFFFFF;stop-opacity:0.6" />
</linearGradient>
<path style="fill:url(#LinearGradID_153) " d="M3.95 1L124.8 1L144.15 1Q147 1.05 147 4L147 13.4L147 18Q147 20.95 144.15 21L124.8 21L3.95 21L3.9 21Q1 20.95 1 18L1 13.4L1 4Q1 1.05 3.9 1L3.95 1" />
</g>
<g id="PathID_295" transform="matrix(1, 0, 0, 1, 0, 0)">
<linearGradient
id="LinearGradID_154" gradientUnits="userSpaceOnUse" gradientTransform="matrix(0, -0.00640869, 0.0183105, 0, 61.5, 6.75)" spreadMethod ="pad" x1="-819.2" y1="0" x2="819.2" y2="0" >
<stop  offset="0" style="stop-color:#CCCCCC;stop-opacity:0" />
<stop  offset="1" style="stop-color:#FFFFFF;stop-opacity:0.298039" />
</linearGradient>
<path style="fill:url(#LinearGradID_154) " d="M144 1Q146.95 1 147 4L147 12L124.8 12L3.95 12L1 12L1 4Q1 1 4 1L124.8 1L144 1" />
</g>
<g id="PathID_296" transform="matrix(1, 0, 0, 1, 0, 0)">
<path style="fill:#000000;fill-opacity:1" d="M135 12L134 12L134 11L133 11L133 10L132 10L132 9L139 9L139 10L138 10L138 11L137 11L137 12L136 12L136 13L135 13L135 12" />
</g>
</svg>
