<?xml version="1.0" encoding="utf-8"?>
<svg version="1.1" id="Layer_1"
xmlns="http://www.w3.org/2000/svg"
xmlns:xlink="http://www.w3.org/1999/xlink"
width="25px" height="24px"
xml:space="preserve">
<g id="PathID_250" transform="matrix(1, 0, 0, 1, 0, 0)">
<path style="fill:#FFFFFF;fill-opacity:1" d="M21.25 6.55L17.2 6.45L13.8 11.05L19.5 11.45L22.05 8.25L23.35 8.85L20.9 11.55L25 11.9L24.85 13.65L20.75 13.2L22.65 16.35L21.25 16.65L19.4 13.1L13.65 12.45L16.15 17.55L20.25 18.15L20.4 19.55L16.8 18.85L18.55 22.5L16.9 23.3L15.25 19.6L13.45 22.75L12.5 21.7L14.65 18.25L12.35 13.1L9.2 17.75L10.7 21.6L9.55 22.4L8.35 18.95L6.05 22.3L4.65 21.3L7 18L3.35 18.05L3.75 16.7L7.85 16.8L11.25 12.3L5.5 11.85L2.95 15.1L1.65 14.5L4.05 11.75L0 11.4L0.15 9.65L4.2 10.1L2.3 6.95L3.7 6.65L5.65 10.2L11.3 10.8L8.8 5.65L4.75 5.1L4.6 3.65L8.2 4.4L6.45 0.7L8.05 0L9.75 3.7L11.55 0.5L12.5 1.55L10.35 5L12.6 10.15L15.8 5.45L14.3 1.7L15.45 0.85L16.6 4.3L18.95 0.95L20.4 1.95L18 5.3L21.65 5.2L21.25 6.55" />
</g>
</svg>
