<?xml version="1.0" encoding="utf-8"?>
<svg version="1.1" id="Layer_1"
xmlns="http://www.w3.org/2000/svg"
xmlns:xlink="http://www.w3.org/1999/xlink"
width="5px" height="7px"
xml:space="preserve">
<g id="PathID_210" transform="matrix(1, 0, 0, 1, 0, 0)">
<path style="fill:#5A6165;fill-opacity:1" d="M5 7L0 7L0 6L5 6L5 7" />
</g>
<g id="PathID_211" transform="matrix(1, 0, 0, 1, 0, 0)">
<path style="fill:#5A6165;fill-opacity:1" d="M5 5L0 5L0 4L5 4L5 5" />
</g>
<g id="PathID_212" transform="matrix(1, 0, 0, 1, 0, 0)">
<path style="fill:#5A6165;fill-opacity:1" d="M5 1L0 1L0 0L5 0L5 1" />
</g>
<g id="PathID_213" transform="matrix(1, 0, 0, 1, 0, 0)">
<path style="fill:#5A6165;fill-opacity:1" d="M5 3L0 3L0 2L5 2L5 3" />
</g>
</svg>
