<?xml version="1.0" encoding="utf-8"?>
<svg version="1.1" id="Layer_1"
xmlns="http://www.w3.org/2000/svg"
xmlns:xlink="http://www.w3.org/1999/xlink"
width="2153px" height="1238px"
xml:space="preserve">
<g id="PathID_1140" transform="matrix(1, 0, 0, 1, -488.85, -381)">
<linearGradient
id="LinearGradID_414" gradientUnits="userSpaceOnUse" gradientTransform="matrix(0.566437, 0, 0, 0.755402, 2177.2, 999.8)" spreadMethod ="pad" x1="-819.2" y1="0" x2="819.2" y2="0" >
<stop  offset="0.584314" style="stop-color:#0D610C;stop-opacity:1" />
<stop  offset="1" style="stop-color:#073A07;stop-opacity:1" />
</linearGradient>
<path style="fill:url(#LinearGradID_414) " d="M2641.25 746.25Q2641.25 932.2 2526.7 1028.45Q2412.15 1123.95 2185.55 1123.95L1959.75 1123.95L1959.75 1468.4Q1959.75 1542.3 1924.9 1580.45Q1890 1618.65 1836.9 1618.65Q1781.3 1618.65 1747.25 1581.3Q1713.2 1543.1 1713.2 1470.05L1713.2 532.1Q1713.2 450.75 1750.55 415.85Q1787.9 381 1869.25 381L2185.55 381Q2325.8 381 2401.35 402.6Q2476.05 423.35 2530.85 471.5Q2584.8 519.65 2613 589.35Q2641.25 659.1 2641.25 746.25M1959.75 566.1L1959.75 938L2125.75 938Q2212.9 938 2271.85 919.75Q2329.95 901.45 2360.65 859.95Q2391.4 818.45 2391.4 751.2Q2391.4 670.7 2344.05 620.05Q2290.95 566.1 2125.75 566.1L1959.75 566.1" />
<linearGradient
id="LinearGradID_415" gradientUnits="userSpaceOnUse" gradientTransform="matrix(0.617096, 0, 0, 0.742737, 994.35, 989.45)" spreadMethod ="pad" x1="-819.2" y1="0" x2="819.2" y2="0" >
<stop  offset="0.584314" style="stop-color:#0D610C;stop-opacity:1" />
<stop  offset="1" style="stop-color:#073A07;stop-opacity:1" />
</linearGradient>
<path style="fill:url(#LinearGradID_415) " d="M1425.2 586.05Q1442.6 633.35 1442.6 686.45Q1442.6 869.1 1260 953.75Q1499.9 1030.15 1499.9 1250.95Q1499.9 1353.05 1447.6 1435.2Q1395.3 1516.55 1306.5 1555.55Q1250.85 1578.8 1178.65 1588.75Q1106.45 1597.9 1010.15 1597.9L638.25 1597.9Q557.75 1597.9 523.7 1562.2Q488.85 1525.7 488.85 1446.85L488.85 532.1Q488.85 451.55 524.55 416.7Q559.4 381 638.25 381L1032.55 381Q1119.7 381 1183.65 391.8Q1247.55 402.6 1298.2 433.3Q1341.35 459.05 1374.55 498.9Q1407.75 537.9 1425.2 586.05M735.4 566.1L735.4 880.7L961.15 880.7Q1053.3 880.7 1103.95 863.3Q1153.75 845.85 1180.3 796.85Q1201.05 762 1201.05 718.85Q1201.05 626.7 1135.5 596.85Q1069.9 566.1 935.45 566.1L735.4 566.1M991.9 1057.5L735.4 1057.5L735.4 1412.8L1000.2 1412.8Q1250.05 1412.8 1250.05 1232.65Q1250.05 1140.55 1185.3 1099Q1120.55 1057.5 991.9 1057.5" />
</g>
</svg>
