<?xml version="1.0" encoding="utf-8"?>
<svg version="1.1" id="Layer_1"
xmlns="http://www.w3.org/2000/svg"
xmlns:xlink="http://www.w3.org/1999/xlink"
width="596px" height="464px"
xml:space="preserve">
<g id="PathID_1199" transform="matrix(1, 0, 0, 1, -221.5, -59.5)">
<path style="fill:#FFFFFF;fill-opacity:0.498039" d="M565 432L565 523L474 523L474 432L565 432" />
<path style="fill:none;stroke-width:1;stroke-linecap:round;stroke-linejoin:round;stroke-miterlimit:3;stroke:#FF0000;stroke-opacity:1" d="M565 432L565 523L474 523L474 432L565 432z" />
</g>
<g id="PathID_1200" transform="matrix(1, 0, 0, 1, -221.5, -59.5)">
<path style="fill:#FFFFFF;fill-opacity:0.498039" d="M286 246L286 337L222 337L222 246L286 246" />
<path style="fill:none;stroke-width:1;stroke-linecap:round;stroke-linejoin:round;stroke-miterlimit:3;stroke:#0000FF;stroke-opacity:1" d="M286 246L286 337L222 337L222 246L286 246z" />
</g>
<g id="PathID_1201" transform="matrix(1, 0, 0, 1, -221.5, -59.5)">
<path style="fill:#FFFFFF;fill-opacity:0.498039" d="M817 246L817 337L753 337L753 246L817 246" />
<path style="fill:none;stroke-width:1;stroke-linecap:round;stroke-linejoin:round;stroke-miterlimit:3;stroke:#FF0000;stroke-opacity:1" d="M817 246L817 337L753 337L753 246L817 246z" />
</g>
<g id="PathID_1202" transform="matrix(1, 0, 0, 1, -221.5, -59.5)">
<path style="fill:#FFFFFF;fill-opacity:0.498039" d="M565 60L565 151L474 151L474 60L565 60" />
<path style="fill:none;stroke-width:1;stroke-linecap:round;stroke-linejoin:round;stroke-miterlimit:3;stroke:#0000FF;stroke-opacity:1" d="M565 60L565 151L474 151L474 60L565 60z" />
</g>
</svg>
