<?xml version="1.0" encoding="utf-8"?>
<svg version="1.1" id="Layer_1"
xmlns="http://www.w3.org/2000/svg"
xmlns:xlink="http://www.w3.org/1999/xlink"
width="33px" height="18px"
xml:space="preserve">
<g id="PathID_65" transform="matrix(1, 0, 0, 1, 0, 0)">
<linearGradient
id="LinearGradID_44" gradientUnits="userSpaceOnUse" gradientTransform="matrix(0, -0.00959778, 0.0200806, 0, 16.4, 9.5)" spreadMethod ="pad" x1="-819.2" y1="0" x2="819.2" y2="0" >
<stop  offset="0.0235294" style="stop-color:#7E5801;stop-opacity:1" />
<stop  offset="0.596078" style="stop-color:#CC9900;stop-opacity:1" />
<stop  offset="1" style="stop-color:#EDF3AD;stop-opacity:1" />
</linearGradient>
<path style="fill:url(#LinearGradID_44) " d="M32.9 8.35Q32.65 11 30.8 13Q28.7 15.2 25.7 15.2Q22.8 15.2 20.7 13L19.65 11.6L10.2 11.6L10.2 17.45L7.1 17.45L7.1 11.75L6.05 11.75L6.05 11.6L3.4 11.6L3.4 18L0 18L0 5.6L17.45 5.6L19.15 4.5Q19.65 3.25 20.7 2.3Q22.8 0 25.7 0L26.25 0L26.85 0.1Q29.05 0.45 30.8 2.3Q32.55 4.15 32.9 6.65L32.9 8.35M25.8 3.6Q24.2 3.6 23.05 4.85Q21.95 6.05 21.95 7.75Q21.95 9.4 23.05 10.6Q24.2 11.75 25.8 11.75Q27.35 11.75 28.5 10.6Q29.65 9.4 29.65 7.75Q29.65 6.05 28.5 4.85Q27.35 3.6 25.8 3.6" />
<path style="fill:none;stroke-width:0.7;stroke-linecap:round;stroke-linejoin:round;stroke-miterlimit:3;stroke:#996600;stroke-opacity:1" d="M32.9 8.35Q32.65 11 30.8 13Q28.7 15.2 25.7 15.2Q22.8 15.2 20.7 13L19.65 11.6L10.2 11.6L10.2 17.45L7.1 17.45L7.1 11.75L6.05 11.75L6.05 11.6L3.4 11.6L3.4 18L0 18L0 5.6L17.45 5.6L19.15 4.5Q19.65 3.25 20.7 2.3Q22.8 0 25.7 0L26.25 0L26.85 0.1Q29.05 0.45 30.8 2.3Q32.55 4.15 32.9 6.65L32.9 8.35z" />
<path style="fill:none;stroke-width:0.7;stroke-linecap:round;stroke-linejoin:round;stroke-miterlimit:3;stroke:#996600;stroke-opacity:1" d="M28.5 4.85Q29.65 6.05 29.65 7.75Q29.65 9.4 28.5 10.6Q27.35 11.75 25.8 11.75Q24.2 11.75 23.05 10.6Q21.95 9.4 21.95 7.75Q21.95 6.05 23.05 4.85Q24.2 3.6 25.8 3.6Q27.35 3.6 28.5 4.85z" />
</g>
</svg>
