<?xml version="1.0" encoding="utf-8"?>
<svg version="1.1" id="Layer_1"
xmlns="http://www.w3.org/2000/svg"
xmlns:xlink="http://www.w3.org/1999/xlink"
width="152px" height="22px"
xml:space="preserve">
<g id="PathID_284" transform="matrix(1, 0, 0, 1, 0, 0)">
<linearGradient
id="LinearGradID_143" gradientUnits="userSpaceOnUse" gradientTransform="matrix(0, -0.00787354, 0.00787354, 0, 8.5, 14.45)" spreadMethod ="pad" x1="-819.2" y1="0" x2="819.2" y2="0" >
<stop  offset="0" style="stop-color:#5B5D5E;stop-opacity:0.298039" />
<stop  offset="1" style="stop-color:#B7BABC;stop-opacity:0.298039" />
</linearGradient>
<path style="fill:url(#LinearGradID_143) " d="M1.1 0L151.05 0L152 0L152 0.95L152 21.05L152 22L151.05 22L1.1 22L0 22L0 21.05L0 0.95L0 0L1.1 0M1 1L1 21L1.1 21L151 21L151 1L1.1 1L1 1" />
<linearGradient
id="LinearGradID_144" gradientUnits="userSpaceOnUse" gradientTransform="matrix(0, -0.0138702, 0.0138702, 0, 63.5, 11.25)" spreadMethod ="pad" x1="-819.2" y1="0" x2="819.2" y2="0" >
<stop  offset="0" style="stop-color:#CCCCCC;stop-opacity:0.2" />
<stop  offset="1" style="stop-color:#FFFFFF;stop-opacity:0.298039" />
</linearGradient>
<path style="fill:url(#LinearGradID_144) " d="M1.1 1L151 1L151 21L1.1 21L1 21L1 1L1.1 1" />
</g>
<g id="PathID_285" transform="matrix(1, 0, 0, 1, 0, 0)">
<linearGradient
id="LinearGradID_145" gradientUnits="userSpaceOnUse" gradientTransform="matrix(0, -0.00708008, 0.103958, 0, 63.5, 6.65)" spreadMethod ="pad" x1="-819.2" y1="0" x2="819.2" y2="0" >
<stop  offset="0" style="stop-color:#EEEEEE;stop-opacity:0" />
<stop  offset="1" style="stop-color:#FFFFFF;stop-opacity:0.2" />
</linearGradient>
<path style="fill:url(#LinearGradID_145) " d="M1.1 1L151 1L151 12L1.1 12L1 12L1 1L1.1 1" />
</g>
</svg>
