<?xml version="1.0" encoding="utf-8"?>
<svg version="1.1" id="Layer_1"
xmlns="http://www.w3.org/2000/svg"
xmlns:xlink="http://www.w3.org/1999/xlink"
width="33px" height="71px"
xml:space="preserve">
<g id="PathID_722" transform="matrix(1, 0, 0, 1, -337.6, -279.15)">
<path style="fill:#000000;fill-opacity:1" d="M345.05 286.55L350.6 292.2Q354.25 295.85 355.55 298.05L359.45 304.4Q361.9 308.6 363.3 312.05L366.45 319.5L368.3 324.3L369.35 326.75L369.55 327.25L369.65 327.5L369.65 327.6L370.6 330.3L369.15 332.45L365.3 337.8L361.15 342.8L357.55 346.3Q356.3 347.55 353.2 349.45L353.05 349.55L353.05 345.35L353 342.55L352.8 335.3Q352.8 333.1 351.7 327.95L349.8 320.8Q349.2 319 348.5 315.45L347.55 310.8Q344.55 298.8 342.3 292.05L339 282.85L337.6 279.15L338.35 279.4L340.55 281.75L345.05 286.55" />
</g>
</svg>
