<?xml version="1.0" encoding="utf-8"?>
<svg version="1.1" id="Layer_1"
xmlns="http://www.w3.org/2000/svg"
xmlns:xlink="http://www.w3.org/1999/xlink"
width="152px" height="22px"
xml:space="preserve">
<g id="PathID_177" transform="matrix(1, 0, 0, 1, 0, 0)">
<path style="fill:#6D6F70;fill-opacity:1" d="M151 1L150.1 1L2.2 1L1 1L0 1L0 0L2.2 0L150.1 0L151 0L151 1" />
<path style="fill:#C9CBCC;fill-opacity:1" d="M1 1.4L1 20.1L1 21L1 22L0 22L0 20.1L0 1.4L0 1L1 1L1 1.4M151 21L151 20.1L151 1.4L151 1L151 0L152 0L152 1.4L152 20.1L152 22L151 22L151 21" />
<path style="fill:#FFFFFF;fill-opacity:1" d="M151 1.4L151 20.1L151 21L150.1 21L2.2 21L1 21L1 20.1L1 1.4L1 1L2.2 1L150.1 1L151 1L151 1.4" />
<path style="fill:#D3D5D6;fill-opacity:1" d="M1 21L2.2 21L150.1 21L151 21L151 22L150.1 22L2.2 22L1 22L1 21" />
</g>
</svg>
