<?xml version="1.0" encoding="utf-8"?>
<svg version="1.1" id="Layer_1"
xmlns="http://www.w3.org/2000/svg"
xmlns:xlink="http://www.w3.org/1999/xlink"
width="2240px" height="1246px"
xml:space="preserve">
<g id="PathID_1141" transform="matrix(1, 0, 0, 1, -393.65, -362.85)">
<linearGradient
id="LinearGradID_416" gradientUnits="userSpaceOnUse" gradientTransform="matrix(0.519806, 0, 0, 0.747284, 2207.35, 975)" spreadMethod ="pad" x1="-819.2" y1="0" x2="819.2" y2="0" >
<stop  offset="0.584314" style="stop-color:#0000FF;stop-opacity:1" />
<stop  offset="1" style="stop-color:#000079;stop-opacity:1" />
</linearGradient>
<path style="fill:url(#LinearGradID_416) " d="M2606.65 1559Q2579.25 1587.2 2524.45 1587.2L1913.55 1587.2Q1851.3 1587.2 1816.4 1553.15Q1781.55 1518.3 1781.55 1471.8Q1781.55 1441.95 1803.95 1392.95Q1826.35 1343.15 1852.95 1314.95Q1963.35 1200.4 2052.15 1119.05Q2140.95 1036.85 2179.15 1011.15Q2247.2 963 2292.9 914.85Q2337.7 865.85 2361.75 815.25Q2385 763.75 2385 714.8Q2385 661.65 2360.1 620.15Q2334.4 577.85 2291.2 554.6Q2247.2 531.35 2195.75 531.35Q2087 531.35 2024.75 626.8Q2016.45 639.25 1997.35 694.85Q1977.45 750.5 1953.4 780.35Q1928.45 810.25 1881.15 810.25Q1839.65 810.25 1812.25 782.85Q1784.85 755.45 1784.85 708.15Q1784.85 650.85 1810.6 588.6Q1836.35 526.35 1887.8 475.75Q1938.45 425.1 2017.3 394.4Q2095.3 362.85 2200.75 362.85Q2327.75 362.85 2417.4 402.7Q2475.5 429.25 2519.5 475.75Q2563.5 522.2 2588.4 583.65Q2612.45 644.25 2612.45 709.8Q2612.45 812.75 2561.8 897.4Q2510.35 981.25 2457.25 1029.4Q2404.1 1076.7 2279.6 1178.8Q2154.25 1280.9 2107.75 1337.35Q2087.85 1359.75 2067.1 1391.3L2500.4 1391.3Q2565.15 1391.3 2599.2 1417.85Q2633.2 1444.45 2633.2 1490.1Q2633.2 1530.75 2606.65 1559" />
<linearGradient
id="LinearGradID_417" gradientUnits="userSpaceOnUse" gradientTransform="matrix(0.7164, 0, 0, 0.755402, 980.5, 989.1)" spreadMethod ="pad" x1="-819.2" y1="0" x2="819.2" y2="0" >
<stop  offset="0.584314" style="stop-color:#0000FF;stop-opacity:1" />
<stop  offset="1" style="stop-color:#000079;stop-opacity:1" />
</linearGradient>
<path style="fill:url(#LinearGradID_417) " d="M1413.85 370.3Q1484.4 370.3 1525.9 398.55Q1567.4 425.9 1567.4 505.6L1567.4 1468.5Q1567.4 1538.25 1536.7 1573.1Q1505.15 1607.95 1452.85 1607.95Q1403.9 1607.95 1372.35 1573.1Q1340.8 1538.25 1340.8 1468.5L1340.8 628.45L1145.7 1403.75Q1126.65 1479.3 1115 1515Q1102.55 1549.85 1070.2 1578.9Q1037.8 1607.95 980.55 1607.95Q937.35 1607.95 907.5 1589.7Q877.6 1570.6 861 1541.55Q844.4 1512.5 835.25 1477.65Q825.3 1441.95 815.35 1403.75L620.3 628.45L620.3 1468.5Q620.3 1538.25 589.55 1573.1Q558.05 1607.95 506.55 1607.95Q456.75 1607.95 425.2 1573.9Q393.65 1539.05 393.65 1468.5L393.65 505.6Q393.65 425.9 435.2 398.55Q476.7 370.3 547.25 370.3L623.6 370.3Q692.5 370.3 724.05 382.75Q754.75 395.2 769.7 427.6Q784.65 459.95 803.75 533L980.55 1199.55L1157.35 533Q1176.45 459.95 1191.4 427.6Q1206.3 395.2 1237.85 382.75Q1268.55 370.3 1337.45 370.3L1413.85 370.3" />
</g>
</svg>
