<?xml version="1.0" encoding="utf-8"?>
<svg version="1.1" id="Layer_1"
xmlns="http://www.w3.org/2000/svg"
xmlns:xlink="http://www.w3.org/1999/xlink"
width="332px" height="374px"
xml:space="preserve">
<g id="PathID_714" transform="matrix(1, 0, 0, 1, -58.35, -3.15)">
<path style="fill:#FFFFFF;fill-opacity:0.2" d="M213.35 80.65Q213.35 112.75 190.6 135.45Q167.95 158.15 135.85 158.15Q103.75 158.15 81 135.45Q58.35 112.75 58.35 80.65Q58.35 48.55 81 25.85Q103.75 3.15 135.85 3.15Q167.95 3.15 190.6 25.85Q213.35 48.55 213.35 80.65M182.95 33.55Q163.45 14.05 135.85 14.05Q108.25 14.05 88.75 33.55Q69.2 53.1 69.2 80.65Q69.2 108.2 88.75 127.75Q108.25 147.25 135.85 147.25Q163.45 147.25 182.95 127.75Q202.45 108.2 202.45 80.65Q202.45 53.1 182.95 33.55" />
</g>
<g id="PathID_715" transform="matrix(1, 0, 0, 1, -58.35, -3.15)">
<path style="fill:#204989;fill-opacity:1" d="M352.3 226.05L359.95 234.1L364.8 240.8L370.6 249Q372.9 252.35 375.8 258.3L380.25 267.25Q381.45 269.85 383.55 275.8L386.1 283.35L387.3 288.8Q388.1 292.25 388.25 295.85Q388.5 300.4 389.05 304.05Q389.8 308.95 389.6 311.45L388.8 318.8Q388.5 323.9 387.25 328.7L385.55 334.3Q384.7 336.8 378.05 348.8Q377.3 350.15 374.6 352.9L370.05 357.55Q368.3 359.5 364.5 362.2L358.8 366.05Q356.95 367.3 352.45 369.15L347.05 371.3Q341.3 373.75 336.05 374.05Q333.55 374.2 330.35 375.4L326.7 376.55L202.55 376.35L197.85 375.65L186.5 374.25L172.55 370.3Q178.25 373.65 159.25 363.6Q157.6 361.6 146.75 351.45Q146.6 350.75 137.8 338.45L134.75 328.8L131.45 319.3L130.9 314.7Q129.65 304.45 129.55 302.8Q129.35 299.45 129.85 292.65Q130.45 285.3 131.3 282.3Q132.65 277.65 135.7 269.1Q139.3 258.75 140.8 256.3Q142.65 253.25 148.6 244.5Q154.8 235.45 156.55 233.3L164.45 224.5Q170.65 217.8 172.3 216.8L174.2 215.55L175.55 214.6L183.15 208.95L183.7 208.6L184.75 207.8L185.4 207.3L186.7 206.35L188.1 205.35L189.15 204.55L325.8 204.55L331.3 207.55L338.35 213.05L341.3 215.55Q347.6 220.95 352.3 226.05" />
</g>
</svg>
