<?xml version="1.0" encoding="utf-8"?>
<svg version="1.1" id="Layer_1"
xmlns="http://www.w3.org/2000/svg"
xmlns:xlink="http://www.w3.org/1999/xlink"
width="48px" height="65px"
xml:space="preserve">
<g id="PathID_937" transform="matrix(1, 0, 0, 1, 0, 0)">
<path style="fill:#FFFFFF;fill-opacity:1" d="M44.3 25.1Q41.75 29.35 38.05 32.85L31.9 38.1L25 43.2L17.85 48.05L10.95 52.55L29.05 52.55L32.5 52.45L36.15 52.15L39.3 51.55L41.25 50.65L42.4 49.35L43.4 47.9L47.5 47.9L41.95 64.05L0 64.05L0 55.4L1.05 54.45L2.3 53.35L3.95 52.05L6.5 50.05Q12.5 45.15 16.8 41Q21.05 36.8 23.75 33.1Q26.45 29.4 27.7 26Q29 22.55 29 19.15Q29 14.5 26.3 11.6Q23.55 8.7 19.2 8.7Q16.65 8.7 14.8 9.7Q12.95 10.6 11.65 12.15Q10.35 13.7 9.5 15.65Q8.65 17.65 8.1 19.8L2.6 19.8L2.6 10.35Q6.55 5.05 12 2.5Q17.45 0 24.95 0Q29.75 0 33.8 1.1Q37.8 2.2 40.75 4.35Q43.65 6.45 45.25 9.4Q46.8 12.35 46.8 15.8Q46.8 20.95 44.3 25.1" />
</g>
</svg>
