<?xml version="1.0" encoding="utf-8"?>
<svg version="1.1" id="Layer_1"
xmlns="http://www.w3.org/2000/svg"
xmlns:xlink="http://www.w3.org/1999/xlink"
width="30px" height="30px"
xml:space="preserve">
<g id="PathID_1191" transform="matrix(1, 0, 0, 1, 0, 0)">
<path style="fill:#000000;fill-opacity:1" d="M29.6 11.45Q30 12 30 13L30 17.45Q30 18.65 29.45 19.2Q28.4 22.8 25.6 25.6Q23.05 28.15 19.85 29.25Q19.25 29.8 18 29.8L17.6 29.8L15 30L12.4 29.8L11.55 29.65L11.25 29.6Q7.4 28.6 4.4 25.6Q1.55 22.75 0.55 19.1Q0 18.55 0 17.4L0 12.9Q0 11.85 0.45 11.3Q1.4 7.4 4.4 4.4Q7.35 1.45 11.1 0.5L12.05 0.25L15 0L18.45 0.4L19.5 0.65Q22.9 1.7 25.6 4.4Q28.7 7.5 29.6 11.45" />
</g>
</svg>
