<?xml version="1.0" encoding="utf-8"?>
<svg version="1.1" id="Layer_1"
xmlns="http://www.w3.org/2000/svg"
xmlns:xlink="http://www.w3.org/1999/xlink"
width="192px" height="192px"
xml:space="preserve">
<g id="PathID_478" transform="matrix(1, 0, 0, 1, 0, 0)">
<path style="fill:#000000;fill-opacity:0.2" d="M185.8 30.3Q196.05 40.55 186.5 50.8L144.8 92.5Q139.85 97.45 144.8 102.4L186.4 144Q196.1 154.3 185.8 164.6L164.6 185.8Q154.3 196.1 143.95 186.45L102.35 144.85L102.15 144.65L100.95 143.65Q96.8 140.65 92.65 144.65L92.45 144.85L50.85 186.45Q47.4 189.65 44 190.65Q37.15 192.65 30.3 185.8L9.05 164.55Q-0.9 154.6 7.85 144.65L8.4 144L50 102.4Q54.95 97.45 50 92.5L8.45 50.95Q-1.2 40.6 9.1 30.3L30.3 9.1Q40.6 -1.2 50.9 8.5L92.45 50.05Q97.4 55 102.35 50.05L144.05 8.35Q154.3 -1.2 164.55 9.05L185.8 30.3" />
</g>
<g id="PathID_479" transform="matrix(1, 0, 0, 1, 0, 0)">
<path style="fill:#000000;fill-opacity:0.298039" d="M185.05 29.55Q195.3 39.8 185.75 50.05L144.05 91.75Q139.1 96.7 144.05 101.65L185.65 143.25Q195.35 153.55 185.05 163.85L163.85 185.05Q153.55 195.35 143.2 185.7L101.6 144.1L101.4 143.9L100.2 142.9Q96.05 139.9 91.9 143.9L91.7 144.1L50.1 185.7Q46.65 188.9 43.25 189.9Q36.4 191.9 29.55 185.05L8.3 163.8Q-1.65 153.85 7.1 143.9L7.65 143.25L49.25 101.65Q54.2 96.7 49.25 91.75L7.7 50.2Q-1.95 39.85 8.35 29.55L29.55 8.35Q39.85 -1.95 50.15 7.75L91.7 49.3Q96.65 54.25 101.6 49.3L143.3 7.6Q153.55 -1.95 163.8 8.3L185.05 29.55" />
</g>
<g id="PathID_480" transform="matrix(1, 0, 0, 1, 0, 0)">
<path style="fill:#000000;fill-opacity:0.4" d="M184.25 48.55L142.55 90.25Q137.6 95.2 142.55 100.15L184.15 141.75Q193.85 152.05 183.55 162.35L162.35 183.55Q152.05 193.85 141.7 184.2L100.1 142.6L99.9 142.4L98.7 141.4Q94.55 138.4 90.4 142.4L90.2 142.6L48.6 184.2Q45.15 187.4 41.75 188.4Q34.9 190.4 28.05 183.55L6.8 162.3Q-3.15 152.35 5.6 142.4L6.15 141.75L47.75 100.15Q52.7 95.2 47.75 90.25L6.2 48.7Q-3.45 38.35 6.85 28.05L28.05 6.85Q38.35 -3.45 48.65 6.25L90.2 47.8Q95.15 52.75 100.1 47.8L141.8 6.1Q152.05 -3.45 162.3 6.8L183.55 28.05Q193.8 38.3 184.25 48.55" />
</g>
<g id="PathID_481" transform="matrix(1, 0, 0, 1, 0, 0)">
<linearGradient
id="LinearGradID_259" gradientUnits="userSpaceOnUse" gradientTransform="matrix(0.114349, 0, 0, 0.114349, 93.65, 93.65)" spreadMethod ="pad" x1="-819.2" y1="0" x2="819.2" y2="0" >
<stop  offset="0" style="stop-color:#A60201;stop-opacity:1" />
<stop  offset="1" style="stop-color:#693134;stop-opacity:1" />
</linearGradient>
<path style="fill:url(#LinearGradID_259) " d="M177.4 28.8L158.3 9.7Q150.5 1.9 142.7 9.7L93.75 58.65L44.8 9.7Q37 1.9 29.25 9.65L10.15 28.75Q2.35 36.55 10.15 44.35L59.1 93.3L10.15 142.25Q2.35 150.05 10.15 157.85L29.25 176.95Q37 184.7 44.8 176.9L93.75 127.95L142.7 176.9Q150.5 184.7 158.3 176.9L177.4 157.8Q185.15 150.05 177.35 142.25L128.4 93.3L177.35 44.35Q185.15 36.55 177.4 28.8M182.75 47.05L141.05 88.75Q136.1 93.7 141.05 98.65L182.65 140.25Q192.35 150.55 182.05 160.85L160.85 182.05Q150.55 192.35 140.2 182.7L98.6 141.1Q93.65 136.15 88.7 141.1L47.1 182.7Q36.8 192.3 26.55 182.05L5.3 160.8Q-4.95 150.55 4.65 140.25L46.25 98.65Q51.2 93.7 46.25 88.75L4.7 47.2Q-4.95 36.85 5.35 26.55L26.55 5.35Q36.85 -4.95 47.15 4.75L88.7 46.3Q93.65 51.25 98.6 46.3L140.3 4.6Q150.55 -4.95 160.8 5.3L182.05 26.55Q192.3 36.8 182.75 47.05" />
<linearGradient
id="LinearGradID_260" gradientUnits="userSpaceOnUse" gradientTransform="matrix(0.106812, 0, 0, 0.106812, 93.75, 93.3)" spreadMethod ="pad" x1="-819.2" y1="0" x2="819.2" y2="0" >
<stop  offset="0" style="stop-color:#FA690E;stop-opacity:1" />
<stop  offset="0.470588" style="stop-color:#CE0000;stop-opacity:1" />
<stop  offset="1" style="stop-color:#FA6A69;stop-opacity:1" />
</linearGradient>
<path style="fill:url(#LinearGradID_260) " d="M150.4 14.3L93.8 70.9L36.85 13.95L14.3 36.5L71.25 93.45L67.95 96.75L68.05 96.8L68 96.8Q79.35 99.15 91.95 99.15Q106.25 99.15 119 96.1L118.95 96.05L116.45 93.55L173.05 36.95L173 36.9L150.4 14.3M177.35 44.35L128.4 93.3L177.35 142.25Q185.15 150.05 177.4 157.8L158.3 176.9Q150.5 184.7 142.7 176.9L93.75 127.95L44.8 176.9Q37 184.7 29.25 176.95L10.15 157.85Q2.35 150.05 10.15 142.25L59.1 93.3L10.15 44.35Q2.35 36.55 10.15 28.75L29.25 9.65Q37 1.9 44.8 9.7L93.75 58.65L142.7 9.7Q150.5 1.9 158.3 9.7L177.4 28.8Q185.15 36.55 177.35 44.35" />
<linearGradient
id="LinearGradID_261" gradientUnits="userSpaceOnUse" gradientTransform="matrix(0, -0.0519714, 0.0968628, 0, 93.65, 56.55)" spreadMethod ="pad" x1="-819.2" y1="0" x2="819.2" y2="0" >
<stop  offset="0" style="stop-color:#FC736B;stop-opacity:1" />
<stop  offset="1" style="stop-color:#FFF2ED;stop-opacity:1" />
</linearGradient>
<path style="fill:url(#LinearGradID_261) " d="M68.05 96.8L67.95 96.75L71.25 93.45L14.3 36.5L36.85 13.95L93.8 70.9L150.4 14.3L173 36.9L116.4 93.5L116.45 93.55L118.95 96.05Q106.2 99.1 91.9 99.1Q79.35 99.1 68.05 96.8" />
</g>
</svg>
