<?xml version="1.0" encoding="utf-8"?>
<svg version="1.1" id="Layer_1"
xmlns="http://www.w3.org/2000/svg"
xmlns:xlink="http://www.w3.org/1999/xlink"
width="2105px" height="1259px"
xml:space="preserve">
<g id="PathID_1138" transform="matrix(1, 0, 0, 1, -458.25, -385.85)">
<linearGradient
id="LinearGradID_410" gradientUnits="userSpaceOnUse" gradientTransform="matrix(0.566437, 0, 0, 0.755402, 2098.45, 1025.4)" spreadMethod ="pad" x1="-819.2" y1="0" x2="819.2" y2="0" >
<stop  offset="0.584314" style="stop-color:#FE6230;stop-opacity:1" />
<stop  offset="1" style="stop-color:#D83701;stop-opacity:1" />
</linearGradient>
<path style="fill:url(#LinearGradID_410) " d="M2047 591.7L1881 591.7L1881 963.6L2047 963.6Q2134.15 963.6 2193.1 945.35Q2251.2 927.05 2281.9 885.55Q2312.65 844.05 2312.65 776.8Q2312.65 696.3 2265.3 645.65Q2212.2 591.7 2047 591.7M2562.5 771.85Q2562.5 957.8 2447.95 1054.05Q2333.4 1149.55 2106.8 1149.55L1881 1149.55L1881 1494Q1881 1567.9 1846.15 1606.05Q1811.25 1644.25 1758.15 1644.25Q1702.55 1644.25 1668.5 1606.9Q1634.45 1568.7 1634.45 1495.65L1634.45 557.7Q1634.45 476.35 1671.8 441.45Q1709.15 406.6 1790.5 406.6L2106.8 406.6Q2247.05 406.6 2322.6 428.2Q2397.3 448.95 2452.1 497.1Q2506.05 545.25 2534.25 614.95Q2562.5 684.7 2562.5 771.85" />
<linearGradient
id="LinearGradID_411" gradientUnits="userSpaceOnUse" gradientTransform="matrix(0.59021, 0, 0, 0.768066, 941.75, 1015.05)" spreadMethod ="pad" x1="-819.2" y1="0" x2="819.2" y2="0" >
<stop  offset="0.584314" style="stop-color:#FE6230;stop-opacity:1" />
<stop  offset="1" style="stop-color:#D83701;stop-opacity:1" />
</linearGradient>
<path style="fill:url(#LinearGradID_411) " d="M1341.45 762.7Q1309.9 797.55 1263.4 797.55Q1221.05 797.55 1199.5 776.8Q1177.1 755.25 1151.35 707.1Q1118.15 638.2 1071.65 600Q1025.15 561 922.25 561Q826.8 561 768.7 603.35Q709.75 644.85 709.75 703.75Q709.75 740.3 729.65 766.85Q749.6 793.4 784.45 812.5Q819.3 831.6 855 842.4Q890.7 853.2 972.9 873.95Q1075.8 898 1159.65 927.05Q1242.65 956.1 1301.6 997.6Q1359.7 1039.15 1392.9 1103.05Q1425.25 1166.15 1425.25 1258.25Q1425.25 1368.65 1368.8 1456.65Q1311.55 1544.65 1202 1594.45Q1092.4 1644.25 942.15 1644.25Q762.05 1644.25 645 1576.2Q562 1527.2 510.5 1445.85Q458.25 1363.7 458.25 1286.5Q458.25 1241.65 489.75 1210.1Q520.5 1177.75 568.65 1177.75Q607.65 1177.75 635.05 1202.65Q661.6 1227.55 680.7 1276.55Q703.95 1334.65 731.3 1373.65Q757.9 1412.65 806.85 1438.4Q855.85 1463.3 935.5 1463.3Q1045.1 1463.3 1114 1412.65Q1182.05 1361.2 1182.05 1284.85Q1182.05 1224.25 1145.55 1186.9Q1108.2 1148.7 1050.05 1128.75Q991.15 1108.85 893.2 1086.45Q762.05 1055.75 674.05 1015.05Q585.25 973.55 533.75 903Q481.45 831.6 481.45 726.2Q481.45 625.75 536.25 547.7Q591.05 469.7 694.8 428.2Q798.55 385.85 938.85 385.85Q1050.9 385.85 1133.1 414.1Q1214.45 441.45 1268.4 487.95Q1322.35 533.6 1347.25 584.25Q1372.15 634.9 1372.15 683Q1372.15 727 1341.45 762.7" />
</g>
</svg>
