<?xml version="1.0" encoding="utf-8"?>
<svg version="1.1" id="Layer_1"
xmlns="http://www.w3.org/2000/svg"
xmlns:xlink="http://www.w3.org/1999/xlink"
width="460px" height="222px"
xml:space="preserve">
<g id="PathID_988" transform="matrix(1, 0, 0, 1, -65.7, -133.2)">
<path style="fill:#0099FF;fill-opacity:1" d="M523.2 145.7L523.2 342.7Q523.2 352.7 513.2 352.7L78.2 352.7Q68.2 352.7 68.2 342.7L68.2 145.7Q68.2 135.7 78.2 135.7L513.2 135.7Q523.2 135.7 523.2 145.7" />
<path style="fill:none;stroke-width:5;stroke-linecap:round;stroke-linejoin:round;stroke-miterlimit:3;stroke:#000099;stroke-opacity:1" d="M513.2 135.7L78.2 135.7Q68.2 135.7 68.2 145.7" />
<path style="fill:none;stroke-width:5;stroke-linecap:round;stroke-linejoin:round;stroke-miterlimit:3;stroke:#000099;stroke-opacity:1" d="M68.2 145.7L68.2 342.7Q68.2 352.7 78.2 352.7" />
<path style="fill:none;stroke-width:5;stroke-linecap:round;stroke-linejoin:round;stroke-miterlimit:3;stroke:#000099;stroke-opacity:1" d="M78.2 352.7L513.2 352.7Q523.2 352.7 523.2 342.7" />
<path style="fill:none;stroke-width:5;stroke-linecap:round;stroke-linejoin:round;stroke-miterlimit:3;stroke:#000099;stroke-opacity:1" d="M523.2 342.7L523.2 145.7Q523.2 135.7 513.2 135.7" />
</g>
</svg>
