<?xml version="1.0" encoding="utf-8"?>
<svg version="1.1" id="Layer_1"
xmlns="http://www.w3.org/2000/svg"
xmlns:xlink="http://www.w3.org/1999/xlink"
width="261px" height="172px"
xml:space="preserve">
<g id="PathID_701" transform="matrix(1, 0, 0, 1, -3.25, -137.8)">
<path style="fill:#404703;fill-opacity:1" d="M212.1 146.3L215.05 148.8Q221.35 154.2 226.05 159.3L233.7 167.35L238.55 174.05L244.35 182.25Q246.65 185.6 249.55 191.55L254 200.5L257.3 209.05L259.85 216.6L261.05 222.05Q261.85 225.5 262 229.1Q262.25 233.65 262.8 237.3Q263.55 242.2 263.35 244.7L262.55 252.05Q262.25 257.15 261 261.95L259.3 267.55Q258.45 270.05 251.8 282.05Q251.05 283.4 248.35 286.15L243.8 290.8Q242.05 292.75 238.25 295.45L232.55 299.3Q230.7 300.55 226.2 302.4L220.8 304.55Q215.05 307 209.8 307.3Q207.3 307.45 204.1 308.65L200.45 309.8L76.3 309.6L71.6 308.9L60.25 307.5L46.3 303.55Q52 306.9 33 296.85Q31.35 294.85 20.5 284.7L11.55 271.7L8.5 262.05L5.2 252.55L4.65 247.95Q3.4 237.7 3.3 236.05Q3.1 232.7 3.6 225.9Q4.2 218.55 5.05 215.55Q6.4 210.9 9.45 202.35Q13.05 192 14.55 189.55Q16.4 186.5 22.35 177.75Q28.55 168.7 30.3 166.55L38.2 157.75Q44.4 151.05 46.05 150.05L47.95 148.8L49.3 147.85L56.9 142.2L57.45 141.85L58.5 141.05L59.15 140.55L60.45 139.6L61.85 138.6L62.9 137.8L199.55 137.8L205.05 140.8L212.1 146.3" />
</g>
</svg>
