<?xml version="1.0" encoding="utf-8"?>
<svg version="1.1" id="Layer_1"
xmlns="http://www.w3.org/2000/svg"
xmlns:xlink="http://www.w3.org/1999/xlink"
width="40px" height="36px"
xml:space="preserve">
<g id="PathID_785" transform="matrix(1, 0, 0, 1, 0, -2.05)">
<path style="fill:#000000;fill-opacity:1" d="M39.85 12.35Q40.3 15.25 39.55 17.4Q39.25 18.35 38 20.15L37.3 20.95L37.25 21L36.45 21.75L36.4 21.95L36.6 22.35L38 23.3L38.35 23.55L38.6 23.6Q39.6 23.85 39.6 24.15L39.45 24.4Q39.4 24.85 38 25.65Q36.55 26.4 35.35 26.5L33.55 26.65L33.1 26.55L32.15 26.3L30.65 25.85Q29.55 29.15 26.05 31.9L25.3 32.5Q21.9 34.8 17.1 35.55L12.85 35.8L12.7 35.9L12.6 35.9L12.55 35.95L12.4 36L12.3 36.05L11.9 36.2L10.4 37.1L9.5 37.5L9.05 37.7L7.3 37.9L4.5 37.6Q2.95 37.1 2.85 36.7L2.65 36.5Q2.55 36.2 3.5 35.7L3.75 35.6L4.05 35.3L5.2 34.1L5.35 33.65L5.2 33.45L4.3 32.9L4.3 32.85L3.4 32.2Q1.85 30.7 1.35 29.85Q0.15 27.85 0 24.95Q-0.2 19.45 4.85 15.45Q6.7 14 9.05 13.05Q9.25 11.9 9.75 10.7Q12.85 3.4 22.6 2.15L27.95 2.35Q30.8 2.8 33.2 4Q38.95 6.95 39.85 12.35M22.9 4.35Q14.85 5.4 12.3 11.35L12.05 12Q11.6 13.25 11.55 14.45Q11.4 16.3 12.25 18Q13.6 20.9 17.25 22.7Q20.6 24.4 25.1 24.2L28.45 23.75L29.45 23.55L30.55 23.7L32.15 24.5L34.95 24.9Q36.7 24.85 36.9 24.35Q36.95 24.05 35.95 23.6Q34.85 23 34.6 22.65Q33.85 21.35 34.35 20.6L35 19.9L35.65 19.2L36.9 16.95Q37.55 15.15 37.15 12.8Q36.4 8.3 31.7 5.9Q29.65 4.9 27.25 4.45L22.9 4.35M6.75 17Q2.6 20.3 2.75 24.8Q2.9 27.25 3.85 28.9L5.55 30.85L6.3 31.35L7.05 31.9Q7.75 32.55 7.25 33.95L6.05 35.2Q5.2 35.85 5.35 36.15L7.35 36.25Q9.05 35.95 10 35.3L11.45 34.25Q12.05 33.85 12.45 33.85L16.85 33.6Q21.3 32.95 24.3 30.6Q27.05 28.4 28 25.8L25.3 26.15Q20.4 26.4 16.65 24.75L15.7 24.35Q11.35 22.15 9.7 18.65Q9 17.15 8.9 15.6Q7.75 16.2 6.75 17" />
<path style="fill:#0000FF;fill-opacity:1" d="M8.9 15.6Q9 17.15 9.7 18.65Q11.35 22.15 15.7 24.35L16.65 24.75Q20.4 26.4 25.3 26.15L28 25.8Q27.05 28.4 24.3 30.6Q21.3 32.95 16.85 33.6L12.45 33.85Q12.05 33.85 11.45 34.25L10 35.3Q9.05 35.95 7.35 36.25L5.35 36.15Q5.2 35.85 6.05 35.2L7.25 33.95Q7.75 32.55 7.05 31.9L6.3 31.35L5.55 30.85L3.85 28.9Q2.9 27.25 2.75 24.8Q2.6 20.3 6.75 17Q7.75 16.2 8.9 15.6" />
<path style="fill:#66CC00;fill-opacity:1" d="M27.25 4.45Q29.65 4.9 31.7 5.9Q36.4 8.3 37.15 12.8Q37.55 15.15 36.9 16.95L35.65 19.2L35 19.9L34.35 20.6Q33.85 21.35 34.6 22.65Q34.85 23 35.95 23.6Q36.95 24.05 36.9 24.35Q36.7 24.85 34.95 24.9L32.15 24.5L30.55 23.7L29.45 23.55L28.45 23.75L25.1 24.2Q20.6 24.4 17.25 22.7Q13.6 20.9 12.25 18Q11.4 16.3 11.55 14.45Q11.6 13.25 12.05 12L12.3 11.35Q14.85 5.4 22.9 4.35L27.25 4.45" />
</g>
</svg>
