<?xml version="1.0" encoding="utf-8"?>
<svg version="1.1" id="Layer_1"
xmlns="http://www.w3.org/2000/svg"
xmlns:xlink="http://www.w3.org/1999/xlink"
width="1026px" height="642px"
xml:space="preserve">
<g id="PathID_586" transform="matrix(1, 0, 0, 1, 0.5, 0.5)">
<path style="fill:#000000;fill-opacity:1" d="M1024 640L0 640L0 0L1024 0L1024 640" />
</g>
<g id="PathID_587" transform="matrix(1, 0, 0, 1, 0.5, 0.5)">
<path style="fill:none;stroke-width:1;stroke-linecap:round;stroke-linejoin:round;stroke-miterlimit:3;stroke:#FF00CC;stroke-opacity:0.498039" d="M0 20L1024.05 20" />
</g>
<g id="PathID_588" transform="matrix(1, 0, 0, 1, 0.5, 0.5)">
<path style="fill:none;stroke-width:1;stroke-linecap:round;stroke-linejoin:round;stroke-miterlimit:3;stroke:#FF00CC;stroke-opacity:0.498039" d="M0 40L1024.05 40" />
</g>
<g id="PathID_589" transform="matrix(1, 0, 0, 1, 0.5, 0.5)">
<path style="fill:none;stroke-width:1;stroke-linecap:round;stroke-linejoin:round;stroke-miterlimit:3;stroke:#FF00CC;stroke-opacity:0.498039" d="M0 60L1024.05 60" />
</g>
<g id="PathID_590" transform="matrix(1, 0, 0, 1, 0.5, 0.5)">
<path style="fill:none;stroke-width:1;stroke-linecap:round;stroke-linejoin:round;stroke-miterlimit:3;stroke:#FF00CC;stroke-opacity:0.498039" d="M0 80L1024.05 80" />
</g>
<g id="PathID_591" transform="matrix(1, 0, 0, 1, 0.5, 0.5)">
<path style="fill:none;stroke-width:1;stroke-linecap:round;stroke-linejoin:round;stroke-miterlimit:3;stroke:#FF00CC;stroke-opacity:0.498039" d="M0 100L1024.05 100" />
</g>
<g id="PathID_592" transform="matrix(1, 0, 0, 1, 0.5, 0.5)">
<path style="fill:none;stroke-width:1;stroke-linecap:round;stroke-linejoin:round;stroke-miterlimit:3;stroke:#FF00CC;stroke-opacity:0.498039" d="M0 120L1024.05 120" />
</g>
<g id="PathID_593" transform="matrix(1, 0, 0, 1, 0.5, 0.5)">
<path style="fill:none;stroke-width:1;stroke-linecap:round;stroke-linejoin:round;stroke-miterlimit:3;stroke:#FF00CC;stroke-opacity:0.498039" d="M0 140L1024.05 140" />
</g>
<g id="PathID_594" transform="matrix(1, 0, 0, 1, 0.5, 0.5)">
<path style="fill:none;stroke-width:1;stroke-linecap:round;stroke-linejoin:round;stroke-miterlimit:3;stroke:#FF00CC;stroke-opacity:0.498039" d="M0 160L1024.05 160" />
</g>
<g id="PathID_595" transform="matrix(1, 0, 0, 1, 0.5, 0.5)">
<path style="fill:none;stroke-width:1;stroke-linecap:round;stroke-linejoin:round;stroke-miterlimit:3;stroke:#FF00CC;stroke-opacity:0.498039" d="M0 180L1024.05 180" />
</g>
<g id="PathID_596" transform="matrix(1, 0, 0, 1, 0.5, 0.5)">
<path style="fill:none;stroke-width:1;stroke-linecap:round;stroke-linejoin:round;stroke-miterlimit:3;stroke:#FF00CC;stroke-opacity:0.498039" d="M0 200L1024.05 200" />
</g>
<g id="PathID_597" transform="matrix(1, 0, 0, 1, 0.5, 0.5)">
<path style="fill:none;stroke-width:1;stroke-linecap:round;stroke-linejoin:round;stroke-miterlimit:3;stroke:#FF00CC;stroke-opacity:0.498039" d="M0 220L1024.05 220" />
</g>
<g id="PathID_598" transform="matrix(1, 0, 0, 1, 0.5, 0.5)">
<path style="fill:none;stroke-width:1;stroke-linecap:round;stroke-linejoin:round;stroke-miterlimit:3;stroke:#FF00CC;stroke-opacity:0.498039" d="M0 240L1024.05 240" />
</g>
<g id="PathID_599" transform="matrix(1, 0, 0, 1, 0.5, 0.5)">
<path style="fill:none;stroke-width:1;stroke-linecap:round;stroke-linejoin:round;stroke-miterlimit:3;stroke:#FF00CC;stroke-opacity:0.498039" d="M0 260L1024.05 260" />
</g>
<g id="PathID_600" transform="matrix(1, 0, 0, 1, 0.5, 0.5)">
<path style="fill:none;stroke-width:1;stroke-linecap:round;stroke-linejoin:round;stroke-miterlimit:3;stroke:#FF00CC;stroke-opacity:0.498039" d="M0 280L1024.05 280" />
</g>
<g id="PathID_601" transform="matrix(1, 0, 0, 1, 0.5, 0.5)">
<path style="fill:none;stroke-width:1;stroke-linecap:round;stroke-linejoin:round;stroke-miterlimit:3;stroke:#FF00CC;stroke-opacity:0.498039" d="M0 300L1024.05 300" />
</g>
<g id="PathID_602" transform="matrix(1, 0, 0, 1, 0.5, 0.5)">
<path style="fill:none;stroke-width:1;stroke-linecap:round;stroke-linejoin:round;stroke-miterlimit:3;stroke:#FF00CC;stroke-opacity:0.498039" d="M0 320L1024.05 320" />
</g>
<g id="PathID_603" transform="matrix(1, 0, 0, 1, 0.5, 0.5)">
<path style="fill:none;stroke-width:1;stroke-linecap:round;stroke-linejoin:round;stroke-miterlimit:3;stroke:#FF00CC;stroke-opacity:0.498039" d="M0 340L1024.05 340" />
</g>
<g id="PathID_604" transform="matrix(1, 0, 0, 1, 0.5, 0.5)">
<path style="fill:none;stroke-width:1;stroke-linecap:round;stroke-linejoin:round;stroke-miterlimit:3;stroke:#FF00CC;stroke-opacity:0.498039" d="M0 360L1024.05 360" />
</g>
<g id="PathID_605" transform="matrix(1, 0, 0, 1, 0.5, 0.5)">
<path style="fill:none;stroke-width:1;stroke-linecap:round;stroke-linejoin:round;stroke-miterlimit:3;stroke:#FF00CC;stroke-opacity:0.498039" d="M0 380L1024.05 380" />
</g>
<g id="PathID_606" transform="matrix(1, 0, 0, 1, 0.5, 0.5)">
<path style="fill:none;stroke-width:1;stroke-linecap:round;stroke-linejoin:round;stroke-miterlimit:3;stroke:#FF00CC;stroke-opacity:0.498039" d="M0 400L1024.05 400" />
</g>
<g id="PathID_607" transform="matrix(1, 0, 0, 1, 0.5, 0.5)">
<path style="fill:none;stroke-width:1;stroke-linecap:round;stroke-linejoin:round;stroke-miterlimit:3;stroke:#FF00CC;stroke-opacity:0.498039" d="M0 420L1024.05 420" />
</g>
<g id="PathID_608" transform="matrix(1, 0, 0, 1, 0.5, 0.5)">
<path style="fill:none;stroke-width:1;stroke-linecap:round;stroke-linejoin:round;stroke-miterlimit:3;stroke:#FF00CC;stroke-opacity:0.498039" d="M0 440L1024.05 440" />
</g>
<g id="PathID_609" transform="matrix(1, 0, 0, 1, 0.5, 0.5)">
<path style="fill:none;stroke-width:1;stroke-linecap:round;stroke-linejoin:round;stroke-miterlimit:3;stroke:#FF00CC;stroke-opacity:0.498039" d="M0 460L1024.05 460" />
</g>
<g id="PathID_610" transform="matrix(1, 0, 0, 1, 0.5, 0.5)">
<path style="fill:none;stroke-width:1;stroke-linecap:round;stroke-linejoin:round;stroke-miterlimit:3;stroke:#FF00CC;stroke-opacity:0.498039" d="M0 480L1024.05 480" />
</g>
<g id="PathID_611" transform="matrix(1, 0, 0, 1, 0.5, 0.5)">
<path style="fill:none;stroke-width:1;stroke-linecap:round;stroke-linejoin:round;stroke-miterlimit:3;stroke:#FF00CC;stroke-opacity:0.498039" d="M0 500L1024.05 500" />
</g>
<g id="PathID_612" transform="matrix(1, 0, 0, 1, 0.5, 0.5)">
<path style="fill:none;stroke-width:1;stroke-linecap:round;stroke-linejoin:round;stroke-miterlimit:3;stroke:#FF00CC;stroke-opacity:0.498039" d="M0 520L1024.05 520" />
</g>
<g id="PathID_613" transform="matrix(1, 0, 0, 1, 0.5, 0.5)">
<path style="fill:none;stroke-width:1;stroke-linecap:round;stroke-linejoin:round;stroke-miterlimit:3;stroke:#FF00CC;stroke-opacity:0.498039" d="M0 540L1024.05 540" />
</g>
<g id="PathID_614" transform="matrix(1, 0, 0, 1, 0.5, 0.5)">
<path style="fill:none;stroke-width:1;stroke-linecap:round;stroke-linejoin:round;stroke-miterlimit:3;stroke:#FF00CC;stroke-opacity:0.498039" d="M0 560L1024.05 560" />
</g>
<g id="PathID_615" transform="matrix(1, 0, 0, 1, 0.5, 0.5)">
<path style="fill:none;stroke-width:1;stroke-linecap:round;stroke-linejoin:round;stroke-miterlimit:3;stroke:#FF00CC;stroke-opacity:0.498039" d="M0 580L1024.05 580" />
</g>
<g id="PathID_616" transform="matrix(1, 0, 0, 1, 0.5, 0.5)">
<path style="fill:none;stroke-width:1;stroke-linecap:round;stroke-linejoin:round;stroke-miterlimit:3;stroke:#FF00CC;stroke-opacity:0.498039" d="M0 600L1024.05 600" />
</g>
<g id="PathID_617" transform="matrix(1, 0, 0, 1, 0.5, 0.5)">
<path style="fill:none;stroke-width:1;stroke-linecap:round;stroke-linejoin:round;stroke-miterlimit:3;stroke:#FF00CC;stroke-opacity:0.498039" d="M0 620L1024.05 620" />
</g>
<g id="PathID_618" transform="matrix(1, 0, 0, 1, 0.5, 0.5)">
<path style="fill:none;stroke-width:1;stroke-linecap:round;stroke-linejoin:round;stroke-miterlimit:3;stroke:#FF00CC;stroke-opacity:0.498039" d="M22 0.05L22 638.05" />
</g>
<g id="PathID_619" transform="matrix(1, 0, 0, 1, 0.5, 0.5)">
<path style="fill:none;stroke-width:1;stroke-linecap:round;stroke-linejoin:round;stroke-miterlimit:3;stroke:#FF00CC;stroke-opacity:0.498039" d="M62 0.05L62 638" />
</g>
<g id="PathID_620" transform="matrix(1, 0, 0, 1, 0.5, 0.5)">
<path style="fill:none;stroke-width:1;stroke-linecap:round;stroke-linejoin:round;stroke-miterlimit:3;stroke:#FF00CC;stroke-opacity:0.498039" d="M82 0.05L82 638" />
</g>
<g id="PathID_621" transform="matrix(1, 0, 0, 1, 0.5, 0.5)">
<path style="fill:none;stroke-width:1;stroke-linecap:round;stroke-linejoin:round;stroke-miterlimit:3;stroke:#FF00CC;stroke-opacity:0.498039" d="M102 0.05L102 638" />
</g>
<g id="PathID_622" transform="matrix(1, 0, 0, 1, 0.5, 0.5)">
<path style="fill:none;stroke-width:1;stroke-linecap:round;stroke-linejoin:round;stroke-miterlimit:3;stroke:#FF00CC;stroke-opacity:0.498039" d="M122 0.05L122 638" />
</g>
<g id="PathID_623" transform="matrix(1, 0, 0, 1, 0.5, 0.5)">
<path style="fill:none;stroke-width:1;stroke-linecap:round;stroke-linejoin:round;stroke-miterlimit:3;stroke:#FF00CC;stroke-opacity:0.498039" d="M142 0.05L142 638" />
</g>
<g id="PathID_624" transform="matrix(1, 0, 0, 1, 0.5, 0.5)">
<path style="fill:none;stroke-width:1;stroke-linecap:round;stroke-linejoin:round;stroke-miterlimit:3;stroke:#FF00CC;stroke-opacity:0.498039" d="M162 0.05L162 638" />
</g>
<g id="PathID_625" transform="matrix(1, 0, 0, 1, 0.5, 0.5)">
<path style="fill:none;stroke-width:1;stroke-linecap:round;stroke-linejoin:round;stroke-miterlimit:3;stroke:#FF00CC;stroke-opacity:0.498039" d="M182 0.05L182 638" />
</g>
<g id="PathID_626" transform="matrix(1, 0, 0, 1, 0.5, 0.5)">
<path style="fill:none;stroke-width:1;stroke-linecap:round;stroke-linejoin:round;stroke-miterlimit:3;stroke:#FF00CC;stroke-opacity:0.498039" d="M202 0.05L202 638" />
</g>
<g id="PathID_627" transform="matrix(1, 0, 0, 1, 0.5, 0.5)">
<path style="fill:none;stroke-width:1;stroke-linecap:round;stroke-linejoin:round;stroke-miterlimit:3;stroke:#FF00CC;stroke-opacity:0.498039" d="M222 0.05L222 638" />
</g>
<g id="PathID_628" transform="matrix(1, 0, 0, 1, 0.5, 0.5)">
<path style="fill:none;stroke-width:1;stroke-linecap:round;stroke-linejoin:round;stroke-miterlimit:3;stroke:#FF00CC;stroke-opacity:0.498039" d="M242 0.05L242 638" />
</g>
<g id="PathID_629" transform="matrix(1, 0, 0, 1, 0.5, 0.5)">
<path style="fill:none;stroke-width:1;stroke-linecap:round;stroke-linejoin:round;stroke-miterlimit:3;stroke:#FF00CC;stroke-opacity:0.498039" d="M262 0.05L262 638" />
</g>
<g id="PathID_630" transform="matrix(1, 0, 0, 1, 0.5, 0.5)">
<path style="fill:none;stroke-width:1;stroke-linecap:round;stroke-linejoin:round;stroke-miterlimit:3;stroke:#FF00CC;stroke-opacity:0.498039" d="M282 0.05L282 638" />
</g>
<g id="PathID_631" transform="matrix(1, 0, 0, 1, 0.5, 0.5)">
<path style="fill:none;stroke-width:1;stroke-linecap:round;stroke-linejoin:round;stroke-miterlimit:3;stroke:#FF00CC;stroke-opacity:0.498039" d="M302 0.05L302 638" />
</g>
<g id="PathID_632" transform="matrix(1, 0, 0, 1, 0.5, 0.5)">
<path style="fill:none;stroke-width:1;stroke-linecap:round;stroke-linejoin:round;stroke-miterlimit:3;stroke:#FF00CC;stroke-opacity:0.498039" d="M322 0.05L322 638" />
</g>
<g id="PathID_633" transform="matrix(1, 0, 0, 1, 0.5, 0.5)">
<path style="fill:none;stroke-width:1;stroke-linecap:round;stroke-linejoin:round;stroke-miterlimit:3;stroke:#FF00CC;stroke-opacity:0.498039" d="M342 0.05L342 638" />
</g>
<g id="PathID_634" transform="matrix(1, 0, 0, 1, 0.5, 0.5)">
<path style="fill:none;stroke-width:1;stroke-linecap:round;stroke-linejoin:round;stroke-miterlimit:3;stroke:#FF00CC;stroke-opacity:0.498039" d="M362 0.05L362 638" />
</g>
<g id="PathID_635" transform="matrix(1, 0, 0, 1, 0.5, 0.5)">
<path style="fill:none;stroke-width:1;stroke-linecap:round;stroke-linejoin:round;stroke-miterlimit:3;stroke:#FF00CC;stroke-opacity:0.498039" d="M382 0.05L382 638" />
</g>
<g id="PathID_636" transform="matrix(1, 0, 0, 1, 0.5, 0.5)">
<path style="fill:none;stroke-width:1;stroke-linecap:round;stroke-linejoin:round;stroke-miterlimit:3;stroke:#FF00CC;stroke-opacity:0.498039" d="M402 0.05L402 638" />
</g>
<g id="PathID_637" transform="matrix(1, 0, 0, 1, 0.5, 0.5)">
<path style="fill:none;stroke-width:1;stroke-linecap:round;stroke-linejoin:round;stroke-miterlimit:3;stroke:#FF00CC;stroke-opacity:0.498039" d="M422 0.05L422 638" />
</g>
<g id="PathID_638" transform="matrix(1, 0, 0, 1, 0.5, 0.5)">
<path style="fill:none;stroke-width:1;stroke-linecap:round;stroke-linejoin:round;stroke-miterlimit:3;stroke:#FF00CC;stroke-opacity:0.498039" d="M442 0.05L442 638" />
</g>
<g id="PathID_639" transform="matrix(1, 0, 0, 1, 0.5, 0.5)">
<path style="fill:none;stroke-width:1;stroke-linecap:round;stroke-linejoin:round;stroke-miterlimit:3;stroke:#FF00CC;stroke-opacity:0.498039" d="M462 0.05L462 638" />
</g>
<g id="PathID_640" transform="matrix(1, 0, 0, 1, 0.5, 0.5)">
<path style="fill:none;stroke-width:1;stroke-linecap:round;stroke-linejoin:round;stroke-miterlimit:3;stroke:#FF00CC;stroke-opacity:0.498039" d="M482 0.05L482 638" />
</g>
<g id="PathID_641" transform="matrix(1, 0, 0, 1, 0.5, 0.5)">
<path style="fill:none;stroke-width:1;stroke-linecap:round;stroke-linejoin:round;stroke-miterlimit:3;stroke:#FF00CC;stroke-opacity:0.498039" d="M502 0.05L502 638" />
</g>
<g id="PathID_642" transform="matrix(1, 0, 0, 1, 0.5, 0.5)">
<path style="fill:none;stroke-width:1;stroke-linecap:round;stroke-linejoin:round;stroke-miterlimit:3;stroke:#FF00CC;stroke-opacity:0.498039" d="M522 0.05L522 638" />
</g>
<g id="PathID_643" transform="matrix(1, 0, 0, 1, 0.5, 0.5)">
<path style="fill:none;stroke-width:1;stroke-linecap:round;stroke-linejoin:round;stroke-miterlimit:3;stroke:#FF00CC;stroke-opacity:0.498039" d="M542 0.05L542 638" />
</g>
<g id="PathID_644" transform="matrix(1, 0, 0, 1, 0.5, 0.5)">
<path style="fill:none;stroke-width:1;stroke-linecap:round;stroke-linejoin:round;stroke-miterlimit:3;stroke:#FF00CC;stroke-opacity:0.498039" d="M562 0.05L562 638" />
</g>
<g id="PathID_645" transform="matrix(1, 0, 0, 1, 0.5, 0.5)">
<path style="fill:none;stroke-width:1;stroke-linecap:round;stroke-linejoin:round;stroke-miterlimit:3;stroke:#FF00CC;stroke-opacity:0.498039" d="M582 0.05L582 638" />
</g>
<g id="PathID_646" transform="matrix(1, 0, 0, 1, 0.5, 0.5)">
<path style="fill:none;stroke-width:1;stroke-linecap:round;stroke-linejoin:round;stroke-miterlimit:3;stroke:#FF00CC;stroke-opacity:0.498039" d="M602 0.05L602 638" />
</g>
<g id="PathID_647" transform="matrix(1, 0, 0, 1, 0.5, 0.5)">
<path style="fill:none;stroke-width:1;stroke-linecap:round;stroke-linejoin:round;stroke-miterlimit:3;stroke:#FF00CC;stroke-opacity:0.498039" d="M622 0L622 640" />
</g>
<g id="PathID_648" transform="matrix(1, 0, 0, 1, 0.5, 0.5)">
<path style="fill:none;stroke-width:1;stroke-linecap:round;stroke-linejoin:round;stroke-miterlimit:3;stroke:#FF00CC;stroke-opacity:0.498039" d="M642 0L642 640" />
</g>
<g id="PathID_649" transform="matrix(1, 0, 0, 1, 0.5, 0.5)">
<path style="fill:none;stroke-width:1;stroke-linecap:round;stroke-linejoin:round;stroke-miterlimit:3;stroke:#FF00CC;stroke-opacity:0.498039" d="M662 0L662 640" />
</g>
<g id="PathID_650" transform="matrix(1, 0, 0, 1, 0.5, 0.5)">
<path style="fill:none;stroke-width:1;stroke-linecap:round;stroke-linejoin:round;stroke-miterlimit:3;stroke:#FF00CC;stroke-opacity:0.498039" d="M682 0L682 640" />
</g>
<g id="PathID_651" transform="matrix(1, 0, 0, 1, 0.5, 0.5)">
<path style="fill:none;stroke-width:1;stroke-linecap:round;stroke-linejoin:round;stroke-miterlimit:3;stroke:#FF00CC;stroke-opacity:0.498039" d="M702 0L702 640" />
</g>
<g id="PathID_652" transform="matrix(1, 0, 0, 1, 0.5, 0.5)">
<path style="fill:none;stroke-width:1;stroke-linecap:round;stroke-linejoin:round;stroke-miterlimit:3;stroke:#FF00CC;stroke-opacity:0.498039" d="M722 0L722 640" />
</g>
<g id="PathID_653" transform="matrix(1, 0, 0, 1, 0.5, 0.5)">
<path style="fill:none;stroke-width:1;stroke-linecap:round;stroke-linejoin:round;stroke-miterlimit:3;stroke:#FF00CC;stroke-opacity:0.498039" d="M742 0L742 640" />
</g>
<g id="PathID_654" transform="matrix(1, 0, 0, 1, 0.5, 0.5)">
<path style="fill:none;stroke-width:1;stroke-linecap:round;stroke-linejoin:round;stroke-miterlimit:3;stroke:#FF00CC;stroke-opacity:0.498039" d="M762 0L762 640" />
</g>
<g id="PathID_655" transform="matrix(1, 0, 0, 1, 0.5, 0.5)">
<path style="fill:none;stroke-width:1;stroke-linecap:round;stroke-linejoin:round;stroke-miterlimit:3;stroke:#FF00CC;stroke-opacity:0.498039" d="M782 0L782 640" />
</g>
<g id="PathID_656" transform="matrix(1, 0, 0, 1, 0.5, 0.5)">
<path style="fill:none;stroke-width:1;stroke-linecap:round;stroke-linejoin:round;stroke-miterlimit:3;stroke:#FF00CC;stroke-opacity:0.498039" d="M802 0L802 640" />
</g>
<g id="PathID_657" transform="matrix(1, 0, 0, 1, 0.5, 0.5)">
<path style="fill:none;stroke-width:1;stroke-linecap:round;stroke-linejoin:round;stroke-miterlimit:3;stroke:#FF00CC;stroke-opacity:0.498039" d="M822 0L822 640" />
</g>
<g id="PathID_658" transform="matrix(1, 0, 0, 1, 0.5, 0.5)">
<path style="fill:none;stroke-width:1;stroke-linecap:round;stroke-linejoin:round;stroke-miterlimit:3;stroke:#FF00CC;stroke-opacity:0.498039" d="M842 0L842 640" />
</g>
<g id="PathID_659" transform="matrix(1, 0, 0, 1, 0.5, 0.5)">
<path style="fill:none;stroke-width:1;stroke-linecap:round;stroke-linejoin:round;stroke-miterlimit:3;stroke:#FF00CC;stroke-opacity:0.498039" d="M862 0L862 640" />
</g>
<g id="PathID_660" transform="matrix(1, 0, 0, 1, 0.5, 0.5)">
<path style="fill:none;stroke-width:1;stroke-linecap:round;stroke-linejoin:round;stroke-miterlimit:3;stroke:#FF00CC;stroke-opacity:0.498039" d="M882 0L882 640" />
</g>
<g id="PathID_661" transform="matrix(1, 0, 0, 1, 0.5, 0.5)">
<path style="fill:none;stroke-width:1;stroke-linecap:round;stroke-linejoin:round;stroke-miterlimit:3;stroke:#FF00CC;stroke-opacity:0.498039" d="M902 0L902 640" />
</g>
<g id="PathID_662" transform="matrix(1, 0, 0, 1, 0.5, 0.5)">
<path style="fill:none;stroke-width:1;stroke-linecap:round;stroke-linejoin:round;stroke-miterlimit:3;stroke:#FF00CC;stroke-opacity:0.498039" d="M922 0L922 640" />
</g>
<g id="PathID_663" transform="matrix(1, 0, 0, 1, 0.5, 0.5)">
<path style="fill:none;stroke-width:1;stroke-linecap:round;stroke-linejoin:round;stroke-miterlimit:3;stroke:#FF00CC;stroke-opacity:0.498039" d="M942 0L942 640" />
</g>
<g id="PathID_664" transform="matrix(1, 0, 0, 1, 0.5, 0.5)">
<path style="fill:none;stroke-width:1;stroke-linecap:round;stroke-linejoin:round;stroke-miterlimit:3;stroke:#FF00CC;stroke-opacity:0.498039" d="M962 0L962 640" />
</g>
<g id="PathID_665" transform="matrix(1, 0, 0, 1, 0.5, 0.5)">
<path style="fill:none;stroke-width:1;stroke-linecap:round;stroke-linejoin:round;stroke-miterlimit:3;stroke:#FF00CC;stroke-opacity:0.498039" d="M982 0L982 640" />
</g>
<g id="PathID_666" transform="matrix(1, 0, 0, 1, 0.5, 0.5)">
<path style="fill:none;stroke-width:1;stroke-linecap:round;stroke-linejoin:round;stroke-miterlimit:3;stroke:#FF00CC;stroke-opacity:0.498039" d="M1002 0L1002 640" />
</g>
<g id="PathID_667" transform="matrix(1, 0, 0, 1, 0.5, 0.5)">
<path style="fill:none;stroke-width:1;stroke-linecap:round;stroke-linejoin:round;stroke-miterlimit:3;stroke:#FF00CC;stroke-opacity:0.498039" d="M1022 0L1022 640" />
</g>
<g id="PathID_668" transform="matrix(1, 0, 0, 1, 0.5, 0.5)">
<path style="fill:none;stroke-width:1;stroke-linecap:round;stroke-linejoin:round;stroke-miterlimit:3;stroke:#FF00CC;stroke-opacity:0.498039" d="M2 0.05L2 638" />
</g>
<g id="PathID_669" transform="matrix(1, 0, 0, 1, 0.5, 0.5)">
<path style="fill:none;stroke-width:1;stroke-linecap:round;stroke-linejoin:round;stroke-miterlimit:3;stroke:#FF00CC;stroke-opacity:0.498039" d="M42 2.1L42 640.1" />
</g>
<g id="PathID_670" transform="matrix(1, 0, 0, 1, 0.5, 0.5)">
<path style="fill:none;stroke-width:1;stroke-linecap:round;stroke-linejoin:round;stroke-miterlimit:3;stroke:#FF00CC;stroke-opacity:0.498039" d="M0 0L1024.05 0" />
</g>
</svg>
