<?xml version="1.0" encoding="utf-8"?>
<svg version="1.1" id="Layer_1"
xmlns="http://www.w3.org/2000/svg"
xmlns:xlink="http://www.w3.org/1999/xlink"
width="2185px" height="1238px"
xml:space="preserve">
<g id="PathID_1135" transform="matrix(1, 0, 0, 1, -465.65, -387.25)">
<linearGradient
id="LinearGradID_404" gradientUnits="userSpaceOnUse" gradientTransform="matrix(0.566437, 0, 0, 0.755402, 2186.4, 1006.05)" spreadMethod ="pad" x1="-819.2" y1="0" x2="819.2" y2="0" >
<stop  offset="0.584314" style="stop-color:#DD0000;stop-opacity:1" />
<stop  offset="1" style="stop-color:#950000;stop-opacity:1" />
</linearGradient>
<path style="fill:url(#LinearGradID_404) " d="M2650.45 752.5Q2650.45 938.45 2535.9 1034.7Q2421.35 1130.2 2194.75 1130.2L1968.95 1130.2L1968.95 1474.65Q1968.95 1548.55 1934.1 1586.7Q1899.2 1624.9 1846.1 1624.9Q1790.5 1624.9 1756.45 1587.55Q1722.4 1549.35 1722.4 1476.3L1722.4 538.35Q1722.4 457 1759.75 422.1Q1797.1 387.25 1878.45 387.25L2194.75 387.25Q2335 387.25 2410.55 408.85Q2485.25 429.6 2540.05 477.75Q2594 525.9 2622.2 595.6Q2650.45 665.35 2650.45 752.5M1968.95 572.35L1968.95 944.25L2134.95 944.25Q2222.1 944.25 2281.05 926Q2339.15 907.7 2369.85 866.2Q2400.6 824.7 2400.6 757.45Q2400.6 676.95 2353.25 626.3Q2300.15 572.35 2134.95 572.35L1968.95 572.35" />
<linearGradient
id="LinearGradID_405" gradientUnits="userSpaceOnUse" gradientTransform="matrix(0.634827, 0, 0, 0.742737, 985.7, 995.7)" spreadMethod ="pad" x1="-819.2" y1="0" x2="819.2" y2="0" >
<stop  offset="0.584314" style="stop-color:#DD0000;stop-opacity:1" />
<stop  offset="1" style="stop-color:#950000;stop-opacity:1" />
</linearGradient>
<path style="fill:url(#LinearGradID_405) " d="M1325.65 1485.45Q1276.65 1529.45 1218.55 1556Q1160.45 1582.55 1094.05 1593.35Q1026.8 1604.15 942.95 1604.15L621.75 1604.15Q554.5 1604.15 520.45 1584.25Q486.4 1563.5 476.45 1526.95Q465.65 1489.6 465.65 1430.65L465.65 538.35Q465.65 458.65 501.35 422.95Q537.05 387.25 616.75 387.25L938 387.25Q1063.35 387.25 1153 410.5Q1242.65 433.75 1315.65 497.65Q1505.75 660.35 1505.75 992.4Q1505.75 1101.95 1486.65 1192.45Q1467.6 1282.9 1427.75 1355.95Q1387.9 1428.15 1325.65 1485.45M712.2 582.3L712.2 1408.25L898.95 1408.25Q960.4 1408.25 995.25 1404.95Q1030.15 1401.6 1067.5 1388.35Q1104.85 1375.05 1132.25 1351Q1255.9 1246.4 1255.9 990.7Q1255.9 810.6 1201.95 720.95Q1147.15 631.3 1067.5 607.25Q987.8 582.3 874.9 582.3L712.2 582.3" />
</g>
</svg>
