<?xml version="1.0" encoding="utf-8"?>
<svg version="1.1" id="Layer_1"
xmlns="http://www.w3.org/2000/svg"
xmlns:xlink="http://www.w3.org/1999/xlink"
width="36px" height="45px"
xml:space="preserve">
<g id="PathID_795" transform="matrix(1, 0, 0, 1, 0, 0)">
<path style="fill:#000000;fill-opacity:1" d="M33.4 5.8L34.2 6.4L34.55 6.8L34.9 7.05L35.45 7.75L35.8 8.45L35.9 9.15L35.9 10.15L29.85 41.7L29.25 43.05L28.6 43.95L27.8 44.55L27 44.9L26.3 45L25.7 45L3.35 41.15L2.35 40.7L1.6 40.15L1.35 39.8L0.9 39.45L0.45 38.85L0.15 38.2L0 37.7L0 37.2L7.1 5.6L7.55 4.75L8.15 4.1L8.85 3.65L9.6 3.35L10.3 3.2L11.45 3.1L16.1 3.65L16.1 3.6L15.95 2.75L16 2.3L16.25 1.85L16.7 1.55L17.45 1.35L17.5 1.4L17.85 1.45L18.15 1.45L18.95 1.3L20.55 0.3L21.25 0.05L21.85 0L22.55 0.05L23.7 0.6L24.15 1L24.5 1.45L24.55 1.5L24.65 1.55L24.95 1.8L26.45 2.2L27 2.4L27.4 2.65L27.6 3.05L27.65 3.45L27.55 3.95L27.35 4.35L27 4.8L27 4.85L32.2 5.4L33.4 5.8" />
</g>
</svg>
