<?xml version="1.0" encoding="utf-8"?>
<svg version="1.1" id="Layer_1"
xmlns="http://www.w3.org/2000/svg"
xmlns:xlink="http://www.w3.org/1999/xlink"
width="2000px" height="1246px"
xml:space="preserve">
<g id="PathID_1139" transform="matrix(1, 0, 0, 1, -483.25, -375.65)">
<linearGradient
id="LinearGradID_412" gradientUnits="userSpaceOnUse" gradientTransform="matrix(0.365265, 0, 0, 0.759949, 2183.65, 998.2)" spreadMethod ="pad" x1="-819.2" y1="0" x2="819.2" y2="0" >
<stop  offset="0" style="stop-color:#FEF600;stop-opacity:1" />
<stop  offset="1" style="stop-color:#CCC700;stop-opacity:1" />
</linearGradient>
<path style="fill:url(#LinearGradID_412) " d="M2385.8 375.65Q2429.8 375.65 2456.35 409.65Q2482.9 443.7 2482.9 503.45L2482.9 1453.9Q2482.9 1620.75 2369.2 1620.75Q2318.55 1620.75 2287.85 1586.7Q2257.15 1552.7 2257.15 1486.3L2257.15 730.9Q2046.3 892.75 1973.25 892.75Q1938.4 892.75 1911.8 865.4Q1884.45 837.15 1884.45 800.65Q1884.45 758.3 1911 738.4Q1937.55 718.45 2004.8 686.9Q2105.25 639.6 2165.85 587.3Q2225.6 535 2272.1 470.25Q2318.55 405.5 2332.65 390.6Q2346.8 375.65 2385.8 375.65" />
<linearGradient
id="LinearGradID_413" gradientUnits="userSpaceOnUse" gradientTransform="matrix(0.7164, 0, 0, 0.755402, 1070.1, 1001.9)" spreadMethod ="pad" x1="-819.2" y1="0" x2="819.2" y2="0" >
<stop  offset="0" style="stop-color:#FEF600;stop-opacity:1" />
<stop  offset="1" style="stop-color:#CCC700;stop-opacity:1" />
</linearGradient>
<path style="fill:url(#LinearGradID_413) " d="M1427.05 383.1L1503.45 383.1Q1574 383.1 1615.5 411.35Q1657 438.7 1657 518.4L1657 1481.3Q1657 1551.05 1626.3 1585.9Q1594.75 1620.75 1542.45 1620.75Q1493.5 1620.75 1461.95 1585.9Q1430.4 1551.05 1430.4 1481.3L1430.4 641.25L1235.3 1416.55Q1216.25 1492.1 1204.6 1527.8Q1192.15 1562.65 1159.8 1591.7Q1127.4 1620.75 1070.15 1620.75Q1026.95 1620.75 997.1 1602.5Q967.2 1583.4 950.6 1554.35Q934 1525.3 924.85 1490.45Q914.9 1454.75 904.95 1416.55L709.9 641.25L709.9 1481.3Q709.9 1551.05 679.15 1585.9Q647.65 1620.75 596.15 1620.75Q546.35 1620.75 514.8 1586.7Q483.25 1551.85 483.25 1481.3L483.25 518.4Q483.25 438.7 524.8 411.35Q566.3 383.1 636.85 383.1L713.2 383.1Q782.1 383.1 813.65 395.55Q844.35 408 859.3 440.4Q874.25 472.75 893.35 545.8L1070.15 1212.35L1246.95 545.8Q1266.05 472.75 1281 440.4Q1295.9 408 1327.45 395.55Q1358.15 383.1 1427.05 383.1" />
</g>
</svg>
