<?xml version="1.0" encoding="utf-8"?>
<svg version="1.1" id="Layer_1"
xmlns="http://www.w3.org/2000/svg"
xmlns:xlink="http://www.w3.org/1999/xlink"
width="458px" height="331px"
xml:space="preserve">
<g id="PathID_965" transform="matrix(1, 0, 0, 1, -383.65, -13.75)">
<path style="fill:#000000;fill-opacity:1" d="M769.4 260.15L810.05 273.15L831 292.65L830.95 292.85L841.3 302.25L829.5 325.6L825.55 324.25L820.65 333.65L818.75 333.3L818.4 332.85L813.2 343.95L630.05 285.6L615.3 301.05L604.25 309.7L586.3 318.85L567.65 323.7L555.2 324.55L543.2 323.15L532.9 319.85L524.25 315.5L513.55 306L507.8 298.45L505.95 296.7L505.4 295.6L504.4 294.65L493.05 275.75L491.65 272.5L491.45 272.45L491.5 272.25L489.6 259.05L490.2 245.1L492.95 231L498.55 217.05L507.4 202.05L518.75 188.7L538.4 172.6L560.15 161.75L575.05 158L582.7 157.4L597 158.1L609.8 161.85L616.6 165.45L618.35 166.8L637.45 184.3L645.2 196.05L650.15 209.8L652 225.35L685 233.05L698.8 245.15L709.15 242.5L739.65 252.05L748.3 260.8L750.45 261.15L749.35 263.5L749.95 264.65L769.4 260.15M548.75 220.55L545.85 220.05L543.05 220.3L540.3 221.2L537.4 222.8L531.75 226.9L529.3 229.25L527.7 231.5L527.55 231.5L527.5 231.65L526.35 234.45L525.7 236.85L525.45 239.4L525.65 241.6L525.95 242.05L529.2 242.65L532 242.55L535.05 242L540.8 238.85L543.15 236.7L545.4 233.95L547.4 230.75L548.45 228.2L548.9 225.7L548.85 220.8L548.75 220.55" />
</g>
<g id="PathID_966" transform="matrix(1, 0, 0, 1, -383.65, -13.75)">
<path style="fill:#BF9E3F;fill-opacity:1" d="M747.85 269.4L769.05 265.05L807.55 277.3L809.45 278.6L778.25 268.7L757.85 273.25L746.55 269.35L746.95 268.1L747.3 268.35L747.85 269.4" />
</g>
<g id="PathID_967" transform="matrix(1, 0, 0, 1, -383.65, -13.75)">
<path style="fill:#BF9E3F;fill-opacity:1" d="M738.6 257.6L718.25 251.1L707.7 253.7L702.2 248.95L709.15 247.05L737.3 256.2L738.6 257.6" />
</g>
<g id="PathID_968" transform="matrix(1, 0, 0, 1, -383.65, -13.75)">
<path style="fill:#BF9E3F;fill-opacity:1" d="M652.05 230.55L651.75 229.95L682.65 237.4L685.75 239.95L651.8 231.9L652.05 230.55" />
</g>
<g id="PathID_969" transform="matrix(1, 0, 0, 1, -383.65, -13.75)">
<path style="fill:#BF9E3F;fill-opacity:1" d="M554.5 167.9L568.35 163.3L575.5 162.1L589.25 161.45L603.95 164.55L609.8 167.05L610.65 167.75L611.75 168.15L604.9 166.7L590.45 165.85L575.85 167.85L553.95 176.1L534.05 189.8L517.1 208.8L508.45 223.45L502.7 237.4L499.2 251.8L498.3 265.45L499.95 279L496.3 272L495.65 271.15L494.1 258.15L494.8 244.65L498 230.6L503.7 216.85L512.25 202.8L522.7 190.1L534.5 179.6L554.5 167.9" />
</g>
<g id="PathID_970" transform="matrix(1, 0, 0, 1, -383.65, -13.75)">
<path style="fill:#7FBFFF;fill-opacity:1" d="M543.95 242L549.2 236.25L551.1 233.05L552.9 228.65L553.65 224.65L554.15 225.3L554.25 225.95L554.55 226.2L555.4 229.1L555.45 232.25L554.8 235.9L553.5 239.45L549.3 245.2L546.95 247.35L544 249.15L538.1 251.25L535.35 251.1L530.95 250.1L529.75 249.25L528.75 248.3L527.6 246.9L534.35 246.75L541.05 244.05L543.95 242" />
</g>
<g id="PathID_971" transform="matrix(1, 0, 0, 1, -383.65, -13.75)">
<linearGradient
id="LinearGradID_367" gradientUnits="userSpaceOnUse" gradientTransform="matrix(0.0387421, -0.100677, 0.0882263, 0.0339813, 639.35, 267.2)" spreadMethod ="pad" x1="-819.2" y1="0" x2="819.2" y2="0" >
<stop  offset="0" style="stop-color:#BF9E3F;stop-opacity:1" />
<stop  offset="1" style="stop-color:#D1BF66;stop-opacity:1" />
</linearGradient>
<path style="fill:url(#LinearGradID_367) " d="M757.8 277.8L778 273.45L816.7 285.7L835.8 303.3L827.05 320.45L646.65 264L640.15 265.2L820.9 322.85L818.5 328.35L818.3 328.35L641.25 273.1L633.35 274L814.1 331.5L810.9 338.45L628.45 280.2L618.35 292.2L608.15 301.15L596.9 308.6L585.55 314.2L579.6 316.45L567.65 319.2L555.6 320.15L544.2 318.8L531.95 314.6L520 306.45L515.2 301.2L511.7 295.65L510.3 293.8L509.3 291.65L507.45 288.7L503.55 274.55L502.95 259.6L505.5 243.7L511.4 227.75L511.5 227.15L511.8 226.65L511.9 225.85L512.4 225.35L516.35 217.95L525.9 204.75L537.2 192.95L549.8 183.6L570.35 173.95L584.4 170.6L598.3 170.45L605.25 171.1L615.05 173.9L618.1 175.5L619.85 175.95L624.05 178.75L626.05 180.7L627.15 181.3L630.05 183.6L638.45 192.85L642.6 200.2L645.95 209.05L647.65 220.3L647 235.4L691.75 245.8L706.6 258.65L717.75 255.8L744.15 264L740.1 272.15L757.8 277.8M551.4 216.75L549.7 216.2L546.3 215.6L542.5 215.7L538.6 216.35L531.6 220.2L528.5 222.8L525.7 226.2L523.15 230.5L523.1 230.9L522.8 231.4L521.15 238.05L521.35 243.4L520.75 244.5L521.35 244.6L521.65 245.05L521.8 245.1L522.2 245.35L522.05 245.9L522.25 246.15L522.55 246.8L523 248.45L525.7 251.95L529.6 254.45L531.25 255.15L534.7 255.8L538.5 255.5L542 254.75L545.9 253.1L549.4 250.95L552.5 248.35L555.3 244.95L559.1 237.15L559.95 232.55L559.7 228.35L557.95 222.9L557.05 221.55L556 220.55L555.3 219.2L551.4 216.75" />
</g>
<g id="PathID_972" transform="matrix(1, 0, 0, 1, -383.65, -13.75)">
<path style="fill:#000000;fill-opacity:1" d="M569.7 191.6L579.9 188.55L589.95 187.65L596.4 188L605.55 190.1L608.3 191.25L616.3 195.9L618.9 198.1L625.2 205.65L629.3 214.65L631.4 224.35L631.45 235L629.5 245.75L625.45 256.65L619.55 267.25L611.5 277.6L602.7 285.9L597.7 289.35L582.75 297.45L572.5 300.3L576.55 298.85L594.45 289.5L602.55 283.3L605.95 279.95L613.95 269.8L619.9 259L623.9 247.9L625.95 236.8L625.95 226.3L623.85 216.25L619.8 207.15L613.45 199.7L609.15 196.3L599 192.05L593.35 190.8L575.4 190.7L569.7 191.6" />
</g>
<g id="PathID_973" transform="matrix(1, 0, 0, 1, -383.65, -13.75)">
<path style="fill:#000000;fill-opacity:1" d="M782.3 40.05L786.25 49.85L784.45 51.1L784.25 51.1L789.1 62.3L625.45 162.55L627.3 177.1L627.25 191.2L625.4 204.65L621.75 217.8L616.65 229.75L609.95 240.15L601.75 249.15L592.1 256.45L583.15 260.95L574.2 263.45L564.9 264.65L554.15 264.05L552.8 263.8L551.55 264L524.75 259.2L513.3 251.75L503.15 242.2L490.45 224.45L487.2 217.45L481.75 200.65L479.15 183.8L478.95 166.55L481 150.1L485.7 134.55L492.8 120.85L501.9 109.05L513.2 100.1L518.3 97.25L527.15 94L527.4 93.85L527.8 93.9L539.45 92.9L546.25 91.35L556.85 90.95L571 93.55L577.6 96.15L587.8 101.85L594.05 106.7L621.5 86.7L639.6 83.9L644.5 74.3L671.25 57.9L683.6 56.6L685.35 55.55L686.5 58.15L687.3 57.9L697.05 40.3L733.4 18.15L761.9 14.9L762.05 15.15L775.75 13.75L785.9 37.95L782.3 40.05M522.6 182.15L519.1 186.05L517 191.75L516.4 198.55L517.55 205.1L520.05 209.9L523.75 213.15L523.95 213.2L524.4 212.9L524.6 212.95L528.5 208.9L530.95 203.2L531.4 196.6L529.9 189.6L528.55 187.15L527 185.1L523.25 181.85L522.65 181.75L522.6 182.15" />
</g>
<g id="PathID_974" transform="matrix(1, 0, 0, 1, -383.65, -13.75)">
<path style="fill:#BF9E3F;fill-opacity:1" d="M736.95 22.4L709.25 39.45L699.4 57.6L688.95 63.95L688.4 62.65L688.6 62.5L690.15 62.8L700.15 43.9L734.95 22.45L736.95 22.4" />
</g>
<g id="PathID_975" transform="matrix(1, 0, 0, 1, -383.65, -13.75)">
<path style="fill:#BF9E3F;fill-opacity:1" d="M656.35 73.4L651.75 83.2L644.7 84.05L647.9 77.55L672.85 62.2L674.85 62L656.35 73.4" />
</g>
<g id="PathID_976" transform="matrix(1, 0, 0, 1, -383.65, -13.75)">
<path style="fill:#BF9E3F;fill-opacity:1" d="M626.9 90.45L599 111.05L598.65 110.8L598.15 110.25L598 110.05L597.45 109.6L623.3 90.95L626.9 90.45" />
</g>
<g id="PathID_977" transform="matrix(1, 0, 0, 1, -383.65, -13.75)">
<path style="fill:#BF9E3F;fill-opacity:1" d="M504.3 120.45L497.3 133.8L492.75 148.75L490.4 164.75L490.5 181.35L493.25 197.65L498.5 214.1L505.2 227.95L513.95 239.5L524.2 249.5L529.75 253.7L535.45 256.9L531.05 256.1L529.95 255.7L526.55 255.05L521 251.65L510.45 243.55L501.35 233L490.45 213.6L485.1 197.75L482.7 181.9L482.45 165.85L484.75 150.45L489.3 136.25L496.05 123.3L504.95 112.65L515.65 103.95L524.35 99.8L513.35 109.05L504.3 120.45" />
</g>
<g id="PathID_978" transform="matrix(1, 0, 0, 1, -383.65, -13.75)">
<path style="fill:#BF9E3F;fill-opacity:1" d="M532.35 181.6L535.05 183.25L536.2 184.65L537.35 185.65L538.65 187.3L540.2 190.55L541.9 197.4L541.5 204.05L539.05 209.7L535.15 213.75L533.6 214.45L530.55 215.25L529.15 215.2L533.3 209.85L535.75 203L535.9 195.7L533.7 188.2L531.75 184.05L529 180.75L530.9 181.1L532.35 181.6" />
</g>
<g id="PathID_979" transform="matrix(1, 0, 0, 1, -383.65, -13.75)">
<linearGradient
id="LinearGradID_368" gradientUnits="userSpaceOnUse" gradientTransform="matrix(-0.0435028, -0.0993958, 0.153992, -0.0673218, 653.85, 124.55)" spreadMethod ="pad" x1="-819.2" y1="0" x2="819.2" y2="0" >
<stop  offset="0" style="stop-color:#BF9E3F;stop-opacity:1" />
<stop  offset="1" style="stop-color:#D1BF66;stop-opacity:1" />
</linearGradient>
<path style="fill:url(#LinearGradID_368) " d="M780.5 48.05L780.4 48.45L623.4 145.8L618.65 152.4L780.45 53.55L783.35 60.25L620.3 160.45L620.65 161.9L623 189.85L621.35 203L613.2 226.75L606.75 237.05L598.8 245.85L589.85 252.7L586.7 254.7L576.3 258.5L565.7 260.35L548.9 258L544.1 256.35L534.5 251.4L528 247L519.55 239.15L509.7 226.25L503.65 214.85L503.6 214.2L503.35 213.6L502.9 212.9L502.8 212.3L497.4 196.45L495 180.6L494.8 164.55L497 149.35L501.6 134.95L508.35 122.4L517.1 111.35L527.9 103.05L533.9 99.6L540.2 97.4L542.8 97.3L543.25 97L550.45 95.7L553.4 95.5L560.7 95.65L568.95 97.15L577.95 100.6L587.35 106.75L598.25 117L635.35 89.85L654.4 87.05L659.95 76.4L683.35 62.15L686.75 70.5L702.4 60.7L712.45 42.6L747.25 21.35L772.8 18.75L780.15 35.95L620.05 136.1L616.45 141.75L778.35 42.5L780.5 48.05M520.15 178.15L515.05 183.35L511.95 190.5L511.25 198.45L513.25 206.9L513.75 207.6L513.85 208.2L514.35 208.5L514.45 209.15L515.4 210.5L515.9 211.8L519.05 215.1L521.3 216.9L522.35 217.55L522.8 218.6L523 218.4L523.35 218.5L523.45 218.1L524.6 218.3L525.1 218.8L530.05 219.75L531.5 219.4L532.9 219.45L537.15 217.7L542.5 212.3L545.6 205.15L546.15 197L544.3 188.95L542.05 184.75L539.35 181.1L535.9 178.45L532.3 176.65L529.25 176.1L526.1 176.05L523 176.7L521.5 177.2L520.15 178.15" />
</g>
<g id="PathID_980" transform="matrix(1, 0, 0, 1, -383.65, -13.75)">
<path style="fill:#000000;fill-opacity:1" d="M545.25 115.15L551.55 113.95L561.45 114.2L570.65 116.7L575.35 118.95L583.8 124.85L587.7 128.3L594.55 137.1L600.4 147.3L604.6 158.95L607.2 171.65L607.45 183.95L606.15 195.4L603.3 206.35L598.95 216.2L601.75 207.45L605.5 187.35L605.35 177.25L602.75 164.55L598.55 152.85L592.75 142.75L585.5 133.65L581.6 130.2L573.05 124.05L563.85 120.4L559.15 119.1L549.1 119L544.1 120.1L534.3 125.2L525.2 132.8L517.7 142.1L514.6 147.25L517.4 140.45L524.65 129.3L529.3 124.45L539.65 117.45L545.25 115.15" />
</g>
<g id="PathID_981" transform="matrix(1, 0, 0, 1, -383.65, -13.75)">
<path style="fill:#333333;fill-opacity:1" d="M419.85 257.7L454 253.7L476.4 248L520.25 242.85L529.05 240.25L534.95 236.05L536.65 233.2L537.3 227.6L535.55 222.15L527.85 212.4L519.2 205.7L515.95 204.05L514.75 203.25L514.9 203.3L517.25 199.35L526.9 205.7L532.05 210L540.1 221.15L541.65 227.8L540.55 234.5L538.5 238.5L535.75 241.5L532.1 244.05L522.45 247.15L472.85 253.45L444.9 259.95L416.45 262.25L406.6 260.8L398.8 258.35L393.4 254.2L391.35 251.25L386.9 242.3L384.7 236L384.3 233.9L383.65 232.05L383.7 230.85L383.75 230.65L388.15 230.3L388.05 230.7L388.15 231.45L390.1 237.8L395.25 249.4L396.75 251.25L398.4 252.75L401.1 254.25L407.25 256.15L419.85 257.7" />
</g>
</svg>
