<?xml version="1.0" encoding="utf-8"?>
<svg version="1.1" id="Layer_1"
xmlns="http://www.w3.org/2000/svg"
xmlns:xlink="http://www.w3.org/1999/xlink"
width="384px" height="390px"
xml:space="preserve">
<g id="PathID_477" transform="matrix(1, 0, 0, 1, 0, 0)">
<linearGradient
id="LinearGradID_248" gradientUnits="userSpaceOnUse" gradientTransform="matrix(0.219986, -0.0589447, 0.0605011, 0.2258, 186.2, 204.25)" spreadMethod ="pad" x1="-819.2" y1="0" x2="819.2" y2="0" >
<stop  offset="0" style="stop-color:#676767;stop-opacity:1" />
<stop  offset="1" style="stop-color:#909090;stop-opacity:1" />
</linearGradient>
<path style="fill:url(#LinearGradID_248) " d="M200.65 12L201.55 11.7L177.5 18.15Q122.5 32.9 97.4 94.85Q72.35 156.8 91.9 229.7Q102.45 269.2 122.7 299.4L122.8 299.45Q140.05 325 164.15 343.9Q216.95 385 271.95 370.25L272 370.45L298.9 363.3L298.8 363.05Q308.25 360.5 316.4 355.65L331.05 344.6L346.7 323.75Q354.4 310.35 359.6 292.55L361.05 287.35Q377.95 233.85 361.15 171.1L355.15 148.75L354.95 148Q336.6 79.45 289.65 40Q246.9 -0.45 204.45 10.95L201.8 11.7L200.65 12M7.15 257.1Q-5.5 209.95 4.25 171.55Q14.1 133.15 40.7 126L82.15 114.9Q85.8 102.05 91.2 89.5Q119.8 23.8 180.7 7.5L197.2 3.05Q246.8 -10.2 296.3 34.55Q318.85 55 335.4 82Q355.2 114.25 366.4 155.95L366.6 156.85L371.65 175.7Q390 244.15 367.9 301.9Q345.9 359.75 296.3 373L293.15 373.8L279.8 377.4Q218.9 393.7 161.25 351.05Q154.85 346.35 148.95 341.15L101.7 353.8Q75.1 360.95 47.4 332.6L46.15 331.25Q19.5 303.15 7.15 257.1M52.05 325.25Q76.85 351.85 100.15 345.6L141.6 334.5L136.15 329.05Q98.85 290.4 83.2 231.85Q69.2 179.65 77.95 132.55L78.85 127.95L79.45 125.45L79.8 123.95L43.4 133.7Q20.1 139.95 11.9 175.45Q3.7 210.9 15.45 254.75Q23.25 283.8 36.7 305.25Q43.65 316.25 52.05 325.25" />
<path style="fill:#FFFFFF;fill-opacity:1" d="M357.65 163.1Q338.65 92.15 294.65 50.1Q250.7 7.95 207.55 19.55Q164.4 31.1 147.3 89.6Q130.3 148 149.3 218.95Q168.3 289.95 212.25 332.05Q256.3 374.1 299.45 362.55Q308.5 360.1 316.4 355.65Q308.25 360.5 298.8 363.05Q282.3 367.45 265.15 364.25L265.05 364.25L262.85 363.8L229.2 349.85L210.1 336.2L209.5 335.65Q166.95 295.7 148.8 228Q147.25 222.15 146 216.4L142.6 204.9Q124.25 136.35 140.95 79.85Q161.3 24.15 201.8 11.7L204.45 10.95Q246.9 -0.45 289.65 40Q336.6 79.45 354.95 148L355.15 148.75L361.15 171.1Q377.95 233.85 361.05 287.35Q375.8 230.95 357.65 163.1" />
<path style="fill:#000000;fill-opacity:0.2" d="M373.15 167.1Q393.15 241.6 375.1 302.95Q357.15 364.25 311.75 376.45Q301.55 380.2 286 383.75Q269.15 387.65 255.7 388.95Q243.05 390.15 226.25 386.45Q213.45 383.65 200.6 378.55Q191.05 374.85 175.8 365.1Q161.55 356.1 158.35 352.5L153.55 348.45L116.65 358.35L102.4 362.1L93.15 362.5Q87.7 362.2 78.9 357.9Q72.75 354.95 64.05 349.45Q58.45 345.9 46.65 331.85L46.15 331.25L47.4 332.6Q75.1 360.95 101.7 353.8L148.95 341.15Q154.85 346.35 161.25 351.05Q218.9 393.7 279.8 377.4L293.15 373.8L296.3 373Q345.9 359.75 367.9 301.9Q390 244.15 371.65 175.7L366.6 156.85L366.4 155.95Q355.2 114.25 335.4 82Q360 117.9 373.15 167.1" />
<linearGradient
id="LinearGradID_249" gradientUnits="userSpaceOnUse" gradientTransform="matrix(0.127182, -0.0340729, 0.0560913, 0.209335, 253.5, 191.05)" spreadMethod ="pad" x1="-819.2" y1="0" x2="819.2" y2="0" >
<stop  offset="0" style="stop-color:#FFFFFF;stop-opacity:1" />
<stop  offset="1" style="stop-color:#959595;stop-opacity:1" />
</linearGradient>
<path style="fill:url(#LinearGradID_249) " d="M361.05 287.35L359.6 292.55Q354.4 310.35 346.7 323.75L331.05 344.6L316.4 355.65Q308.5 360.1 299.45 362.55Q256.3 374.1 212.25 332.05Q168.3 289.95 149.3 218.95Q130.3 148 147.3 89.6Q164.4 31.1 207.55 19.55Q250.7 7.95 294.65 50.1Q338.65 92.15 357.65 163.1Q375.8 230.95 361.05 287.35M344.1 162.25Q325.95 94.45 285.05 53.95Q244.15 13.55 204.55 24.15Q164.85 34.8 149.7 90.25Q134.55 145.75 152.7 213.55Q170.9 281.35 211.75 321.85Q252.6 362.3 292.3 351.65Q331.9 341.05 347.1 285.55Q362.3 230.05 344.1 162.25" />
<linearGradient
id="LinearGradID_250" gradientUnits="userSpaceOnUse" gradientTransform="matrix(0.116837, -0.031311, 0.0535583, 0.199905, 248.4, 187.9)" spreadMethod ="pad" x1="-819.2" y1="0" x2="819.2" y2="0" >
<stop  offset="0" style="stop-color:#C8C8C8;stop-opacity:1" />
<stop  offset="1" style="stop-color:#626262;stop-opacity:1" />
</linearGradient>
<path style="fill:url(#LinearGradID_250) " d="M347.1 285.55Q331.9 341.05 292.3 351.65Q252.6 362.3 211.75 321.85Q170.9 281.35 152.7 213.55Q134.55 145.75 149.7 90.25Q164.85 34.8 204.55 24.15Q244.15 13.55 285.05 53.95Q325.95 94.45 344.1 162.25Q362.3 230.05 347.1 285.55M305.35 191L305.2 189.7L305.2 189.5L305.2 189.2L305.1 188.7L304.9 187L302.45 175.25L302.35 174.75L302.2 174.25L302.05 173.75L299.4 164.9L298.95 163.7L298.75 163.1L298.25 162L297.85 160.75Q288.3 134.2 270.55 117.15Q248.95 96.3 227.8 102Q206.6 107.65 198.3 136.55Q190 165.35 199.4 200.45Q208.8 235.55 230.4 256.4Q252 277.15 273.2 271.5Q294.35 265.8 302.65 237Q308.7 216.1 305.5 191.9L305.35 191" />
<linearGradient
id="LinearGradID_251" gradientUnits="userSpaceOnUse" gradientTransform="matrix(-0.0563965, -0.210464, 0.0958099, -0.0256653, 169.35, 205.1)" spreadMethod ="pad" x1="-819.2" y1="0" x2="819.2" y2="0" >
<stop  offset="0" style="stop-color:#CDCDCD;stop-opacity:1" />
<stop  offset="1" style="stop-color:#EAEAEA;stop-opacity:1" />
</linearGradient>
<path style="fill:url(#LinearGradID_251) " d="M213.35 362.5L212.65 362.25L186.1 351.8L186.05 351.75L161.3 336.15L160.75 335.75Q145.45 324.45 139.05 318.3Q132.9 312.4 126.25 302.8Q125.2 301.35 122.8 299.45L122.7 299.4Q102.45 269.2 91.9 229.7Q72.35 156.8 97.4 94.85Q122.5 32.9 177.5 18.15L201.55 11.7L200.65 12Q160.95 24.9 140.9 79.85Q124.2 136.3 142.55 204.85Q144.15 210.75 145.9 216.35L148.75 227.95Q166.9 295.65 209.45 335.65L210.1 336.2L229.2 349.85L262.85 363.8L265.05 364.25L265 364.25L250.85 366.1Q229.05 367.95 213.9 362.65L213.35 362.5" />
<radialGradient
id="RadialGradID_252" gradientUnits="userSpaceOnUse" gradientTransform="matrix(0.172363, -0.0461884, 0.0685577, 0.255905, 268.55, 157.95)" spreadMethod ="pad" cx="0" cy="0" r="819.2" fx="0" fy="0" >
<stop  offset="0"  style="stop-color:#FFFFFF;stop-opacity:1" />
<stop  offset="1"  style="stop-color:#333333;stop-opacity:1" />
</radialGradient>
<path style="fill:url(#RadialGradID_252) " d="M221.25 139.65Q228.25 121.7 242.95 117.7L243.05 117.7Q257.75 113.8 272.85 125.8L277.2 129.6Q286.9 138.7 293.5 151.4L295.2 154.65L296.7 158.1L297.55 160.1L297.85 160.75L298.25 162L298.75 163.1L298.95 163.7L299.4 164.9L302.05 173.75L302.2 174.25L302.35 174.75L302.45 175.25L304.9 187L305.1 188.7L305.2 189.2L305.2 189.5L305.2 189.7L305.35 191L305.5 191.9L305.75 194.6Q306.8 210.4 302.6 224.4L300.7 229.85Q293.65 247.8 279 251.8L278.9 251.8Q264.15 255.7 249.1 243.7L244.8 239.85Q227.4 223.5 219.95 195.7Q212.55 167.95 219.4 145.05Q220.25 142.2 221.25 139.65" />
<linearGradient
id="LinearGradID_253" gradientUnits="userSpaceOnUse" gradientTransform="matrix(0.0576019, -0.0154266, 0.0256653, 0.0958099, 253.6, 186.55)" spreadMethod ="pad" x1="-819.2" y1="0" x2="819.2" y2="0" >
<stop  offset="0" style="stop-color:#DDDDDD;stop-opacity:1" />
<stop  offset="1" style="stop-color:#F5F5F5;stop-opacity:1" />
</linearGradient>
<path style="fill:url(#LinearGradID_253) " d="M293.5 151.4Q286.9 138.7 277.2 129.6L272.85 125.8Q257.75 113.8 243.05 117.7L242.95 117.7Q228.25 121.7 221.25 139.65Q220.15 142.2 219.3 145.1Q212.45 168 219.85 195.75Q227.3 223.55 244.7 239.9L249.1 243.7Q264.15 255.7 278.9 251.8L279 251.8Q293.65 247.8 300.7 229.85L302.6 224.4Q306.8 210.4 305.75 194.6Q307.85 215.05 302.6 232.9Q294.8 259.7 275.05 265Q255.4 270.25 235.25 250.95Q215.15 231.75 206.45 199.25Q197.75 166.75 205.5 140Q213.35 113.25 233 108Q252.75 102.7 272.85 121.95Q286.7 135.2 295.2 154.65L293.5 151.4" />
<linearGradient
id="LinearGradID_254" gradientUnits="userSpaceOnUse" gradientTransform="matrix(0.0622253, -0.0166779, 0.0277252, 0.103455, 250.35, 186.8)" spreadMethod ="pad" x1="-819.2" y1="0" x2="819.2" y2="0" >
<stop  offset="0" style="stop-color:#878787;stop-opacity:1" />
<stop  offset="1" style="stop-color:#C0C0C0;stop-opacity:1" />
</linearGradient>
<path style="fill:url(#LinearGradID_254) " d="M305.5 191.9Q308.7 216.1 302.65 237Q294.35 265.8 273.2 271.5Q252 277.15 230.4 256.4Q208.8 235.55 199.4 200.45Q190 165.35 198.3 136.55Q206.6 107.65 227.8 102Q248.95 96.3 270.55 117.15Q288.3 134.2 297.85 160.75L297.55 160.1L296.7 158.1L295.2 154.65Q286.7 135.2 272.85 121.95Q252.75 102.7 233 108Q213.35 113.25 205.5 140Q197.75 166.75 206.45 199.25Q215.15 231.75 235.25 250.95Q255.4 270.25 275.05 265Q294.8 259.7 302.6 232.9Q307.85 215.05 305.75 194.6L305.5 191.9" />
<linearGradient
id="LinearGradID_255" gradientUnits="userSpaceOnUse" gradientTransform="matrix(-0.0332947, -0.124298, 0.0565948, -0.0151672, 60.75, 238.25)" spreadMethod ="pad" x1="-819.2" y1="0" x2="819.2" y2="0" >
<stop  offset="0.00392157" style="stop-color:#C0C0C0;stop-opacity:1" />
<stop  offset="1" style="stop-color:#DADADA;stop-opacity:1" />
</linearGradient>
<path style="fill:url(#LinearGradID_255) " d="M52.35 139.4Q29.7 145.45 21.7 178.9Q13.65 212.35 24.7 253.65Q35.8 294.9 59.45 319.9Q75.2 336.5 90.5 339.35L86.4 339.2Q81.75 338.55 73.1 334.7Q65.35 331.2 60.4 327.95Q55.7 324.9 41.4 310.2L36.7 305.25Q23.25 283.8 15.45 254.75Q3.7 210.9 11.9 175.45Q20.1 139.95 43.4 133.7L79.8 123.95L79.45 125.45L78.85 127.95L77.95 132.55L52.35 139.4" />
<linearGradient
id="LinearGradID_256" gradientUnits="userSpaceOnUse" gradientTransform="matrix(-0.0323639, -0.120789, 0.0519409, -0.013916, 67.05, 241.5)" spreadMethod ="pad" x1="-819.2" y1="0" x2="819.2" y2="0" >
<stop  offset="0" style="stop-color:#B2B2B2;stop-opacity:1" />
<stop  offset="0.294118" style="stop-color:#B2B2B2;stop-opacity:1" />
<stop  offset="1" style="stop-color:#F8F8F8;stop-opacity:1" />
</linearGradient>
<path style="fill:url(#LinearGradID_256) " d="M90.5 339.35Q75.2 336.5 59.45 319.9Q35.8 294.9 24.7 253.65Q13.65 212.35 21.7 178.9Q29.7 145.45 52.35 139.4L77.95 132.55Q69.2 179.65 83.2 231.85Q98.85 290.4 136.15 329.05L108.65 336.45L98.5 338.55L90.5 339.35" />
<linearGradient
id="LinearGradID_257" gradientUnits="userSpaceOnUse" gradientTransform="matrix(0.0552521, -0.014801, 0.00874329, 0.0326538, 89.2, 319.85)" spreadMethod ="pad" x1="-819.2" y1="0" x2="819.2" y2="0" >
<stop  offset="0.00392157" style="stop-color:#9E9E9E;stop-opacity:1" />
<stop  offset="1" style="stop-color:#999999;stop-opacity:1" />
</linearGradient>
<path style="fill:url(#LinearGradID_257) " d="M98.5 338.55L108.65 336.45L136.15 329.05L141.6 334.5L100.15 345.6Q76.85 351.85 52.05 325.25Q43.65 316.25 36.7 305.25L41.4 310.2Q55.7 324.9 60.4 327.95Q65.35 331.2 73.1 334.7Q81.75 338.55 86.4 339.2L90.5 339.35L98.5 338.55" />
<linearGradient
id="LinearGradID_258" gradientUnits="userSpaceOnUse" gradientTransform="matrix(0.0905151, -0.0242462, 0.0169373, 0.0632324, 210.8, 331.35)" spreadMethod ="pad" x1="-819.2" y1="0" x2="819.2" y2="0" >
<stop  offset="0" style="stop-color:#868686;stop-opacity:1" />
<stop  offset="1" style="stop-color:#AFAFAF;stop-opacity:1" />
</linearGradient>
<path style="fill:url(#LinearGradID_258) " d="M126.25 302.8Q132.9 312.4 139.05 318.3Q145.45 324.45 160.75 335.75L161.3 336.15L186.05 351.75L186.1 351.8L212.65 362.25L213.35 362.5L213.95 362.7Q229.1 368 250.9 366.15Q258.85 365.55 265.15 364.25Q282.3 367.45 298.8 363.05L298.9 363.3L272 370.45L271.95 370.25Q216.95 385 164.15 343.9Q140.05 325 122.8 299.45Q125.2 301.35 126.25 302.8" />
</g>
</svg>
