<?xml version="1.0" encoding="utf-8"?>
<svg version="1.1" id="Layer_1"
xmlns="http://www.w3.org/2000/svg"
xmlns:xlink="http://www.w3.org/1999/xlink"
width="403px" height="253px"
xml:space="preserve">
<g id="PathID_1220" transform="matrix(1, 0, 0, 1, 201.5, 126.5)">
<path style="fill:#CE0000;fill-opacity:0.498039" d="M-200 -123.05L-200 -125L-198.05 -125L198.05 -125L200 -125L200 -123.05L200 123.05L200 125L198.05 125L-198.05 125L-200 125L-200 123.05L-200 -123.05" />
<path style="fill:none;stroke-width:3;stroke-linecap:round;stroke-linejoin:round;stroke-miterlimit:3;stroke:#CE0000;stroke-opacity:1" d="M-200 -123.05L-200 -125L-198.05 -125L198.05 -125L200 -125L200 -123.05L200 123.05L200 125L198.05 125L-198.05 125L-200 125L-200 123.05L-200 -123.05z" />
</g>
</svg>
