<?xml version="1.0" encoding="utf-8"?>
<svg version="1.1" id="Layer_1"
xmlns="http://www.w3.org/2000/svg"
xmlns:xlink="http://www.w3.org/1999/xlink"
width="2062px" height="1238px"
xml:space="preserve">
<g id="PathID_1142" transform="matrix(1, 0, 0, 1, -525.2, -383.1)">
<linearGradient
id="LinearGradID_418" gradientUnits="userSpaceOnUse" gradientTransform="matrix(0.566437, 0, 0, 0.755402, 2123.1, 1001.9)" spreadMethod ="pad" x1="-819.2" y1="0" x2="819.2" y2="0" >
<stop  offset="0.584314" style="stop-color:#31019B;stop-opacity:1" />
<stop  offset="1" style="stop-color:#18014E;stop-opacity:1" />
</linearGradient>
<path style="fill:url(#LinearGradID_418) " d="M2558.9 591.45Q2587.15 661.2 2587.15 748.35Q2587.15 934.3 2472.6 1030.55Q2358.05 1126.05 2131.45 1126.05L1905.65 1126.05L1905.65 1470.5Q1905.65 1544.4 1870.8 1582.55Q1835.9 1620.75 1782.8 1620.75Q1727.2 1620.75 1693.15 1583.4Q1659.1 1545.2 1659.1 1472.15L1659.1 534.2Q1659.1 452.85 1696.45 417.95Q1733.8 383.1 1815.15 383.1L2131.45 383.1Q2271.7 383.1 2347.25 404.7Q2421.95 425.45 2476.75 473.6Q2530.7 521.75 2558.9 591.45M2289.95 622.15Q2236.85 568.2 2071.65 568.2L1905.65 568.2L1905.65 940.1L2071.65 940.1Q2158.8 940.1 2217.75 921.85Q2275.85 903.55 2306.55 862.05Q2337.3 820.55 2337.3 753.3Q2337.3 672.8 2289.95 622.15" />
<linearGradient
id="LinearGradID_419" gradientUnits="userSpaceOnUse" gradientTransform="matrix(0.57251, 0, 0, 0.742737, 994.2, 991.55)" spreadMethod ="pad" x1="-819.2" y1="0" x2="819.2" y2="0" >
<stop  offset="0.584314" style="stop-color:#31019B;stop-opacity:1" />
<stop  offset="1" style="stop-color:#18014E;stop-opacity:1" />
</linearGradient>
<path style="fill:url(#LinearGradID_419) " d="M1443.3 477.75Q1443.3 520.9 1415.05 547.45Q1386 573.2 1327.05 573.2L771.75 573.2L771.75 872L1283.05 872Q1339.5 872 1367.75 897.75Q1395.15 922.65 1395.15 964.15Q1395.15 1005.65 1367.75 1032.25Q1340.35 1057.95 1283.05 1057.95L771.75 1057.95L771.75 1404.1L1346.15 1404.1Q1404.25 1404.1 1434.15 1431.5Q1463.2 1458.05 1463.2 1502.9Q1463.2 1546.05 1434.15 1573.45Q1404.25 1600 1346.15 1600L676.3 1600Q595.75 1600 560.9 1564.3Q525.2 1528.6 525.2 1448.95L525.2 534.2Q525.2 481.05 541 447.85Q556.75 413.8 590.8 398.9Q624 383.1 676.3 383.1L1327.05 383.1Q1386 383.1 1415.05 409.65Q1443.3 435.4 1443.3 477.75" />
</g>
</svg>
