<?xml version="1.0" encoding="utf-8"?>
<svg version="1.1" id="Layer_1"
xmlns="http://www.w3.org/2000/svg"
xmlns:xlink="http://www.w3.org/1999/xlink"
width="155px" height="155px"
xml:space="preserve">
<g id="PathID_728" transform="matrix(1, 0, 0, 1, -184.3, -70.4)">
<path style="fill:#FFFFFF;fill-opacity:0.2" d="M339.3 147.9Q339.3 180 316.55 202.7Q293.9 225.4 261.8 225.4Q229.7 225.4 206.95 202.7Q184.3 180 184.3 147.9Q184.3 115.8 206.95 93.1Q229.7 70.4 261.8 70.4Q293.9 70.4 316.55 93.1Q339.3 115.8 339.3 147.9M308.9 100.8Q289.4 81.3 261.8 81.3Q234.2 81.3 214.7 100.8Q195.15 120.35 195.15 147.9Q195.15 175.45 214.7 195Q234.2 214.5 261.8 214.5Q289.4 214.5 308.9 195Q328.4 175.45 328.4 147.9Q328.4 120.35 308.9 100.8" />
</g>
</svg>
