<?xml version="1.0" encoding="utf-8"?>
<svg version="1.1" id="Layer_1"
xmlns="http://www.w3.org/2000/svg"
xmlns:xlink="http://www.w3.org/1999/xlink"
width="59px" height="52px"
xml:space="preserve">
<g id="PathID_1185" transform="matrix(1, 0, 0, 1, 0.1, 0)">
<path style="fill:#FFFFFF;fill-opacity:1" d="M43.15 6.2Q36.8 2.75 29.35 2.75Q22.5 2.75 16.55 5.65Q10.65 8.5 7.05 13.6Q1.3 21.65 3.75 30.95Q6.25 40.3 15.45 45.3Q21.75 48.8 29.25 48.8Q36.1 48.8 42.05 45.95Q47.95 43.05 51.55 37.95Q54.3 34.05 55.15 29.55Q56 25.05 54.85 20.55Q53.65 16.05 50.65 12.35Q47.6 8.65 43.15 6.2M43.3 48.4Q36.7 51.55 29.25 51.55Q21 51.55 13.8 47.65Q3.5 42 0.75 31.6Q-2 21.2 4.4 12.15Q8.5 6.35 15.3 3.15Q21.85 0 29.35 0Q37.6 0 44.8 3.9Q55.1 9.55 57.85 19.95Q60.6 30.35 54.2 39.4Q50.1 45.15 43.3 48.4" />
</g>
</svg>
