<?xml version="1.0" encoding="utf-8"?>
<svg version="1.1" id="Layer_1"
xmlns="http://www.w3.org/2000/svg"
xmlns:xlink="http://www.w3.org/1999/xlink"
width="53px" height="4px"
xml:space="preserve">
<g id="PathID_225" transform="matrix(1, 0, 0, 1, 0, 0)">
<linearGradient
id="LinearGradID_98" gradientUnits="userSpaceOnUse" gradientTransform="matrix(0, -0.00831604, 0.00831604, 0, 6, 7.1)" spreadMethod ="pad" x1="-819.2" y1="0" x2="819.2" y2="0" >
<stop  offset="0" style="stop-color:#99D7FE;stop-opacity:1" />
<stop  offset="1" style="stop-color:#D9F0FE;stop-opacity:1" />
</linearGradient>
<path style="fill:url(#LinearGradID_98) " d="M52 3.05L1 3L1 2.95L1 0.95L52 1L52 2.95L52 3.05" />
</g>
<g id="PathID_226" transform="matrix(1, 0, 0, 1, 0, 0)">
<linearGradient
id="LinearGradID_99" gradientUnits="userSpaceOnUse" gradientTransform="matrix(0, -0.00787354, 0.00787354, 0, 106.5, 6.45)" spreadMethod ="pad" x1="-819.2" y1="0" x2="819.2" y2="0" >
<stop  offset="0" style="stop-color:#0075BF;stop-opacity:1" />
<stop  offset="0.992157" style="stop-color:#009DFF;stop-opacity:1" />
</linearGradient>
<path style="fill:url(#LinearGradID_99) " d="M0.95 0L52 0L53 0L53 0.95L53 2.95L53 4L52 4L0.95 4L0 4L0 2.95L0 0.95L0 0L0.95 0M52 2.95L52 1L1 1L1 2.95L1 3L52 3L52 2.95" />
</g>
</svg>
