<?xml version="1.0" encoding="utf-8"?>
<svg version="1.1" id="Layer_1"
xmlns="http://www.w3.org/2000/svg"
xmlns:xlink="http://www.w3.org/1999/xlink"
width="14px" height="14px"
xml:space="preserve">
<g id="PathID_313" transform="matrix(1, 0, 0, 1, 0, 0)">
<linearGradient
id="LinearGradID_172" gradientUnits="userSpaceOnUse" gradientTransform="matrix(0, -0.00886536, 0.00886536, 0, 7.8, 6.45)" spreadMethod ="pad" x1="-819.2" y1="0" x2="819.2" y2="0" >
<stop  offset="0" style="stop-color:#0075BF;stop-opacity:1" />
<stop  offset="0.992157" style="stop-color:#009DFF;stop-opacity:1" />
</linearGradient>
<path style="fill:url(#LinearGradID_172) " d="M13 13L13 1L1 1L1 13L13 13M14 0L14 14L0 14L0 0L14 0" />
</g>
<g id="PathID_314" transform="matrix(1, 0, 0, 1, 0, 0)">
<linearGradient
id="LinearGradID_173" gradientUnits="userSpaceOnUse" gradientTransform="matrix(0, -0.00831604, 0.00831604, 0, 6, 7.15)" spreadMethod ="pad" x1="-819.2" y1="0" x2="819.2" y2="0" >
<stop  offset="0" style="stop-color:#EEEEEE;stop-opacity:0.65098" />
<stop  offset="1" style="stop-color:#FFFFFF;stop-opacity:0.741176" />
</linearGradient>
<path style="fill:url(#LinearGradID_173) " d="M1 13L1 1L13 1L13 13L1 13" />
</g>
<g id="PathID_315" transform="matrix(1, 0, 0, 1, 0, 0)">
<linearGradient
id="LinearGradID_174" gradientUnits="userSpaceOnUse" gradientTransform="matrix(0, -0.00408936, 0.00831604, 0, 6, 4.35)" spreadMethod ="pad" x1="-819.2" y1="0" x2="819.2" y2="0" >
<stop  offset="0" style="stop-color:#EEEEEE;stop-opacity:0" />
<stop  offset="1" style="stop-color:#FFFFFF;stop-opacity:0.298039" />
</linearGradient>
<path style="fill:url(#LinearGradID_174) " d="M13 7.5L1 7.5L1 1L13 1L13 7.5" />
</g>
</svg>
