<?xml version="1.0" encoding="utf-8"?>
<svg version="1.1" id="Layer_1"
xmlns="http://www.w3.org/2000/svg"
xmlns:xlink="http://www.w3.org/1999/xlink"
width="265px" height="172px"
xml:space="preserve">
<g id="PathID_704" transform="matrix(1, 0, 0, 1, 0, -121.1)">
<path style="fill:#FFFFFF;fill-opacity:0.2" d="M198.8 142.05L210.3 152.3Q216.2 157.65 221.05 163.3L227.2 170.25L232.8 177.05L238.2 185.6L242.8 193.55Q243.75 195.4 245.75 201.1L248.55 209.55L250.5 218.15L252.05 226.55Q252.55 230.05 252.55 238.8Q252.55 242.05 248.8 254.55Q247.1 260.25 241.05 269.3Q239.5 271.65 234.1 276.3L227.55 281.8Q226.55 282.7 223.45 283.85Q220.15 285.05 218.8 286.05Q215.9 288.2 201.3 291.3L194 292L187.8 292.3Q185.8 292.55 75.3 292.3L62.05 291.55Q57.45 290.95 49.55 288.3Q47.3 287.55 43.75 285.85Q39.4 283.8 37.55 282.3Q32.55 278.2 29.3 274.55Q28.05 273.15 25.85 269.6L22.55 264.3L19.75 259.2L17.55 254.05Q14.25 244.95 13.8 242.55Q13.4 240.3 12.9 232.95Q12.4 225.25 12.55 222.8L13.35 215.5Q13.95 210.75 14.3 209.3Q14.7 207.6 16.7 201.85L19.8 193.3L23.05 186.55L26.3 180.55L30.8 174Q34.2 169.25 36.05 167.05L42.35 160.1L49.8 152.55Q53.8 148.8 64.05 140.55L66.4 139.75Q69.2 139.1 71.55 140.05Q74.25 141.1 73.95 143.7Q73.7 146.15 71.3 147.55Q69.15 148.8 65.15 151.95Q61.4 154.9 58.8 157.3L47.05 168.55Q45.45 169.95 42.35 174.45L37.8 181.05L33.5 187.75Q30.9 192.1 29.8 194.3Q28.7 196.5 27.15 200.95Q25.65 205.3 25.05 207.8Q22.8 217.6 22.55 222.8Q22.35 227.35 22.45 230.35Q22.6 234.15 23.3 239.05Q23.95 243.45 25.3 247.25L27.3 252.3Q28 254.2 29.9 257.7L33.05 263.05Q34.4 265.2 36.85 268Q39.35 270.95 40.8 272.05L44.95 275.35Q47.95 277.7 49.8 278.3L55.3 279.7Q59.5 280.65 61.55 281.3Q64.05 282.1 69.2 282.45L77.05 282.8L135.85 282.75Q191.45 282.5 193.55 282.3L204.05 280.8L209.6 278.85L216.05 276.3Q218.55 275.4 222.4 273.1Q226 270.9 227.8 269.3Q229.45 267.85 232.25 264.25Q235 260.8 236.55 258.3L239.6 251.95L241.55 246.55L242.25 239.85L242.8 232.55Q243.05 229.95 241.55 219.55L240.2 214.2L238.3 208.3L233.3 196.8Q230.7 191.1 228.3 187.55Q223.3 180.05 221.3 178.05L216.2 172.2L211.3 166.3Q209.05 163.8 202.05 157.55L192.55 150.05L190 148.85Q189.25 148.4 189.55 145.8Q189.9 142.85 193.6 141.7Q197.1 140.6 198.8 142.05" />
</g>
<g id="PathID_705" transform="matrix(1, 0, 0, 1, 0, -121.1)">
<path style="fill:#9DB029;fill-opacity:1" d="M125.5 174.55Q113.35 186.45 116.3 198.05Q102.4 188.9 99.55 167.95L125.5 174.55" />
</g>
<g id="PathID_706" transform="matrix(1, 0, 0, 1, 0, -121.1)">
<path style="fill:#9DB029;fill-opacity:1" d="M162.55 196.9Q164.85 185.05 152.65 173.25L178.45 165.95Q176.4 187.3 162.55 196.9" />
</g>
<g id="PathID_707" transform="matrix(1, 0, 0, 1, 0, -121.1)">
<radialGradient
id="RadialGradID_341" gradientUnits="userSpaceOnUse" gradientTransform="matrix(0.164246, 0, 0, 0.0890198, 132.4, 169.1)" spreadMethod ="pad" cx="0" cy="0" r="819.2" fx="0" fy="0" >
<stop  offset="0"  style="stop-color:#000000;stop-opacity:0.498039" />
<stop  offset="0.552941"  style="stop-color:#000000;stop-opacity:0" />
</radialGradient>
<path style="fill:url(#RadialGradID_341) " d="M226 135.1Q264.75 149.2 264.75 169.1Q264.75 188.95 226 203Q187.2 217.05 132.4 217.05Q77.55 217.05 38.8 203Q0 188.95 0 169.1Q0 149.2 38.8 135.1Q77.55 121.1 132.4 121.1Q187.2 121.1 226 135.1" />
</g>
</svg>
