<?xml version="1.0" encoding="utf-8"?>
<svg version="1.1" id="Layer_1"
xmlns="http://www.w3.org/2000/svg"
xmlns:xlink="http://www.w3.org/1999/xlink"
width="42px" height="36px"
xml:space="preserve">
<g id="PathID_794" transform="matrix(1, 0, 0, 1, 0, 0)">
<path style="fill:#000000;fill-opacity:1" d="M41.15 16.7L41.1 16.75L39.6 17.95L39.05 19.5L39.25 19.7L39.25 20.6L37.85 21.8L37.65 22.1L38.15 24.1L30.2 32.4L29.75 32.4L29.75 32.5L28.45 33.6L28.45 33.5L25.85 35.8L25.75 35.8L25.45 35.9L25.1 35.95L23.45 35.75L22.75 35.4L22.7 35.35L22 34.95L21.5 34.5L21.05 33.95L20.35 32.6L19.95 31.3L16.5 31.4L16.35 31.55L16.25 31.55L16.2 31.55L16.15 31.6L15.95 31.65L15.8 31.75L15.3 31.95L13.35 33.1L12.2 33.6L11.6 33.85L9.35 34.15L5.8 33.75Q3.8 33.1 3.65 32.55L3.4 32.3Q3.3 31.9 4.5 31.3L4.8 31.15L5.2 30.8L6.7 29.2L6.85 28.65L6.7 28.4L5.55 27.65L5.5 27.6L4.35 26.8Q2.35 24.85 1.75 23.75Q0.2 21.15 0 17.4Q-0.25 10.35 6.25 5.15Q9 3 12.5 1.65Q15.85 0.35 19.15 0.1Q31.75 -0.8 37.55 7.6Q39.15 9.95 39.7 12.4L40.3 12.95L40.75 13.85L40.8 13.9L41 14.5L41.2 15.8L41.15 16.7" />
</g>
</svg>
