<?xml version="1.0" encoding="utf-8"?>
<svg version="1.1" id="Layer_1"
xmlns="http://www.w3.org/2000/svg"
xmlns:xlink="http://www.w3.org/1999/xlink"
width="596px" height="464px"
xml:space="preserve">
<g id="PathID_1108" transform="matrix(1, 0, 0, 1, -221.5, -59.5)">
<path style="fill:#FFFFFF;fill-opacity:0.498039" d="M379 339L379 430L288 430L288 339L379 339" />
<path style="fill:none;stroke-width:1;stroke-linecap:round;stroke-linejoin:round;stroke-miterlimit:3;stroke:#FF0000;stroke-opacity:1" d="M379 339L379 430L288 430L288 339L379 339z" />
</g>
<g id="PathID_1109" transform="matrix(1, 0, 0, 1, -221.5, -59.5)">
<path style="fill:#FFFFFF;fill-opacity:0.498039" d="M286 432L286 523L222 523L222 432L286 432" />
<path style="fill:none;stroke-width:1;stroke-linecap:round;stroke-linejoin:round;stroke-miterlimit:3;stroke:#FF0000;stroke-opacity:1" d="M286 432L286 523L222 523L222 432L286 432z" />
</g>
<g id="PathID_1110" transform="matrix(1, 0, 0, 1, -221.5, -59.5)">
<path style="fill:#FFFFFF;fill-opacity:0.498039" d="M379 432L379 523L288 523L288 432L379 432" />
<path style="fill:none;stroke-width:1;stroke-linecap:round;stroke-linejoin:round;stroke-miterlimit:3;stroke:#FF0000;stroke-opacity:1" d="M379 432L379 523L288 523L288 432L379 432z" />
</g>
<g id="PathID_1111" transform="matrix(1, 0, 0, 1, -221.5, -59.5)">
<path style="fill:#FFFFFF;fill-opacity:0.498039" d="M472 432L472 523L381 523L381 432L472 432" />
<path style="fill:none;stroke-width:1;stroke-linecap:round;stroke-linejoin:round;stroke-miterlimit:3;stroke:#FF0000;stroke-opacity:1" d="M472 432L472 523L381 523L381 432L472 432z" />
</g>
<g id="PathID_1112" transform="matrix(1, 0, 0, 1, -221.5, -59.5)">
<path style="fill:#FFFFFF;fill-opacity:0.498039" d="M658 432L658 523L567 523L567 432L658 432" />
<path style="fill:none;stroke-width:1;stroke-linecap:round;stroke-linejoin:round;stroke-miterlimit:3;stroke:#FF0000;stroke-opacity:1" d="M658 432L658 523L567 523L567 432L658 432z" />
</g>
<g id="PathID_1113" transform="matrix(1, 0, 0, 1, -221.5, -59.5)">
<path style="fill:#FFFFFF;fill-opacity:0.498039" d="M751 432L751 523L660 523L660 432L751 432" />
<path style="fill:none;stroke-width:1;stroke-linecap:round;stroke-linejoin:round;stroke-miterlimit:3;stroke:#FF0000;stroke-opacity:1" d="M751 432L751 523L660 523L660 432L751 432z" />
</g>
<g id="PathID_1114" transform="matrix(1, 0, 0, 1, -221.5, -59.5)">
<path style="fill:#FFFFFF;fill-opacity:0.498039" d="M817 432L817 523L753 523L753 432L817 432" />
<path style="fill:none;stroke-width:1;stroke-linecap:round;stroke-linejoin:round;stroke-miterlimit:3;stroke:#FF0000;stroke-opacity:1" d="M817 432L817 523L753 523L753 432L817 432z" />
</g>
<g id="PathID_1115" transform="matrix(1, 0, 0, 1, -221.5, -59.5)">
<path style="fill:#FFFFFF;fill-opacity:0.498039" d="M286 339L286 430L222 430L222 339L286 339" />
<path style="fill:none;stroke-width:1;stroke-linecap:round;stroke-linejoin:round;stroke-miterlimit:3;stroke:#FF0000;stroke-opacity:1" d="M286 339L286 430L222 430L222 339L286 339z" />
</g>
<g id="PathID_1116" transform="matrix(1, 0, 0, 1, -221.5, -59.5)">
<path style="fill:#FFFFFF;fill-opacity:0.498039" d="M472 339L472 430L381 430L381 339L472 339" />
<path style="fill:none;stroke-width:1;stroke-linecap:round;stroke-linejoin:round;stroke-miterlimit:3;stroke:#FF0000;stroke-opacity:1" d="M472 339L472 430L381 430L381 339L472 339z" />
</g>
<g id="PathID_1117" transform="matrix(1, 0, 0, 1, -221.5, -59.5)">
<path style="fill:#FFFFFF;fill-opacity:0.498039" d="M565 339L565 430L474 430L474 339L565 339" />
<path style="fill:none;stroke-width:1;stroke-linecap:round;stroke-linejoin:round;stroke-miterlimit:3;stroke:#FF0000;stroke-opacity:1" d="M565 339L565 430L474 430L474 339L565 339z" />
</g>
<g id="PathID_1118" transform="matrix(1, 0, 0, 1, -221.5, -59.5)">
<path style="fill:#FFFFFF;fill-opacity:0.498039" d="M658 339L658 430L567 430L567 339L658 339" />
<path style="fill:none;stroke-width:1;stroke-linecap:round;stroke-linejoin:round;stroke-miterlimit:3;stroke:#FF0000;stroke-opacity:1" d="M658 339L658 430L567 430L567 339L658 339z" />
</g>
<g id="PathID_1119" transform="matrix(1, 0, 0, 1, -221.5, -59.5)">
<path style="fill:#FFFFFF;fill-opacity:0.498039" d="M751 339L751 430L660 430L660 339L751 339" />
<path style="fill:none;stroke-width:1;stroke-linecap:round;stroke-linejoin:round;stroke-miterlimit:3;stroke:#FF0000;stroke-opacity:1" d="M751 339L751 430L660 430L660 339L751 339z" />
</g>
<g id="PathID_1120" transform="matrix(1, 0, 0, 1, -221.5, -59.5)">
<path style="fill:#FFFFFF;fill-opacity:0.498039" d="M817 339L817 430L753 430L753 339L817 339" />
<path style="fill:none;stroke-width:1;stroke-linecap:round;stroke-linejoin:round;stroke-miterlimit:3;stroke:#FF0000;stroke-opacity:1" d="M817 339L817 430L753 430L753 339L817 339z" />
</g>
<g id="PathID_1121" transform="matrix(1, 0, 0, 1, -221.5, -59.5)">
<path style="fill:#FFFFFF;fill-opacity:0.498039" d="M286 153L286 244L222 244L222 153L286 153" />
<path style="fill:none;stroke-width:1;stroke-linecap:round;stroke-linejoin:round;stroke-miterlimit:3;stroke:#0000FF;stroke-opacity:1" d="M286 153L286 244L222 244L222 153L286 153z" />
</g>
<g id="PathID_1122" transform="matrix(1, 0, 0, 1, -221.5, -59.5)">
<path style="fill:#FFFFFF;fill-opacity:0.498039" d="M379 153L379 244L288 244L288 153L379 153" />
<path style="fill:none;stroke-width:1;stroke-linecap:round;stroke-linejoin:round;stroke-miterlimit:3;stroke:#0000FF;stroke-opacity:1" d="M379 153L379 244L288 244L288 153L379 153z" />
</g>
<g id="PathID_1123" transform="matrix(1, 0, 0, 1, -221.5, -59.5)">
<path style="fill:#FFFFFF;fill-opacity:0.498039" d="M472 153L472 244L381 244L381 153L472 153" />
<path style="fill:none;stroke-width:1;stroke-linecap:round;stroke-linejoin:round;stroke-miterlimit:3;stroke:#0000FF;stroke-opacity:1" d="M472 153L472 244L381 244L381 153L472 153z" />
</g>
<g id="PathID_1124" transform="matrix(1, 0, 0, 1, -221.5, -59.5)">
<path style="fill:#FFFFFF;fill-opacity:0.498039" d="M565 153L565 244L474 244L474 153L565 153" />
<path style="fill:none;stroke-width:1;stroke-linecap:round;stroke-linejoin:round;stroke-miterlimit:3;stroke:#0000FF;stroke-opacity:1" d="M565 153L565 244L474 244L474 153L565 153z" />
</g>
<g id="PathID_1125" transform="matrix(1, 0, 0, 1, -221.5, -59.5)">
<path style="fill:#FFFFFF;fill-opacity:0.498039" d="M658 153L658 244L567 244L567 153L658 153" />
<path style="fill:none;stroke-width:1;stroke-linecap:round;stroke-linejoin:round;stroke-miterlimit:3;stroke:#0000FF;stroke-opacity:1" d="M658 153L658 244L567 244L567 153L658 153z" />
</g>
<g id="PathID_1126" transform="matrix(1, 0, 0, 1, -221.5, -59.5)">
<path style="fill:#FFFFFF;fill-opacity:0.498039" d="M751 153L751 244L660 244L660 153L751 153" />
<path style="fill:none;stroke-width:1;stroke-linecap:round;stroke-linejoin:round;stroke-miterlimit:3;stroke:#0000FF;stroke-opacity:1" d="M751 153L751 244L660 244L660 153L751 153z" />
</g>
<g id="PathID_1127" transform="matrix(1, 0, 0, 1, -221.5, -59.5)">
<path style="fill:#FFFFFF;fill-opacity:0.498039" d="M817 153L817 244L753 244L753 153L817 153" />
<path style="fill:none;stroke-width:1;stroke-linecap:round;stroke-linejoin:round;stroke-miterlimit:3;stroke:#0000FF;stroke-opacity:1" d="M817 153L817 244L753 244L753 153L817 153z" />
</g>
<g id="PathID_1128" transform="matrix(1, 0, 0, 1, -221.5, -59.5)">
<path style="fill:#FFFFFF;fill-opacity:0.498039" d="M286 60L286 151L222 151L222 60L286 60" />
<path style="fill:none;stroke-width:1;stroke-linecap:round;stroke-linejoin:round;stroke-miterlimit:3;stroke:#0000FF;stroke-opacity:1" d="M286 60L286 151L222 151L222 60L286 60z" />
</g>
<g id="PathID_1129" transform="matrix(1, 0, 0, 1, -221.5, -59.5)">
<path style="fill:#FFFFFF;fill-opacity:0.498039" d="M379 60L379 151L288 151L288 60L379 60" />
<path style="fill:none;stroke-width:1;stroke-linecap:round;stroke-linejoin:round;stroke-miterlimit:3;stroke:#0000FF;stroke-opacity:1" d="M379 60L379 151L288 151L288 60L379 60z" />
</g>
<g id="PathID_1130" transform="matrix(1, 0, 0, 1, -221.5, -59.5)">
<path style="fill:#FFFFFF;fill-opacity:0.498039" d="M472 60L472 151L381 151L381 60L472 60" />
<path style="fill:none;stroke-width:1;stroke-linecap:round;stroke-linejoin:round;stroke-miterlimit:3;stroke:#0000FF;stroke-opacity:1" d="M472 60L472 151L381 151L381 60L472 60z" />
</g>
<g id="PathID_1131" transform="matrix(1, 0, 0, 1, -221.5, -59.5)">
<path style="fill:#FFFFFF;fill-opacity:0.498039" d="M658 60L658 151L567 151L567 60L658 60" />
<path style="fill:none;stroke-width:1;stroke-linecap:round;stroke-linejoin:round;stroke-miterlimit:3;stroke:#0000FF;stroke-opacity:1" d="M658 60L658 151L567 151L567 60L658 60z" />
</g>
<g id="PathID_1132" transform="matrix(1, 0, 0, 1, -221.5, -59.5)">
<path style="fill:#FFFFFF;fill-opacity:0.498039" d="M751 60L751 151L660 151L660 60L751 60" />
<path style="fill:none;stroke-width:1;stroke-linecap:round;stroke-linejoin:round;stroke-miterlimit:3;stroke:#0000FF;stroke-opacity:1" d="M751 60L751 151L660 151L660 60L751 60z" />
</g>
<g id="PathID_1133" transform="matrix(1, 0, 0, 1, -221.5, -59.5)">
<path style="fill:#FFFFFF;fill-opacity:0.498039" d="M817 60L817 151L753 151L753 60L817 60" />
<path style="fill:none;stroke-width:1;stroke-linecap:round;stroke-linejoin:round;stroke-miterlimit:3;stroke:#0000FF;stroke-opacity:1" d="M817 60L817 151L753 151L753 60L817 60z" />
</g>
</svg>
