<?xml version="1.0" encoding="utf-8"?>
<svg version="1.1" id="Layer_1"
xmlns="http://www.w3.org/2000/svg"
xmlns:xlink="http://www.w3.org/1999/xlink"
width="40px" height="36px"
xml:space="preserve">
<g id="PathID_793" transform="matrix(1, 0, 0, 1, 0, 0)">
<path style="fill:#000000;fill-opacity:1" d="M39.85 10.3Q40.3 13.2 39.55 15.35Q39.25 16.3 38 18.1L37.3 18.9L37.25 18.95L36.45 19.7L36.4 19.9L36.6 20.3L38 21.25L38.35 21.5L38.6 21.55Q39.6 21.8 39.6 22.1L39.45 22.35Q39.4 22.8 38 23.6Q36.55 24.35 35.35 24.45L33.55 24.6L33.1 24.5L32.15 24.25L30.65 23.8Q29.55 27.1 26.05 29.85L25.3 30.45Q21.9 32.75 17.1 33.5L12.85 33.75L12.7 33.85L12.6 33.85L12.55 33.9L12.4 33.95L12.3 34L11.9 34.15L10.4 35.05L9.5 35.45L9.05 35.65L7.3 35.85L4.5 35.55Q2.95 35.05 2.85 34.65L2.65 34.45Q2.55 34.15 3.5 33.65L3.75 33.55L4.05 33.25L5.2 32.05L5.35 31.6L5.2 31.4L4.3 30.85L4.3 30.8L3.4 30.15Q1.85 28.65 1.35 27.8Q0.15 25.8 0 22.9Q-0.2 17.4 4.85 13.4Q6.7 11.95 9.05 11Q9.25 9.85 9.75 8.65Q12.85 1.35 22.6 0.1L27.95 0.3Q30.8 0.75 33.2 1.95Q38.95 4.9 39.85 10.3" />
</g>
</svg>
