<?xml version="1.0" encoding="utf-8"?>
<svg version="1.1" id="Layer_1"
xmlns="http://www.w3.org/2000/svg"
xmlns:xlink="http://www.w3.org/1999/xlink"
width="14px" height="14px"
xml:space="preserve">
<g id="PathID_319" transform="matrix(1, 0, 0, 1, 0, 0)">
<linearGradient
id="LinearGradID_178" gradientUnits="userSpaceOnUse" gradientTransform="matrix(0, -0.00787354, 0.00787354, 0, 8.5, 6.45)" spreadMethod ="pad" x1="-819.2" y1="0" x2="819.2" y2="0" >
<stop  offset="0" style="stop-color:#5B5D5E;stop-opacity:0.298039" />
<stop  offset="1" style="stop-color:#B7BABC;stop-opacity:0.298039" />
</linearGradient>
<path style="fill:url(#LinearGradID_178) " d="M0 0L14 0L14 14L0 14L0 0M1 1L1 13L13 13L13 1L1 1" />
</g>
<g id="PathID_320" transform="matrix(1, 0, 0, 1, 0, 0)">
<linearGradient
id="LinearGradID_179" gradientUnits="userSpaceOnUse" gradientTransform="matrix(0, -0.00831604, 0.00831604, 0, 6, 7.15)" spreadMethod ="pad" x1="-819.2" y1="0" x2="819.2" y2="0" >
<stop  offset="0" style="stop-color:#CCCCCC;stop-opacity:0.2" />
<stop  offset="1" style="stop-color:#FFFFFF;stop-opacity:0.298039" />
</linearGradient>
<path style="fill:url(#LinearGradID_179) " d="M1 13L1 1L13 1L13 13L1 13" />
</g>
<g id="PathID_321" transform="matrix(1, 0, 0, 1, 0, 0)">
<linearGradient
id="LinearGradID_180" gradientUnits="userSpaceOnUse" gradientTransform="matrix(0, -0.00831604, 0.00831604, 0, 6, 7.15)" spreadMethod ="pad" x1="-819.2" y1="0" x2="819.2" y2="0" >
<stop  offset="0" style="stop-color:#CCCCCC;stop-opacity:0.2" />
<stop  offset="1" style="stop-color:#FFFFFF;stop-opacity:0.298039" />
</linearGradient>
<path style="fill:url(#LinearGradID_180) " d="M13 1L13 13L1 13L1 1L13 1" />
</g>
<g id="PathID_322" transform="matrix(1, 0, 0, 1, 0, 0)">
<linearGradient
id="LinearGradID_181" gradientUnits="userSpaceOnUse" gradientTransform="matrix(0, -0.00408936, 0.00831604, 0, 6, 4.35)" spreadMethod ="pad" x1="-819.2" y1="0" x2="819.2" y2="0" >
<stop  offset="0" style="stop-color:#EEEEEE;stop-opacity:0" />
<stop  offset="1" style="stop-color:#FFFFFF;stop-opacity:0.298039" />
</linearGradient>
<path style="fill:url(#LinearGradID_181) " d="M13 7.5L1 7.5L1 1L13 1L13 7.5" />
</g>
</svg>
