<?xml version="1.0" encoding="utf-8"?>
<svg version="1.1" id="Layer_1"
xmlns="http://www.w3.org/2000/svg"
xmlns:xlink="http://www.w3.org/1999/xlink"
width="40px" height="36px"
xml:space="preserve">
<g id="PathID_783" transform="matrix(1, 0, 0, 1, 0, 0)">
<path style="fill:#000000;fill-opacity:1" d="M39.85 10.3Q40.3 13.2 39.55 15.35Q39.25 16.3 38 18.1L37.3 18.9L37.25 18.95L36.45 19.7L36.4 19.9L36.6 20.3L38 21.25L38.35 21.5L38.6 21.55Q39.6 21.8 39.6 22.1L39.45 22.35Q39.4 22.8 38 23.6Q36.55 24.35 35.35 24.45L33.55 24.6L33.1 24.5L32.15 24.25L30.65 23.8Q29.55 27.1 26.05 29.85L25.3 30.45Q21.9 32.75 17.1 33.5L12.85 33.75L12.7 33.85L12.6 33.85L12.55 33.9L12.4 33.95L12.3 34L11.9 34.15L10.4 35.05L9.5 35.45L9.05 35.65L7.3 35.85L4.5 35.55Q2.95 35.05 2.85 34.65L2.65 34.45Q2.55 34.15 3.5 33.65L3.75 33.55L4.05 33.25L5.2 32.05L5.35 31.6L5.2 31.4L4.3 30.85L4.3 30.8L3.4 30.15Q1.85 28.65 1.35 27.8Q0.15 25.8 0 22.9Q-0.2 17.4 4.85 13.4Q6.7 11.95 9.05 11Q9.25 9.85 9.75 8.65Q12.85 1.35 22.6 0.1L27.95 0.3Q30.8 0.75 33.2 1.95Q38.95 4.9 39.85 10.3M31.7 3.85Q29.65 2.85 27.25 2.4L22.9 2.3Q14.85 3.35 12.3 9.3L12.05 9.95Q11.6 11.2 11.55 12.4Q11.4 14.25 12.25 15.95Q13.6 18.85 17.25 20.65Q20.6 22.35 25.1 22.15L28.45 21.7L29.45 21.5L30.55 21.65L32.15 22.45L34.95 22.85Q36.7 22.8 36.9 22.3Q36.95 22 35.95 21.55Q34.85 20.95 34.6 20.6Q33.85 19.3 34.35 18.55L35 17.85L35.65 17.15L36.9 14.9Q37.55 13.1 37.15 10.75Q36.4 6.25 31.7 3.85M25.3 24.1Q20.4 24.35 16.65 22.7L15.7 22.3Q11.35 20.1 9.7 16.6Q9 15.1 8.9 13.55Q7.75 14.15 6.75 14.95Q2.6 18.25 2.75 22.75Q2.9 25.2 3.85 26.85L5.55 28.8L6.3 29.3L7.05 29.85Q7.75 30.5 7.25 31.9L6.05 33.15Q5.2 33.8 5.35 34.1L7.35 34.2Q9.05 33.9 10 33.25L11.45 32.2Q12.05 31.8 12.45 31.8L16.85 31.55Q21.3 30.9 24.3 28.55Q27.05 26.35 28 23.75L25.3 24.1" />
<path style="fill:#FFFFFF;fill-opacity:1" d="M37.15 10.75Q37.55 13.1 36.9 14.9L35.65 17.15L35 17.85L34.35 18.55Q33.85 19.3 34.6 20.6Q34.85 20.95 35.95 21.55Q36.95 22 36.9 22.3Q36.7 22.8 34.95 22.85L32.15 22.45L30.55 21.65L29.45 21.5L28.45 21.7L25.1 22.15Q20.6 22.35 17.25 20.65Q13.6 18.85 12.25 15.95Q11.4 14.25 11.55 12.4Q11.6 11.2 12.05 9.95L12.3 9.3Q14.85 3.35 22.9 2.3L27.25 2.4Q29.65 2.85 31.7 3.85Q36.4 6.25 37.15 10.75M28 23.75Q27.05 26.35 24.3 28.55Q21.3 30.9 16.85 31.55L12.45 31.8Q12.05 31.8 11.45 32.2L10 33.25Q9.05 33.9 7.35 34.2L5.35 34.1Q5.2 33.8 6.05 33.15L7.25 31.9Q7.75 30.5 7.05 29.85L6.3 29.3L5.55 28.8L3.85 26.85Q2.9 25.2 2.75 22.75Q2.6 18.25 6.75 14.95Q7.75 14.15 8.9 13.55Q9 15.1 9.7 16.6Q11.35 20.1 15.7 22.3L16.65 22.7Q20.4 24.35 25.3 24.1L28 23.75" />
</g>
</svg>
