<?xml version="1.0" encoding="utf-8"?>
<svg version="1.1" id="Layer_1"
xmlns="http://www.w3.org/2000/svg"
xmlns:xlink="http://www.w3.org/1999/xlink"
width="40px" height="39px"
xml:space="preserve">
<g id="PathID_791" transform="matrix(1, 0, 0, 1, 0, 0)">
<path style="fill:#000000;fill-opacity:1" d="M26.35 6.9Q30.05 6.9 32.65 9.5Q35.3 12.1 35.3 15.85Q35.3 18.85 33.55 21.15L33.6 21.2L34.3 21.8L34.6 22.05L35.75 23.1L36.5 23.95L37 24.6L37.6 25.45L38.15 26.4L38.6 27.35L38.95 28.2L39.2 28.95L39.3 29.55L39.4 30.25L39.5 31.1L39.55 31.85L39.45 32.6L39.3 33.6L39.15 34.2L38.35 35.65L38 36.1L37.55 36.55L37 37.05L36.4 37.45L35.75 37.75L35.2 37.95L34.1 38.25L33.5 38.4L33.1 38.5L20.4 38.5L19.95 38.4L18.8 38.25L17.35 37.85L16 37.2L14.7 35.95L13.8 34.6L13.5 33.6L13.15 32.65L13.1 32.2L13.05 31.7L7.5 31.65L7 31.6L5.85 31.45L4.45 31.05L3.1 30.35L1.8 29.1L0.9 27.8L0.55 26.8L0.25 25.8L0.2 25.35L0.05 24.15L0.05 23.1L0.2 22.05L0.65 20.7L1.2 19.4L2 18.15L2.8 17.05L3.6 16.15L4.4 15.35L4.6 15.2L4.75 15.1L5.5 14.55L5.6 14.5L5.75 14.35L5.9 14.25L6.05 14.15L6.15 14.15Q4.45 11.9 4.45 8.95Q4.45 5.2 7.1 2.6Q9.7 0 13.45 0Q17.15 0 19.75 2.6Q22 4.8 22.35 7.8Q24.15 6.9 26.35 6.9" />
</g>
</svg>
