<?xml version="1.0" encoding="utf-8"?>
<svg version="1.1" id="Layer_1"
xmlns="http://www.w3.org/2000/svg"
xmlns:xlink="http://www.w3.org/1999/xlink"
width="1617px" height="630px"
xml:space="preserve">
<g id="PathID_1145" transform="matrix(1, 0, 0, 1, -331.95, -170.4)">
<linearGradient
id="LinearGradID_428" gradientUnits="userSpaceOnUse" gradientTransform="matrix(1.06064, 0, 0, 0.178253, 1130, 129.9)" spreadMethod ="pad" x1="-819.2" y1="0" x2="819.2" y2="0" >
<stop  offset="0" style="stop-color:#DD0000;stop-opacity:1" />
<stop  offset="0.2" style="stop-color:#FE6230;stop-opacity:1" />
<stop  offset="0.376471" style="stop-color:#FEF600;stop-opacity:1" />
<stop  offset="0.686275" style="stop-color:#0D610C;stop-opacity:1" />
<stop  offset="0.882353" style="stop-color:#0000FF;stop-opacity:1" />
<stop  offset="1" style="stop-color:#31019B;stop-opacity:1" />
</linearGradient>
<path style="fill:url(#LinearGradID_428) " d="M1948.05 519.85L1948.05 730.7Q1948.05 764.7 1941.15 782.15Q1934.05 799.6 1922.8 799.6Q1911.45 799.6 1904.35 781.75Q1897.25 763.9 1897.25 730.7L1897.25 541.85Q1897.25 485.8 1890.35 456.35Q1883.2 426.45 1862.3 426.45Q1848.7 426.45 1837.5 444.7Q1826.3 462.55 1821.05 494.1Q1817.3 519.4 1817.3 588.75L1817.3 730.7Q1817.3 765.15 1810.2 782.55Q1802.9 799.6 1791.55 799.6Q1780.5 799.6 1773.4 781.75Q1766.3 763.9 1766.3 730.7L1766.3 403.2Q1766.3 370.85 1772.65 355.05Q1779 338.9 1790.05 338.9Q1796.75 338.9 1802.2 345.95Q1807.6 353 1810.95 367.1Q1814.15 381.2 1814.15 401.55L1814.15 415.25Q1827.6 375.8 1843.65 357.55Q1859.5 338.9 1880.25 338.9Q1900.4 338.9 1916.3 358.4Q1932.15 377.9 1940 413.6Q1945.05 434.35 1946.55 458.4Q1948.05 482.5 1948.05 519.85M1643.05 356.75Q1648.65 374.6 1649.2 409.45Q1658.35 374.6 1668.1 356.75Q1677.6 338.9 1693.65 338.9Q1709.75 338.9 1724.85 356.75Q1739.95 374.6 1739.95 404.05Q1739.95 424.8 1733.6 438.5Q1727.1 451.75 1719.65 451.75Q1716.8 451.75 1706.15 444.3Q1695.35 436.4 1687.1 436.4Q1675.9 436.4 1668.8 449.7Q1661.7 462.55 1657.8 488.3Q1653.9 514.05 1652.35 549.7Q1650.9 585 1650.9 636.05L1650.9 730.7Q1650.9 765.15 1643.6 782.55Q1636.3 799.6 1625.1 799.6Q1614.1 799.6 1607 782.15Q1599.9 764.7 1599.9 730.7L1599.9 415.25Q1599.9 338.9 1624.75 338.9Q1637.45 338.9 1643.05 356.75M1352.05 194.85Q1359 209 1359 231.8Q1359 254.65 1351.9 268.75Q1344.8 282.45 1330.6 282.45L1270.1 282.45L1270.1 724.45Q1270.1 762.65 1262.45 781.3Q1254.75 799.6 1242.65 799.6Q1230.3 799.6 1222.65 780.9Q1214.8 762.2 1214.8 724.45L1214.8 282.45L1154.3 282.45Q1140.1 282.45 1133.2 268.75Q1126.25 254.65 1126.25 231.8Q1126.25 208.15 1133.55 194.45Q1140.65 180.75 1154.3 180.75L1330.6 180.75Q1345 180.75 1352.05 194.85M1411.65 355.9Q1418.75 372.9 1418.75 406.55L1418.75 587.9Q1418.75 627.35 1421.75 654.3Q1424.7 680.85 1432.55 696.25Q1440.2 711.15 1453.5 711.15Q1466.35 711.15 1477.75 694.15Q1489.15 677.15 1494.4 649.75Q1498.7 625.65 1498.7 544.35L1498.7 406.55Q1498.7 372.9 1505.75 355.9Q1512.9 338.9 1524.25 338.9Q1535.65 338.9 1542.6 355.9Q1549.5 372.5 1549.5 406.55L1549.5 734.85Q1549.5 767.2 1542.95 783.4Q1536.2 799.6 1525.75 799.6Q1515.3 799.6 1508.6 782.95Q1501.65 765.95 1501.65 735.65L1501.65 721.15Q1492.5 746.85 1482.45 764.3Q1472.35 781.75 1460.4 790.45Q1448.45 798.75 1433.1 798.75Q1414.65 798.75 1400.05 781.75Q1385.3 764.7 1377.25 734.85Q1367.75 698.7 1367.75 631.05L1367.75 406.55Q1367.75 372.5 1374.65 355.9Q1381.55 338.9 1392.95 338.9Q1404.55 338.9 1411.65 355.9M996.3 187Q1002.45 203.15 1002.45 235.1L1002.45 734.85Q1002.45 767.2 995.7 783.4Q989 799.6 978.35 799.6Q967.9 799.6 961.2 782.95Q954.25 765.95 954.25 734.85L954.25 723.6Q944 749.75 934.1 766.35Q924 782.55 912.4 791.3Q900.65 799.6 886.85 799.6Q868.5 799.6 853 782.55Q837.35 765.15 825.95 733.15Q814.55 701.2 808.75 658.05Q802.8 614.9 802.8 564.65Q802.8 458.4 826.15 399.05Q849.5 339.7 887.6 339.7Q909.65 339.7 924.75 356.75Q939.85 373.35 954.25 408.2L954.25 240.95Q954.25 206.05 960.6 188.2Q966.8 170.4 978.35 170.4Q989.95 170.4 996.3 187M695.95 338.9Q716.15 338.9 732 358.4Q747.9 377.9 755.75 413.6Q760.75 434.35 762.25 458.4Q763.75 482.5 763.75 519.85L763.75 730.7Q763.75 764.7 756.85 782.15Q749.75 799.6 738.55 799.6Q727.15 799.6 720.05 781.75Q712.95 763.9 712.95 730.7L712.95 541.85Q712.95 485.8 706.05 456.35Q698.95 426.45 678.05 426.45Q664.4 426.45 653.2 444.7Q642 462.55 636.75 494.1Q633 519.4 633 588.75L633 730.7Q633 765.15 625.95 782.55Q618.65 799.6 607.25 799.6Q596.25 799.6 589.1 781.75Q582.05 763.9 582.05 730.7L582.05 403.2Q582.05 370.85 588.4 355.05Q594.7 338.9 605.75 338.9Q612.5 338.9 617.9 345.95Q623.3 353 626.65 367.1Q629.85 381.2 629.85 401.55L629.85 415.25Q643.3 375.8 659.35 357.55Q675.25 338.9 695.95 338.9M902.15 423.55Q888.15 423.55 877.1 441.4Q866.1 458.85 860.15 492.05Q853.95 524.8 853.95 568.4Q853.95 614.45 860.5 646.85Q866.85 679.2 878.05 695.8Q889.25 712 902.5 712Q916 712 927.2 696.65Q938.2 680.85 944.9 648.9Q951.45 616.55 951.45 568.4Q951.45 523.15 944.9 490.8Q938.2 458 927 441Q915.6 423.55 902.15 423.55M532.15 194.05Q538.5 206.9 538.5 228.05Q538.5 249.65 532.15 262.95Q525.65 275.8 512.35 275.8L387.4 275.8L387.4 425.2L502.45 425.2Q515.15 425.2 521.5 438.1Q527.65 450.55 527.65 471.3Q527.65 492.05 521.5 505.3Q515.35 518.2 502.45 518.2L387.4 518.2L387.4 691.25L516.65 691.25Q529.75 691.25 536.45 704.95Q543 718.25 543 740.65Q543 762.2 536.45 775.9Q529.75 789.2 516.65 789.2L365.95 789.2Q347.85 789.2 340 771.35Q331.95 753.5 331.95 713.65L331.95 256.3Q331.95 229.75 335.5 213.15Q339.05 196.1 346.7 188.65Q354.2 180.75 365.95 180.75L512.35 180.75Q525.65 180.75 532.15 194.05" />
</g>
</svg>
