<?xml version="1.0" encoding="utf-8"?>
<svg version="1.1" id="Layer_1"
xmlns="http://www.w3.org/2000/svg"
xmlns:xlink="http://www.w3.org/1999/xlink"
width="500px" height="173px"
xml:space="preserve">
<g id="PathID_483" transform="matrix(1, 0, 0, 1, 300, 128.45)">
<path style="fill:#000000;fill-opacity:0.00392157" d="M98.2 -115.5L101.7 -115.8L102.05 -115.85L105.85 -115.7L105.9 -115.5L106.25 -115.5L106.6 -115.5L114.25 -115L114.3 -114.8L117.4 -114.65L117.45 -114.45L117.8 -114.45L122.35 -114.45L122.7 -114.45L128.6 -114.3L128.65 -114.1L134.9 -113.95L134.9 -113.75L135.6 -113.75L135.95 -113.75L145.4 -113.25L145.4 -113.05L145.75 -113.05L153.45 -112.55L153.45 -112.35Q156.6 -112.35 158.45 -111.05Q158.55 -110.95 158.7 -110.95Q160.15 -109.1 162.15 -107.7L162.2 -107.45Q161.45 -103 158.65 -100.55L158.35 -100.45Q157.15 -97 155.65 -93.8L155.55 -93.45Q150.2 -91.5 142.25 -91.6L129 -92.05L128.9 -91.75L127.95 -88.55L127.85 -88.25L118.85 -69.7Q120.1 -66.45 125.9 -66.9L139.5 -67.8L152.4 -67.95Q155.45 -67.1 155.9 -63.75L155.9 -63.4Q156 -60.85 154.9 -58L153 -52.7Q151.75 -49.2 149.95 -46.6L149.95 -45.2L149.95 -44.85L149.95 -44.65Q143.7 -43.4 135.95 -43.8L135.6 -43.8L133.2 -43.8L132.85 -43.75Q127.75 -42.55 123.4 -43.8L123.05 -43.75L119.55 -43.45L119.55 -43.3Q118.3 -43.4 117.45 -44.15L117.15 -44.25L116.05 -44.5L116 -44.15Q114.3 -39.05 114.3 -32.25L114.3 -23.15L114.3 -22.8Q114.7 -21.85 115.25 -21L115.35 -20.7Q116.55 -19.5 118.15 -18.7L118.5 -18.6Q121.4 -16.3 122.95 -12.65L123.05 -12.3Q124.1 -11.25 125.8 -10.75L125.85 -10.55L134.9 -9L134.9 -8.8Q136.9 -8.85 138.35 -8.3L138.4 -8.1L150.95 -4.45L151 -4.25L153.45 -3.75L153.45 -3.55L154.45 -3.4L154.5 -3.2Q156.6 -3.05 158.3 -2.35L158.35 -2.15L161.15 -1.65L161.15 -1.5L163.6 -0.95L163.6 -0.8L166.75 -0.25L166.75 -0.1L170.6 0.45L170.6 0.6L173.05 0.8L173.05 0.95L180.05 1.5L180.05 1.65L184.2 2.2L184.25 2.35Q186.55 2.35 188.4 2.9L188.45 3.05L194.75 2.75L195.1 2.7L195.1 2.35L199.65 2.05L200 2L200 2.35L200 2.7L200 5.85L200 6.2L199.8 6.25Q198.65 11.85 196.15 16L195.9 16.1L192.65 19.15L192.55 19.45Q191.65 20.6 190.2 21.25L190.1 21.5L189.15 22.3L189.05 22.55L187.75 23.7L187.65 23.95L183.2 28.25L183.1 28.5Q180.1 31.65 175.15 32.8L175.1 33.05Q174.05 33.8 173.4 34.9L173.15 35Q171.75 36.05 169.9 36.65L169.55 36.6Q165.7 35.95 161.85 36.65L161.6 36.55Q158.7 34.05 155.9 33.15L155.85 32.85L153.8 30.35L153.5 30.3L151 29.65L150.8 29.55Q149.5 27.85 147.85 26.5L141.15 23.45Q137.75 21.75 134.1 20.65Q127.9 18.8 121.3 17.6L111.45 16.05Q104.2 15.05 96.15 15.95Q91.8 16.4 89.8 14.95L87.35 15.25Q71.45 15.5 60.4 20.55L60.3 20.8L59 21.6Q58.8 21.6 58.8 21.7Q58.3 22.65 57.25 23L57.2 23.35Q56.45 25.35 55.15 26.85L55.15 27.2L55.1 27.4L45 30.35L44.65 30.3Q42.65 29.55 40.8 28.6L40.7 28.35Q37.2 25.55 35.9 20.55L35.75 20.55Q35.7 18 34.85 16.35L34.75 16.65Q34.05 17.8 33.8 19.5Q33.65 19.5 33.6 19.6Q30.5 24.6 26.45 28.6L26.35 28.85L25.05 30L24.95 30.25L17.7 35.6L17.6 35.85L16.65 36.65L16.55 36.9Q15 38.5 12.45 39.1L12.15 39.05Q9.9 38.35 8.25 37L7.9 37.05L2.65 38.4L2.6 38.2Q0.65 37.6 -0.85 36.65L-0.9 36.35Q-5.65 29.55 -8.2 20.55L-8.4 20.5L-9.6 16.7L-9.75 16.65L-10.65 14.25L-10.65 13.9L-10.65 13.55L-10.85 13.5L-11.35 11.45L-11.5 11.4L-12.75 6.9L-12.9 6.9Q-13.05 5.7 -13.45 4.8L-13.6 4.8L-14.85 0.25L-15 0.25Q-15.15 -0.95 -15.55 -1.85L-15.6 -2.15Q-16.4 -3.6 -16.6 -5.65L-16.75 -5.75L-17.3 -7.75L-17.45 -7.8L-19.4 -14.05L-19.55 -14.1L-20.1 -16.5L-20.5 -16.65Q-31 -3.45 -39.65 11.45L-39.9 11.55L-42.45 13.9Q-43.15 15.15 -44.3 16Q-47.05 18.15 -47.35 15.3L-47.35 14.95L-47.35 12.5L-45 4.8L-44.9 4.45L-45.25 4.45L-49.8 4.45L-50.05 4.55Q-52.3 7.4 -54 10.75Q-58.9 12.35 -64.85 12.85L-83.05 14.25L-84 14.65Q-85 15.5 -86 15.75L-97.75 18.45L-97.85 18.75L-98.45 19.5Q-99.45 21.65 -103.1 20.9L-106.3 21.1Q-111.65 22.95 -118.05 24.05L-118.1 23.85Q-121.15 22.8 -121.9 19.5L-121.9 19.15L-121.9 13.9Q-121.05 11.65 -119.7 9.8L-119.45 9.7L-119.45 9.35Q-115.95 6.75 -111.4 5.2L-111.05 5.15Q-108.3 3.75 -104.75 3.1L-104.4 3.05L-104.4 2.7L-102.3 2.35L-101.95 2.35L-100.9 2L-100.55 2Q-99.15 1.7 -99.1 0.6Q-99 -3.9 -103 -6.7L-103.25 -6.65L-104.75 -4.95L-104.85 -4.7Q-105.9 -3.35 -107.9 -2.85L-108 -3.1Q-109.9 -4.55 -110.35 -7.4L-110.4 -7.75Q-111.3 -12.45 -111.05 -18.25Q-111.25 -18.25 -111.3 -18.35Q-113.65 -22.3 -117 -25.25L-117.3 -25.2L-119.1 -23.85L-119.1 -22.45L-119.1 -22.1Q-118.5 -20.8 -118.9 -18.65L-119.1 -18.6L-119.15 -18.25Q-121.55 -3.95 -130.65 3.75L-131 3.8Q-132.05 4.1 -132.4 5.15L-132.7 5.25Q-133.25 5.7 -134.15 5.85L-134.25 6.1Q-134.9 6.5 -135.2 7.25L-135.5 7.35Q-136.7 8.2 -138.35 8.65L-138.35 9L-138.1 10.1L-138 10.4L-125.4 9.4L-125.05 9.35L-124.65 9.15L-124 9L-127.5 19.15L-127.75 19.25Q-132.7 24.95 -138.35 30Q-138.8 31.15 -139.8 31.8L-144.95 35.45Q-152.15 40.85 -163.9 41.6Q-170.45 42 -173.7 44L-173.7 44.35L-174.05 44.35L-174.4 44.35L-174.45 44.1L-180 40.5Q-182.05 38.4 -184.65 36.85L-185.45 36.4Q-188.95 34.8 -190.5 31.4L-190.7 31.35Q-192.8 27.75 -197.5 26.85L-197.55 26.6L-199.95 24.05L-199.95 23.85L-202.75 23Q-212.05 14.35 -227.8 11.5L-250.7 8Q-274.2 5.1 -287.05 16.7L-287.15 16.95L-289.15 18.45L-289.25 18.7Q-291.15 19.8 -293.7 20.2L-294.05 20.15Q-297.1 19.45 -298.25 16.7L-298.5 16.65Q-299.3 15.35 -299.65 13.55L-299.75 13.3L-300 13.2L-300 12.85L-300 7.25Q-299.35 3.35 -297.45 0.7L-297.2 0.6L-297.2 0.25L-292.6 -3.85L-292.3 -3.9L-292.3 -4.25L-292.3 -4.6L-283.85 -12.25L-283.55 -12.3L-283.55 -12.65L-283.55 -13Q-281.15 -17.6 -278.4 -21.8L-278.3 -22.1Q-276.05 -22.65 -275.55 -24.9L-275.5 -25.25L-275.5 -25.6Q-273.55 -25.8 -272.45 -25.15L-272.35 -24.9L-272 -24.9Q-270.75 -24.75 -270.35 -23.85L-270.25 -23.5L-270.3 -23.15Q-271.1 -18.1 -273.05 -14.05L-273.05 -13.35L-273.05 -13Q-273.55 -10.8 -272.05 -10.4L-272 -10.2Q-260.4 -9.8 -250.65 -11.25L-250.3 -11.25L-250.35 -11.6Q-251.55 -14.6 -251.7 -18.6Q-250.4 -21.65 -248.45 -24.15L-248.2 -24.2L-248.2 -24.55L-246 -26.9L-245.75 -27L-245.75 -27.35L-245.75 -27.7Q-244.85 -28.2 -244.25 -29.05L-244 -29.1L-244 -29.45L-244 -29.8Q-242.75 -30.85 -241.8 -32.15L-241.55 -32.25Q-235.2 -42.5 -228.35 -52.25L-228.25 -52.55Q-227.5 -52.85 -227.1 -53.5L-226.85 -53.6Q-224.7 -56.5 -224.6 -59.2Q-224.6 -59.55 -225.1 -59.9L-225.4 -60Q-228.6 -63.05 -230.7 -67.25L-231.3 -67.35Q-241.15 -57 -248.9 -44.15L-249.15 -44.05Q-251.8 -40.55 -254.85 -37.5L-254.95 -37.25Q-256.5 -36 -257.65 -34.35L-257.95 -34.25Q-260.4 -32.55 -263.6 -31.55Q-263.7 -32.15 -264.6 -31.75Q-267.3 -30.45 -268.15 -32.95L-268.15 -33.3L-268.15 -36.45Q-265.95 -38.95 -264.7 -42.4L-264.65 -42.75Q-263.4 -43.6 -262.45 -44.75L-262.2 -44.85L-262.2 -45.2L-261.05 -46.5L-260.8 -46.6L-260.8 -46.95L-260.8 -47.3Q-251.25 -60.3 -242 -73.6L-241.9 -73.9L-242 -74.2Q-242.5 -75.4 -244 -75.65L-244.1 -75.9L-246.1 -77.75L-246.2 -78.05Q-247.7 -80.7 -247.85 -84.75Q-247.3 -84.7 -247.45 -85.45L-247.5 -85.8L-247.85 -85.8L-248.2 -85.8L-248.55 -85.75L-250.3 -85.45L-250.4 -85.15L-251.35 -84.05Q-251.15 -83.3 -251.65 -83.15Q-260.65 -80.9 -264.3 -86.8L-264.3 -87.15L-264.3 -90.3Q-263.25 -93.3 -261.75 -95.85L-261.5 -95.9L-261.5 -96.25Q-259.7 -99 -255.9 -99.75L-255.55 -99.75L-255.55 -100.1Q-254.2 -101 -252.4 -101.45L-252.05 -101.5L-252.05 -101.85L-249.6 -101.85L-249.25 -101.85L-249.25 -102.2L-240.5 -102.55L-240.15 -102.55L-240.15 -102.9Q-239.2 -103.2 -238.85 -104L-238.75 -104.3L-238.75 -104.65Q-236.5 -112.7 -235.6 -121.85Q-235.25 -125.45 -232.8 -126.7L-232.8 -127.05Q-232.05 -127.85 -230.75 -128.25L-230.7 -128.45L-225.8 -128.45L-225.45 -128.45Q-225.5 -127.9 -224.75 -127.95L-224.75 -127.75Q-222.25 -126.6 -220.65 -124.55L-220.55 -124.25Q-219.4 -123.7 -218.7 -122.6L-218.45 -122.5Q-218.35 -121.4 -217.85 -120.7L-217.75 -120.4L-217.8 -120.05Q-218.1 -114.95 -221.25 -112.7L-221.35 -112.4Q-222.7 -110.45 -226.15 -110.6L-226.25 -110.3Q-226.85 -109.55 -227.9 -109.2L-228 -108.95Q-229.15 -107.65 -230.7 -106.75L-230.8 -106.5L-233.5 -104.3L-233.5 -103.95L-233.5 -103.6Q-232.65 -102.6 -230.75 -102.4L-230.7 -102.2L-228.65 -102.05L-228.6 -101.85L-225.15 -101.7L-225.1 -101.5L-219.55 -101L-219.5 -100.8L-217.45 -100.65L-217.4 -100.45L-214.3 -100.3L-214.25 -100.1L-213.9 -100.1L-213.55 -100.1Q-210.4 -100.3 -208.75 -98.95L-208.7 -98.7L-208.7 -94.85L-208.7 -94.5Q-198.25 -94.95 -193.2 -90.05L-192.95 -89.95Q-190.3 -90.15 -189.15 -91.8L-189.1 -92.05Q-181.95 -95.65 -170.2 -94.3Q-168.75 -94.15 -168.8 -95.2Q-174.5 -97.2 -182.45 -97.25Q-190.6 -97.3 -196.1 -96.95L-196.4 -97Q-201.95 -97.95 -204.85 -101.5L-204.85 -101.85L-204.85 -104.3L-202.95 -106.7L-202.75 -106.75L-202.75 -107.1L-199.2 -108.45L-198.9 -108.5L-198.9 -108.85Q-198.2 -108.85 -197.8 -109.15L-197.5 -109.2L-197.5 -109.55Q-195.55 -110.4 -194.55 -112.3L-194.35 -112.35L-194.35 -112.7L-194.35 -113.05Q-192.5 -115.75 -190.9 -118.7L-190.85 -119L-189 -120.65L-188.75 -120.75L-188.75 -121.1L-188.75 -121.45Q-186.35 -125.35 -181.4 -124.8L-181.4 -124.6L-180.75 -124.15L-180.7 -123.9Q-177.35 -121.65 -176.5 -116.9L-176.5 -116.55L-176.3 -116.55Q-176.25 -114.9 -176.85 -113.75Q-176.9 -112.3 -175.85 -111.85L-175.8 -111.65Q-173.15 -111.65 -171.2 -111L-170.9 -110.95L-161.8 -110.1L-161.8 -109.9L-159.7 -109.75L-159.7 -109.55L-156.2 -109.4L-156.2 -109.2Q-152.65 -109.05 -150.3 -107.7L-150.25 -107.45Q-150.55 -102.35 -153.3 -97.95L-153.4 -97.65Q-154.65 -96.8 -155.4 -95.5L-155.5 -95.2Q-155.65 -94.2 -154.4 -94.35Q-146.9 -95.2 -142.55 -91L-142.15 -89.65Q-139 -81.1 -144.65 -75.65L-144.95 -75.55Q-151.05 -72.95 -156.55 -69.7L-156.65 -69.45Q-159.3 -67.35 -161.45 -64.8Q-161 -60.65 -155.05 -61.4L-145.35 -62.25Q-133.45 -62.85 -124.85 -60.1Q-123.65 -59.7 -122.45 -58.9Q-121.5 -58.2 -119.45 -58.5Q-115.85 -61.9 -113.7 -66.8L-113.5 -66.9L-113.55 -67.25Q-115.5 -77.65 -117.7 -87.85L-116.2 -90.25L-115.95 -90.3L-115.95 -90.65Q-114.6 -91.95 -112.1 -92.05L-111.75 -92.05L-109.35 -92.25L-109.3 -92.05L-105.85 -91.55L-105.8 -91.35L-101.25 -91.35L-100.9 -91.35L-100.9 -91.7L-99.2 -92.6L-99.15 -92.75L-96.35 -92.75L-96 -92.75L-95.65 -92.75L-95.65 -93.1L-88.3 -94.5L-87.95 -94.5L-87.9 -94.85Q-87.2 -97.2 -87.95 -99.75L-88.15 -100.15Q-88.25 -101.05 -88.7 -101.15L-98.1 -101.75L-109.05 -102.65Q-113.25 -103.35 -115.25 -105.7L-115.25 -106.05L-115.25 -108.5L-113.05 -112.3L-112.8 -112.35L-112.8 -112.7L-112.8 -113.05Q-111.05 -114.45 -108.6 -115.1L-108.25 -115.15L-108.25 -115.5Q-105.75 -116.5 -102.3 -116.55L-101.95 -116.55L-101.95 -116.9L-98.8 -116.9L-98.45 -116.9L-98.45 -117.25Q-87.9 -117.5 -78.2 -116.75L-78.15 -116.55L-68.75 -115.7L-68.7 -115.5L-66.3 -115.35L-66.25 -115.15L-60 -114.65L-59.95 -114.45L-59.6 -114.45L-56.5 -114.3L-56.45 -114.1L-53.35 -113.6L-53.3 -113.4Q-51.55 -113.3 -50.6 -112.3L-50.5 -112Q-49.45 -111.3 -48.85 -110.2L-48.75 -109.9L-48.6 -109.85Q-47.9 -107.15 -49.45 -106.4Q-54 -102.55 -62.05 -102Q-69.55 -101.5 -75.7 -99.4L-75.8 -99.15L-78.15 -96.25L-78.15 -95.9L-78.15 -95.55Q-77.45 -93.3 -74.3 -93.3L-74.3 -93.1Q-73.2 -93.35 -72.8 -92.85Q-72.75 -92.75 -72.55 -92.75Q-63.7 -92.9 -57.15 -90.7L-56.8 -90.65Q-53.85 -91.55 -51.2 -92.7L-50.85 -92.75Q-48.1 -92.55 -46.05 -91.6L-45.95 -91.35Q-44.7 -91.1 -43.95 -90.25L-43.85 -89.95Q-42.65 -89.95 -42.2 -89.2L-42.1 -88.9L-42.1 -87.85L-42.1 -87.5Q-40.35 -85.3 -37.55 -84.1L-37.25 -84.05L-37.25 -84.35Q-40.55 -99.95 -43.5 -115.85Q-42.9 -119.6 -41.3 -122.45L-41.05 -122.5L-41.05 -122.85L-35.5 -122.35L-35.5 -122.15Q-34.05 -121.5 -33.1 -120.35L-33.05 -120.05L-31.55 -118.75L-31.3 -118.65Q-30.7 -117.15 -30.25 -115.5L-30.25 -115.15L-30.25 -112L-30.25 -111.65Q-29.15 -103.65 -27.45 -96.25L-27.45 -95.9Q-26.9 -93.15 -27.05 -89.6L-27.1 -89.25L-25.4 -82.6L-25.35 -82.3Q-23.25 -83.55 -22.55 -86.15L-22.55 -86.45Q-15.1 -88.85 -5.45 -89.55Q-2.25 -89.8 0.7 -91.15Q4.6 -92.9 9.05 -94.2Q14.55 -95.7 18.2 -93.35Q28.1 -87 43.15 -89.9Q48.55 -90.95 53.1 -93.35L56.2 -94.85L56.2 -95.2Q56 -95.2 55.95 -95.3Q55 -96.8 54.45 -98.7L54.25 -98.75Q53.85 -100.6 53.75 -102.55Q54.7 -106.5 56.65 -109.5L56.9 -109.55L56.9 -109.9L58.55 -111.4L58.65 -111.65Q60.15 -112.6 62.15 -113L62.5 -113.05L62.5 -113.4L64.6 -114.05L64.95 -114.1L64.95 -114.45L86.65 -115.15L87 -115.15L87.35 -115.15L87.35 -115.5Q92.45 -115.8 97.85 -115.7L97.85 -115.5L98.2 -115.5M7.35 -113.55Q6.2 -111.6 6 -109.15Q5.65 -104.5 3.7 -101.85L3.65 -101.65Q-0.65 -99.05 -5.05 -96.6L-5.35 -96.65Q-8.25 -97.6 -9.25 -100.45Q-9.4 -100.45 -9.45 -100.55Q-11.3 -104.85 -12.05 -110.25Q-11.25 -111.05 -11.15 -112.7L-11 -112.7L-11 -113.05L-11 -113.4Q-2.65 -112.15 5.8 -113.75L6.15 -113.75Q8.85 -116.1 7.35 -113.55M64.7 -89.35Q64.75 -89.25 64.95 -89.25Q64.15 -75.2 65.5 -61.35Q65.55 -60.7 67.05 -60.9L67.75 -60.95L67.75 -61.3Q70.7 -62.55 74.4 -63L74.75 -63.05L74.75 -63.4Q76.4 -63.65 77.85 -64.25L77.9 -64.45Q77.9 -69.05 75.1 -71.95L75.1 -71.45L75.1 -69L75.1 -68.65Q75.35 -67.35 74.75 -66.9Q74.15 -66.25 73.55 -66.45Q71.55 -67.05 71.25 -71.45L71.05 -71.5Q70.9 -71.95 70.9 -72.5L70.7 -72.5Q70.55 -73.35 70.55 -74.25Q71.5 -74.3 71.85 -73.8L71.95 -73.55L72.3 -73.55Q75.65 -73.25 73.65 -76.65Q73.2 -77.4 73 -78.45L72.75 -78.5Q69 -83.85 67.4 -91.35L67.05 -91.4L63.9 -92.05Q64 -90.45 64.7 -89.35M38 5.15L38 4.8L38 4.45L37.65 4.5L24.7 4.1L24.35 4.1Q21.55 4.15 19.45 4.8Q19.2 7 21.2 7.1L21.2 7.25Q26.85 9.65 35.1 9.25L35.55 9.2L35.55 9Q36.95 8.65 37.15 6.95L37.3 6.9L37.3 6.55L37.3 6.2L37.9 5.45L38 5.15M-296.15 -103.6L-296.15 -103.95L-294.5 -105.45L-294.4 -105.7L-290.2 -106.75L-289.85 -106.75L-289.85 -107.1L-272.35 -108.5L-272 -108.5L-268.95 -107.3L-268.85 -107.1L-268.85 -106.75Q-269 -103.2 -271.3 -101.85L-271.4 -101.65L-276.55 -98.7L-276.65 -98.45Q-277.2 -97.65 -278.3 -97.3Q-280.75 -94.7 -284.95 -93.9Q-286.45 -93.6 -287.85 -92.95Q-294.2 -90.1 -297.55 -94.15L-297.75 -94.2Q-298.2 -97.05 -298.25 -100.1Q-297.65 -101.95 -296.4 -103.2L-296.15 -103.25L-296.15 -103.6M-281.8 -76.7L-281.8 -77.05L-279.7 -78.05L-279.35 -78.1Q-278.8 -78.75 -277.6 -78.8L-277.25 -78.8L-277.25 -79.15Q-273.55 -80.35 -269.2 -80.7L-269.2 -80.55L-269.25 -80.2Q-269.9 -75.1 -271.3 -70.75L-271.55 -70.65Q-272.7 -69.3 -274.1 -68.3Q-277.65 -65.55 -281.95 -63.65Q-286.55 -61.65 -291.5 -60Q-295.85 -58.55 -297.9 -60.95L-297.9 -61.3L-297.9 -65.15Q-297.2 -67.25 -295.9 -68.7L-295.8 -69L-295.8 -69.35Q-294.45 -71.1 -291.95 -71.75L-291.6 -71.8L-291.6 -72.15L-290.55 -72.5L-290.2 -72.5L-290.2 -72.85L-286 -74.5L-285.65 -74.6L-285.65 -74.95Q-283.7 -75.6 -282.1 -76.6L-281.8 -76.7M-269.55 -52.9Q-268.55 -50.9 -268.5 -48L-268.5 -47.65L-268.6 -47.35Q-269.95 -44.35 -271.65 -41.7L-271.9 -41.6Q-274.4 -38.7 -277.6 -36.45L-277.7 -36.25L-279.7 -35.05L-279.8 -34.85Q-282.4 -33.05 -284.6 -30.85L-284.7 -30.65Q-288.85 -28.45 -293.35 -26.65L-293.7 -26.7Q-295.7 -27.3 -296.85 -28.75L-296.85 -29.1L-297.2 -31.9Q-296.95 -35 -295.55 -36.85L-295.45 -37.15L-295.45 -37.5Q-294.4 -38.4 -293.45 -39.35L-293.35 -39.6Q-291.95 -40.1 -290.85 -40.9L-290.55 -41Q-283 -50.6 -269.9 -52.85L-269.55 -52.9M-218.25 -44.05Q-227.15 -26.25 -239.45 -11.95L-239.45 -11.6Q-236.7 -8.95 -230.35 -9.2Q-224.1 -9.45 -218.65 -11.7L-215.3 -13L-213.15 -15.4L-212.85 -15.45Q-210.65 -22.9 -210.9 -33.3Q-211.1 -39.8 -212.25 -44.85Q-212.95 -47.75 -215.3 -49.05Q-216.95 -46.65 -218.25 -44.05M-21.5 -63.05Q-21.7 -59.5 -19.4 -58.5Q-17.2 -58.95 -17.8 -62.35Q-18 -63.4 -18.5 -64Q-20.2 -66.1 -21.5 -63.4L-21.5 -63.05M-24.65 -27.35L-24.95 -27.4Q-30.6 -28.95 -33.4 -25.95Q-33.65 -20.1 -32.85 -15.15L-32.7 -15.1L-32.7 -15.45L-32.35 -15.45L-32.35 -15.8Q-29.15 -18.45 -26.6 -21.7L-26.4 -21.75L-25.25 -23.8L-25 -23.85L-25 -24.2L-25 -24.55Q-23.9 -25.25 -24.55 -27.05L-24.65 -27.35M-158.4 5.35Q-168.05 3.4 -178.6 4.45Q-177.85 6.7 -174.75 6.75L-174.75 6.9L-174.4 6.9L-170.2 7.45L-170.2 7.6L-169.5 7.6L-169.15 7.6L-163.6 8.15L-163.55 8.3L-159.4 8.85L-159.35 9L-159 9.05L-152 9.35L-152.1 9.1Q-153.65 7.7 -155.85 6.9L-155.9 6.7Q-156.6 6.3 -156.9 5.5L-157.6 5.5L-158.4 5.35" />
</g>
</svg>
