<?xml version="1.0" encoding="utf-8"?>
<svg version="1.1" id="Layer_1"
xmlns="http://www.w3.org/2000/svg"
xmlns:xlink="http://www.w3.org/1999/xlink"
width="242px" height="156px"
xml:space="preserve">
<g id="PathID_702" transform="matrix(1, 0, 0, 1, -138.75, -212.7)">
<path style="fill:#376EB1;fill-opacity:1" d="M332.3 220.45L335.05 222.7Q340.9 227.6 345.25 232.2L352.35 239.5Q353.6 240.85 356.85 245.6L362.2 253.05Q364.35 256.05 367.05 261.45L371.15 269.6L374.2 277.35L376.6 284.2L377.7 289.15Q378.45 292.25 378.6 295.55Q378.8 299.65 379.3 302.95Q380 307.4 379.85 309.7L379.1 316.35Q378.8 320.95 377.65 325.3L376.05 330.4Q375.3 332.65 369.1 343.55Q368.45 344.8 365.9 347.25L361.7 351.5Q360.1 353.25 356.55 355.7L351.3 359.2Q349.55 360.35 345.4 362L340.4 363.95Q335.05 366.2 330.2 366.45Q327.85 366.6 324.9 367.7L321.5 368.7L206.45 368.55L202.1 367.9L191.55 366.65L178.65 363.05Q183.9 366.1 166.3 357Q164.8 355.15 154.7 345.95Q154.6 345.3 146.4 334.15L143.6 325.4L140.55 316.8L140.05 312.6Q138.85 303.35 138.8 301.85Q138.6 298.8 139.05 292.6Q139.6 285.95 140.4 283.25Q141.65 279 144.5 271.25Q147.8 261.9 149.2 259.65L156.45 248.95Q162.2 240.75 163.8 238.8L171.15 230.8Q176.85 224.75 178.4 223.85L180.15 222.7L181.4 221.85L188.45 216.7L188.95 216.4L189.95 215.65L190.55 215.2L191.75 214.35L193.05 213.45L194 212.7L320.7 212.7L325.8 215.45L332.3 220.45" />
</g>
</svg>
