<?xml version="1.0" encoding="utf-8"?>
<svg version="1.1" id="Layer_1"
xmlns="http://www.w3.org/2000/svg"
xmlns:xlink="http://www.w3.org/1999/xlink"
width="460px" height="170px"
xml:space="preserve">
<g id="PathID_960" transform="matrix(1, 0, 0, 1, -486.5, -392.5)">
<path style="fill:#0099FF;fill-opacity:1" d="M944 405L944 550Q944 560 934 560L499 560Q489 560 489 550L489 405Q489 395 499 395L934 395Q944 395 944 405" />
<path style="fill:none;stroke-width:5;stroke-linecap:round;stroke-linejoin:round;stroke-miterlimit:3;stroke:#000099;stroke-opacity:1" d="M934 395L499 395Q489 395 489 405" />
<path style="fill:none;stroke-width:5;stroke-linecap:round;stroke-linejoin:round;stroke-miterlimit:3;stroke:#000099;stroke-opacity:1" d="M489 405L489 550Q489 560 499 560" />
<path style="fill:none;stroke-width:5;stroke-linecap:round;stroke-linejoin:round;stroke-miterlimit:3;stroke:#000099;stroke-opacity:1" d="M499 560L934 560Q944 560 944 550" />
<path style="fill:none;stroke-width:5;stroke-linecap:round;stroke-linejoin:round;stroke-miterlimit:3;stroke:#000099;stroke-opacity:1" d="M944 550L944 405Q944 395 934 395" />
</g>
</svg>
