<?xml version="1.0" encoding="utf-8"?>
<svg version="1.1" id="Layer_1"
xmlns="http://www.w3.org/2000/svg"
xmlns:xlink="http://www.w3.org/1999/xlink"
width="455px" height="635px"
xml:space="preserve">
<g id="PathID_1216" transform="matrix(1, 0, 0, 1, 227.5, 317.5)">
<radialGradient
id="RadialGradID_482" gradientUnits="userSpaceOnUse" gradientTransform="matrix(0.0476685, 0, 0, 0.0476685, 200, -285)" spreadMethod ="pad" cx="0" cy="0" r="819.2" fx="0" fy="0" >
<stop  offset="0"  style="stop-color:#FFCCFF;stop-opacity:1" />
<stop  offset="1"  style="stop-color:#FF3366;stop-opacity:1" />
</radialGradient>
<path style="fill:url(#RadialGradID_482) " d="M225 -315L225 -255L205 -255L205 -295L175 -295L175 -315L225 -315" />
<path style="fill:none;stroke-width:5;stroke-linecap:round;stroke-linejoin:round;stroke-miterlimit:3;stroke:#FF0000;stroke-opacity:1" d="M225 -315L225 -255L205 -255L205 -295L175 -295L175 -315L225 -315z" />
</g>
<g id="PathID_1217" transform="matrix(1, 0, 0, 1, 227.5, 317.5)">
<radialGradient
id="RadialGradID_483" gradientUnits="userSpaceOnUse" gradientTransform="matrix(-0.0476685, 0, 0, 0.0476685, -200, -285)" spreadMethod ="pad" cx="0" cy="0" r="819.2" fx="0" fy="0" >
<stop  offset="0"  style="stop-color:#FFCCFF;stop-opacity:1" />
<stop  offset="1"  style="stop-color:#FF0033;stop-opacity:1" />
</radialGradient>
<path style="fill:url(#RadialGradID_483) " d="M-175 -315L-175 -295L-205 -295L-205 -255L-225 -255L-225 -315L-175 -315" />
<path style="fill:none;stroke-width:5;stroke-linecap:round;stroke-linejoin:round;stroke-miterlimit:3;stroke:#FF0000;stroke-opacity:1" d="M-225 -315L-225 -255L-205 -255L-205 -295L-175 -295L-175 -315L-225 -315z" />
</g>
<g id="PathID_1218" transform="matrix(1, 0, 0, 1, 227.5, 317.5)">
<radialGradient
id="RadialGradID_484" gradientUnits="userSpaceOnUse" gradientTransform="matrix(0.0476685, 0, 0, 0.0476685, 200, 285)" spreadMethod ="pad" cx="0" cy="0" r="819.2" fx="0" fy="0" >
<stop  offset="0"  style="stop-color:#FFCCFF;stop-opacity:1" />
<stop  offset="1"  style="stop-color:#FF3366;stop-opacity:1" />
</radialGradient>
<path style="fill:url(#RadialGradID_484) " d="M205 255L225 255L225 315L175 315L175 295L205 295L205 255" />
<path style="fill:none;stroke-width:5;stroke-linecap:round;stroke-linejoin:round;stroke-miterlimit:3;stroke:#FF0000;stroke-opacity:1" d="M205 295L175 295L175 315L225 315L225 255L205 255L205 295z" />
</g>
<g id="PathID_1219" transform="matrix(1, 0, 0, 1, 227.5, 317.5)">
<radialGradient
id="RadialGradID_485" gradientUnits="userSpaceOnUse" gradientTransform="matrix(0.0476685, 0, 0, 0.0476685, -200, 285)" spreadMethod ="pad" cx="0" cy="0" r="819.2" fx="0" fy="0" >
<stop  offset="0"  style="stop-color:#FFCCFF;stop-opacity:1" />
<stop  offset="1"  style="stop-color:#FF3366;stop-opacity:1" />
</radialGradient>
<path style="fill:url(#RadialGradID_485) " d="M-205 295L-175 295L-175 315L-225 315L-225 255L-205 255L-205 295" />
<path style="fill:none;stroke-width:5;stroke-linecap:round;stroke-linejoin:round;stroke-miterlimit:3;stroke:#FF0000;stroke-opacity:1" d="M-205 295L-175 295L-175 315L-225 315L-225 255L-205 255L-205 295z" />
</g>
</svg>
