<?xml version="1.0" encoding="utf-8"?>
<svg version="1.1" id="Layer_1"
xmlns="http://www.w3.org/2000/svg"
xmlns:xlink="http://www.w3.org/1999/xlink"
width="36px" height="66px"
xml:space="preserve">
<g id="PathID_708" transform="matrix(1, 0, 0, 1, -154.55, -273.55)">
<path style="fill:#000000;fill-opacity:1" d="M154.55 339.05Q156.8 329.3 158.05 326.8L160.2 321.6L163.3 313.55Q164.8 309.8 167.35 305.15L170.8 298.8Q173.3 293.8 177.3 288.15L177.55 287.8L178.1 287.05L184.5 278.5L186.8 275.2L190.55 273.55L188.45 280L186 287.05L185.05 289.3Q184.6 290.25 182.7 295.65Q181.25 299.75 179.8 301.8L177.3 305.8L175.8 308.35L171.8 315.3L168 321.7Q165.7 325.6 164.05 327.55Q162.55 329.35 160.6 332.1L158.05 335.55L154.55 339.05" />
</g>
</svg>
