<?xml version="1.0" encoding="utf-8"?>
<svg version="1.1" id="Layer_1"
xmlns="http://www.w3.org/2000/svg"
xmlns:xlink="http://www.w3.org/1999/xlink"
width="410px" height="486px"
xml:space="preserve">
<g id="PathID_1153" transform="matrix(1, 0, 0, 1, 4.7, 4.7)">
<path style="fill:#E6E6E6;fill-opacity:1" d="M0 107.3L184 0L400.25 65.5L239.95 225L120.3 166.15Q0.55 107.3 0 107.3" />
<path style="fill:none;stroke-width:9.45;stroke-linecap:butt;stroke-linejoin:round;stroke-miterlimit:3;stroke:#000000;stroke-opacity:1" d="M120.3 166.15L239.95 225L400.25 65.5L184 0L0 107.3Q0.55 107.3 120.3 166.15z" />
</g>
<g id="PathID_1154" transform="matrix(1, 0, 0, 1, 4.7, 4.7)">
<path style="fill:#E6E6E6;fill-opacity:1" d="M238.25 224.05L241.65 475.6L1.7 337.95Q2.55 338.9 0.85 108.25L238.25 224.05" />
<path style="fill:none;stroke-width:10;stroke-linecap:butt;stroke-linejoin:round;stroke-miterlimit:3;stroke:#000000;stroke-opacity:1" d="M0.85 108.25Q2.55 338.9 1.7 337.95L241.65 475.6L238.25 224.05L0.85 108.25z" />
</g>
<g id="PathID_1155" transform="matrix(1, 0, 0, 1, 4.7, 4.7)">
<path style="fill:#E6E6E6;fill-opacity:1" d="M397.7 308.55L241.65 476.55L239.1 225L400.25 65.5L397.7 308.55" />
<path style="fill:none;stroke-width:9.45;stroke-linecap:butt;stroke-linejoin:round;stroke-miterlimit:3;stroke:#000000;stroke-opacity:1" d="M397.7 308.55L241.65 476.55L239.1 225L400.25 65.5L397.7 308.55z" />
</g>
<g id="PathID_1156" transform="matrix(1, 0, 0, 1, 4.7, 4.7)">
<path style="fill:#000000;fill-opacity:1" d="M222.2 36.45Q222.55 40.95 217.4 45.55Q212.45 50.05 205.35 52.15Q197.6 54.4 191.4 52.4Q183.4 48.25 183.65 42.8Q183.85 38.1 189.8 33.7Q195.35 29.65 202.5 28.05Q210.05 26.35 214.35 28.65Q221.85 31.45 222.2 36.45" />
<path style="fill:none;stroke-width:1;stroke-linecap:butt;stroke-linejoin:miter;stroke-miterlimit:4;stroke:#000000;stroke-opacity:1" d="M214.35 28.65Q210.05 26.35 202.5 28.05Q195.35 29.65 189.8 33.7Q183.85 38.1 183.65 42.8Q183.4 48.25 191.4 52.4Q197.6 54.4 205.35 52.15Q212.45 50.05 217.4 45.55Q222.55 40.95 222.2 36.45Q221.85 31.45 214.35 28.65z" />
</g>
<g id="PathID_1157" transform="matrix(1, 0, 0, 1, 4.7, 4.7)">
<path style="fill:#000000;fill-opacity:1" d="M170.75 67.3Q171.1 71.8 165.95 76.4Q161 80.9 153.9 83Q146.15 85.25 139.95 83.25Q131.95 79.1 132.2 73.65Q132.4 68.95 138.4 64.55Q143.9 60.5 151.1 58.9Q158.6 57.2 162.9 59.5Q170.4 62.3 170.75 67.3" />
<path style="fill:none;stroke-width:1;stroke-linecap:butt;stroke-linejoin:miter;stroke-miterlimit:4;stroke:#000000;stroke-opacity:1" d="M162.9 59.5Q158.6 57.2 151.1 58.9Q143.9 60.5 138.4 64.55Q132.4 68.95 132.2 73.65Q131.95 79.1 139.95 83.25Q146.15 85.25 153.9 83Q161 80.9 165.95 76.4Q171.1 71.8 170.75 67.3Q170.4 62.3 162.9 59.5z" />
</g>
<g id="PathID_1158" transform="matrix(1, 0, 0, 1, 4.7, 4.7)">
<path style="fill:#000000;fill-opacity:1" d="M111.45 105.3Q111.75 109.75 106.65 114.4Q101.7 118.9 94.6 120.95Q86.9 123.2 80.65 121.2Q72.65 117.05 72.9 111.6Q73.1 106.9 79.05 102.55Q84.6 98.45 91.75 96.85Q99.25 95.2 103.55 97.5Q111.1 100.3 111.45 105.3" />
<path style="fill:none;stroke-width:1;stroke-linecap:butt;stroke-linejoin:miter;stroke-miterlimit:4;stroke:#000000;stroke-opacity:1" d="M103.55 97.5Q99.25 95.2 91.75 96.85Q84.6 98.45 79.05 102.55Q73.1 106.9 72.9 111.6Q72.65 117.05 80.65 121.2Q86.9 123.2 94.6 120.95Q101.7 118.9 106.65 114.4Q111.75 109.75 111.45 105.3Q111.1 100.3 103.55 97.5z" />
</g>
<g id="PathID_1159" transform="matrix(1, 0, 0, 1, 4.7, 4.7)">
<path style="fill:#000000;fill-opacity:1" d="M333.75 77.6Q334.1 82.05 328.95 86.7Q324 91.2 316.9 93.25Q309.2 95.5 302.95 93.55Q294.95 89.4 295.2 83.95Q295.4 79.25 301.35 74.85Q306.9 70.75 314.05 69.15Q321.6 67.5 325.9 69.8Q333.4 72.6 333.75 77.6" />
<path style="fill:none;stroke-width:1;stroke-linecap:butt;stroke-linejoin:miter;stroke-miterlimit:4;stroke:#000000;stroke-opacity:1" d="M325.9 69.8Q321.6 67.5 314.05 69.15Q306.9 70.75 301.35 74.85Q295.4 79.25 295.2 83.95Q294.95 89.4 302.95 93.55Q309.2 95.5 316.9 93.25Q324 91.2 328.95 86.7Q334.1 82.05 333.75 77.6Q333.4 72.6 325.9 69.8z" />
</g>
<g id="PathID_1160" transform="matrix(1, 0, 0, 1, 4.7, 4.7)">
<path style="fill:#000000;fill-opacity:1" d="M287.05 110.05Q287.4 114.5 282.25 119.15Q277.3 123.65 270.2 125.7Q262.5 127.95 256.25 125.95Q248.25 121.8 248.5 116.35Q248.7 111.65 254.7 107.3Q260.2 103.2 267.4 101.6Q274.9 99.95 279.2 102.25Q286.7 105.05 287.05 110.05" />
<path style="fill:none;stroke-width:1;stroke-linecap:butt;stroke-linejoin:miter;stroke-miterlimit:4;stroke:#000000;stroke-opacity:1" d="M279.2 102.25Q274.9 99.95 267.4 101.6Q260.2 103.2 254.7 107.3Q248.7 111.65 248.5 116.35Q248.25 121.8 256.25 125.95Q262.5 127.95 270.2 125.7Q277.3 123.65 282.25 119.15Q287.4 114.5 287.05 110.05Q286.7 105.05 279.2 102.25z" />
</g>
<g id="PathID_1161" transform="matrix(1, 0, 0, 1, 4.7, 4.7)">
<path style="fill:#000000;fill-opacity:1" d="M221.45 142.6Q228.95 145.4 229.3 150.4Q229.65 154.85 224.5 159.5Q219.55 164 212.45 166.05Q204.75 168.3 198.5 166.3Q190.5 162.15 190.75 156.7Q190.95 152 196.95 147.65Q202.45 143.55 209.65 141.95Q217.15 140.3 221.45 142.6" />
<path style="fill:none;stroke-width:1;stroke-linecap:butt;stroke-linejoin:miter;stroke-miterlimit:4;stroke:#000000;stroke-opacity:1" d="M209.65 141.95Q202.45 143.55 196.95 147.65Q190.95 152 190.75 156.7Q190.5 162.15 198.5 166.3Q204.75 168.3 212.45 166.05Q219.55 164 224.5 159.5Q229.65 154.85 229.3 150.4Q228.95 145.4 221.45 142.6Q217.15 140.3 209.65 141.95z" />
</g>
<g id="PathID_1162" transform="matrix(1, 0, 0, 1, 4.7, 4.7)">
<path style="fill:#000000;fill-opacity:1" d="M62.3 185.8Q66 192.9 65.9 201.45Q65.8 209.75 62.25 214.55Q58.35 219.75 52.15 217.75Q44.15 213.6 40.55 205.15Q37.45 197.95 38.3 189.55Q39.05 181.8 42.55 177.35Q46.25 172.7 50.55 175Q58.1 177.8 62.3 185.8" />
<path style="fill:none;stroke-width:1;stroke-linecap:butt;stroke-linejoin:miter;stroke-miterlimit:4;stroke:#000000;stroke-opacity:1" d="M50.55 175Q46.25 172.7 42.55 177.35Q39.05 181.8 38.3 189.55Q37.45 197.95 40.55 205.15Q44.15 213.6 52.15 217.75Q58.35 219.75 62.25 214.55Q65.8 209.75 65.9 201.45Q66 192.9 62.3 185.8Q58.1 177.8 50.55 175z" />
</g>
<g id="PathID_1163" transform="matrix(1, 0, 0, 1, 4.7, 4.7)">
<path style="fill:#000000;fill-opacity:1" d="M55.95 286.3Q59.65 293.4 59.6 301.9Q59.5 310.2 55.9 315Q52.05 320.2 45.8 318.2Q37.8 314.05 34.2 305.65Q31.15 298.4 32 290.05Q32.75 282.25 36.25 277.85Q39.95 273.2 44.25 275.5Q51.8 278.3 55.95 286.3" />
<path style="fill:none;stroke-width:1;stroke-linecap:butt;stroke-linejoin:miter;stroke-miterlimit:4;stroke:#000000;stroke-opacity:1" d="M44.25 275.5Q39.95 273.2 36.25 277.85Q32.75 282.25 32 290.05Q31.15 298.4 34.2 305.65Q37.8 314.05 45.8 318.2Q52.05 320.2 55.9 315Q59.5 310.2 59.6 301.9Q59.65 293.4 55.95 286.3Q51.8 278.3 44.25 275.5z" />
</g>
<g id="PathID_1164" transform="matrix(1, 0, 0, 1, 4.7, 4.7)">
<path style="fill:#000000;fill-opacity:1" d="M196.45 267.1Q196.35 275.4 192.8 280.2Q188.9 285.4 182.7 283.4Q174.7 279.25 171.1 270.85Q168 263.6 168.85 255.25Q169.6 247.45 173.1 243.05Q176.8 238.4 181.1 240.7Q188.65 243.5 192.8 251.5Q196.5 258.6 196.45 267.1" />
<path style="fill:none;stroke-width:1;stroke-linecap:butt;stroke-linejoin:miter;stroke-miterlimit:4;stroke:#000000;stroke-opacity:1" d="M192.8 251.5Q188.65 243.5 181.1 240.7Q176.8 238.4 173.1 243.05Q169.6 247.45 168.85 255.25Q168 263.6 171.1 270.85Q174.7 279.25 182.7 283.4Q188.9 285.4 192.8 280.2Q196.35 275.4 196.45 267.1Q196.5 258.6 192.8 251.5z" />
</g>
<g id="PathID_1165" transform="matrix(1, 0, 0, 1, 4.7, 4.7)">
<path style="fill:#000000;fill-opacity:1" d="M190.1 367.55Q190 375.85 186.45 380.65Q182.55 385.85 176.35 383.9Q168.35 379.75 164.75 371.3Q161.65 364.1 162.5 355.7Q163.3 347.95 166.8 343.5Q170.45 338.85 174.8 341.15Q182.35 343.95 186.5 351.95Q190.2 359.05 190.1 367.55" />
<path style="fill:none;stroke-width:1;stroke-linecap:butt;stroke-linejoin:miter;stroke-miterlimit:4;stroke:#000000;stroke-opacity:1" d="M186.5 351.95Q182.35 343.95 174.8 341.15Q170.45 338.85 166.8 343.5Q163.3 347.95 162.5 355.7Q161.65 364.1 164.75 371.3Q168.35 379.75 176.35 383.9Q182.55 385.85 186.45 380.65Q190 375.85 190.1 367.55Q190.2 359.05 186.5 351.95z" />
</g>
<g id="PathID_1166" transform="matrix(1, 0, 0, 1, 4.7, 4.7)">
<path style="fill:#000000;fill-opacity:1" d="M292.85 227.6Q297.45 230.65 299.3 239.2Q301.15 247.8 299.05 256.85Q296.75 266.95 290.3 273.1Q284.7 277.6 280.35 273.2Q276.5 269.35 274.95 260.3Q273.45 251.35 275.05 242.85Q276.8 233.55 281.6 229.6Q287.8 224.25 292.85 227.6" />
<path style="fill:none;stroke-width:1;stroke-linecap:butt;stroke-linejoin:miter;stroke-miterlimit:4;stroke:#000000;stroke-opacity:1" d="M281.6 229.6Q276.8 233.55 275.05 242.85Q273.45 251.35 274.95 260.3Q276.5 269.35 280.35 273.2Q284.7 277.6 290.3 273.1Q296.75 266.95 299.05 256.85Q301.15 247.8 299.3 239.2Q297.45 230.65 292.85 227.6Q287.8 224.25 281.6 229.6z" />
</g>
<g id="PathID_1167" transform="matrix(1, 0, 0, 1, 4.7, 4.7)">
<path style="fill:#000000;fill-opacity:1" d="M371.15 260.05Q375.75 263.1 377.6 271.65Q379.45 280.25 377.35 289.3Q375.05 299.4 368.6 305.55Q363.05 310 358.7 305.65Q354.8 301.75 353.3 292.7Q351.75 283.75 353.35 275.3Q355.1 266 359.9 262.05Q366.1 256.7 371.15 260.05" />
<path style="fill:none;stroke-width:1;stroke-linecap:butt;stroke-linejoin:miter;stroke-miterlimit:4;stroke:#000000;stroke-opacity:1" d="M359.9 262.05Q355.1 266 353.35 275.3Q351.75 283.75 353.3 292.7Q354.8 301.75 358.7 305.65Q363.05 310 368.6 305.55Q375.05 299.4 377.35 289.3Q379.45 280.25 377.6 271.65Q375.75 263.1 371.15 260.05Q366.1 256.7 359.9 262.05z" />
</g>
<g id="PathID_1168" transform="matrix(1, 0, 0, 1, 4.7, 4.7)">
<path style="fill:#FFFFFF;fill-opacity:1" d="M115 155.65Q122.1 159.7 128.35 162.6Q104.5 152.4 79.35 141.1Q21.65 115.1 15.75 107.75Q22.75 95.8 70.15 70.6Q95.1 57.35 130.45 40.5Q83.7 64.15 73.7 89.1Q65.7 109 81.55 128.8Q92.85 143 115 155.65" />
</g>
<g id="PathID_1169" transform="matrix(1, 0, 0, 1, 4.7, 4.7)">
<path style="fill:#000000;fill-opacity:0.247059" d="M367.15 92.65Q347.85 110.6 339.35 117.25L349.15 105.2Q356.45 95.35 358.9 87Q366.35 62 332.2 48.45Q336.55 50.05 363.85 57.05Q389.35 64.05 390.75 67.4Q389.75 71.55 367.15 92.65" />
</g>
<g id="PathID_1170" transform="matrix(1, 0, 0, 1, 4.7, 4.7)">
<path style="fill:#000000;fill-opacity:0.247059" d="M391.55 106.1Q383.15 85.7 347.25 123.6Q352.7 117.2 372 97.75Q393.45 76.1 395.5 76.1Q397.1 78.75 396.7 105.8Q396.35 130.25 395.5 137.85Q394.8 137 394.4 125.05Q394 112.1 391.55 106.1" />
</g>
</svg>
