<?xml version="1.0" encoding="utf-8"?>
<svg version="1.1" id="Layer_1"
xmlns="http://www.w3.org/2000/svg"
xmlns:xlink="http://www.w3.org/1999/xlink"
width="1738px" height="630px"
xml:space="preserve">
<g id="PathID_1148" transform="matrix(1, 0, 0, 1, -261.2, -175.4)">
<linearGradient
id="LinearGradID_441" gradientUnits="userSpaceOnUse" gradientTransform="matrix(1.06064, 0, 0, 0.178253, 1130, 129.9)" spreadMethod ="pad" x1="-819.2" y1="0" x2="819.2" y2="0" >
<stop  offset="0" style="stop-color:#DD0000;stop-opacity:1" />
<stop  offset="0.2" style="stop-color:#FE6230;stop-opacity:1" />
<stop  offset="0.376471" style="stop-color:#FEF600;stop-opacity:1" />
<stop  offset="0.686275" style="stop-color:#0D610C;stop-opacity:1" />
<stop  offset="0.882353" style="stop-color:#0000FF;stop-opacity:1" />
<stop  offset="1" style="stop-color:#31019B;stop-opacity:1" />
</linearGradient>
<path style="fill:url(#LinearGradID_441) " d="M1997.3 463.4Q1998.45 481.5 1998.8 507L1998.85 739.9Q1998.4 770.8 1991.9 787.15Q1984.8 804.6 1973.6 804.6Q1962.25 804.6 1955.1 786.75Q1948.05 768.9 1948.05 735.7L1948.05 546.85Q1948.05 490.8 1941.1 461.35Q1934 431.45 1913.1 431.45Q1899.45 431.45 1888.25 449.7Q1877.05 467.55 1871.8 499.1Q1868.1 524.4 1868.1 593.75L1868.1 735.7Q1868.1 770.15 1861 787.55Q1853.7 804.6 1842.3 804.6Q1831.3 804.6 1824.2 786.75Q1817.1 768.9 1817.1 735.7L1817.1 408.2Q1817.1 375.85 1823.45 360.05Q1829.8 343.9 1840.8 343.9Q1847.55 343.9 1852.95 350.95Q1858.35 358 1861.75 372.1Q1864.9 386.2 1864.9 406.55L1864.9 420.25Q1878.35 380.8 1894.45 362.55Q1910.3 343.9 1931 343.9Q1951.2 343.9 1967.1 363.4Q1982.95 382.9 1990.8 418.6Q1995.85 439.35 1997.3 463.4M1693.8 361.75Q1699.45 379.6 1700 414.45Q1709.15 379.6 1718.85 361.75Q1728.4 343.9 1744.45 343.9Q1760.5 343.9 1775.65 361.75Q1790.75 379.6 1790.75 409.05Q1790.75 429.8 1784.4 443.5Q1777.9 456.75 1770.4 456.75Q1767.6 456.75 1756.95 449.3Q1746.15 441.4 1737.9 441.4Q1726.7 441.4 1719.6 454.7Q1712.5 467.55 1708.6 493.3Q1704.65 519.05 1703.15 554.7Q1701.7 590 1701.7 641.05L1701.7 735.7Q1701.7 770.15 1694.4 787.55Q1687.1 804.6 1675.9 804.6Q1664.9 804.6 1657.8 787.15Q1650.7 769.7 1650.7 735.7L1650.7 420.25Q1650.7 343.9 1675.55 343.9Q1688.2 343.9 1693.8 361.75M1409.75 236.8Q1409.75 259.65 1402.7 273.75Q1395.55 287.45 1381.35 287.45L1320.85 287.45L1320.85 729.45Q1320.85 767.65 1313.2 786.3Q1305.55 804.6 1293.4 804.6Q1281.1 804.6 1273.45 785.9Q1265.6 767.2 1265.6 729.45L1265.6 287.45L1205.1 287.45Q1190.9 287.45 1184 273.75Q1177.05 259.65 1177.05 236.8Q1177.05 213.15 1184.35 199.45Q1191.45 185.75 1205.1 185.75L1381.35 185.75Q1395.75 185.75 1402.85 199.85Q1409.75 214 1409.75 236.8M1443.75 343.9Q1455.35 343.9 1462.45 360.9Q1469.5 377.9 1469.5 411.55L1469.5 592.9Q1469.5 632.35 1472.5 659.3Q1475.5 685.85 1483.35 701.25Q1491 716.15 1504.25 716.15Q1517.15 716.15 1528.55 699.15Q1539.95 682.15 1545.15 654.75Q1549.45 630.65 1549.45 549.35L1549.45 411.55Q1549.45 377.9 1556.55 360.9Q1563.65 343.9 1575.05 343.9Q1586.45 343.9 1593.35 360.9Q1600.25 377.5 1600.25 411.55L1600.25 739.85Q1600.25 772.2 1593.7 788.4Q1587 804.6 1576.55 804.6Q1566.1 804.6 1559.35 787.95Q1552.45 770.95 1552.45 740.65L1552.45 726.15Q1543.3 751.85 1533.2 769.3Q1523.1 786.75 1511.15 795.45Q1499.2 803.75 1483.9 803.75Q1465.45 803.75 1450.85 786.75Q1436.1 769.7 1428.05 739.85Q1418.55 703.7 1418.55 636.05L1418.55 411.55Q1418.55 377.5 1425.45 360.9Q1432.35 343.9 1443.75 343.9M1002.8 189.9Q1012.5 189.9 1020.35 206.1Q1025.6 216.9 1027.1 232.65Q1028.4 248 1028.4 276.65L1028.4 353.85L1047.05 353.85Q1057.9 353.85 1063.7 365.45Q1069.3 376.65 1069.3 394.5Q1069.3 417.35 1061.25 426.5Q1053.05 435.6 1037.9 435.6L1028.4 435.6L1028.4 643.95Q1028.4 670.5 1029.35 685.05Q1030.1 699.15 1033.8 708.3Q1037.35 717 1045.6 717Q1050.05 717 1057.7 713.7Q1065.4 709.95 1069.7 709.95Q1075.8 709.95 1080.9 721.15Q1085.7 731.95 1085.7 748.15Q1085.7 775.5 1072.3 790.05Q1058.85 804.6 1033.6 804.6Q1009.7 804.6 997.4 786.75Q985.05 768.9 981.3 737.35Q977.4 705.8 977.4 653.1L977.4 435.6L970.7 435.6Q959.65 435.6 953.85 424Q948.1 412.35 948.1 394.5Q948.1 376.65 954.25 365.45Q960.2 353.85 971.8 353.85L977.4 353.85L977.4 285.8Q977.4 258.4 978.15 243.05Q978.7 227.25 981.7 216.05Q984.7 204.45 990.3 197.35Q995.9 189.9 1002.8 189.9M765.05 356.75Q771.4 343.9 781.7 343.9Q790.65 343.9 796.6 355.1Q802.4 366.3 810.25 390.35L843.3 490.8L875.45 390.35Q883.45 365.45 889.45 354.65Q895.25 343.9 904 343.9Q914.1 343.9 920.8 356.75Q927.35 369.2 927.35 387.05Q927.35 399.9 924.75 411.95Q921.95 423.55 916.35 439.75L875.45 562.2L921.55 709.1Q932.4 743.55 932.4 761Q932.4 778.85 925.7 791.7Q918.95 804.6 909.05 804.6Q900.3 804.6 894.3 793.35Q888.15 782.15 880.25 757.7L843.3 636.9L805.4 757.7Q797.2 783 791.6 793.8Q785.8 804.6 777 804.6Q767.3 804.6 760.6 791.3Q753.65 777.6 753.65 760.15Q753.65 742.3 764.1 709.1L810.25 562.2L769.35 439.75Q758.7 409.45 758.7 387.05Q758.7 369.6 765.05 356.75M720.8 589.6Q709.75 602.05 689.8 602.05L590.05 602.05Q590.25 640.65 597.15 670.1Q603.85 699.55 615.25 714.5Q626.5 729.45 640.1 729.45Q649.25 729.45 656.9 724.9Q664.4 719.9 671.5 709.95Q678.6 699.55 684.55 687.95Q690.55 676.35 700.05 656.4Q703.95 648.95 711.25 648.95Q719.1 648.95 723.95 658.5Q728.8 668.05 728.8 685.45Q728.8 700.8 723.4 721.55Q718 741.9 707.15 761Q696.15 779.65 679.7 792.1Q663.1 804.6 641.6 804.6Q592.5 804.6 565.2 742.3Q537.95 680.05 537.95 573.4Q537.95 523.2 544.65 480.45Q551.4 437.25 564.25 406.55Q577.15 375.85 596.05 359.65Q614.9 343.05 637.85 343.05Q667.75 343.05 689.25 371.3Q710.5 399.1 721.15 443.5Q731.8 487.9 731.8 533.95Q731.8 576.7 720.8 589.6M668.5 450.95Q656.15 421.9 636.15 421.9Q617.15 421.9 605 451.4Q592.65 480.45 590.05 537.7L682.5 537.7Q680.65 479.6 668.5 450.95M483.4 193.2Q490.3 210.65 490.3 245.95L490.3 724.45Q490.3 804.6 460.45 804.6Q452.95 804.6 447 800Q441 795.05 435.8 784.65Q430.55 774.3 426.05 760.6L417.1 731.95L313.1 377.5L313.1 734Q313.1 768.9 305.8 786.75Q298.5 804.6 287.1 804.6Q275.35 804.6 268.25 786.75Q262 770.65 261.2 742.15L261.25 251.35Q261.9 230.75 264.15 217.7Q267.7 199.05 275.9 187.4Q284.1 175.4 293.65 175.4Q301.15 175.4 306.55 180.75Q311.75 186.15 315.85 195.3Q319.8 204.45 324.1 218.95L332.7 249.25L439.3 607.85L439.3 245.95Q439.3 210.65 446.25 193.2Q452.95 175.4 464.55 175.4Q476.5 175.4 483.4 193.2" />
</g>
</svg>
