<?xml version="1.0" encoding="utf-8"?>
<svg version="1.1" id="Layer_1"
xmlns="http://www.w3.org/2000/svg"
xmlns:xlink="http://www.w3.org/1999/xlink"
width="137px" height="134px"
xml:space="preserve">
<g id="PathID_1062" transform="matrix(1, 0, 0, 1, 0, 0)">
<path style="fill:#000000;fill-opacity:1" d="M72.15 9.65L72.25 10.7L72.25 10.9L64.25 10.9L64.65 10.4L64.95 9.9L65.05 9.5L65.05 9.05L64.4 7.7L63.3 6.7L61.85 6.05L60.3 5.7L55 5.15L49.05 6.55L47.25 7.25L45.95 7.95L43.55 10.35L43.55 10.5L43.65 10.7L43.7 10.9L38.8 10.9L38.8 9.5L38.95 8.25L39.7 6.7L40.6 5.4L42.9 3.45L46.1 1.75L48.6 0.85L52.95 0L58.85 0.15L62.15 0.85L63.6 1.3L66.1 2.45L69.45 4.8L70.95 6.55L71.9 8.6L72.15 9.65" />
</g>
<g id="PathID_1063" transform="matrix(1, 0, 0, 1, 0, 0)">
<path style="fill:#000000;fill-opacity:1" d="M135.2 10.65L136 13.8L136.05 16.9L128.35 16.9L128.65 14.35L128.35 13.3L127.85 12.2L126.85 11.4L125.45 10.9L123.5 10.7L121.05 10.85L119.4 11.35L117.85 12.05L114.6 14.2L114.15 14.6L113.7 14.85L113.3 15.25L112.5 15.85L112.15 16.25L111.7 16.5L111.35 16.9L99.8 16.9L103.2 12.35L105.95 9.75L108.95 7.7L110.55 6.9L117.6 4.4L123.3 3.5L125.7 3.6L129.65 4.6L131.25 5.55L132.5 6.6L134.55 9.2L135.2 10.65" />
</g>
<g id="PathID_1064" transform="matrix(1, 0, 0, 1, 0, 0)">
<path style="fill:#000000;fill-opacity:1" d="M126.75 20.45L127.2 19.75L128.35 16.9L136.05 16.9L136 17.15L136 17.8L135.35 20.05L133.8 23.15L132.25 25.5L129.95 28L127 30.4L123.25 32.4L113.85 35.5L107.3 36.85L105.45 37L103.85 36.85L102.25 39.5L101 42.35L99.8 47.3L99.7 47.6L99.05 49L98.75 49.4L98.45 49.6L98.1 49.75L97.75 49.85L97.3 49.9L96.95 49.85L96.65 49.6L96.5 49.35L96.45 49.05L96.2 48.4L96 48.1L91.45 45.55L90.9 44.9L90.55 44.1L90.25 41.95L90.25 41.5L90.3 41.1L90.6 40.2L91.3 39.05L91.55 38.8L92.25 37.4L93.65 35.2L93.9 34.7L94 34.55L95.7 30.3L96.85 25.85L96.85 24.9L97.25 22.75L98 20.45L99.8 16.9L111.35 16.9L110.25 17.8L106.65 21.7L104.7 24.55L104.45 25.4L104.45 26.2L104.6 26.85L104.95 27.45L105.45 27.95L106.95 28.75L108.95 29L110.1 29L114.15 28.35L115.6 27.85L119.75 25.95L120.85 25.3L124 23.05L126.75 20.45" />
</g>
<g id="PathID_1065" transform="matrix(1, 0, 0, 1, 0, 0)">
<path style="fill:#000000;fill-opacity:1" d="M89.3 40.2L90.75 40L91.3 40.05L91.85 40.2L92.55 40.85L93 41.95L93.1 44.15L93.05 45.1L93.1 45.4L93.35 45.65L93.65 45.8L94.05 45.9L96.85 46.25L97.95 46.55L98.3 46.8L98.65 47.2L98.8 47.6L98.9 48.2L98.75 48.9L98.4 49.75L96 53.5L88.75 61.55L75.5 74.05L16.35 123.25L9.95 127.4L4.8 129.75L4.3 129.55L1.5 127.7L0.15 126.1L0 125.75L0.05 125.3L0.4 124.1L1.05 122.7L1.45 122.15L2.65 119.9L6.9 113.9L19.3 100.75L41.55 79.7L75.2 49.7L86.35 41.6L89.3 40.2" />
</g>
<g id="PathID_1066" transform="matrix(1, 0, 0, 1, 0, 0)">
<path style="fill:#BFBFBF;fill-opacity:1" d="M90.1 40.2L90.75 40.15L91.25 40.2L91.7 40.35L92.25 41L92.55 42.15L92.55 45.55L92.6 45.8L92.75 46.05L93 46.2L93.75 46.4L94.3 46.45L94.7 46.6L95.65 46.8L96.1 46.95L96.75 47.45L96.95 48.4L96.85 49L96.6 49.75L94.65 52.95L88.35 59.95L72.9 74.55L14.55 123.1L10.15 125.9L10.3 126.05L5.7 128.7L5.55 128.6L4.65 128.2L3.3 127.3L1.85 125.95L1.2 125.15L1.15 124.45L1.5 123.5L2.85 121.5L3.65 119.9L9.7 112L19.8 101.7L77.65 48.7L86.65 41.85L88.65 40.7L90.1 40.2" />
</g>
<g id="PathID_1067" transform="matrix(1, 0, 0, 1, 0, 0)">
<path style="fill:#3F3F3F;fill-opacity:1" d="M39.2 98.8L41.75 94.05L44.45 94.15L47.05 89.9L49.85 90L51.8 85.45L53.8 85.95L56.75 81.05L58.9 81.8L60.85 77.5L63.45 78.2L65.4 73.9L67.35 74.9L68.8 72.8L68.4 75.55L68.35 75.6L68.15 75.75L67.85 76.1L27.05 110.5L7.25 125.9L7.05 120.8L10.1 120.7L13.15 115.75L16.5 115.9L18.35 111.8L21.65 112.15L24.55 106.8L28 107.35L30.15 102.85L33.5 103L36.1 98.25L39.2 98.8" />
</g>
<g id="PathID_1068" transform="matrix(1, 0, 0, 1, 0, 0)">
<path style="fill:#000000;fill-opacity:1" d="M57.35 82.75L59.5 83.45L61.45 79.15L64.1 79.95L65.95 75.6L67.9 76.55L69.35 74.4L69 77.25L68.9 77.35L68.7 77.5L68.4 77.85L30.6 109.85L7.85 127.55L7.65 122.5L10.7 122.35L13.75 117.5L17.05 117.55L19 113.45L22.25 113.8L25.15 108.45L28.65 109L30.8 104.5L34.05 104.65L36.75 99.9L39.75 100.45L42.35 95.7L45 95.85L47.6 91.55L50.5 91.65L52.45 87.1L54.35 87.6L57.35 82.75" />
</g>
<g id="PathID_1069" transform="matrix(1, 0, 0, 1, 0, 0)">
<path style="fill:#7F7F7F;fill-opacity:1" d="M57.05 82.35L59.2 83.1L61.15 78.8L63.75 79.55L65.7 75.25L67.65 76.2L69.05 74.05L68.7 76.9L68.65 77L68.4 77.1L68.15 77.5L30.3 109.5L7.55 127.15L7.25 122.15L10.35 122L13.45 117.1L16.7 117.25L18.65 113.15L21.95 113.45L24.85 108.15L28.3 108.7L30.45 104.2L33.75 104.25L36.35 99.55L39.45 100.1L42.05 95.35L44.7 95.5L47.3 91.2L50.1 91.35L52.05 86.8L54 87.3L57.05 82.35" />
</g>
<g id="PathID_1070" transform="matrix(1, 0, 0, 1, 0, 0)">
<path style="fill:#000000;fill-opacity:1" d="M92.6 42.3L93.1 45.1L92.4 57.3L86.55 105.2L82.95 123.45L80.5 131L73.75 131.55L72.25 133.9L70.2 133.2L68.85 125.45L67.7 107.3L68.5 68.8L70.2 50L71.3 45.1L72.45 42.45L73.7 41.3L75.05 41L76.5 40.95L76.9 40.85L78.05 40.85L78.65 40.5L80.1 40.15L89.95 40.45L91.6 40.95L92.6 42.3" />
</g>
<g id="PathID_1071" transform="matrix(1, 0, 0, 1, 0, 0)">
<path style="fill:#BFBFBF;fill-opacity:1" d="M91.75 47.05L89.9 70.25L85.2 105.8L81.6 122.6L79.2 129.55L73.95 130.35L72.5 132.65L71.35 132.4L70.65 129.2L69 108.05L69.7 70.8L71.15 51.5L72.1 46.25L73.05 43.15L74.1 41.65L75.25 41.1L76.5 40.95L76.9 40.85L78.05 40.85L78.55 40.5L79.3 40.3L80.15 40.2L87.8 40.35L89.5 40.65L90.75 41.6L91.45 43.5L91.75 47.05" />
</g>
<g id="PathID_1072" transform="matrix(1, 0, 0, 1, 0, 0)">
<path style="fill:#FFFFFF;fill-opacity:1" d="M89.45 40.85L90.3 44.1L90.55 47.95L84.35 99.15L81.55 114.4L78.35 124.6L76.7 127.3L75.05 128.1L73.8 127.05L72.8 124.25L72 119.9L70.85 99.65L72.5 51.5L74.05 41.35L80.15 40.2L81.15 40.15L87.65 40.65L88.5 40.8L89.45 40.85" />
</g>
<g id="PathID_1073" transform="matrix(1, 0, 0, 1, 0, 0)">
<path style="fill:#000000;fill-opacity:1" d="M85.85 44.4L86.5 44.8L87.6 45.75L88.1 46.9L88.15 47.45L88 48.25L87.6 49L87 49.6L86.15 50.15L85.2 50.55L82.8 51.05L80.25 50.9L79.1 50.65L78 50.25L76.25 49.2L75.7 48.45L75.35 47.75L75.25 46.95L75.35 46.4L75.6 45.8L76 45.3L76.55 44.8L77.15 44.4L77.95 44.05L76.4 45.15L76.05 45.65L75.85 46.2L75.75 46.7L75.85 47.4L76.2 48.05L76.7 48.7L77.4 49.25L79.3 50.15L81.6 50.5L82.75 50.4L84.9 50L85.85 49.55L86.55 49.05L87.15 48.45L87.5 47.85L87.65 47.1L87.6 46.6L87.45 46.05L87.15 45.6L86.7 45.1L85.65 44.3L85.85 44.4" />
</g>
<g id="PathID_1074" transform="matrix(1, 0, 0, 1, 0, 0)">
<path style="fill:#FFFFFF;fill-opacity:1" d="M84.2 43.75L85.15 44.1L86.7 45.1L87.6 46.4L87.65 47.1L87.5 47.85L87.15 48.45L86.55 49.05L85.85 49.55L84.9 50L82.75 50.4L81.6 50.5L79.3 50.15L77.4 49.25L76.7 48.7L76.2 48.05L75.85 47.4L75.75 46.7L75.9 45.95L76.35 45.3L76.9 44.75L77.65 44.25L78.5 43.9L80.65 43.4L83.05 43.5L84.2 43.75" />
</g>
<g id="PathID_1075" transform="matrix(1, 0, 0, 1, 0, 0)">
<path style="fill:#000000;fill-opacity:1" d="M84.5 44.5L83.45 44.1L84.6 44.5L85.05 44.9L85.5 45.15L86.05 45.9L86.2 46.3L86.15 47.3L85.85 47.75L85.4 48.25L84.85 48.6L84.2 48.9L82.55 49.25L80.75 49.2L79.85 49L78.5 48.35L77.95 47.95L77.55 47.45L77.3 46.95L77.2 46.4L77.3 45.95L77.7 45.25L78.05 44.9L78.5 44.6L79.15 44.35L78.35 44.8L78.05 45.1L77.8 45.45L77.65 45.8L77.55 46.2L77.65 46.7L77.85 47.2L79.35 48.35L80.8 48.75L82.45 48.85L83.25 48.7L84 48.45L85.15 47.9L85.55 47.45L85.8 47.05L85.9 46.55L85.8 45.75L85.55 45.4L85.25 45.1L84.5 44.5" />
</g>
<g id="PathID_1076" transform="matrix(1, 0, 0, 1, 0, 0)">
<path style="fill:#BFBFBF;fill-opacity:1" d="M85.2 45.1L85.65 45.55L85.85 46.05L85.9 46.55L85.8 47.05L85.55 47.45L85.15 47.9L84 48.45L83.25 48.7L82.45 48.85L80.8 48.75L79.35 48.35L78.3 47.6L77.85 47.2L77.65 46.7L77.55 46.2L77.7 45.65L77.95 45.25L78.35 44.8L78.85 44.45L80.25 44L81 43.9L82.7 43.95L84.1 44.4L84.75 44.75L85.2 45.1" />
</g>
<g id="PathID_1077" transform="matrix(1, 0, 0, 1, 0, 0)">
<path style="fill:#FFFFFF;fill-opacity:1" d="M52.8 2L47.25 4.15L45.6 5.15L44.2 6.4L43.35 7.85L43 8.7L42.7 9.05L42.55 9.1L42.5 9.1L42.55 8.85L43.35 7.05L44.2 5.8L45.5 4.55L47.4 3.4L49.75 2.45L52.85 1.95L52.8 2" />
</g>
<g id="PathID_1078" transform="matrix(1, 0, 0, 1, 0, 0)">
<path style="fill:#FFFFFF;fill-opacity:1" d="M127.9 8.2L126.7 7.2L125.3 6.55L123.9 6.1L120.8 5.95L117.7 6.45L114.55 7.6L116.75 6.55L119.05 5.9L121.15 5.6L124.55 5.9L125.9 6.4L128.05 7.75L129.5 9.4L130.6 11.4L130.65 11.6L130.6 11.5L127.9 8.2" />
</g>
<g id="PathID_1079" transform="matrix(1, 0, 0, 1, 0, 0)">
<path style="fill:#3F3F3F;fill-opacity:1" d="M6.6 120.95L7.1 121.65L7.25 127.55L4.6 125.6L5.95 125.1L6.6 120.95" />
</g>
<g id="PathID_1080" transform="matrix(1, 0, 0, 1, 0, 0)">
<path style="fill:#FFFFFF;fill-opacity:1" d="M100.75 35.25L100.75 35.6L99.3 43.3L99.25 43.75L98.6 44.95L97.45 46.55L97.3 46.7L97.15 46.75L97.1 46.7L97.1 46.55L97.15 46.25L97.35 45.55L98.25 43.95L98.55 43.1L100.6 35.6L100.75 35.25" />
</g>
<g id="PathID_1081" transform="matrix(1, 0, 0, 1, 0, 0)">
<path style="fill:#FFFFFF;fill-opacity:1" d="M54.9 1.5L54.95 1.75L54.9 1.95L54.75 2L54.6 2.15L54.1 2.15L53.85 2L53.8 1.95L53.7 1.75L53.85 1.35L54.1 1.3L54.3 1.2L54.75 1.35L54.9 1.5" />
</g>
<g id="PathID_1082" transform="matrix(1, 0, 0, 1, 0, 0)">
<path style="fill:#FFFFFF;fill-opacity:1" d="M108.7 10.05L109.05 10L109.4 10.05L109.7 10.2L109.9 10.35L110 10.65L109.9 10.85L109.7 11L109.4 11.15L109.05 11.2L108.7 11.15L108.4 11L108.2 10.85L108.1 10.65L108.2 10.35L108.4 10.2L108.7 10.05" />
</g>
<g id="PathID_1083" transform="matrix(1, 0, 0, 1, 0, 0)">
<path style="fill:#000000;fill-opacity:1" d="M90.55 40.5L90.6 40.7L90.45 40.95L72 43.9L71.6 43.9L70.8 43.5L70.5 43.3L66.4 37.85L63.75 32.7L63.5 32.3L63.4 31.8L60.15 25.3L59.55 24.5L59.25 24.2L56.6 22L56.05 21.45L55.75 21.25L51.3 20.85L47.4 19.95L44.05 18.6L43.05 18.05L41.4 16.75L40.1 15.25L39.3 13.45L38.8 10.9L43.7 10.9L44.05 11.5L45.3 12.7L46.3 13.35L49.1 14.45L53.15 14.8L55.1 14.7L58.6 14.1L60.15 13.6L62.6 12.3L63.5 11.65L64.25 10.9L72.25 10.9L72.1 11.8L71.65 13.3L70.7 14.95L66.25 19.95L66.2 20.25L67.75 23.35L68.25 24.15L71.35 27.5L71.8 27.8L72.15 28.15L82.1 33.95L82.45 34.25L82.8 34.45L90.55 40.5" />
</g>
<g id="PathID_1084" transform="matrix(1, 0, 0, 1, 0, 0)">
<path style="fill:#FFFFFF;fill-opacity:1" d="M63.75 27.15L63.8 27.2L67.65 33.7L68 34.05L68.25 34.45L72.95 38.9L73.15 39.2L73.3 39.5L73.3 39.85L73.15 40.15L72.95 40.3L72.65 40.3L72.4 40.2L72.1 40L67.7 35.6L67.4 35.35L66.6 34.1L63.9 27.5L63.75 27.2L63.75 27.15" />
</g>
</svg>
