<?xml version="1.0" encoding="utf-8"?>
<svg version="1.1" id="Layer_1"
xmlns="http://www.w3.org/2000/svg"
xmlns:xlink="http://www.w3.org/1999/xlink"
width="100px" height="17px"
xml:space="preserve">
<g id="PathID_961" transform="matrix(1, 0, 0, 1, -384.55, -198.05)">
<path style="fill:#333333;fill-opacity:1" d="M479.15 207.3L476.6 208.05L470.7 208.95L462.2 209.1L423.6 202.8L415.35 202.65L408.05 203.65L402 205.35L397 207.55L390.45 212.1L388.05 214.4L384.55 211.8L385.35 210.75L390.5 206.55L400.15 201.2L407.25 199.15L415.15 198.05L428.9 198.8L463.75 204.85L466.9 204.85L479.45 202.6L480.75 201.9L481.55 201.8L481.95 201.5L483.8 205.6L483.35 205.95L481.05 206.5L479.15 207.3" />
</g>
</svg>
